%TF.GenerationSoftware,KiCad,Pcbnew,10.0.0*%
%TF.CreationDate,2026-06-03T23:12:14-07:00*%
%TF.ProjectId,STM32_Drone,53544d33-325f-4447-926f-6e652e6b6963,rev?*%
%TF.SameCoordinates,Original*%
%TF.FileFunction,Legend,Top*%
%TF.FilePolarity,Positive*%
%FSLAX46Y46*%
G04 Gerber Fmt 4.6, Leading zero omitted, Abs format (unit mm)*
G04 Created by KiCad (PCBNEW 10.0.0) date 2026-06-03 23:12:14*
%MOMM*%
%LPD*%
G01*
G04 APERTURE LIST*
%ADD10C,0.087500*%
%ADD11C,0.150000*%
%ADD12C,0.120000*%
%ADD13C,0.203200*%
%ADD14C,0.254000*%
%ADD15C,0.127000*%
%ADD16C,0.200000*%
%ADD17C,0.101600*%
%ADD18C,0.010000*%
G04 APERTURE END LIST*
D10*
X128045000Y-143874033D02*
X128028333Y-143890700D01*
X128028333Y-143890700D02*
X127978333Y-143907366D01*
X127978333Y-143907366D02*
X127945000Y-143907366D01*
X127945000Y-143907366D02*
X127895000Y-143890700D01*
X127895000Y-143890700D02*
X127861667Y-143857366D01*
X127861667Y-143857366D02*
X127845000Y-143824033D01*
X127845000Y-143824033D02*
X127828333Y-143757366D01*
X127828333Y-143757366D02*
X127828333Y-143707366D01*
X127828333Y-143707366D02*
X127845000Y-143640700D01*
X127845000Y-143640700D02*
X127861667Y-143607366D01*
X127861667Y-143607366D02*
X127895000Y-143574033D01*
X127895000Y-143574033D02*
X127945000Y-143557366D01*
X127945000Y-143557366D02*
X127978333Y-143557366D01*
X127978333Y-143557366D02*
X128028333Y-143574033D01*
X128028333Y-143574033D02*
X128045000Y-143590700D01*
X128345000Y-143674033D02*
X128345000Y-143907366D01*
X128261667Y-143540700D02*
X128178333Y-143790700D01*
X128178333Y-143790700D02*
X128395000Y-143790700D01*
X128545000Y-143907366D02*
X128611666Y-143907366D01*
X128611666Y-143907366D02*
X128645000Y-143890700D01*
X128645000Y-143890700D02*
X128661666Y-143874033D01*
X128661666Y-143874033D02*
X128695000Y-143824033D01*
X128695000Y-143824033D02*
X128711666Y-143757366D01*
X128711666Y-143757366D02*
X128711666Y-143624033D01*
X128711666Y-143624033D02*
X128695000Y-143590700D01*
X128695000Y-143590700D02*
X128678333Y-143574033D01*
X128678333Y-143574033D02*
X128645000Y-143557366D01*
X128645000Y-143557366D02*
X128578333Y-143557366D01*
X128578333Y-143557366D02*
X128545000Y-143574033D01*
X128545000Y-143574033D02*
X128528333Y-143590700D01*
X128528333Y-143590700D02*
X128511666Y-143624033D01*
X128511666Y-143624033D02*
X128511666Y-143707366D01*
X128511666Y-143707366D02*
X128528333Y-143740700D01*
X128528333Y-143740700D02*
X128545000Y-143757366D01*
X128545000Y-143757366D02*
X128578333Y-143774033D01*
X128578333Y-143774033D02*
X128645000Y-143774033D01*
X128645000Y-143774033D02*
X128678333Y-143757366D01*
X128678333Y-143757366D02*
X128695000Y-143740700D01*
X128695000Y-143740700D02*
X128711666Y-143707366D01*
X159003333Y-113257366D02*
X159003333Y-113540700D01*
X159003333Y-113540700D02*
X159020000Y-113574033D01*
X159020000Y-113574033D02*
X159036666Y-113590700D01*
X159036666Y-113590700D02*
X159070000Y-113607366D01*
X159070000Y-113607366D02*
X159136666Y-113607366D01*
X159136666Y-113607366D02*
X159170000Y-113590700D01*
X159170000Y-113590700D02*
X159186666Y-113574033D01*
X159186666Y-113574033D02*
X159203333Y-113540700D01*
X159203333Y-113540700D02*
X159203333Y-113257366D01*
X159553333Y-113607366D02*
X159353333Y-113607366D01*
X159453333Y-113607366D02*
X159453333Y-113257366D01*
X159453333Y-113257366D02*
X159420000Y-113307366D01*
X159420000Y-113307366D02*
X159386667Y-113340700D01*
X159386667Y-113340700D02*
X159353333Y-113357366D01*
X160752366Y-110408332D02*
X160585700Y-110524999D01*
X160752366Y-110608332D02*
X160402366Y-110608332D01*
X160402366Y-110608332D02*
X160402366Y-110474999D01*
X160402366Y-110474999D02*
X160419033Y-110441666D01*
X160419033Y-110441666D02*
X160435700Y-110424999D01*
X160435700Y-110424999D02*
X160469033Y-110408332D01*
X160469033Y-110408332D02*
X160519033Y-110408332D01*
X160519033Y-110408332D02*
X160552366Y-110424999D01*
X160552366Y-110424999D02*
X160569033Y-110441666D01*
X160569033Y-110441666D02*
X160585700Y-110474999D01*
X160585700Y-110474999D02*
X160585700Y-110608332D01*
X160519033Y-110108332D02*
X160752366Y-110108332D01*
X160385700Y-110191666D02*
X160635700Y-110274999D01*
X160635700Y-110274999D02*
X160635700Y-110058332D01*
X171244033Y-122124999D02*
X171260700Y-122141666D01*
X171260700Y-122141666D02*
X171277366Y-122191666D01*
X171277366Y-122191666D02*
X171277366Y-122224999D01*
X171277366Y-122224999D02*
X171260700Y-122274999D01*
X171260700Y-122274999D02*
X171227366Y-122308333D01*
X171227366Y-122308333D02*
X171194033Y-122324999D01*
X171194033Y-122324999D02*
X171127366Y-122341666D01*
X171127366Y-122341666D02*
X171077366Y-122341666D01*
X171077366Y-122341666D02*
X171010700Y-122324999D01*
X171010700Y-122324999D02*
X170977366Y-122308333D01*
X170977366Y-122308333D02*
X170944033Y-122274999D01*
X170944033Y-122274999D02*
X170927366Y-122224999D01*
X170927366Y-122224999D02*
X170927366Y-122191666D01*
X170927366Y-122191666D02*
X170944033Y-122141666D01*
X170944033Y-122141666D02*
X170960700Y-122124999D01*
X170927366Y-122008333D02*
X170927366Y-121791666D01*
X170927366Y-121791666D02*
X171060700Y-121908333D01*
X171060700Y-121908333D02*
X171060700Y-121858333D01*
X171060700Y-121858333D02*
X171077366Y-121824999D01*
X171077366Y-121824999D02*
X171094033Y-121808333D01*
X171094033Y-121808333D02*
X171127366Y-121791666D01*
X171127366Y-121791666D02*
X171210700Y-121791666D01*
X171210700Y-121791666D02*
X171244033Y-121808333D01*
X171244033Y-121808333D02*
X171260700Y-121824999D01*
X171260700Y-121824999D02*
X171277366Y-121858333D01*
X171277366Y-121858333D02*
X171277366Y-121958333D01*
X171277366Y-121958333D02*
X171260700Y-121991666D01*
X171260700Y-121991666D02*
X171244033Y-122008333D01*
X170927366Y-121575000D02*
X170927366Y-121541666D01*
X170927366Y-121541666D02*
X170944033Y-121508333D01*
X170944033Y-121508333D02*
X170960700Y-121491666D01*
X170960700Y-121491666D02*
X170994033Y-121475000D01*
X170994033Y-121475000D02*
X171060700Y-121458333D01*
X171060700Y-121458333D02*
X171144033Y-121458333D01*
X171144033Y-121458333D02*
X171210700Y-121475000D01*
X171210700Y-121475000D02*
X171244033Y-121491666D01*
X171244033Y-121491666D02*
X171260700Y-121508333D01*
X171260700Y-121508333D02*
X171277366Y-121541666D01*
X171277366Y-121541666D02*
X171277366Y-121575000D01*
X171277366Y-121575000D02*
X171260700Y-121608333D01*
X171260700Y-121608333D02*
X171244033Y-121625000D01*
X171244033Y-121625000D02*
X171210700Y-121641666D01*
X171210700Y-121641666D02*
X171144033Y-121658333D01*
X171144033Y-121658333D02*
X171060700Y-121658333D01*
X171060700Y-121658333D02*
X170994033Y-121641666D01*
X170994033Y-121641666D02*
X170960700Y-121625000D01*
X170960700Y-121625000D02*
X170944033Y-121608333D01*
X170944033Y-121608333D02*
X170927366Y-121575000D01*
X126327366Y-135654999D02*
X126160700Y-135771666D01*
X126327366Y-135854999D02*
X125977366Y-135854999D01*
X125977366Y-135854999D02*
X125977366Y-135721666D01*
X125977366Y-135721666D02*
X125994033Y-135688333D01*
X125994033Y-135688333D02*
X126010700Y-135671666D01*
X126010700Y-135671666D02*
X126044033Y-135654999D01*
X126044033Y-135654999D02*
X126094033Y-135654999D01*
X126094033Y-135654999D02*
X126127366Y-135671666D01*
X126127366Y-135671666D02*
X126144033Y-135688333D01*
X126144033Y-135688333D02*
X126160700Y-135721666D01*
X126160700Y-135721666D02*
X126160700Y-135854999D01*
X126327366Y-135321666D02*
X126327366Y-135521666D01*
X126327366Y-135421666D02*
X125977366Y-135421666D01*
X125977366Y-135421666D02*
X126027366Y-135454999D01*
X126027366Y-135454999D02*
X126060700Y-135488333D01*
X126060700Y-135488333D02*
X126077366Y-135521666D01*
X125977366Y-135105000D02*
X125977366Y-135071666D01*
X125977366Y-135071666D02*
X125994033Y-135038333D01*
X125994033Y-135038333D02*
X126010700Y-135021666D01*
X126010700Y-135021666D02*
X126044033Y-135005000D01*
X126044033Y-135005000D02*
X126110700Y-134988333D01*
X126110700Y-134988333D02*
X126194033Y-134988333D01*
X126194033Y-134988333D02*
X126260700Y-135005000D01*
X126260700Y-135005000D02*
X126294033Y-135021666D01*
X126294033Y-135021666D02*
X126310700Y-135038333D01*
X126310700Y-135038333D02*
X126327366Y-135071666D01*
X126327366Y-135071666D02*
X126327366Y-135105000D01*
X126327366Y-135105000D02*
X126310700Y-135138333D01*
X126310700Y-135138333D02*
X126294033Y-135155000D01*
X126294033Y-135155000D02*
X126260700Y-135171666D01*
X126260700Y-135171666D02*
X126194033Y-135188333D01*
X126194033Y-135188333D02*
X126110700Y-135188333D01*
X126110700Y-135188333D02*
X126044033Y-135171666D01*
X126044033Y-135171666D02*
X126010700Y-135155000D01*
X126010700Y-135155000D02*
X125994033Y-135138333D01*
X125994033Y-135138333D02*
X125977366Y-135105000D01*
X130075000Y-101594033D02*
X130058333Y-101610700D01*
X130058333Y-101610700D02*
X130008333Y-101627366D01*
X130008333Y-101627366D02*
X129975000Y-101627366D01*
X129975000Y-101627366D02*
X129925000Y-101610700D01*
X129925000Y-101610700D02*
X129891667Y-101577366D01*
X129891667Y-101577366D02*
X129875000Y-101544033D01*
X129875000Y-101544033D02*
X129858333Y-101477366D01*
X129858333Y-101477366D02*
X129858333Y-101427366D01*
X129858333Y-101427366D02*
X129875000Y-101360700D01*
X129875000Y-101360700D02*
X129891667Y-101327366D01*
X129891667Y-101327366D02*
X129925000Y-101294033D01*
X129925000Y-101294033D02*
X129975000Y-101277366D01*
X129975000Y-101277366D02*
X130008333Y-101277366D01*
X130008333Y-101277366D02*
X130058333Y-101294033D01*
X130058333Y-101294033D02*
X130075000Y-101310700D01*
X130408333Y-101627366D02*
X130208333Y-101627366D01*
X130308333Y-101627366D02*
X130308333Y-101277366D01*
X130308333Y-101277366D02*
X130275000Y-101327366D01*
X130275000Y-101327366D02*
X130241667Y-101360700D01*
X130241667Y-101360700D02*
X130208333Y-101377366D01*
X130741666Y-101627366D02*
X130541666Y-101627366D01*
X130641666Y-101627366D02*
X130641666Y-101277366D01*
X130641666Y-101277366D02*
X130608333Y-101327366D01*
X130608333Y-101327366D02*
X130575000Y-101360700D01*
X130575000Y-101360700D02*
X130541666Y-101377366D01*
X109353750Y-120142783D02*
X109337083Y-120159450D01*
X109337083Y-120159450D02*
X109287083Y-120176116D01*
X109287083Y-120176116D02*
X109253750Y-120176116D01*
X109253750Y-120176116D02*
X109203750Y-120159450D01*
X109203750Y-120159450D02*
X109170417Y-120126116D01*
X109170417Y-120126116D02*
X109153750Y-120092783D01*
X109153750Y-120092783D02*
X109137083Y-120026116D01*
X109137083Y-120026116D02*
X109137083Y-119976116D01*
X109137083Y-119976116D02*
X109153750Y-119909450D01*
X109153750Y-119909450D02*
X109170417Y-119876116D01*
X109170417Y-119876116D02*
X109203750Y-119842783D01*
X109203750Y-119842783D02*
X109253750Y-119826116D01*
X109253750Y-119826116D02*
X109287083Y-119826116D01*
X109287083Y-119826116D02*
X109337083Y-119842783D01*
X109337083Y-119842783D02*
X109353750Y-119859450D01*
X109487083Y-119859450D02*
X109503750Y-119842783D01*
X109503750Y-119842783D02*
X109537083Y-119826116D01*
X109537083Y-119826116D02*
X109620417Y-119826116D01*
X109620417Y-119826116D02*
X109653750Y-119842783D01*
X109653750Y-119842783D02*
X109670417Y-119859450D01*
X109670417Y-119859450D02*
X109687083Y-119892783D01*
X109687083Y-119892783D02*
X109687083Y-119926116D01*
X109687083Y-119926116D02*
X109670417Y-119976116D01*
X109670417Y-119976116D02*
X109470417Y-120176116D01*
X109470417Y-120176116D02*
X109687083Y-120176116D01*
X109853750Y-120176116D02*
X109920416Y-120176116D01*
X109920416Y-120176116D02*
X109953750Y-120159450D01*
X109953750Y-120159450D02*
X109970416Y-120142783D01*
X109970416Y-120142783D02*
X110003750Y-120092783D01*
X110003750Y-120092783D02*
X110020416Y-120026116D01*
X110020416Y-120026116D02*
X110020416Y-119892783D01*
X110020416Y-119892783D02*
X110003750Y-119859450D01*
X110003750Y-119859450D02*
X109987083Y-119842783D01*
X109987083Y-119842783D02*
X109953750Y-119826116D01*
X109953750Y-119826116D02*
X109887083Y-119826116D01*
X109887083Y-119826116D02*
X109853750Y-119842783D01*
X109853750Y-119842783D02*
X109837083Y-119859450D01*
X109837083Y-119859450D02*
X109820416Y-119892783D01*
X109820416Y-119892783D02*
X109820416Y-119976116D01*
X109820416Y-119976116D02*
X109837083Y-120009450D01*
X109837083Y-120009450D02*
X109853750Y-120026116D01*
X109853750Y-120026116D02*
X109887083Y-120042783D01*
X109887083Y-120042783D02*
X109953750Y-120042783D01*
X109953750Y-120042783D02*
X109987083Y-120026116D01*
X109987083Y-120026116D02*
X110003750Y-120009450D01*
X110003750Y-120009450D02*
X110020416Y-119976116D01*
X142103333Y-97057366D02*
X142103333Y-97340700D01*
X142103333Y-97340700D02*
X142120000Y-97374033D01*
X142120000Y-97374033D02*
X142136666Y-97390700D01*
X142136666Y-97390700D02*
X142170000Y-97407366D01*
X142170000Y-97407366D02*
X142236666Y-97407366D01*
X142236666Y-97407366D02*
X142270000Y-97390700D01*
X142270000Y-97390700D02*
X142286666Y-97374033D01*
X142286666Y-97374033D02*
X142303333Y-97340700D01*
X142303333Y-97340700D02*
X142303333Y-97057366D01*
X142453333Y-97090700D02*
X142470000Y-97074033D01*
X142470000Y-97074033D02*
X142503333Y-97057366D01*
X142503333Y-97057366D02*
X142586667Y-97057366D01*
X142586667Y-97057366D02*
X142620000Y-97074033D01*
X142620000Y-97074033D02*
X142636667Y-97090700D01*
X142636667Y-97090700D02*
X142653333Y-97124033D01*
X142653333Y-97124033D02*
X142653333Y-97157366D01*
X142653333Y-97157366D02*
X142636667Y-97207366D01*
X142636667Y-97207366D02*
X142436667Y-97407366D01*
X142436667Y-97407366D02*
X142653333Y-97407366D01*
X168893533Y-128962766D02*
X168893533Y-129246100D01*
X168893533Y-129246100D02*
X168910200Y-129279433D01*
X168910200Y-129279433D02*
X168926866Y-129296100D01*
X168926866Y-129296100D02*
X168960200Y-129312766D01*
X168960200Y-129312766D02*
X169026866Y-129312766D01*
X169026866Y-129312766D02*
X169060200Y-129296100D01*
X169060200Y-129296100D02*
X169076866Y-129279433D01*
X169076866Y-129279433D02*
X169093533Y-129246100D01*
X169093533Y-129246100D02*
X169093533Y-128962766D01*
X169226867Y-128962766D02*
X169443533Y-128962766D01*
X169443533Y-128962766D02*
X169326867Y-129096100D01*
X169326867Y-129096100D02*
X169376867Y-129096100D01*
X169376867Y-129096100D02*
X169410200Y-129112766D01*
X169410200Y-129112766D02*
X169426867Y-129129433D01*
X169426867Y-129129433D02*
X169443533Y-129162766D01*
X169443533Y-129162766D02*
X169443533Y-129246100D01*
X169443533Y-129246100D02*
X169426867Y-129279433D01*
X169426867Y-129279433D02*
X169410200Y-129296100D01*
X169410200Y-129296100D02*
X169376867Y-129312766D01*
X169376867Y-129312766D02*
X169276867Y-129312766D01*
X169276867Y-129312766D02*
X169243533Y-129296100D01*
X169243533Y-129296100D02*
X169226867Y-129279433D01*
X102825000Y-109294033D02*
X102808333Y-109310700D01*
X102808333Y-109310700D02*
X102758333Y-109327366D01*
X102758333Y-109327366D02*
X102725000Y-109327366D01*
X102725000Y-109327366D02*
X102675000Y-109310700D01*
X102675000Y-109310700D02*
X102641667Y-109277366D01*
X102641667Y-109277366D02*
X102625000Y-109244033D01*
X102625000Y-109244033D02*
X102608333Y-109177366D01*
X102608333Y-109177366D02*
X102608333Y-109127366D01*
X102608333Y-109127366D02*
X102625000Y-109060700D01*
X102625000Y-109060700D02*
X102641667Y-109027366D01*
X102641667Y-109027366D02*
X102675000Y-108994033D01*
X102675000Y-108994033D02*
X102725000Y-108977366D01*
X102725000Y-108977366D02*
X102758333Y-108977366D01*
X102758333Y-108977366D02*
X102808333Y-108994033D01*
X102808333Y-108994033D02*
X102825000Y-109010700D01*
X102958333Y-109010700D02*
X102975000Y-108994033D01*
X102975000Y-108994033D02*
X103008333Y-108977366D01*
X103008333Y-108977366D02*
X103091667Y-108977366D01*
X103091667Y-108977366D02*
X103125000Y-108994033D01*
X103125000Y-108994033D02*
X103141667Y-109010700D01*
X103141667Y-109010700D02*
X103158333Y-109044033D01*
X103158333Y-109044033D02*
X103158333Y-109077366D01*
X103158333Y-109077366D02*
X103141667Y-109127366D01*
X103141667Y-109127366D02*
X102941667Y-109327366D01*
X102941667Y-109327366D02*
X103158333Y-109327366D01*
X103458333Y-108977366D02*
X103391666Y-108977366D01*
X103391666Y-108977366D02*
X103358333Y-108994033D01*
X103358333Y-108994033D02*
X103341666Y-109010700D01*
X103341666Y-109010700D02*
X103308333Y-109060700D01*
X103308333Y-109060700D02*
X103291666Y-109127366D01*
X103291666Y-109127366D02*
X103291666Y-109260700D01*
X103291666Y-109260700D02*
X103308333Y-109294033D01*
X103308333Y-109294033D02*
X103325000Y-109310700D01*
X103325000Y-109310700D02*
X103358333Y-109327366D01*
X103358333Y-109327366D02*
X103425000Y-109327366D01*
X103425000Y-109327366D02*
X103458333Y-109310700D01*
X103458333Y-109310700D02*
X103475000Y-109294033D01*
X103475000Y-109294033D02*
X103491666Y-109260700D01*
X103491666Y-109260700D02*
X103491666Y-109177366D01*
X103491666Y-109177366D02*
X103475000Y-109144033D01*
X103475000Y-109144033D02*
X103458333Y-109127366D01*
X103458333Y-109127366D02*
X103425000Y-109110700D01*
X103425000Y-109110700D02*
X103358333Y-109110700D01*
X103358333Y-109110700D02*
X103325000Y-109127366D01*
X103325000Y-109127366D02*
X103308333Y-109144033D01*
X103308333Y-109144033D02*
X103291666Y-109177366D01*
X133754033Y-135429999D02*
X133770700Y-135446666D01*
X133770700Y-135446666D02*
X133787366Y-135496666D01*
X133787366Y-135496666D02*
X133787366Y-135529999D01*
X133787366Y-135529999D02*
X133770700Y-135579999D01*
X133770700Y-135579999D02*
X133737366Y-135613333D01*
X133737366Y-135613333D02*
X133704033Y-135629999D01*
X133704033Y-135629999D02*
X133637366Y-135646666D01*
X133637366Y-135646666D02*
X133587366Y-135646666D01*
X133587366Y-135646666D02*
X133520700Y-135629999D01*
X133520700Y-135629999D02*
X133487366Y-135613333D01*
X133487366Y-135613333D02*
X133454033Y-135579999D01*
X133454033Y-135579999D02*
X133437366Y-135529999D01*
X133437366Y-135529999D02*
X133437366Y-135496666D01*
X133437366Y-135496666D02*
X133454033Y-135446666D01*
X133454033Y-135446666D02*
X133470700Y-135429999D01*
X133437366Y-135113333D02*
X133437366Y-135279999D01*
X133437366Y-135279999D02*
X133604033Y-135296666D01*
X133604033Y-135296666D02*
X133587366Y-135279999D01*
X133587366Y-135279999D02*
X133570700Y-135246666D01*
X133570700Y-135246666D02*
X133570700Y-135163333D01*
X133570700Y-135163333D02*
X133587366Y-135129999D01*
X133587366Y-135129999D02*
X133604033Y-135113333D01*
X133604033Y-135113333D02*
X133637366Y-135096666D01*
X133637366Y-135096666D02*
X133720700Y-135096666D01*
X133720700Y-135096666D02*
X133754033Y-135113333D01*
X133754033Y-135113333D02*
X133770700Y-135129999D01*
X133770700Y-135129999D02*
X133787366Y-135163333D01*
X133787366Y-135163333D02*
X133787366Y-135246666D01*
X133787366Y-135246666D02*
X133770700Y-135279999D01*
X133770700Y-135279999D02*
X133754033Y-135296666D01*
X133787366Y-134763333D02*
X133787366Y-134963333D01*
X133787366Y-134863333D02*
X133437366Y-134863333D01*
X133437366Y-134863333D02*
X133487366Y-134896666D01*
X133487366Y-134896666D02*
X133520700Y-134930000D01*
X133520700Y-134930000D02*
X133537366Y-134963333D01*
X148886667Y-110799033D02*
X148870000Y-110815700D01*
X148870000Y-110815700D02*
X148820000Y-110832366D01*
X148820000Y-110832366D02*
X148786667Y-110832366D01*
X148786667Y-110832366D02*
X148736667Y-110815700D01*
X148736667Y-110815700D02*
X148703334Y-110782366D01*
X148703334Y-110782366D02*
X148686667Y-110749033D01*
X148686667Y-110749033D02*
X148670000Y-110682366D01*
X148670000Y-110682366D02*
X148670000Y-110632366D01*
X148670000Y-110632366D02*
X148686667Y-110565700D01*
X148686667Y-110565700D02*
X148703334Y-110532366D01*
X148703334Y-110532366D02*
X148736667Y-110499033D01*
X148736667Y-110499033D02*
X148786667Y-110482366D01*
X148786667Y-110482366D02*
X148820000Y-110482366D01*
X148820000Y-110482366D02*
X148870000Y-110499033D01*
X148870000Y-110499033D02*
X148886667Y-110515700D01*
X149020000Y-110515700D02*
X149036667Y-110499033D01*
X149036667Y-110499033D02*
X149070000Y-110482366D01*
X149070000Y-110482366D02*
X149153334Y-110482366D01*
X149153334Y-110482366D02*
X149186667Y-110499033D01*
X149186667Y-110499033D02*
X149203334Y-110515700D01*
X149203334Y-110515700D02*
X149220000Y-110549033D01*
X149220000Y-110549033D02*
X149220000Y-110582366D01*
X149220000Y-110582366D02*
X149203334Y-110632366D01*
X149203334Y-110632366D02*
X149003334Y-110832366D01*
X149003334Y-110832366D02*
X149220000Y-110832366D01*
X141953333Y-114117366D02*
X141953333Y-114400700D01*
X141953333Y-114400700D02*
X141970000Y-114434033D01*
X141970000Y-114434033D02*
X141986666Y-114450700D01*
X141986666Y-114450700D02*
X142020000Y-114467366D01*
X142020000Y-114467366D02*
X142086666Y-114467366D01*
X142086666Y-114467366D02*
X142120000Y-114450700D01*
X142120000Y-114450700D02*
X142136666Y-114434033D01*
X142136666Y-114434033D02*
X142153333Y-114400700D01*
X142153333Y-114400700D02*
X142153333Y-114117366D01*
X142370000Y-114267366D02*
X142336667Y-114250700D01*
X142336667Y-114250700D02*
X142320000Y-114234033D01*
X142320000Y-114234033D02*
X142303333Y-114200700D01*
X142303333Y-114200700D02*
X142303333Y-114184033D01*
X142303333Y-114184033D02*
X142320000Y-114150700D01*
X142320000Y-114150700D02*
X142336667Y-114134033D01*
X142336667Y-114134033D02*
X142370000Y-114117366D01*
X142370000Y-114117366D02*
X142436667Y-114117366D01*
X142436667Y-114117366D02*
X142470000Y-114134033D01*
X142470000Y-114134033D02*
X142486667Y-114150700D01*
X142486667Y-114150700D02*
X142503333Y-114184033D01*
X142503333Y-114184033D02*
X142503333Y-114200700D01*
X142503333Y-114200700D02*
X142486667Y-114234033D01*
X142486667Y-114234033D02*
X142470000Y-114250700D01*
X142470000Y-114250700D02*
X142436667Y-114267366D01*
X142436667Y-114267366D02*
X142370000Y-114267366D01*
X142370000Y-114267366D02*
X142336667Y-114284033D01*
X142336667Y-114284033D02*
X142320000Y-114300700D01*
X142320000Y-114300700D02*
X142303333Y-114334033D01*
X142303333Y-114334033D02*
X142303333Y-114400700D01*
X142303333Y-114400700D02*
X142320000Y-114434033D01*
X142320000Y-114434033D02*
X142336667Y-114450700D01*
X142336667Y-114450700D02*
X142370000Y-114467366D01*
X142370000Y-114467366D02*
X142436667Y-114467366D01*
X142436667Y-114467366D02*
X142470000Y-114450700D01*
X142470000Y-114450700D02*
X142486667Y-114434033D01*
X142486667Y-114434033D02*
X142503333Y-114400700D01*
X142503333Y-114400700D02*
X142503333Y-114334033D01*
X142503333Y-114334033D02*
X142486667Y-114300700D01*
X142486667Y-114300700D02*
X142470000Y-114284033D01*
X142470000Y-114284033D02*
X142436667Y-114267366D01*
X113533333Y-76432366D02*
X113533333Y-76682366D01*
X113533333Y-76682366D02*
X113516666Y-76732366D01*
X113516666Y-76732366D02*
X113483333Y-76765700D01*
X113483333Y-76765700D02*
X113433333Y-76782366D01*
X113433333Y-76782366D02*
X113400000Y-76782366D01*
X113750000Y-76582366D02*
X113716667Y-76565700D01*
X113716667Y-76565700D02*
X113700000Y-76549033D01*
X113700000Y-76549033D02*
X113683333Y-76515700D01*
X113683333Y-76515700D02*
X113683333Y-76499033D01*
X113683333Y-76499033D02*
X113700000Y-76465700D01*
X113700000Y-76465700D02*
X113716667Y-76449033D01*
X113716667Y-76449033D02*
X113750000Y-76432366D01*
X113750000Y-76432366D02*
X113816667Y-76432366D01*
X113816667Y-76432366D02*
X113850000Y-76449033D01*
X113850000Y-76449033D02*
X113866667Y-76465700D01*
X113866667Y-76465700D02*
X113883333Y-76499033D01*
X113883333Y-76499033D02*
X113883333Y-76515700D01*
X113883333Y-76515700D02*
X113866667Y-76549033D01*
X113866667Y-76549033D02*
X113850000Y-76565700D01*
X113850000Y-76565700D02*
X113816667Y-76582366D01*
X113816667Y-76582366D02*
X113750000Y-76582366D01*
X113750000Y-76582366D02*
X113716667Y-76599033D01*
X113716667Y-76599033D02*
X113700000Y-76615700D01*
X113700000Y-76615700D02*
X113683333Y-76649033D01*
X113683333Y-76649033D02*
X113683333Y-76715700D01*
X113683333Y-76715700D02*
X113700000Y-76749033D01*
X113700000Y-76749033D02*
X113716667Y-76765700D01*
X113716667Y-76765700D02*
X113750000Y-76782366D01*
X113750000Y-76782366D02*
X113816667Y-76782366D01*
X113816667Y-76782366D02*
X113850000Y-76765700D01*
X113850000Y-76765700D02*
X113866667Y-76749033D01*
X113866667Y-76749033D02*
X113883333Y-76715700D01*
X113883333Y-76715700D02*
X113883333Y-76649033D01*
X113883333Y-76649033D02*
X113866667Y-76615700D01*
X113866667Y-76615700D02*
X113850000Y-76599033D01*
X113850000Y-76599033D02*
X113816667Y-76582366D01*
X151761667Y-99794033D02*
X151745000Y-99810700D01*
X151745000Y-99810700D02*
X151695000Y-99827366D01*
X151695000Y-99827366D02*
X151661667Y-99827366D01*
X151661667Y-99827366D02*
X151611667Y-99810700D01*
X151611667Y-99810700D02*
X151578334Y-99777366D01*
X151578334Y-99777366D02*
X151561667Y-99744033D01*
X151561667Y-99744033D02*
X151545000Y-99677366D01*
X151545000Y-99677366D02*
X151545000Y-99627366D01*
X151545000Y-99627366D02*
X151561667Y-99560700D01*
X151561667Y-99560700D02*
X151578334Y-99527366D01*
X151578334Y-99527366D02*
X151611667Y-99494033D01*
X151611667Y-99494033D02*
X151661667Y-99477366D01*
X151661667Y-99477366D02*
X151695000Y-99477366D01*
X151695000Y-99477366D02*
X151745000Y-99494033D01*
X151745000Y-99494033D02*
X151761667Y-99510700D01*
X151878334Y-99477366D02*
X152095000Y-99477366D01*
X152095000Y-99477366D02*
X151978334Y-99610700D01*
X151978334Y-99610700D02*
X152028334Y-99610700D01*
X152028334Y-99610700D02*
X152061667Y-99627366D01*
X152061667Y-99627366D02*
X152078334Y-99644033D01*
X152078334Y-99644033D02*
X152095000Y-99677366D01*
X152095000Y-99677366D02*
X152095000Y-99760700D01*
X152095000Y-99760700D02*
X152078334Y-99794033D01*
X152078334Y-99794033D02*
X152061667Y-99810700D01*
X152061667Y-99810700D02*
X152028334Y-99827366D01*
X152028334Y-99827366D02*
X151928334Y-99827366D01*
X151928334Y-99827366D02*
X151895000Y-99810700D01*
X151895000Y-99810700D02*
X151878334Y-99794033D01*
X151575000Y-101074033D02*
X151558333Y-101090700D01*
X151558333Y-101090700D02*
X151508333Y-101107366D01*
X151508333Y-101107366D02*
X151475000Y-101107366D01*
X151475000Y-101107366D02*
X151425000Y-101090700D01*
X151425000Y-101090700D02*
X151391667Y-101057366D01*
X151391667Y-101057366D02*
X151375000Y-101024033D01*
X151375000Y-101024033D02*
X151358333Y-100957366D01*
X151358333Y-100957366D02*
X151358333Y-100907366D01*
X151358333Y-100907366D02*
X151375000Y-100840700D01*
X151375000Y-100840700D02*
X151391667Y-100807366D01*
X151391667Y-100807366D02*
X151425000Y-100774033D01*
X151425000Y-100774033D02*
X151475000Y-100757366D01*
X151475000Y-100757366D02*
X151508333Y-100757366D01*
X151508333Y-100757366D02*
X151558333Y-100774033D01*
X151558333Y-100774033D02*
X151575000Y-100790700D01*
X151908333Y-101107366D02*
X151708333Y-101107366D01*
X151808333Y-101107366D02*
X151808333Y-100757366D01*
X151808333Y-100757366D02*
X151775000Y-100807366D01*
X151775000Y-100807366D02*
X151741667Y-100840700D01*
X151741667Y-100840700D02*
X151708333Y-100857366D01*
X152208333Y-100874033D02*
X152208333Y-101107366D01*
X152125000Y-100740700D02*
X152041666Y-100990700D01*
X152041666Y-100990700D02*
X152258333Y-100990700D01*
X145270000Y-131039033D02*
X145253333Y-131055700D01*
X145253333Y-131055700D02*
X145203333Y-131072366D01*
X145203333Y-131072366D02*
X145170000Y-131072366D01*
X145170000Y-131072366D02*
X145120000Y-131055700D01*
X145120000Y-131055700D02*
X145086667Y-131022366D01*
X145086667Y-131022366D02*
X145070000Y-130989033D01*
X145070000Y-130989033D02*
X145053333Y-130922366D01*
X145053333Y-130922366D02*
X145053333Y-130872366D01*
X145053333Y-130872366D02*
X145070000Y-130805700D01*
X145070000Y-130805700D02*
X145086667Y-130772366D01*
X145086667Y-130772366D02*
X145120000Y-130739033D01*
X145120000Y-130739033D02*
X145170000Y-130722366D01*
X145170000Y-130722366D02*
X145203333Y-130722366D01*
X145203333Y-130722366D02*
X145253333Y-130739033D01*
X145253333Y-130739033D02*
X145270000Y-130755700D01*
X145386667Y-130722366D02*
X145603333Y-130722366D01*
X145603333Y-130722366D02*
X145486667Y-130855700D01*
X145486667Y-130855700D02*
X145536667Y-130855700D01*
X145536667Y-130855700D02*
X145570000Y-130872366D01*
X145570000Y-130872366D02*
X145586667Y-130889033D01*
X145586667Y-130889033D02*
X145603333Y-130922366D01*
X145603333Y-130922366D02*
X145603333Y-131005700D01*
X145603333Y-131005700D02*
X145586667Y-131039033D01*
X145586667Y-131039033D02*
X145570000Y-131055700D01*
X145570000Y-131055700D02*
X145536667Y-131072366D01*
X145536667Y-131072366D02*
X145436667Y-131072366D01*
X145436667Y-131072366D02*
X145403333Y-131055700D01*
X145403333Y-131055700D02*
X145386667Y-131039033D01*
X145720000Y-130722366D02*
X145953333Y-130722366D01*
X145953333Y-130722366D02*
X145803333Y-131072366D01*
X110260700Y-136633333D02*
X110244033Y-136666666D01*
X110244033Y-136666666D02*
X110210700Y-136700000D01*
X110210700Y-136700000D02*
X110160700Y-136750000D01*
X110160700Y-136750000D02*
X110144033Y-136783333D01*
X110144033Y-136783333D02*
X110144033Y-136816666D01*
X110227366Y-136800000D02*
X110210700Y-136833333D01*
X110210700Y-136833333D02*
X110177366Y-136866666D01*
X110177366Y-136866666D02*
X110110700Y-136883333D01*
X110110700Y-136883333D02*
X109994033Y-136883333D01*
X109994033Y-136883333D02*
X109927366Y-136866666D01*
X109927366Y-136866666D02*
X109894033Y-136833333D01*
X109894033Y-136833333D02*
X109877366Y-136800000D01*
X109877366Y-136800000D02*
X109877366Y-136733333D01*
X109877366Y-136733333D02*
X109894033Y-136700000D01*
X109894033Y-136700000D02*
X109927366Y-136666666D01*
X109927366Y-136666666D02*
X109994033Y-136650000D01*
X109994033Y-136650000D02*
X110110700Y-136650000D01*
X110110700Y-136650000D02*
X110177366Y-136666666D01*
X110177366Y-136666666D02*
X110210700Y-136700000D01*
X110210700Y-136700000D02*
X110227366Y-136733333D01*
X110227366Y-136733333D02*
X110227366Y-136800000D01*
X110227366Y-136316666D02*
X110227366Y-136516666D01*
X110227366Y-136416666D02*
X109877366Y-136416666D01*
X109877366Y-136416666D02*
X109927366Y-136449999D01*
X109927366Y-136449999D02*
X109960700Y-136483333D01*
X109960700Y-136483333D02*
X109977366Y-136516666D01*
X136445000Y-125574033D02*
X136428333Y-125590700D01*
X136428333Y-125590700D02*
X136378333Y-125607366D01*
X136378333Y-125607366D02*
X136345000Y-125607366D01*
X136345000Y-125607366D02*
X136295000Y-125590700D01*
X136295000Y-125590700D02*
X136261667Y-125557366D01*
X136261667Y-125557366D02*
X136245000Y-125524033D01*
X136245000Y-125524033D02*
X136228333Y-125457366D01*
X136228333Y-125457366D02*
X136228333Y-125407366D01*
X136228333Y-125407366D02*
X136245000Y-125340700D01*
X136245000Y-125340700D02*
X136261667Y-125307366D01*
X136261667Y-125307366D02*
X136295000Y-125274033D01*
X136295000Y-125274033D02*
X136345000Y-125257366D01*
X136345000Y-125257366D02*
X136378333Y-125257366D01*
X136378333Y-125257366D02*
X136428333Y-125274033D01*
X136428333Y-125274033D02*
X136445000Y-125290700D01*
X136761667Y-125257366D02*
X136595000Y-125257366D01*
X136595000Y-125257366D02*
X136578333Y-125424033D01*
X136578333Y-125424033D02*
X136595000Y-125407366D01*
X136595000Y-125407366D02*
X136628333Y-125390700D01*
X136628333Y-125390700D02*
X136711667Y-125390700D01*
X136711667Y-125390700D02*
X136745000Y-125407366D01*
X136745000Y-125407366D02*
X136761667Y-125424033D01*
X136761667Y-125424033D02*
X136778333Y-125457366D01*
X136778333Y-125457366D02*
X136778333Y-125540700D01*
X136778333Y-125540700D02*
X136761667Y-125574033D01*
X136761667Y-125574033D02*
X136745000Y-125590700D01*
X136745000Y-125590700D02*
X136711667Y-125607366D01*
X136711667Y-125607366D02*
X136628333Y-125607366D01*
X136628333Y-125607366D02*
X136595000Y-125590700D01*
X136595000Y-125590700D02*
X136578333Y-125574033D01*
X136995000Y-125257366D02*
X137028333Y-125257366D01*
X137028333Y-125257366D02*
X137061666Y-125274033D01*
X137061666Y-125274033D02*
X137078333Y-125290700D01*
X137078333Y-125290700D02*
X137095000Y-125324033D01*
X137095000Y-125324033D02*
X137111666Y-125390700D01*
X137111666Y-125390700D02*
X137111666Y-125474033D01*
X137111666Y-125474033D02*
X137095000Y-125540700D01*
X137095000Y-125540700D02*
X137078333Y-125574033D01*
X137078333Y-125574033D02*
X137061666Y-125590700D01*
X137061666Y-125590700D02*
X137028333Y-125607366D01*
X137028333Y-125607366D02*
X136995000Y-125607366D01*
X136995000Y-125607366D02*
X136961666Y-125590700D01*
X136961666Y-125590700D02*
X136945000Y-125574033D01*
X136945000Y-125574033D02*
X136928333Y-125540700D01*
X136928333Y-125540700D02*
X136911666Y-125474033D01*
X136911666Y-125474033D02*
X136911666Y-125390700D01*
X136911666Y-125390700D02*
X136928333Y-125324033D01*
X136928333Y-125324033D02*
X136945000Y-125290700D01*
X136945000Y-125290700D02*
X136961666Y-125274033D01*
X136961666Y-125274033D02*
X136995000Y-125257366D01*
X100750417Y-91638616D02*
X100750417Y-91288616D01*
X100750417Y-91288616D02*
X100833750Y-91288616D01*
X100833750Y-91288616D02*
X100883750Y-91305283D01*
X100883750Y-91305283D02*
X100917084Y-91338616D01*
X100917084Y-91338616D02*
X100933750Y-91371950D01*
X100933750Y-91371950D02*
X100950417Y-91438616D01*
X100950417Y-91438616D02*
X100950417Y-91488616D01*
X100950417Y-91488616D02*
X100933750Y-91555283D01*
X100933750Y-91555283D02*
X100917084Y-91588616D01*
X100917084Y-91588616D02*
X100883750Y-91621950D01*
X100883750Y-91621950D02*
X100833750Y-91638616D01*
X100833750Y-91638616D02*
X100750417Y-91638616D01*
X101083750Y-91321950D02*
X101100417Y-91305283D01*
X101100417Y-91305283D02*
X101133750Y-91288616D01*
X101133750Y-91288616D02*
X101217084Y-91288616D01*
X101217084Y-91288616D02*
X101250417Y-91305283D01*
X101250417Y-91305283D02*
X101267084Y-91321950D01*
X101267084Y-91321950D02*
X101283750Y-91355283D01*
X101283750Y-91355283D02*
X101283750Y-91388616D01*
X101283750Y-91388616D02*
X101267084Y-91438616D01*
X101267084Y-91438616D02*
X101067084Y-91638616D01*
X101067084Y-91638616D02*
X101283750Y-91638616D01*
X135445000Y-138117366D02*
X135328333Y-137950700D01*
X135245000Y-138117366D02*
X135245000Y-137767366D01*
X135245000Y-137767366D02*
X135378333Y-137767366D01*
X135378333Y-137767366D02*
X135411667Y-137784033D01*
X135411667Y-137784033D02*
X135428333Y-137800700D01*
X135428333Y-137800700D02*
X135445000Y-137834033D01*
X135445000Y-137834033D02*
X135445000Y-137884033D01*
X135445000Y-137884033D02*
X135428333Y-137917366D01*
X135428333Y-137917366D02*
X135411667Y-137934033D01*
X135411667Y-137934033D02*
X135378333Y-137950700D01*
X135378333Y-137950700D02*
X135245000Y-137950700D01*
X135778333Y-138117366D02*
X135578333Y-138117366D01*
X135678333Y-138117366D02*
X135678333Y-137767366D01*
X135678333Y-137767366D02*
X135645000Y-137817366D01*
X135645000Y-137817366D02*
X135611667Y-137850700D01*
X135611667Y-137850700D02*
X135578333Y-137867366D01*
X135978333Y-137917366D02*
X135945000Y-137900700D01*
X135945000Y-137900700D02*
X135928333Y-137884033D01*
X135928333Y-137884033D02*
X135911666Y-137850700D01*
X135911666Y-137850700D02*
X135911666Y-137834033D01*
X135911666Y-137834033D02*
X135928333Y-137800700D01*
X135928333Y-137800700D02*
X135945000Y-137784033D01*
X135945000Y-137784033D02*
X135978333Y-137767366D01*
X135978333Y-137767366D02*
X136045000Y-137767366D01*
X136045000Y-137767366D02*
X136078333Y-137784033D01*
X136078333Y-137784033D02*
X136095000Y-137800700D01*
X136095000Y-137800700D02*
X136111666Y-137834033D01*
X136111666Y-137834033D02*
X136111666Y-137850700D01*
X136111666Y-137850700D02*
X136095000Y-137884033D01*
X136095000Y-137884033D02*
X136078333Y-137900700D01*
X136078333Y-137900700D02*
X136045000Y-137917366D01*
X136045000Y-137917366D02*
X135978333Y-137917366D01*
X135978333Y-137917366D02*
X135945000Y-137934033D01*
X135945000Y-137934033D02*
X135928333Y-137950700D01*
X135928333Y-137950700D02*
X135911666Y-137984033D01*
X135911666Y-137984033D02*
X135911666Y-138050700D01*
X135911666Y-138050700D02*
X135928333Y-138084033D01*
X135928333Y-138084033D02*
X135945000Y-138100700D01*
X135945000Y-138100700D02*
X135978333Y-138117366D01*
X135978333Y-138117366D02*
X136045000Y-138117366D01*
X136045000Y-138117366D02*
X136078333Y-138100700D01*
X136078333Y-138100700D02*
X136095000Y-138084033D01*
X136095000Y-138084033D02*
X136111666Y-138050700D01*
X136111666Y-138050700D02*
X136111666Y-137984033D01*
X136111666Y-137984033D02*
X136095000Y-137950700D01*
X136095000Y-137950700D02*
X136078333Y-137934033D01*
X136078333Y-137934033D02*
X136045000Y-137917366D01*
X122283750Y-113030283D02*
X122267083Y-113046950D01*
X122267083Y-113046950D02*
X122217083Y-113063616D01*
X122217083Y-113063616D02*
X122183750Y-113063616D01*
X122183750Y-113063616D02*
X122133750Y-113046950D01*
X122133750Y-113046950D02*
X122100417Y-113013616D01*
X122100417Y-113013616D02*
X122083750Y-112980283D01*
X122083750Y-112980283D02*
X122067083Y-112913616D01*
X122067083Y-112913616D02*
X122067083Y-112863616D01*
X122067083Y-112863616D02*
X122083750Y-112796950D01*
X122083750Y-112796950D02*
X122100417Y-112763616D01*
X122100417Y-112763616D02*
X122133750Y-112730283D01*
X122133750Y-112730283D02*
X122183750Y-112713616D01*
X122183750Y-112713616D02*
X122217083Y-112713616D01*
X122217083Y-112713616D02*
X122267083Y-112730283D01*
X122267083Y-112730283D02*
X122283750Y-112746950D01*
X122400417Y-112713616D02*
X122617083Y-112713616D01*
X122617083Y-112713616D02*
X122500417Y-112846950D01*
X122500417Y-112846950D02*
X122550417Y-112846950D01*
X122550417Y-112846950D02*
X122583750Y-112863616D01*
X122583750Y-112863616D02*
X122600417Y-112880283D01*
X122600417Y-112880283D02*
X122617083Y-112913616D01*
X122617083Y-112913616D02*
X122617083Y-112996950D01*
X122617083Y-112996950D02*
X122600417Y-113030283D01*
X122600417Y-113030283D02*
X122583750Y-113046950D01*
X122583750Y-113046950D02*
X122550417Y-113063616D01*
X122550417Y-113063616D02*
X122450417Y-113063616D01*
X122450417Y-113063616D02*
X122417083Y-113046950D01*
X122417083Y-113046950D02*
X122400417Y-113030283D01*
X122933750Y-112713616D02*
X122767083Y-112713616D01*
X122767083Y-112713616D02*
X122750416Y-112880283D01*
X122750416Y-112880283D02*
X122767083Y-112863616D01*
X122767083Y-112863616D02*
X122800416Y-112846950D01*
X122800416Y-112846950D02*
X122883750Y-112846950D01*
X122883750Y-112846950D02*
X122917083Y-112863616D01*
X122917083Y-112863616D02*
X122933750Y-112880283D01*
X122933750Y-112880283D02*
X122950416Y-112913616D01*
X122950416Y-112913616D02*
X122950416Y-112996950D01*
X122950416Y-112996950D02*
X122933750Y-113030283D01*
X122933750Y-113030283D02*
X122917083Y-113046950D01*
X122917083Y-113046950D02*
X122883750Y-113063616D01*
X122883750Y-113063616D02*
X122800416Y-113063616D01*
X122800416Y-113063616D02*
X122767083Y-113046950D01*
X122767083Y-113046950D02*
X122750416Y-113030283D01*
X156345000Y-140624033D02*
X156328333Y-140640700D01*
X156328333Y-140640700D02*
X156278333Y-140657366D01*
X156278333Y-140657366D02*
X156245000Y-140657366D01*
X156245000Y-140657366D02*
X156195000Y-140640700D01*
X156195000Y-140640700D02*
X156161667Y-140607366D01*
X156161667Y-140607366D02*
X156145000Y-140574033D01*
X156145000Y-140574033D02*
X156128333Y-140507366D01*
X156128333Y-140507366D02*
X156128333Y-140457366D01*
X156128333Y-140457366D02*
X156145000Y-140390700D01*
X156145000Y-140390700D02*
X156161667Y-140357366D01*
X156161667Y-140357366D02*
X156195000Y-140324033D01*
X156195000Y-140324033D02*
X156245000Y-140307366D01*
X156245000Y-140307366D02*
X156278333Y-140307366D01*
X156278333Y-140307366D02*
X156328333Y-140324033D01*
X156328333Y-140324033D02*
X156345000Y-140340700D01*
X156461667Y-140307366D02*
X156678333Y-140307366D01*
X156678333Y-140307366D02*
X156561667Y-140440700D01*
X156561667Y-140440700D02*
X156611667Y-140440700D01*
X156611667Y-140440700D02*
X156645000Y-140457366D01*
X156645000Y-140457366D02*
X156661667Y-140474033D01*
X156661667Y-140474033D02*
X156678333Y-140507366D01*
X156678333Y-140507366D02*
X156678333Y-140590700D01*
X156678333Y-140590700D02*
X156661667Y-140624033D01*
X156661667Y-140624033D02*
X156645000Y-140640700D01*
X156645000Y-140640700D02*
X156611667Y-140657366D01*
X156611667Y-140657366D02*
X156511667Y-140657366D01*
X156511667Y-140657366D02*
X156478333Y-140640700D01*
X156478333Y-140640700D02*
X156461667Y-140624033D01*
X156978333Y-140307366D02*
X156911666Y-140307366D01*
X156911666Y-140307366D02*
X156878333Y-140324033D01*
X156878333Y-140324033D02*
X156861666Y-140340700D01*
X156861666Y-140340700D02*
X156828333Y-140390700D01*
X156828333Y-140390700D02*
X156811666Y-140457366D01*
X156811666Y-140457366D02*
X156811666Y-140590700D01*
X156811666Y-140590700D02*
X156828333Y-140624033D01*
X156828333Y-140624033D02*
X156845000Y-140640700D01*
X156845000Y-140640700D02*
X156878333Y-140657366D01*
X156878333Y-140657366D02*
X156945000Y-140657366D01*
X156945000Y-140657366D02*
X156978333Y-140640700D01*
X156978333Y-140640700D02*
X156995000Y-140624033D01*
X156995000Y-140624033D02*
X157011666Y-140590700D01*
X157011666Y-140590700D02*
X157011666Y-140507366D01*
X157011666Y-140507366D02*
X156995000Y-140474033D01*
X156995000Y-140474033D02*
X156978333Y-140457366D01*
X156978333Y-140457366D02*
X156945000Y-140440700D01*
X156945000Y-140440700D02*
X156878333Y-140440700D01*
X156878333Y-140440700D02*
X156845000Y-140457366D01*
X156845000Y-140457366D02*
X156828333Y-140474033D01*
X156828333Y-140474033D02*
X156811666Y-140507366D01*
X161946667Y-107787366D02*
X161830000Y-107620700D01*
X161746667Y-107787366D02*
X161746667Y-107437366D01*
X161746667Y-107437366D02*
X161880000Y-107437366D01*
X161880000Y-107437366D02*
X161913334Y-107454033D01*
X161913334Y-107454033D02*
X161930000Y-107470700D01*
X161930000Y-107470700D02*
X161946667Y-107504033D01*
X161946667Y-107504033D02*
X161946667Y-107554033D01*
X161946667Y-107554033D02*
X161930000Y-107587366D01*
X161930000Y-107587366D02*
X161913334Y-107604033D01*
X161913334Y-107604033D02*
X161880000Y-107620700D01*
X161880000Y-107620700D02*
X161746667Y-107620700D01*
X162263334Y-107437366D02*
X162096667Y-107437366D01*
X162096667Y-107437366D02*
X162080000Y-107604033D01*
X162080000Y-107604033D02*
X162096667Y-107587366D01*
X162096667Y-107587366D02*
X162130000Y-107570700D01*
X162130000Y-107570700D02*
X162213334Y-107570700D01*
X162213334Y-107570700D02*
X162246667Y-107587366D01*
X162246667Y-107587366D02*
X162263334Y-107604033D01*
X162263334Y-107604033D02*
X162280000Y-107637366D01*
X162280000Y-107637366D02*
X162280000Y-107720700D01*
X162280000Y-107720700D02*
X162263334Y-107754033D01*
X162263334Y-107754033D02*
X162246667Y-107770700D01*
X162246667Y-107770700D02*
X162213334Y-107787366D01*
X162213334Y-107787366D02*
X162130000Y-107787366D01*
X162130000Y-107787366D02*
X162096667Y-107770700D01*
X162096667Y-107770700D02*
X162080000Y-107754033D01*
X139755000Y-96014033D02*
X139738333Y-96030700D01*
X139738333Y-96030700D02*
X139688333Y-96047366D01*
X139688333Y-96047366D02*
X139655000Y-96047366D01*
X139655000Y-96047366D02*
X139605000Y-96030700D01*
X139605000Y-96030700D02*
X139571667Y-95997366D01*
X139571667Y-95997366D02*
X139555000Y-95964033D01*
X139555000Y-95964033D02*
X139538333Y-95897366D01*
X139538333Y-95897366D02*
X139538333Y-95847366D01*
X139538333Y-95847366D02*
X139555000Y-95780700D01*
X139555000Y-95780700D02*
X139571667Y-95747366D01*
X139571667Y-95747366D02*
X139605000Y-95714033D01*
X139605000Y-95714033D02*
X139655000Y-95697366D01*
X139655000Y-95697366D02*
X139688333Y-95697366D01*
X139688333Y-95697366D02*
X139738333Y-95714033D01*
X139738333Y-95714033D02*
X139755000Y-95730700D01*
X140088333Y-96047366D02*
X139888333Y-96047366D01*
X139988333Y-96047366D02*
X139988333Y-95697366D01*
X139988333Y-95697366D02*
X139955000Y-95747366D01*
X139955000Y-95747366D02*
X139921667Y-95780700D01*
X139921667Y-95780700D02*
X139888333Y-95797366D01*
X140305000Y-95697366D02*
X140338333Y-95697366D01*
X140338333Y-95697366D02*
X140371666Y-95714033D01*
X140371666Y-95714033D02*
X140388333Y-95730700D01*
X140388333Y-95730700D02*
X140405000Y-95764033D01*
X140405000Y-95764033D02*
X140421666Y-95830700D01*
X140421666Y-95830700D02*
X140421666Y-95914033D01*
X140421666Y-95914033D02*
X140405000Y-95980700D01*
X140405000Y-95980700D02*
X140388333Y-96014033D01*
X140388333Y-96014033D02*
X140371666Y-96030700D01*
X140371666Y-96030700D02*
X140338333Y-96047366D01*
X140338333Y-96047366D02*
X140305000Y-96047366D01*
X140305000Y-96047366D02*
X140271666Y-96030700D01*
X140271666Y-96030700D02*
X140255000Y-96014033D01*
X140255000Y-96014033D02*
X140238333Y-95980700D01*
X140238333Y-95980700D02*
X140221666Y-95914033D01*
X140221666Y-95914033D02*
X140221666Y-95830700D01*
X140221666Y-95830700D02*
X140238333Y-95764033D01*
X140238333Y-95764033D02*
X140255000Y-95730700D01*
X140255000Y-95730700D02*
X140271666Y-95714033D01*
X140271666Y-95714033D02*
X140305000Y-95697366D01*
D11*
X71608095Y-138954819D02*
X71608095Y-137954819D01*
X71608095Y-138431009D02*
X72179523Y-138431009D01*
X72179523Y-138954819D02*
X72179523Y-137954819D01*
X73179523Y-138954819D02*
X72608095Y-138954819D01*
X72893809Y-138954819D02*
X72893809Y-137954819D01*
X72893809Y-137954819D02*
X72798571Y-138097676D01*
X72798571Y-138097676D02*
X72703333Y-138192914D01*
X72703333Y-138192914D02*
X72608095Y-138240533D01*
D10*
X129011667Y-112799033D02*
X128995000Y-112815700D01*
X128995000Y-112815700D02*
X128945000Y-112832366D01*
X128945000Y-112832366D02*
X128911667Y-112832366D01*
X128911667Y-112832366D02*
X128861667Y-112815700D01*
X128861667Y-112815700D02*
X128828334Y-112782366D01*
X128828334Y-112782366D02*
X128811667Y-112749033D01*
X128811667Y-112749033D02*
X128795000Y-112682366D01*
X128795000Y-112682366D02*
X128795000Y-112632366D01*
X128795000Y-112632366D02*
X128811667Y-112565700D01*
X128811667Y-112565700D02*
X128828334Y-112532366D01*
X128828334Y-112532366D02*
X128861667Y-112499033D01*
X128861667Y-112499033D02*
X128911667Y-112482366D01*
X128911667Y-112482366D02*
X128945000Y-112482366D01*
X128945000Y-112482366D02*
X128995000Y-112499033D01*
X128995000Y-112499033D02*
X129011667Y-112515700D01*
X129211667Y-112632366D02*
X129178334Y-112615700D01*
X129178334Y-112615700D02*
X129161667Y-112599033D01*
X129161667Y-112599033D02*
X129145000Y-112565700D01*
X129145000Y-112565700D02*
X129145000Y-112549033D01*
X129145000Y-112549033D02*
X129161667Y-112515700D01*
X129161667Y-112515700D02*
X129178334Y-112499033D01*
X129178334Y-112499033D02*
X129211667Y-112482366D01*
X129211667Y-112482366D02*
X129278334Y-112482366D01*
X129278334Y-112482366D02*
X129311667Y-112499033D01*
X129311667Y-112499033D02*
X129328334Y-112515700D01*
X129328334Y-112515700D02*
X129345000Y-112549033D01*
X129345000Y-112549033D02*
X129345000Y-112565700D01*
X129345000Y-112565700D02*
X129328334Y-112599033D01*
X129328334Y-112599033D02*
X129311667Y-112615700D01*
X129311667Y-112615700D02*
X129278334Y-112632366D01*
X129278334Y-112632366D02*
X129211667Y-112632366D01*
X129211667Y-112632366D02*
X129178334Y-112649033D01*
X129178334Y-112649033D02*
X129161667Y-112665700D01*
X129161667Y-112665700D02*
X129145000Y-112699033D01*
X129145000Y-112699033D02*
X129145000Y-112765700D01*
X129145000Y-112765700D02*
X129161667Y-112799033D01*
X129161667Y-112799033D02*
X129178334Y-112815700D01*
X129178334Y-112815700D02*
X129211667Y-112832366D01*
X129211667Y-112832366D02*
X129278334Y-112832366D01*
X129278334Y-112832366D02*
X129311667Y-112815700D01*
X129311667Y-112815700D02*
X129328334Y-112799033D01*
X129328334Y-112799033D02*
X129345000Y-112765700D01*
X129345000Y-112765700D02*
X129345000Y-112699033D01*
X129345000Y-112699033D02*
X129328334Y-112665700D01*
X129328334Y-112665700D02*
X129311667Y-112649033D01*
X129311667Y-112649033D02*
X129278334Y-112632366D01*
X91223750Y-94293616D02*
X91107083Y-94126950D01*
X91023750Y-94293616D02*
X91023750Y-93943616D01*
X91023750Y-93943616D02*
X91157083Y-93943616D01*
X91157083Y-93943616D02*
X91190417Y-93960283D01*
X91190417Y-93960283D02*
X91207083Y-93976950D01*
X91207083Y-93976950D02*
X91223750Y-94010283D01*
X91223750Y-94010283D02*
X91223750Y-94060283D01*
X91223750Y-94060283D02*
X91207083Y-94093616D01*
X91207083Y-94093616D02*
X91190417Y-94110283D01*
X91190417Y-94110283D02*
X91157083Y-94126950D01*
X91157083Y-94126950D02*
X91023750Y-94126950D01*
X91357083Y-93976950D02*
X91373750Y-93960283D01*
X91373750Y-93960283D02*
X91407083Y-93943616D01*
X91407083Y-93943616D02*
X91490417Y-93943616D01*
X91490417Y-93943616D02*
X91523750Y-93960283D01*
X91523750Y-93960283D02*
X91540417Y-93976950D01*
X91540417Y-93976950D02*
X91557083Y-94010283D01*
X91557083Y-94010283D02*
X91557083Y-94043616D01*
X91557083Y-94043616D02*
X91540417Y-94093616D01*
X91540417Y-94093616D02*
X91340417Y-94293616D01*
X91340417Y-94293616D02*
X91557083Y-94293616D01*
X91873750Y-93943616D02*
X91707083Y-93943616D01*
X91707083Y-93943616D02*
X91690416Y-94110283D01*
X91690416Y-94110283D02*
X91707083Y-94093616D01*
X91707083Y-94093616D02*
X91740416Y-94076950D01*
X91740416Y-94076950D02*
X91823750Y-94076950D01*
X91823750Y-94076950D02*
X91857083Y-94093616D01*
X91857083Y-94093616D02*
X91873750Y-94110283D01*
X91873750Y-94110283D02*
X91890416Y-94143616D01*
X91890416Y-94143616D02*
X91890416Y-94226950D01*
X91890416Y-94226950D02*
X91873750Y-94260283D01*
X91873750Y-94260283D02*
X91857083Y-94276950D01*
X91857083Y-94276950D02*
X91823750Y-94293616D01*
X91823750Y-94293616D02*
X91740416Y-94293616D01*
X91740416Y-94293616D02*
X91707083Y-94276950D01*
X91707083Y-94276950D02*
X91690416Y-94260283D01*
X131670000Y-136574033D02*
X131653333Y-136590700D01*
X131653333Y-136590700D02*
X131603333Y-136607366D01*
X131603333Y-136607366D02*
X131570000Y-136607366D01*
X131570000Y-136607366D02*
X131520000Y-136590700D01*
X131520000Y-136590700D02*
X131486667Y-136557366D01*
X131486667Y-136557366D02*
X131470000Y-136524033D01*
X131470000Y-136524033D02*
X131453333Y-136457366D01*
X131453333Y-136457366D02*
X131453333Y-136407366D01*
X131453333Y-136407366D02*
X131470000Y-136340700D01*
X131470000Y-136340700D02*
X131486667Y-136307366D01*
X131486667Y-136307366D02*
X131520000Y-136274033D01*
X131520000Y-136274033D02*
X131570000Y-136257366D01*
X131570000Y-136257366D02*
X131603333Y-136257366D01*
X131603333Y-136257366D02*
X131653333Y-136274033D01*
X131653333Y-136274033D02*
X131670000Y-136290700D01*
X131986667Y-136257366D02*
X131820000Y-136257366D01*
X131820000Y-136257366D02*
X131803333Y-136424033D01*
X131803333Y-136424033D02*
X131820000Y-136407366D01*
X131820000Y-136407366D02*
X131853333Y-136390700D01*
X131853333Y-136390700D02*
X131936667Y-136390700D01*
X131936667Y-136390700D02*
X131970000Y-136407366D01*
X131970000Y-136407366D02*
X131986667Y-136424033D01*
X131986667Y-136424033D02*
X132003333Y-136457366D01*
X132003333Y-136457366D02*
X132003333Y-136540700D01*
X132003333Y-136540700D02*
X131986667Y-136574033D01*
X131986667Y-136574033D02*
X131970000Y-136590700D01*
X131970000Y-136590700D02*
X131936667Y-136607366D01*
X131936667Y-136607366D02*
X131853333Y-136607366D01*
X131853333Y-136607366D02*
X131820000Y-136590700D01*
X131820000Y-136590700D02*
X131803333Y-136574033D01*
X132303333Y-136374033D02*
X132303333Y-136607366D01*
X132220000Y-136240700D02*
X132136666Y-136490700D01*
X132136666Y-136490700D02*
X132353333Y-136490700D01*
X166420000Y-134774033D02*
X166403333Y-134790700D01*
X166403333Y-134790700D02*
X166353333Y-134807366D01*
X166353333Y-134807366D02*
X166320000Y-134807366D01*
X166320000Y-134807366D02*
X166270000Y-134790700D01*
X166270000Y-134790700D02*
X166236667Y-134757366D01*
X166236667Y-134757366D02*
X166220000Y-134724033D01*
X166220000Y-134724033D02*
X166203333Y-134657366D01*
X166203333Y-134657366D02*
X166203333Y-134607366D01*
X166203333Y-134607366D02*
X166220000Y-134540700D01*
X166220000Y-134540700D02*
X166236667Y-134507366D01*
X166236667Y-134507366D02*
X166270000Y-134474033D01*
X166270000Y-134474033D02*
X166320000Y-134457366D01*
X166320000Y-134457366D02*
X166353333Y-134457366D01*
X166353333Y-134457366D02*
X166403333Y-134474033D01*
X166403333Y-134474033D02*
X166420000Y-134490700D01*
X166720000Y-134574033D02*
X166720000Y-134807366D01*
X166636667Y-134440700D02*
X166553333Y-134690700D01*
X166553333Y-134690700D02*
X166770000Y-134690700D01*
X167053333Y-134574033D02*
X167053333Y-134807366D01*
X166970000Y-134440700D02*
X166886666Y-134690700D01*
X166886666Y-134690700D02*
X167103333Y-134690700D01*
X128471667Y-136487366D02*
X128355000Y-136320700D01*
X128271667Y-136487366D02*
X128271667Y-136137366D01*
X128271667Y-136137366D02*
X128405000Y-136137366D01*
X128405000Y-136137366D02*
X128438334Y-136154033D01*
X128438334Y-136154033D02*
X128455000Y-136170700D01*
X128455000Y-136170700D02*
X128471667Y-136204033D01*
X128471667Y-136204033D02*
X128471667Y-136254033D01*
X128471667Y-136254033D02*
X128455000Y-136287366D01*
X128455000Y-136287366D02*
X128438334Y-136304033D01*
X128438334Y-136304033D02*
X128405000Y-136320700D01*
X128405000Y-136320700D02*
X128271667Y-136320700D01*
X128638334Y-136487366D02*
X128705000Y-136487366D01*
X128705000Y-136487366D02*
X128738334Y-136470700D01*
X128738334Y-136470700D02*
X128755000Y-136454033D01*
X128755000Y-136454033D02*
X128788334Y-136404033D01*
X128788334Y-136404033D02*
X128805000Y-136337366D01*
X128805000Y-136337366D02*
X128805000Y-136204033D01*
X128805000Y-136204033D02*
X128788334Y-136170700D01*
X128788334Y-136170700D02*
X128771667Y-136154033D01*
X128771667Y-136154033D02*
X128738334Y-136137366D01*
X128738334Y-136137366D02*
X128671667Y-136137366D01*
X128671667Y-136137366D02*
X128638334Y-136154033D01*
X128638334Y-136154033D02*
X128621667Y-136170700D01*
X128621667Y-136170700D02*
X128605000Y-136204033D01*
X128605000Y-136204033D02*
X128605000Y-136287366D01*
X128605000Y-136287366D02*
X128621667Y-136320700D01*
X128621667Y-136320700D02*
X128638334Y-136337366D01*
X128638334Y-136337366D02*
X128671667Y-136354033D01*
X128671667Y-136354033D02*
X128738334Y-136354033D01*
X128738334Y-136354033D02*
X128771667Y-136337366D01*
X128771667Y-136337366D02*
X128788334Y-136320700D01*
X128788334Y-136320700D02*
X128805000Y-136287366D01*
X113722783Y-111506249D02*
X113739450Y-111522916D01*
X113739450Y-111522916D02*
X113756116Y-111572916D01*
X113756116Y-111572916D02*
X113756116Y-111606249D01*
X113756116Y-111606249D02*
X113739450Y-111656249D01*
X113739450Y-111656249D02*
X113706116Y-111689583D01*
X113706116Y-111689583D02*
X113672783Y-111706249D01*
X113672783Y-111706249D02*
X113606116Y-111722916D01*
X113606116Y-111722916D02*
X113556116Y-111722916D01*
X113556116Y-111722916D02*
X113489450Y-111706249D01*
X113489450Y-111706249D02*
X113456116Y-111689583D01*
X113456116Y-111689583D02*
X113422783Y-111656249D01*
X113422783Y-111656249D02*
X113406116Y-111606249D01*
X113406116Y-111606249D02*
X113406116Y-111572916D01*
X113406116Y-111572916D02*
X113422783Y-111522916D01*
X113422783Y-111522916D02*
X113439450Y-111506249D01*
X113406116Y-111389583D02*
X113406116Y-111172916D01*
X113406116Y-111172916D02*
X113539450Y-111289583D01*
X113539450Y-111289583D02*
X113539450Y-111239583D01*
X113539450Y-111239583D02*
X113556116Y-111206249D01*
X113556116Y-111206249D02*
X113572783Y-111189583D01*
X113572783Y-111189583D02*
X113606116Y-111172916D01*
X113606116Y-111172916D02*
X113689450Y-111172916D01*
X113689450Y-111172916D02*
X113722783Y-111189583D01*
X113722783Y-111189583D02*
X113739450Y-111206249D01*
X113739450Y-111206249D02*
X113756116Y-111239583D01*
X113756116Y-111239583D02*
X113756116Y-111339583D01*
X113756116Y-111339583D02*
X113739450Y-111372916D01*
X113739450Y-111372916D02*
X113722783Y-111389583D01*
X113406116Y-111056250D02*
X113406116Y-110839583D01*
X113406116Y-110839583D02*
X113539450Y-110956250D01*
X113539450Y-110956250D02*
X113539450Y-110906250D01*
X113539450Y-110906250D02*
X113556116Y-110872916D01*
X113556116Y-110872916D02*
X113572783Y-110856250D01*
X113572783Y-110856250D02*
X113606116Y-110839583D01*
X113606116Y-110839583D02*
X113689450Y-110839583D01*
X113689450Y-110839583D02*
X113722783Y-110856250D01*
X113722783Y-110856250D02*
X113739450Y-110872916D01*
X113739450Y-110872916D02*
X113756116Y-110906250D01*
X113756116Y-110906250D02*
X113756116Y-111006250D01*
X113756116Y-111006250D02*
X113739450Y-111039583D01*
X113739450Y-111039583D02*
X113722783Y-111056250D01*
X99105000Y-110167366D02*
X98988333Y-110000700D01*
X98905000Y-110167366D02*
X98905000Y-109817366D01*
X98905000Y-109817366D02*
X99038333Y-109817366D01*
X99038333Y-109817366D02*
X99071667Y-109834033D01*
X99071667Y-109834033D02*
X99088333Y-109850700D01*
X99088333Y-109850700D02*
X99105000Y-109884033D01*
X99105000Y-109884033D02*
X99105000Y-109934033D01*
X99105000Y-109934033D02*
X99088333Y-109967366D01*
X99088333Y-109967366D02*
X99071667Y-109984033D01*
X99071667Y-109984033D02*
X99038333Y-110000700D01*
X99038333Y-110000700D02*
X98905000Y-110000700D01*
X99438333Y-110167366D02*
X99238333Y-110167366D01*
X99338333Y-110167366D02*
X99338333Y-109817366D01*
X99338333Y-109817366D02*
X99305000Y-109867366D01*
X99305000Y-109867366D02*
X99271667Y-109900700D01*
X99271667Y-109900700D02*
X99238333Y-109917366D01*
X99755000Y-109817366D02*
X99588333Y-109817366D01*
X99588333Y-109817366D02*
X99571666Y-109984033D01*
X99571666Y-109984033D02*
X99588333Y-109967366D01*
X99588333Y-109967366D02*
X99621666Y-109950700D01*
X99621666Y-109950700D02*
X99705000Y-109950700D01*
X99705000Y-109950700D02*
X99738333Y-109967366D01*
X99738333Y-109967366D02*
X99755000Y-109984033D01*
X99755000Y-109984033D02*
X99771666Y-110017366D01*
X99771666Y-110017366D02*
X99771666Y-110100700D01*
X99771666Y-110100700D02*
X99755000Y-110134033D01*
X99755000Y-110134033D02*
X99738333Y-110150700D01*
X99738333Y-110150700D02*
X99705000Y-110167366D01*
X99705000Y-110167366D02*
X99621666Y-110167366D01*
X99621666Y-110167366D02*
X99588333Y-110150700D01*
X99588333Y-110150700D02*
X99571666Y-110134033D01*
X131586667Y-91849033D02*
X131570000Y-91865700D01*
X131570000Y-91865700D02*
X131520000Y-91882366D01*
X131520000Y-91882366D02*
X131486667Y-91882366D01*
X131486667Y-91882366D02*
X131436667Y-91865700D01*
X131436667Y-91865700D02*
X131403334Y-91832366D01*
X131403334Y-91832366D02*
X131386667Y-91799033D01*
X131386667Y-91799033D02*
X131370000Y-91732366D01*
X131370000Y-91732366D02*
X131370000Y-91682366D01*
X131370000Y-91682366D02*
X131386667Y-91615700D01*
X131386667Y-91615700D02*
X131403334Y-91582366D01*
X131403334Y-91582366D02*
X131436667Y-91549033D01*
X131436667Y-91549033D02*
X131486667Y-91532366D01*
X131486667Y-91532366D02*
X131520000Y-91532366D01*
X131520000Y-91532366D02*
X131570000Y-91549033D01*
X131570000Y-91549033D02*
X131586667Y-91565700D01*
X131753334Y-91882366D02*
X131820000Y-91882366D01*
X131820000Y-91882366D02*
X131853334Y-91865700D01*
X131853334Y-91865700D02*
X131870000Y-91849033D01*
X131870000Y-91849033D02*
X131903334Y-91799033D01*
X131903334Y-91799033D02*
X131920000Y-91732366D01*
X131920000Y-91732366D02*
X131920000Y-91599033D01*
X131920000Y-91599033D02*
X131903334Y-91565700D01*
X131903334Y-91565700D02*
X131886667Y-91549033D01*
X131886667Y-91549033D02*
X131853334Y-91532366D01*
X131853334Y-91532366D02*
X131786667Y-91532366D01*
X131786667Y-91532366D02*
X131753334Y-91549033D01*
X131753334Y-91549033D02*
X131736667Y-91565700D01*
X131736667Y-91565700D02*
X131720000Y-91599033D01*
X131720000Y-91599033D02*
X131720000Y-91682366D01*
X131720000Y-91682366D02*
X131736667Y-91715700D01*
X131736667Y-91715700D02*
X131753334Y-91732366D01*
X131753334Y-91732366D02*
X131786667Y-91749033D01*
X131786667Y-91749033D02*
X131853334Y-91749033D01*
X131853334Y-91749033D02*
X131886667Y-91732366D01*
X131886667Y-91732366D02*
X131903334Y-91715700D01*
X131903334Y-91715700D02*
X131920000Y-91682366D01*
X163475000Y-108844033D02*
X163458333Y-108860700D01*
X163458333Y-108860700D02*
X163408333Y-108877366D01*
X163408333Y-108877366D02*
X163375000Y-108877366D01*
X163375000Y-108877366D02*
X163325000Y-108860700D01*
X163325000Y-108860700D02*
X163291667Y-108827366D01*
X163291667Y-108827366D02*
X163275000Y-108794033D01*
X163275000Y-108794033D02*
X163258333Y-108727366D01*
X163258333Y-108727366D02*
X163258333Y-108677366D01*
X163258333Y-108677366D02*
X163275000Y-108610700D01*
X163275000Y-108610700D02*
X163291667Y-108577366D01*
X163291667Y-108577366D02*
X163325000Y-108544033D01*
X163325000Y-108544033D02*
X163375000Y-108527366D01*
X163375000Y-108527366D02*
X163408333Y-108527366D01*
X163408333Y-108527366D02*
X163458333Y-108544033D01*
X163458333Y-108544033D02*
X163475000Y-108560700D01*
X163808333Y-108877366D02*
X163608333Y-108877366D01*
X163708333Y-108877366D02*
X163708333Y-108527366D01*
X163708333Y-108527366D02*
X163675000Y-108577366D01*
X163675000Y-108577366D02*
X163641667Y-108610700D01*
X163641667Y-108610700D02*
X163608333Y-108627366D01*
X164125000Y-108527366D02*
X163958333Y-108527366D01*
X163958333Y-108527366D02*
X163941666Y-108694033D01*
X163941666Y-108694033D02*
X163958333Y-108677366D01*
X163958333Y-108677366D02*
X163991666Y-108660700D01*
X163991666Y-108660700D02*
X164075000Y-108660700D01*
X164075000Y-108660700D02*
X164108333Y-108677366D01*
X164108333Y-108677366D02*
X164125000Y-108694033D01*
X164125000Y-108694033D02*
X164141666Y-108727366D01*
X164141666Y-108727366D02*
X164141666Y-108810700D01*
X164141666Y-108810700D02*
X164125000Y-108844033D01*
X164125000Y-108844033D02*
X164108333Y-108860700D01*
X164108333Y-108860700D02*
X164075000Y-108877366D01*
X164075000Y-108877366D02*
X163991666Y-108877366D01*
X163991666Y-108877366D02*
X163958333Y-108860700D01*
X163958333Y-108860700D02*
X163941666Y-108844033D01*
X124707366Y-125174999D02*
X124540700Y-125291666D01*
X124707366Y-125374999D02*
X124357366Y-125374999D01*
X124357366Y-125374999D02*
X124357366Y-125241666D01*
X124357366Y-125241666D02*
X124374033Y-125208333D01*
X124374033Y-125208333D02*
X124390700Y-125191666D01*
X124390700Y-125191666D02*
X124424033Y-125174999D01*
X124424033Y-125174999D02*
X124474033Y-125174999D01*
X124474033Y-125174999D02*
X124507366Y-125191666D01*
X124507366Y-125191666D02*
X124524033Y-125208333D01*
X124524033Y-125208333D02*
X124540700Y-125241666D01*
X124540700Y-125241666D02*
X124540700Y-125374999D01*
X124707366Y-124841666D02*
X124707366Y-125041666D01*
X124707366Y-124941666D02*
X124357366Y-124941666D01*
X124357366Y-124941666D02*
X124407366Y-124974999D01*
X124407366Y-124974999D02*
X124440700Y-125008333D01*
X124440700Y-125008333D02*
X124457366Y-125041666D01*
X124707366Y-124508333D02*
X124707366Y-124708333D01*
X124707366Y-124608333D02*
X124357366Y-124608333D01*
X124357366Y-124608333D02*
X124407366Y-124641666D01*
X124407366Y-124641666D02*
X124440700Y-124675000D01*
X124440700Y-124675000D02*
X124457366Y-124708333D01*
X105753750Y-120192783D02*
X105737083Y-120209450D01*
X105737083Y-120209450D02*
X105687083Y-120226116D01*
X105687083Y-120226116D02*
X105653750Y-120226116D01*
X105653750Y-120226116D02*
X105603750Y-120209450D01*
X105603750Y-120209450D02*
X105570417Y-120176116D01*
X105570417Y-120176116D02*
X105553750Y-120142783D01*
X105553750Y-120142783D02*
X105537083Y-120076116D01*
X105537083Y-120076116D02*
X105537083Y-120026116D01*
X105537083Y-120026116D02*
X105553750Y-119959450D01*
X105553750Y-119959450D02*
X105570417Y-119926116D01*
X105570417Y-119926116D02*
X105603750Y-119892783D01*
X105603750Y-119892783D02*
X105653750Y-119876116D01*
X105653750Y-119876116D02*
X105687083Y-119876116D01*
X105687083Y-119876116D02*
X105737083Y-119892783D01*
X105737083Y-119892783D02*
X105753750Y-119909450D01*
X105887083Y-119909450D02*
X105903750Y-119892783D01*
X105903750Y-119892783D02*
X105937083Y-119876116D01*
X105937083Y-119876116D02*
X106020417Y-119876116D01*
X106020417Y-119876116D02*
X106053750Y-119892783D01*
X106053750Y-119892783D02*
X106070417Y-119909450D01*
X106070417Y-119909450D02*
X106087083Y-119942783D01*
X106087083Y-119942783D02*
X106087083Y-119976116D01*
X106087083Y-119976116D02*
X106070417Y-120026116D01*
X106070417Y-120026116D02*
X105870417Y-120226116D01*
X105870417Y-120226116D02*
X106087083Y-120226116D01*
X106203750Y-119876116D02*
X106437083Y-119876116D01*
X106437083Y-119876116D02*
X106287083Y-120226116D01*
X86795000Y-99194033D02*
X86778333Y-99210700D01*
X86778333Y-99210700D02*
X86728333Y-99227366D01*
X86728333Y-99227366D02*
X86695000Y-99227366D01*
X86695000Y-99227366D02*
X86645000Y-99210700D01*
X86645000Y-99210700D02*
X86611667Y-99177366D01*
X86611667Y-99177366D02*
X86595000Y-99144033D01*
X86595000Y-99144033D02*
X86578333Y-99077366D01*
X86578333Y-99077366D02*
X86578333Y-99027366D01*
X86578333Y-99027366D02*
X86595000Y-98960700D01*
X86595000Y-98960700D02*
X86611667Y-98927366D01*
X86611667Y-98927366D02*
X86645000Y-98894033D01*
X86645000Y-98894033D02*
X86695000Y-98877366D01*
X86695000Y-98877366D02*
X86728333Y-98877366D01*
X86728333Y-98877366D02*
X86778333Y-98894033D01*
X86778333Y-98894033D02*
X86795000Y-98910700D01*
X86928333Y-98910700D02*
X86945000Y-98894033D01*
X86945000Y-98894033D02*
X86978333Y-98877366D01*
X86978333Y-98877366D02*
X87061667Y-98877366D01*
X87061667Y-98877366D02*
X87095000Y-98894033D01*
X87095000Y-98894033D02*
X87111667Y-98910700D01*
X87111667Y-98910700D02*
X87128333Y-98944033D01*
X87128333Y-98944033D02*
X87128333Y-98977366D01*
X87128333Y-98977366D02*
X87111667Y-99027366D01*
X87111667Y-99027366D02*
X86911667Y-99227366D01*
X86911667Y-99227366D02*
X87128333Y-99227366D01*
X87245000Y-98877366D02*
X87461666Y-98877366D01*
X87461666Y-98877366D02*
X87345000Y-99010700D01*
X87345000Y-99010700D02*
X87395000Y-99010700D01*
X87395000Y-99010700D02*
X87428333Y-99027366D01*
X87428333Y-99027366D02*
X87445000Y-99044033D01*
X87445000Y-99044033D02*
X87461666Y-99077366D01*
X87461666Y-99077366D02*
X87461666Y-99160700D01*
X87461666Y-99160700D02*
X87445000Y-99194033D01*
X87445000Y-99194033D02*
X87428333Y-99210700D01*
X87428333Y-99210700D02*
X87395000Y-99227366D01*
X87395000Y-99227366D02*
X87295000Y-99227366D01*
X87295000Y-99227366D02*
X87261666Y-99210700D01*
X87261666Y-99210700D02*
X87245000Y-99194033D01*
X109595000Y-133157366D02*
X109478333Y-132990700D01*
X109395000Y-133157366D02*
X109395000Y-132807366D01*
X109395000Y-132807366D02*
X109528333Y-132807366D01*
X109528333Y-132807366D02*
X109561667Y-132824033D01*
X109561667Y-132824033D02*
X109578333Y-132840700D01*
X109578333Y-132840700D02*
X109595000Y-132874033D01*
X109595000Y-132874033D02*
X109595000Y-132924033D01*
X109595000Y-132924033D02*
X109578333Y-132957366D01*
X109578333Y-132957366D02*
X109561667Y-132974033D01*
X109561667Y-132974033D02*
X109528333Y-132990700D01*
X109528333Y-132990700D02*
X109395000Y-132990700D01*
X109728333Y-132840700D02*
X109745000Y-132824033D01*
X109745000Y-132824033D02*
X109778333Y-132807366D01*
X109778333Y-132807366D02*
X109861667Y-132807366D01*
X109861667Y-132807366D02*
X109895000Y-132824033D01*
X109895000Y-132824033D02*
X109911667Y-132840700D01*
X109911667Y-132840700D02*
X109928333Y-132874033D01*
X109928333Y-132874033D02*
X109928333Y-132907366D01*
X109928333Y-132907366D02*
X109911667Y-132957366D01*
X109911667Y-132957366D02*
X109711667Y-133157366D01*
X109711667Y-133157366D02*
X109928333Y-133157366D01*
X110145000Y-132807366D02*
X110178333Y-132807366D01*
X110178333Y-132807366D02*
X110211666Y-132824033D01*
X110211666Y-132824033D02*
X110228333Y-132840700D01*
X110228333Y-132840700D02*
X110245000Y-132874033D01*
X110245000Y-132874033D02*
X110261666Y-132940700D01*
X110261666Y-132940700D02*
X110261666Y-133024033D01*
X110261666Y-133024033D02*
X110245000Y-133090700D01*
X110245000Y-133090700D02*
X110228333Y-133124033D01*
X110228333Y-133124033D02*
X110211666Y-133140700D01*
X110211666Y-133140700D02*
X110178333Y-133157366D01*
X110178333Y-133157366D02*
X110145000Y-133157366D01*
X110145000Y-133157366D02*
X110111666Y-133140700D01*
X110111666Y-133140700D02*
X110095000Y-133124033D01*
X110095000Y-133124033D02*
X110078333Y-133090700D01*
X110078333Y-133090700D02*
X110061666Y-133024033D01*
X110061666Y-133024033D02*
X110061666Y-132940700D01*
X110061666Y-132940700D02*
X110078333Y-132874033D01*
X110078333Y-132874033D02*
X110095000Y-132840700D01*
X110095000Y-132840700D02*
X110111666Y-132824033D01*
X110111666Y-132824033D02*
X110145000Y-132807366D01*
X146428333Y-92407366D02*
X146428333Y-92690700D01*
X146428333Y-92690700D02*
X146445000Y-92724033D01*
X146445000Y-92724033D02*
X146461666Y-92740700D01*
X146461666Y-92740700D02*
X146495000Y-92757366D01*
X146495000Y-92757366D02*
X146561666Y-92757366D01*
X146561666Y-92757366D02*
X146595000Y-92740700D01*
X146595000Y-92740700D02*
X146611666Y-92724033D01*
X146611666Y-92724033D02*
X146628333Y-92690700D01*
X146628333Y-92690700D02*
X146628333Y-92407366D01*
X146761667Y-92407366D02*
X146995000Y-92407366D01*
X146995000Y-92407366D02*
X146845000Y-92757366D01*
X147135000Y-113724033D02*
X147118333Y-113740700D01*
X147118333Y-113740700D02*
X147068333Y-113757366D01*
X147068333Y-113757366D02*
X147035000Y-113757366D01*
X147035000Y-113757366D02*
X146985000Y-113740700D01*
X146985000Y-113740700D02*
X146951667Y-113707366D01*
X146951667Y-113707366D02*
X146935000Y-113674033D01*
X146935000Y-113674033D02*
X146918333Y-113607366D01*
X146918333Y-113607366D02*
X146918333Y-113557366D01*
X146918333Y-113557366D02*
X146935000Y-113490700D01*
X146935000Y-113490700D02*
X146951667Y-113457366D01*
X146951667Y-113457366D02*
X146985000Y-113424033D01*
X146985000Y-113424033D02*
X147035000Y-113407366D01*
X147035000Y-113407366D02*
X147068333Y-113407366D01*
X147068333Y-113407366D02*
X147118333Y-113424033D01*
X147118333Y-113424033D02*
X147135000Y-113440700D01*
X147468333Y-113757366D02*
X147268333Y-113757366D01*
X147368333Y-113757366D02*
X147368333Y-113407366D01*
X147368333Y-113407366D02*
X147335000Y-113457366D01*
X147335000Y-113457366D02*
X147301667Y-113490700D01*
X147301667Y-113490700D02*
X147268333Y-113507366D01*
X147585000Y-113407366D02*
X147801666Y-113407366D01*
X147801666Y-113407366D02*
X147685000Y-113540700D01*
X147685000Y-113540700D02*
X147735000Y-113540700D01*
X147735000Y-113540700D02*
X147768333Y-113557366D01*
X147768333Y-113557366D02*
X147785000Y-113574033D01*
X147785000Y-113574033D02*
X147801666Y-113607366D01*
X147801666Y-113607366D02*
X147801666Y-113690700D01*
X147801666Y-113690700D02*
X147785000Y-113724033D01*
X147785000Y-113724033D02*
X147768333Y-113740700D01*
X147768333Y-113740700D02*
X147735000Y-113757366D01*
X147735000Y-113757366D02*
X147635000Y-113757366D01*
X147635000Y-113757366D02*
X147601666Y-113740700D01*
X147601666Y-113740700D02*
X147585000Y-113724033D01*
X136345000Y-136449033D02*
X136328333Y-136465700D01*
X136328333Y-136465700D02*
X136278333Y-136482366D01*
X136278333Y-136482366D02*
X136245000Y-136482366D01*
X136245000Y-136482366D02*
X136195000Y-136465700D01*
X136195000Y-136465700D02*
X136161667Y-136432366D01*
X136161667Y-136432366D02*
X136145000Y-136399033D01*
X136145000Y-136399033D02*
X136128333Y-136332366D01*
X136128333Y-136332366D02*
X136128333Y-136282366D01*
X136128333Y-136282366D02*
X136145000Y-136215700D01*
X136145000Y-136215700D02*
X136161667Y-136182366D01*
X136161667Y-136182366D02*
X136195000Y-136149033D01*
X136195000Y-136149033D02*
X136245000Y-136132366D01*
X136245000Y-136132366D02*
X136278333Y-136132366D01*
X136278333Y-136132366D02*
X136328333Y-136149033D01*
X136328333Y-136149033D02*
X136345000Y-136165700D01*
X136661667Y-136132366D02*
X136495000Y-136132366D01*
X136495000Y-136132366D02*
X136478333Y-136299033D01*
X136478333Y-136299033D02*
X136495000Y-136282366D01*
X136495000Y-136282366D02*
X136528333Y-136265700D01*
X136528333Y-136265700D02*
X136611667Y-136265700D01*
X136611667Y-136265700D02*
X136645000Y-136282366D01*
X136645000Y-136282366D02*
X136661667Y-136299033D01*
X136661667Y-136299033D02*
X136678333Y-136332366D01*
X136678333Y-136332366D02*
X136678333Y-136415700D01*
X136678333Y-136415700D02*
X136661667Y-136449033D01*
X136661667Y-136449033D02*
X136645000Y-136465700D01*
X136645000Y-136465700D02*
X136611667Y-136482366D01*
X136611667Y-136482366D02*
X136528333Y-136482366D01*
X136528333Y-136482366D02*
X136495000Y-136465700D01*
X136495000Y-136465700D02*
X136478333Y-136449033D01*
X136795000Y-136132366D02*
X137011666Y-136132366D01*
X137011666Y-136132366D02*
X136895000Y-136265700D01*
X136895000Y-136265700D02*
X136945000Y-136265700D01*
X136945000Y-136265700D02*
X136978333Y-136282366D01*
X136978333Y-136282366D02*
X136995000Y-136299033D01*
X136995000Y-136299033D02*
X137011666Y-136332366D01*
X137011666Y-136332366D02*
X137011666Y-136415700D01*
X137011666Y-136415700D02*
X136995000Y-136449033D01*
X136995000Y-136449033D02*
X136978333Y-136465700D01*
X136978333Y-136465700D02*
X136945000Y-136482366D01*
X136945000Y-136482366D02*
X136845000Y-136482366D01*
X136845000Y-136482366D02*
X136811666Y-136465700D01*
X136811666Y-136465700D02*
X136795000Y-136449033D01*
X134878333Y-144357366D02*
X134878333Y-144607366D01*
X134878333Y-144607366D02*
X134861666Y-144657366D01*
X134861666Y-144657366D02*
X134828333Y-144690700D01*
X134828333Y-144690700D02*
X134778333Y-144707366D01*
X134778333Y-144707366D02*
X134745000Y-144707366D01*
X135195000Y-144474033D02*
X135195000Y-144707366D01*
X135111667Y-144340700D02*
X135028333Y-144590700D01*
X135028333Y-144590700D02*
X135245000Y-144590700D01*
X131194033Y-98758332D02*
X131210700Y-98774999D01*
X131210700Y-98774999D02*
X131227366Y-98824999D01*
X131227366Y-98824999D02*
X131227366Y-98858332D01*
X131227366Y-98858332D02*
X131210700Y-98908332D01*
X131210700Y-98908332D02*
X131177366Y-98941666D01*
X131177366Y-98941666D02*
X131144033Y-98958332D01*
X131144033Y-98958332D02*
X131077366Y-98974999D01*
X131077366Y-98974999D02*
X131027366Y-98974999D01*
X131027366Y-98974999D02*
X130960700Y-98958332D01*
X130960700Y-98958332D02*
X130927366Y-98941666D01*
X130927366Y-98941666D02*
X130894033Y-98908332D01*
X130894033Y-98908332D02*
X130877366Y-98858332D01*
X130877366Y-98858332D02*
X130877366Y-98824999D01*
X130877366Y-98824999D02*
X130894033Y-98774999D01*
X130894033Y-98774999D02*
X130910700Y-98758332D01*
X130877366Y-98441666D02*
X130877366Y-98608332D01*
X130877366Y-98608332D02*
X131044033Y-98624999D01*
X131044033Y-98624999D02*
X131027366Y-98608332D01*
X131027366Y-98608332D02*
X131010700Y-98574999D01*
X131010700Y-98574999D02*
X131010700Y-98491666D01*
X131010700Y-98491666D02*
X131027366Y-98458332D01*
X131027366Y-98458332D02*
X131044033Y-98441666D01*
X131044033Y-98441666D02*
X131077366Y-98424999D01*
X131077366Y-98424999D02*
X131160700Y-98424999D01*
X131160700Y-98424999D02*
X131194033Y-98441666D01*
X131194033Y-98441666D02*
X131210700Y-98458332D01*
X131210700Y-98458332D02*
X131227366Y-98491666D01*
X131227366Y-98491666D02*
X131227366Y-98574999D01*
X131227366Y-98574999D02*
X131210700Y-98608332D01*
X131210700Y-98608332D02*
X131194033Y-98624999D01*
X141644033Y-93549999D02*
X141660700Y-93566666D01*
X141660700Y-93566666D02*
X141677366Y-93616666D01*
X141677366Y-93616666D02*
X141677366Y-93649999D01*
X141677366Y-93649999D02*
X141660700Y-93699999D01*
X141660700Y-93699999D02*
X141627366Y-93733333D01*
X141627366Y-93733333D02*
X141594033Y-93749999D01*
X141594033Y-93749999D02*
X141527366Y-93766666D01*
X141527366Y-93766666D02*
X141477366Y-93766666D01*
X141477366Y-93766666D02*
X141410700Y-93749999D01*
X141410700Y-93749999D02*
X141377366Y-93733333D01*
X141377366Y-93733333D02*
X141344033Y-93699999D01*
X141344033Y-93699999D02*
X141327366Y-93649999D01*
X141327366Y-93649999D02*
X141327366Y-93616666D01*
X141327366Y-93616666D02*
X141344033Y-93566666D01*
X141344033Y-93566666D02*
X141360700Y-93549999D01*
X141444033Y-93249999D02*
X141677366Y-93249999D01*
X141310700Y-93333333D02*
X141560700Y-93416666D01*
X141560700Y-93416666D02*
X141560700Y-93199999D01*
X141327366Y-93000000D02*
X141327366Y-92966666D01*
X141327366Y-92966666D02*
X141344033Y-92933333D01*
X141344033Y-92933333D02*
X141360700Y-92916666D01*
X141360700Y-92916666D02*
X141394033Y-92900000D01*
X141394033Y-92900000D02*
X141460700Y-92883333D01*
X141460700Y-92883333D02*
X141544033Y-92883333D01*
X141544033Y-92883333D02*
X141610700Y-92900000D01*
X141610700Y-92900000D02*
X141644033Y-92916666D01*
X141644033Y-92916666D02*
X141660700Y-92933333D01*
X141660700Y-92933333D02*
X141677366Y-92966666D01*
X141677366Y-92966666D02*
X141677366Y-93000000D01*
X141677366Y-93000000D02*
X141660700Y-93033333D01*
X141660700Y-93033333D02*
X141644033Y-93050000D01*
X141644033Y-93050000D02*
X141610700Y-93066666D01*
X141610700Y-93066666D02*
X141544033Y-93083333D01*
X141544033Y-93083333D02*
X141460700Y-93083333D01*
X141460700Y-93083333D02*
X141394033Y-93066666D01*
X141394033Y-93066666D02*
X141360700Y-93050000D01*
X141360700Y-93050000D02*
X141344033Y-93033333D01*
X141344033Y-93033333D02*
X141327366Y-93000000D01*
X129430700Y-104316666D02*
X129597366Y-104316666D01*
X129247366Y-104433332D02*
X129430700Y-104316666D01*
X129430700Y-104316666D02*
X129247366Y-104199999D01*
X129597366Y-103899999D02*
X129597366Y-104099999D01*
X129597366Y-103999999D02*
X129247366Y-103999999D01*
X129247366Y-103999999D02*
X129297366Y-104033332D01*
X129297366Y-104033332D02*
X129330700Y-104066666D01*
X129330700Y-104066666D02*
X129347366Y-104099999D01*
X132467366Y-80041666D02*
X132717366Y-80041666D01*
X132717366Y-80041666D02*
X132767366Y-80058333D01*
X132767366Y-80058333D02*
X132800700Y-80091666D01*
X132800700Y-80091666D02*
X132817366Y-80141666D01*
X132817366Y-80141666D02*
X132817366Y-80175000D01*
X132500700Y-79891666D02*
X132484033Y-79874999D01*
X132484033Y-79874999D02*
X132467366Y-79841666D01*
X132467366Y-79841666D02*
X132467366Y-79758333D01*
X132467366Y-79758333D02*
X132484033Y-79724999D01*
X132484033Y-79724999D02*
X132500700Y-79708333D01*
X132500700Y-79708333D02*
X132534033Y-79691666D01*
X132534033Y-79691666D02*
X132567366Y-79691666D01*
X132567366Y-79691666D02*
X132617366Y-79708333D01*
X132617366Y-79708333D02*
X132817366Y-79908333D01*
X132817366Y-79908333D02*
X132817366Y-79691666D01*
X129078334Y-137624033D02*
X128961667Y-137624033D01*
X128961667Y-137807366D02*
X128961667Y-137457366D01*
X128961667Y-137457366D02*
X129128334Y-137457366D01*
X129378334Y-137624033D02*
X129428334Y-137640700D01*
X129428334Y-137640700D02*
X129445000Y-137657366D01*
X129445000Y-137657366D02*
X129461667Y-137690700D01*
X129461667Y-137690700D02*
X129461667Y-137740700D01*
X129461667Y-137740700D02*
X129445000Y-137774033D01*
X129445000Y-137774033D02*
X129428334Y-137790700D01*
X129428334Y-137790700D02*
X129395000Y-137807366D01*
X129395000Y-137807366D02*
X129261667Y-137807366D01*
X129261667Y-137807366D02*
X129261667Y-137457366D01*
X129261667Y-137457366D02*
X129378334Y-137457366D01*
X129378334Y-137457366D02*
X129411667Y-137474033D01*
X129411667Y-137474033D02*
X129428334Y-137490700D01*
X129428334Y-137490700D02*
X129445000Y-137524033D01*
X129445000Y-137524033D02*
X129445000Y-137557366D01*
X129445000Y-137557366D02*
X129428334Y-137590700D01*
X129428334Y-137590700D02*
X129411667Y-137607366D01*
X129411667Y-137607366D02*
X129378334Y-137624033D01*
X129378334Y-137624033D02*
X129261667Y-137624033D01*
X129595000Y-137490700D02*
X129611667Y-137474033D01*
X129611667Y-137474033D02*
X129645000Y-137457366D01*
X129645000Y-137457366D02*
X129728334Y-137457366D01*
X129728334Y-137457366D02*
X129761667Y-137474033D01*
X129761667Y-137474033D02*
X129778334Y-137490700D01*
X129778334Y-137490700D02*
X129795000Y-137524033D01*
X129795000Y-137524033D02*
X129795000Y-137557366D01*
X129795000Y-137557366D02*
X129778334Y-137607366D01*
X129778334Y-137607366D02*
X129578334Y-137807366D01*
X129578334Y-137807366D02*
X129795000Y-137807366D01*
X146605000Y-116449033D02*
X146588333Y-116465700D01*
X146588333Y-116465700D02*
X146538333Y-116482366D01*
X146538333Y-116482366D02*
X146505000Y-116482366D01*
X146505000Y-116482366D02*
X146455000Y-116465700D01*
X146455000Y-116465700D02*
X146421667Y-116432366D01*
X146421667Y-116432366D02*
X146405000Y-116399033D01*
X146405000Y-116399033D02*
X146388333Y-116332366D01*
X146388333Y-116332366D02*
X146388333Y-116282366D01*
X146388333Y-116282366D02*
X146405000Y-116215700D01*
X146405000Y-116215700D02*
X146421667Y-116182366D01*
X146421667Y-116182366D02*
X146455000Y-116149033D01*
X146455000Y-116149033D02*
X146505000Y-116132366D01*
X146505000Y-116132366D02*
X146538333Y-116132366D01*
X146538333Y-116132366D02*
X146588333Y-116149033D01*
X146588333Y-116149033D02*
X146605000Y-116165700D01*
X146905000Y-116249033D02*
X146905000Y-116482366D01*
X146821667Y-116115700D02*
X146738333Y-116365700D01*
X146738333Y-116365700D02*
X146955000Y-116365700D01*
X147255000Y-116132366D02*
X147088333Y-116132366D01*
X147088333Y-116132366D02*
X147071666Y-116299033D01*
X147071666Y-116299033D02*
X147088333Y-116282366D01*
X147088333Y-116282366D02*
X147121666Y-116265700D01*
X147121666Y-116265700D02*
X147205000Y-116265700D01*
X147205000Y-116265700D02*
X147238333Y-116282366D01*
X147238333Y-116282366D02*
X147255000Y-116299033D01*
X147255000Y-116299033D02*
X147271666Y-116332366D01*
X147271666Y-116332366D02*
X147271666Y-116415700D01*
X147271666Y-116415700D02*
X147255000Y-116449033D01*
X147255000Y-116449033D02*
X147238333Y-116465700D01*
X147238333Y-116465700D02*
X147205000Y-116482366D01*
X147205000Y-116482366D02*
X147121666Y-116482366D01*
X147121666Y-116482366D02*
X147088333Y-116465700D01*
X147088333Y-116465700D02*
X147071666Y-116449033D01*
X94183750Y-103505283D02*
X94167083Y-103521950D01*
X94167083Y-103521950D02*
X94117083Y-103538616D01*
X94117083Y-103538616D02*
X94083750Y-103538616D01*
X94083750Y-103538616D02*
X94033750Y-103521950D01*
X94033750Y-103521950D02*
X94000417Y-103488616D01*
X94000417Y-103488616D02*
X93983750Y-103455283D01*
X93983750Y-103455283D02*
X93967083Y-103388616D01*
X93967083Y-103388616D02*
X93967083Y-103338616D01*
X93967083Y-103338616D02*
X93983750Y-103271950D01*
X93983750Y-103271950D02*
X94000417Y-103238616D01*
X94000417Y-103238616D02*
X94033750Y-103205283D01*
X94033750Y-103205283D02*
X94083750Y-103188616D01*
X94083750Y-103188616D02*
X94117083Y-103188616D01*
X94117083Y-103188616D02*
X94167083Y-103205283D01*
X94167083Y-103205283D02*
X94183750Y-103221950D01*
X94317083Y-103221950D02*
X94333750Y-103205283D01*
X94333750Y-103205283D02*
X94367083Y-103188616D01*
X94367083Y-103188616D02*
X94450417Y-103188616D01*
X94450417Y-103188616D02*
X94483750Y-103205283D01*
X94483750Y-103205283D02*
X94500417Y-103221950D01*
X94500417Y-103221950D02*
X94517083Y-103255283D01*
X94517083Y-103255283D02*
X94517083Y-103288616D01*
X94517083Y-103288616D02*
X94500417Y-103338616D01*
X94500417Y-103338616D02*
X94300417Y-103538616D01*
X94300417Y-103538616D02*
X94517083Y-103538616D01*
X94833750Y-103188616D02*
X94667083Y-103188616D01*
X94667083Y-103188616D02*
X94650416Y-103355283D01*
X94650416Y-103355283D02*
X94667083Y-103338616D01*
X94667083Y-103338616D02*
X94700416Y-103321950D01*
X94700416Y-103321950D02*
X94783750Y-103321950D01*
X94783750Y-103321950D02*
X94817083Y-103338616D01*
X94817083Y-103338616D02*
X94833750Y-103355283D01*
X94833750Y-103355283D02*
X94850416Y-103388616D01*
X94850416Y-103388616D02*
X94850416Y-103471950D01*
X94850416Y-103471950D02*
X94833750Y-103505283D01*
X94833750Y-103505283D02*
X94817083Y-103521950D01*
X94817083Y-103521950D02*
X94783750Y-103538616D01*
X94783750Y-103538616D02*
X94700416Y-103538616D01*
X94700416Y-103538616D02*
X94667083Y-103521950D01*
X94667083Y-103521950D02*
X94650416Y-103505283D01*
X91208750Y-98015283D02*
X91192083Y-98031950D01*
X91192083Y-98031950D02*
X91142083Y-98048616D01*
X91142083Y-98048616D02*
X91108750Y-98048616D01*
X91108750Y-98048616D02*
X91058750Y-98031950D01*
X91058750Y-98031950D02*
X91025417Y-97998616D01*
X91025417Y-97998616D02*
X91008750Y-97965283D01*
X91008750Y-97965283D02*
X90992083Y-97898616D01*
X90992083Y-97898616D02*
X90992083Y-97848616D01*
X90992083Y-97848616D02*
X91008750Y-97781950D01*
X91008750Y-97781950D02*
X91025417Y-97748616D01*
X91025417Y-97748616D02*
X91058750Y-97715283D01*
X91058750Y-97715283D02*
X91108750Y-97698616D01*
X91108750Y-97698616D02*
X91142083Y-97698616D01*
X91142083Y-97698616D02*
X91192083Y-97715283D01*
X91192083Y-97715283D02*
X91208750Y-97731950D01*
X91525417Y-97698616D02*
X91358750Y-97698616D01*
X91358750Y-97698616D02*
X91342083Y-97865283D01*
X91342083Y-97865283D02*
X91358750Y-97848616D01*
X91358750Y-97848616D02*
X91392083Y-97831950D01*
X91392083Y-97831950D02*
X91475417Y-97831950D01*
X91475417Y-97831950D02*
X91508750Y-97848616D01*
X91508750Y-97848616D02*
X91525417Y-97865283D01*
X91525417Y-97865283D02*
X91542083Y-97898616D01*
X91542083Y-97898616D02*
X91542083Y-97981950D01*
X91542083Y-97981950D02*
X91525417Y-98015283D01*
X91525417Y-98015283D02*
X91508750Y-98031950D01*
X91508750Y-98031950D02*
X91475417Y-98048616D01*
X91475417Y-98048616D02*
X91392083Y-98048616D01*
X91392083Y-98048616D02*
X91358750Y-98031950D01*
X91358750Y-98031950D02*
X91342083Y-98015283D01*
X91842083Y-97698616D02*
X91775416Y-97698616D01*
X91775416Y-97698616D02*
X91742083Y-97715283D01*
X91742083Y-97715283D02*
X91725416Y-97731950D01*
X91725416Y-97731950D02*
X91692083Y-97781950D01*
X91692083Y-97781950D02*
X91675416Y-97848616D01*
X91675416Y-97848616D02*
X91675416Y-97981950D01*
X91675416Y-97981950D02*
X91692083Y-98015283D01*
X91692083Y-98015283D02*
X91708750Y-98031950D01*
X91708750Y-98031950D02*
X91742083Y-98048616D01*
X91742083Y-98048616D02*
X91808750Y-98048616D01*
X91808750Y-98048616D02*
X91842083Y-98031950D01*
X91842083Y-98031950D02*
X91858750Y-98015283D01*
X91858750Y-98015283D02*
X91875416Y-97981950D01*
X91875416Y-97981950D02*
X91875416Y-97898616D01*
X91875416Y-97898616D02*
X91858750Y-97865283D01*
X91858750Y-97865283D02*
X91842083Y-97848616D01*
X91842083Y-97848616D02*
X91808750Y-97831950D01*
X91808750Y-97831950D02*
X91742083Y-97831950D01*
X91742083Y-97831950D02*
X91708750Y-97848616D01*
X91708750Y-97848616D02*
X91692083Y-97865283D01*
X91692083Y-97865283D02*
X91675416Y-97898616D01*
X123711667Y-85332366D02*
X123595000Y-85165700D01*
X123511667Y-85332366D02*
X123511667Y-84982366D01*
X123511667Y-84982366D02*
X123645000Y-84982366D01*
X123645000Y-84982366D02*
X123678334Y-84999033D01*
X123678334Y-84999033D02*
X123695000Y-85015700D01*
X123695000Y-85015700D02*
X123711667Y-85049033D01*
X123711667Y-85049033D02*
X123711667Y-85099033D01*
X123711667Y-85099033D02*
X123695000Y-85132366D01*
X123695000Y-85132366D02*
X123678334Y-85149033D01*
X123678334Y-85149033D02*
X123645000Y-85165700D01*
X123645000Y-85165700D02*
X123511667Y-85165700D01*
X124045000Y-85332366D02*
X123845000Y-85332366D01*
X123945000Y-85332366D02*
X123945000Y-84982366D01*
X123945000Y-84982366D02*
X123911667Y-85032366D01*
X123911667Y-85032366D02*
X123878334Y-85065700D01*
X123878334Y-85065700D02*
X123845000Y-85082366D01*
X87358750Y-95743616D02*
X87242083Y-95576950D01*
X87158750Y-95743616D02*
X87158750Y-95393616D01*
X87158750Y-95393616D02*
X87292083Y-95393616D01*
X87292083Y-95393616D02*
X87325417Y-95410283D01*
X87325417Y-95410283D02*
X87342083Y-95426950D01*
X87342083Y-95426950D02*
X87358750Y-95460283D01*
X87358750Y-95460283D02*
X87358750Y-95510283D01*
X87358750Y-95510283D02*
X87342083Y-95543616D01*
X87342083Y-95543616D02*
X87325417Y-95560283D01*
X87325417Y-95560283D02*
X87292083Y-95576950D01*
X87292083Y-95576950D02*
X87158750Y-95576950D01*
X87492083Y-95426950D02*
X87508750Y-95410283D01*
X87508750Y-95410283D02*
X87542083Y-95393616D01*
X87542083Y-95393616D02*
X87625417Y-95393616D01*
X87625417Y-95393616D02*
X87658750Y-95410283D01*
X87658750Y-95410283D02*
X87675417Y-95426950D01*
X87675417Y-95426950D02*
X87692083Y-95460283D01*
X87692083Y-95460283D02*
X87692083Y-95493616D01*
X87692083Y-95493616D02*
X87675417Y-95543616D01*
X87675417Y-95543616D02*
X87475417Y-95743616D01*
X87475417Y-95743616D02*
X87692083Y-95743616D01*
X87992083Y-95510283D02*
X87992083Y-95743616D01*
X87908750Y-95376950D02*
X87825416Y-95626950D01*
X87825416Y-95626950D02*
X88042083Y-95626950D01*
X138191667Y-97734033D02*
X138175000Y-97750700D01*
X138175000Y-97750700D02*
X138125000Y-97767366D01*
X138125000Y-97767366D02*
X138091667Y-97767366D01*
X138091667Y-97767366D02*
X138041667Y-97750700D01*
X138041667Y-97750700D02*
X138008334Y-97717366D01*
X138008334Y-97717366D02*
X137991667Y-97684033D01*
X137991667Y-97684033D02*
X137975000Y-97617366D01*
X137975000Y-97617366D02*
X137975000Y-97567366D01*
X137975000Y-97567366D02*
X137991667Y-97500700D01*
X137991667Y-97500700D02*
X138008334Y-97467366D01*
X138008334Y-97467366D02*
X138041667Y-97434033D01*
X138041667Y-97434033D02*
X138091667Y-97417366D01*
X138091667Y-97417366D02*
X138125000Y-97417366D01*
X138125000Y-97417366D02*
X138175000Y-97434033D01*
X138175000Y-97434033D02*
X138191667Y-97450700D01*
X138491667Y-97534033D02*
X138491667Y-97767366D01*
X138408334Y-97400700D02*
X138325000Y-97650700D01*
X138325000Y-97650700D02*
X138541667Y-97650700D01*
X129486667Y-110724033D02*
X129470000Y-110740700D01*
X129470000Y-110740700D02*
X129420000Y-110757366D01*
X129420000Y-110757366D02*
X129386667Y-110757366D01*
X129386667Y-110757366D02*
X129336667Y-110740700D01*
X129336667Y-110740700D02*
X129303334Y-110707366D01*
X129303334Y-110707366D02*
X129286667Y-110674033D01*
X129286667Y-110674033D02*
X129270000Y-110607366D01*
X129270000Y-110607366D02*
X129270000Y-110557366D01*
X129270000Y-110557366D02*
X129286667Y-110490700D01*
X129286667Y-110490700D02*
X129303334Y-110457366D01*
X129303334Y-110457366D02*
X129336667Y-110424033D01*
X129336667Y-110424033D02*
X129386667Y-110407366D01*
X129386667Y-110407366D02*
X129420000Y-110407366D01*
X129420000Y-110407366D02*
X129470000Y-110424033D01*
X129470000Y-110424033D02*
X129486667Y-110440700D01*
X129603334Y-110407366D02*
X129836667Y-110407366D01*
X129836667Y-110407366D02*
X129686667Y-110757366D01*
D11*
X166608095Y-77104819D02*
X166608095Y-76104819D01*
X166608095Y-76581009D02*
X167179523Y-76581009D01*
X167179523Y-77104819D02*
X167179523Y-76104819D01*
X168084285Y-76438152D02*
X168084285Y-77104819D01*
X167846190Y-76057200D02*
X167608095Y-76771485D01*
X167608095Y-76771485D02*
X168227142Y-76771485D01*
D10*
X169628333Y-109327366D02*
X169628333Y-109577366D01*
X169628333Y-109577366D02*
X169611666Y-109627366D01*
X169611666Y-109627366D02*
X169578333Y-109660700D01*
X169578333Y-109660700D02*
X169528333Y-109677366D01*
X169528333Y-109677366D02*
X169495000Y-109677366D01*
X169978333Y-109677366D02*
X169778333Y-109677366D01*
X169878333Y-109677366D02*
X169878333Y-109327366D01*
X169878333Y-109327366D02*
X169845000Y-109377366D01*
X169845000Y-109377366D02*
X169811667Y-109410700D01*
X169811667Y-109410700D02*
X169778333Y-109427366D01*
X111860000Y-134207366D02*
X111743333Y-134040700D01*
X111660000Y-134207366D02*
X111660000Y-133857366D01*
X111660000Y-133857366D02*
X111793333Y-133857366D01*
X111793333Y-133857366D02*
X111826667Y-133874033D01*
X111826667Y-133874033D02*
X111843333Y-133890700D01*
X111843333Y-133890700D02*
X111860000Y-133924033D01*
X111860000Y-133924033D02*
X111860000Y-133974033D01*
X111860000Y-133974033D02*
X111843333Y-134007366D01*
X111843333Y-134007366D02*
X111826667Y-134024033D01*
X111826667Y-134024033D02*
X111793333Y-134040700D01*
X111793333Y-134040700D02*
X111660000Y-134040700D01*
X111993333Y-133890700D02*
X112010000Y-133874033D01*
X112010000Y-133874033D02*
X112043333Y-133857366D01*
X112043333Y-133857366D02*
X112126667Y-133857366D01*
X112126667Y-133857366D02*
X112160000Y-133874033D01*
X112160000Y-133874033D02*
X112176667Y-133890700D01*
X112176667Y-133890700D02*
X112193333Y-133924033D01*
X112193333Y-133924033D02*
X112193333Y-133957366D01*
X112193333Y-133957366D02*
X112176667Y-134007366D01*
X112176667Y-134007366D02*
X111976667Y-134207366D01*
X111976667Y-134207366D02*
X112193333Y-134207366D01*
X112526666Y-134207366D02*
X112326666Y-134207366D01*
X112426666Y-134207366D02*
X112426666Y-133857366D01*
X112426666Y-133857366D02*
X112393333Y-133907366D01*
X112393333Y-133907366D02*
X112360000Y-133940700D01*
X112360000Y-133940700D02*
X112326666Y-133957366D01*
D11*
X76608095Y-77104819D02*
X76608095Y-76104819D01*
X76608095Y-76581009D02*
X77179523Y-76581009D01*
X77179523Y-77104819D02*
X77179523Y-76104819D01*
X77560476Y-76104819D02*
X78179523Y-76104819D01*
X78179523Y-76104819D02*
X77846190Y-76485771D01*
X77846190Y-76485771D02*
X77989047Y-76485771D01*
X77989047Y-76485771D02*
X78084285Y-76533390D01*
X78084285Y-76533390D02*
X78131904Y-76581009D01*
X78131904Y-76581009D02*
X78179523Y-76676247D01*
X78179523Y-76676247D02*
X78179523Y-76914342D01*
X78179523Y-76914342D02*
X78131904Y-77009580D01*
X78131904Y-77009580D02*
X78084285Y-77057200D01*
X78084285Y-77057200D02*
X77989047Y-77104819D01*
X77989047Y-77104819D02*
X77703333Y-77104819D01*
X77703333Y-77104819D02*
X77608095Y-77057200D01*
X77608095Y-77057200D02*
X77560476Y-77009580D01*
D10*
X114385000Y-118157366D02*
X114268333Y-117990700D01*
X114185000Y-118157366D02*
X114185000Y-117807366D01*
X114185000Y-117807366D02*
X114318333Y-117807366D01*
X114318333Y-117807366D02*
X114351667Y-117824033D01*
X114351667Y-117824033D02*
X114368333Y-117840700D01*
X114368333Y-117840700D02*
X114385000Y-117874033D01*
X114385000Y-117874033D02*
X114385000Y-117924033D01*
X114385000Y-117924033D02*
X114368333Y-117957366D01*
X114368333Y-117957366D02*
X114351667Y-117974033D01*
X114351667Y-117974033D02*
X114318333Y-117990700D01*
X114318333Y-117990700D02*
X114185000Y-117990700D01*
X114718333Y-118157366D02*
X114518333Y-118157366D01*
X114618333Y-118157366D02*
X114618333Y-117807366D01*
X114618333Y-117807366D02*
X114585000Y-117857366D01*
X114585000Y-117857366D02*
X114551667Y-117890700D01*
X114551667Y-117890700D02*
X114518333Y-117907366D01*
X114835000Y-117807366D02*
X115068333Y-117807366D01*
X115068333Y-117807366D02*
X114918333Y-118157366D01*
X129760000Y-136434033D02*
X129743333Y-136450700D01*
X129743333Y-136450700D02*
X129693333Y-136467366D01*
X129693333Y-136467366D02*
X129660000Y-136467366D01*
X129660000Y-136467366D02*
X129610000Y-136450700D01*
X129610000Y-136450700D02*
X129576667Y-136417366D01*
X129576667Y-136417366D02*
X129560000Y-136384033D01*
X129560000Y-136384033D02*
X129543333Y-136317366D01*
X129543333Y-136317366D02*
X129543333Y-136267366D01*
X129543333Y-136267366D02*
X129560000Y-136200700D01*
X129560000Y-136200700D02*
X129576667Y-136167366D01*
X129576667Y-136167366D02*
X129610000Y-136134033D01*
X129610000Y-136134033D02*
X129660000Y-136117366D01*
X129660000Y-136117366D02*
X129693333Y-136117366D01*
X129693333Y-136117366D02*
X129743333Y-136134033D01*
X129743333Y-136134033D02*
X129760000Y-136150700D01*
X130076667Y-136117366D02*
X129910000Y-136117366D01*
X129910000Y-136117366D02*
X129893333Y-136284033D01*
X129893333Y-136284033D02*
X129910000Y-136267366D01*
X129910000Y-136267366D02*
X129943333Y-136250700D01*
X129943333Y-136250700D02*
X130026667Y-136250700D01*
X130026667Y-136250700D02*
X130060000Y-136267366D01*
X130060000Y-136267366D02*
X130076667Y-136284033D01*
X130076667Y-136284033D02*
X130093333Y-136317366D01*
X130093333Y-136317366D02*
X130093333Y-136400700D01*
X130093333Y-136400700D02*
X130076667Y-136434033D01*
X130076667Y-136434033D02*
X130060000Y-136450700D01*
X130060000Y-136450700D02*
X130026667Y-136467366D01*
X130026667Y-136467366D02*
X129943333Y-136467366D01*
X129943333Y-136467366D02*
X129910000Y-136450700D01*
X129910000Y-136450700D02*
X129893333Y-136434033D01*
X130226666Y-136150700D02*
X130243333Y-136134033D01*
X130243333Y-136134033D02*
X130276666Y-136117366D01*
X130276666Y-136117366D02*
X130360000Y-136117366D01*
X130360000Y-136117366D02*
X130393333Y-136134033D01*
X130393333Y-136134033D02*
X130410000Y-136150700D01*
X130410000Y-136150700D02*
X130426666Y-136184033D01*
X130426666Y-136184033D02*
X130426666Y-136217366D01*
X130426666Y-136217366D02*
X130410000Y-136267366D01*
X130410000Y-136267366D02*
X130210000Y-136467366D01*
X130210000Y-136467366D02*
X130426666Y-136467366D01*
X117272083Y-111126116D02*
X117272083Y-111409450D01*
X117272083Y-111409450D02*
X117288750Y-111442783D01*
X117288750Y-111442783D02*
X117305416Y-111459450D01*
X117305416Y-111459450D02*
X117338750Y-111476116D01*
X117338750Y-111476116D02*
X117405416Y-111476116D01*
X117405416Y-111476116D02*
X117438750Y-111459450D01*
X117438750Y-111459450D02*
X117455416Y-111442783D01*
X117455416Y-111442783D02*
X117472083Y-111409450D01*
X117472083Y-111409450D02*
X117472083Y-111126116D01*
X117788750Y-111242783D02*
X117788750Y-111476116D01*
X117705417Y-111109450D02*
X117622083Y-111359450D01*
X117622083Y-111359450D02*
X117838750Y-111359450D01*
X112196116Y-109977083D02*
X112196116Y-110143749D01*
X112196116Y-110143749D02*
X111846116Y-110143749D01*
X111879450Y-109877083D02*
X111862783Y-109860416D01*
X111862783Y-109860416D02*
X111846116Y-109827083D01*
X111846116Y-109827083D02*
X111846116Y-109743750D01*
X111846116Y-109743750D02*
X111862783Y-109710416D01*
X111862783Y-109710416D02*
X111879450Y-109693750D01*
X111879450Y-109693750D02*
X111912783Y-109677083D01*
X111912783Y-109677083D02*
X111946116Y-109677083D01*
X111946116Y-109677083D02*
X111996116Y-109693750D01*
X111996116Y-109693750D02*
X112196116Y-109893750D01*
X112196116Y-109893750D02*
X112196116Y-109677083D01*
X100625000Y-108044033D02*
X100608333Y-108060700D01*
X100608333Y-108060700D02*
X100558333Y-108077366D01*
X100558333Y-108077366D02*
X100525000Y-108077366D01*
X100525000Y-108077366D02*
X100475000Y-108060700D01*
X100475000Y-108060700D02*
X100441667Y-108027366D01*
X100441667Y-108027366D02*
X100425000Y-107994033D01*
X100425000Y-107994033D02*
X100408333Y-107927366D01*
X100408333Y-107927366D02*
X100408333Y-107877366D01*
X100408333Y-107877366D02*
X100425000Y-107810700D01*
X100425000Y-107810700D02*
X100441667Y-107777366D01*
X100441667Y-107777366D02*
X100475000Y-107744033D01*
X100475000Y-107744033D02*
X100525000Y-107727366D01*
X100525000Y-107727366D02*
X100558333Y-107727366D01*
X100558333Y-107727366D02*
X100608333Y-107744033D01*
X100608333Y-107744033D02*
X100625000Y-107760700D01*
X100758333Y-107760700D02*
X100775000Y-107744033D01*
X100775000Y-107744033D02*
X100808333Y-107727366D01*
X100808333Y-107727366D02*
X100891667Y-107727366D01*
X100891667Y-107727366D02*
X100925000Y-107744033D01*
X100925000Y-107744033D02*
X100941667Y-107760700D01*
X100941667Y-107760700D02*
X100958333Y-107794033D01*
X100958333Y-107794033D02*
X100958333Y-107827366D01*
X100958333Y-107827366D02*
X100941667Y-107877366D01*
X100941667Y-107877366D02*
X100741667Y-108077366D01*
X100741667Y-108077366D02*
X100958333Y-108077366D01*
X101158333Y-107877366D02*
X101125000Y-107860700D01*
X101125000Y-107860700D02*
X101108333Y-107844033D01*
X101108333Y-107844033D02*
X101091666Y-107810700D01*
X101091666Y-107810700D02*
X101091666Y-107794033D01*
X101091666Y-107794033D02*
X101108333Y-107760700D01*
X101108333Y-107760700D02*
X101125000Y-107744033D01*
X101125000Y-107744033D02*
X101158333Y-107727366D01*
X101158333Y-107727366D02*
X101225000Y-107727366D01*
X101225000Y-107727366D02*
X101258333Y-107744033D01*
X101258333Y-107744033D02*
X101275000Y-107760700D01*
X101275000Y-107760700D02*
X101291666Y-107794033D01*
X101291666Y-107794033D02*
X101291666Y-107810700D01*
X101291666Y-107810700D02*
X101275000Y-107844033D01*
X101275000Y-107844033D02*
X101258333Y-107860700D01*
X101258333Y-107860700D02*
X101225000Y-107877366D01*
X101225000Y-107877366D02*
X101158333Y-107877366D01*
X101158333Y-107877366D02*
X101125000Y-107894033D01*
X101125000Y-107894033D02*
X101108333Y-107910700D01*
X101108333Y-107910700D02*
X101091666Y-107944033D01*
X101091666Y-107944033D02*
X101091666Y-108010700D01*
X101091666Y-108010700D02*
X101108333Y-108044033D01*
X101108333Y-108044033D02*
X101125000Y-108060700D01*
X101125000Y-108060700D02*
X101158333Y-108077366D01*
X101158333Y-108077366D02*
X101225000Y-108077366D01*
X101225000Y-108077366D02*
X101258333Y-108060700D01*
X101258333Y-108060700D02*
X101275000Y-108044033D01*
X101275000Y-108044033D02*
X101291666Y-108010700D01*
X101291666Y-108010700D02*
X101291666Y-107944033D01*
X101291666Y-107944033D02*
X101275000Y-107910700D01*
X101275000Y-107910700D02*
X101258333Y-107894033D01*
X101258333Y-107894033D02*
X101225000Y-107877366D01*
X131020000Y-139132366D02*
X130903333Y-138965700D01*
X130820000Y-139132366D02*
X130820000Y-138782366D01*
X130820000Y-138782366D02*
X130953333Y-138782366D01*
X130953333Y-138782366D02*
X130986667Y-138799033D01*
X130986667Y-138799033D02*
X131003333Y-138815700D01*
X131003333Y-138815700D02*
X131020000Y-138849033D01*
X131020000Y-138849033D02*
X131020000Y-138899033D01*
X131020000Y-138899033D02*
X131003333Y-138932366D01*
X131003333Y-138932366D02*
X130986667Y-138949033D01*
X130986667Y-138949033D02*
X130953333Y-138965700D01*
X130953333Y-138965700D02*
X130820000Y-138965700D01*
X131353333Y-139132366D02*
X131153333Y-139132366D01*
X131253333Y-139132366D02*
X131253333Y-138782366D01*
X131253333Y-138782366D02*
X131220000Y-138832366D01*
X131220000Y-138832366D02*
X131186667Y-138865700D01*
X131186667Y-138865700D02*
X131153333Y-138882366D01*
X131520000Y-139132366D02*
X131586666Y-139132366D01*
X131586666Y-139132366D02*
X131620000Y-139115700D01*
X131620000Y-139115700D02*
X131636666Y-139099033D01*
X131636666Y-139099033D02*
X131670000Y-139049033D01*
X131670000Y-139049033D02*
X131686666Y-138982366D01*
X131686666Y-138982366D02*
X131686666Y-138849033D01*
X131686666Y-138849033D02*
X131670000Y-138815700D01*
X131670000Y-138815700D02*
X131653333Y-138799033D01*
X131653333Y-138799033D02*
X131620000Y-138782366D01*
X131620000Y-138782366D02*
X131553333Y-138782366D01*
X131553333Y-138782366D02*
X131520000Y-138799033D01*
X131520000Y-138799033D02*
X131503333Y-138815700D01*
X131503333Y-138815700D02*
X131486666Y-138849033D01*
X131486666Y-138849033D02*
X131486666Y-138932366D01*
X131486666Y-138932366D02*
X131503333Y-138965700D01*
X131503333Y-138965700D02*
X131520000Y-138982366D01*
X131520000Y-138982366D02*
X131553333Y-138999033D01*
X131553333Y-138999033D02*
X131620000Y-138999033D01*
X131620000Y-138999033D02*
X131653333Y-138982366D01*
X131653333Y-138982366D02*
X131670000Y-138965700D01*
X131670000Y-138965700D02*
X131686666Y-138932366D01*
X122308750Y-114855283D02*
X122292083Y-114871950D01*
X122292083Y-114871950D02*
X122242083Y-114888616D01*
X122242083Y-114888616D02*
X122208750Y-114888616D01*
X122208750Y-114888616D02*
X122158750Y-114871950D01*
X122158750Y-114871950D02*
X122125417Y-114838616D01*
X122125417Y-114838616D02*
X122108750Y-114805283D01*
X122108750Y-114805283D02*
X122092083Y-114738616D01*
X122092083Y-114738616D02*
X122092083Y-114688616D01*
X122092083Y-114688616D02*
X122108750Y-114621950D01*
X122108750Y-114621950D02*
X122125417Y-114588616D01*
X122125417Y-114588616D02*
X122158750Y-114555283D01*
X122158750Y-114555283D02*
X122208750Y-114538616D01*
X122208750Y-114538616D02*
X122242083Y-114538616D01*
X122242083Y-114538616D02*
X122292083Y-114555283D01*
X122292083Y-114555283D02*
X122308750Y-114571950D01*
X122425417Y-114538616D02*
X122642083Y-114538616D01*
X122642083Y-114538616D02*
X122525417Y-114671950D01*
X122525417Y-114671950D02*
X122575417Y-114671950D01*
X122575417Y-114671950D02*
X122608750Y-114688616D01*
X122608750Y-114688616D02*
X122625417Y-114705283D01*
X122625417Y-114705283D02*
X122642083Y-114738616D01*
X122642083Y-114738616D02*
X122642083Y-114821950D01*
X122642083Y-114821950D02*
X122625417Y-114855283D01*
X122625417Y-114855283D02*
X122608750Y-114871950D01*
X122608750Y-114871950D02*
X122575417Y-114888616D01*
X122575417Y-114888616D02*
X122475417Y-114888616D01*
X122475417Y-114888616D02*
X122442083Y-114871950D01*
X122442083Y-114871950D02*
X122425417Y-114855283D01*
X122942083Y-114655283D02*
X122942083Y-114888616D01*
X122858750Y-114521950D02*
X122775416Y-114771950D01*
X122775416Y-114771950D02*
X122992083Y-114771950D01*
X91275000Y-113157366D02*
X91158333Y-112990700D01*
X91075000Y-113157366D02*
X91075000Y-112807366D01*
X91075000Y-112807366D02*
X91208333Y-112807366D01*
X91208333Y-112807366D02*
X91241667Y-112824033D01*
X91241667Y-112824033D02*
X91258333Y-112840700D01*
X91258333Y-112840700D02*
X91275000Y-112874033D01*
X91275000Y-112874033D02*
X91275000Y-112924033D01*
X91275000Y-112924033D02*
X91258333Y-112957366D01*
X91258333Y-112957366D02*
X91241667Y-112974033D01*
X91241667Y-112974033D02*
X91208333Y-112990700D01*
X91208333Y-112990700D02*
X91075000Y-112990700D01*
X91608333Y-113157366D02*
X91408333Y-113157366D01*
X91508333Y-113157366D02*
X91508333Y-112807366D01*
X91508333Y-112807366D02*
X91475000Y-112857366D01*
X91475000Y-112857366D02*
X91441667Y-112890700D01*
X91441667Y-112890700D02*
X91408333Y-112907366D01*
X91908333Y-112924033D02*
X91908333Y-113157366D01*
X91825000Y-112790700D02*
X91741666Y-113040700D01*
X91741666Y-113040700D02*
X91958333Y-113040700D01*
X139106667Y-115639033D02*
X139090000Y-115655700D01*
X139090000Y-115655700D02*
X139040000Y-115672366D01*
X139040000Y-115672366D02*
X139006667Y-115672366D01*
X139006667Y-115672366D02*
X138956667Y-115655700D01*
X138956667Y-115655700D02*
X138923334Y-115622366D01*
X138923334Y-115622366D02*
X138906667Y-115589033D01*
X138906667Y-115589033D02*
X138890000Y-115522366D01*
X138890000Y-115522366D02*
X138890000Y-115472366D01*
X138890000Y-115472366D02*
X138906667Y-115405700D01*
X138906667Y-115405700D02*
X138923334Y-115372366D01*
X138923334Y-115372366D02*
X138956667Y-115339033D01*
X138956667Y-115339033D02*
X139006667Y-115322366D01*
X139006667Y-115322366D02*
X139040000Y-115322366D01*
X139040000Y-115322366D02*
X139090000Y-115339033D01*
X139090000Y-115339033D02*
X139106667Y-115355700D01*
X139440000Y-115672366D02*
X139240000Y-115672366D01*
X139340000Y-115672366D02*
X139340000Y-115322366D01*
X139340000Y-115322366D02*
X139306667Y-115372366D01*
X139306667Y-115372366D02*
X139273334Y-115405700D01*
X139273334Y-115405700D02*
X139240000Y-115422366D01*
X131653334Y-120840700D02*
X131653334Y-121007366D01*
X131536667Y-120657366D02*
X131653334Y-120840700D01*
X131653334Y-120840700D02*
X131770000Y-120657366D01*
X131870000Y-120690700D02*
X131886667Y-120674033D01*
X131886667Y-120674033D02*
X131920000Y-120657366D01*
X131920000Y-120657366D02*
X132003334Y-120657366D01*
X132003334Y-120657366D02*
X132036667Y-120674033D01*
X132036667Y-120674033D02*
X132053334Y-120690700D01*
X132053334Y-120690700D02*
X132070000Y-120724033D01*
X132070000Y-120724033D02*
X132070000Y-120757366D01*
X132070000Y-120757366D02*
X132053334Y-120807366D01*
X132053334Y-120807366D02*
X131853334Y-121007366D01*
X131853334Y-121007366D02*
X132070000Y-121007366D01*
X130116667Y-108974033D02*
X130100000Y-108990700D01*
X130100000Y-108990700D02*
X130050000Y-109007366D01*
X130050000Y-109007366D02*
X130016667Y-109007366D01*
X130016667Y-109007366D02*
X129966667Y-108990700D01*
X129966667Y-108990700D02*
X129933334Y-108957366D01*
X129933334Y-108957366D02*
X129916667Y-108924033D01*
X129916667Y-108924033D02*
X129900000Y-108857366D01*
X129900000Y-108857366D02*
X129900000Y-108807366D01*
X129900000Y-108807366D02*
X129916667Y-108740700D01*
X129916667Y-108740700D02*
X129933334Y-108707366D01*
X129933334Y-108707366D02*
X129966667Y-108674033D01*
X129966667Y-108674033D02*
X130016667Y-108657366D01*
X130016667Y-108657366D02*
X130050000Y-108657366D01*
X130050000Y-108657366D02*
X130100000Y-108674033D01*
X130100000Y-108674033D02*
X130116667Y-108690700D01*
X130416667Y-108657366D02*
X130350000Y-108657366D01*
X130350000Y-108657366D02*
X130316667Y-108674033D01*
X130316667Y-108674033D02*
X130300000Y-108690700D01*
X130300000Y-108690700D02*
X130266667Y-108740700D01*
X130266667Y-108740700D02*
X130250000Y-108807366D01*
X130250000Y-108807366D02*
X130250000Y-108940700D01*
X130250000Y-108940700D02*
X130266667Y-108974033D01*
X130266667Y-108974033D02*
X130283334Y-108990700D01*
X130283334Y-108990700D02*
X130316667Y-109007366D01*
X130316667Y-109007366D02*
X130383334Y-109007366D01*
X130383334Y-109007366D02*
X130416667Y-108990700D01*
X130416667Y-108990700D02*
X130433334Y-108974033D01*
X130433334Y-108974033D02*
X130450000Y-108940700D01*
X130450000Y-108940700D02*
X130450000Y-108857366D01*
X130450000Y-108857366D02*
X130433334Y-108824033D01*
X130433334Y-108824033D02*
X130416667Y-108807366D01*
X130416667Y-108807366D02*
X130383334Y-108790700D01*
X130383334Y-108790700D02*
X130316667Y-108790700D01*
X130316667Y-108790700D02*
X130283334Y-108807366D01*
X130283334Y-108807366D02*
X130266667Y-108824033D01*
X130266667Y-108824033D02*
X130250000Y-108857366D01*
X170570000Y-134874033D02*
X170553333Y-134890700D01*
X170553333Y-134890700D02*
X170503333Y-134907366D01*
X170503333Y-134907366D02*
X170470000Y-134907366D01*
X170470000Y-134907366D02*
X170420000Y-134890700D01*
X170420000Y-134890700D02*
X170386667Y-134857366D01*
X170386667Y-134857366D02*
X170370000Y-134824033D01*
X170370000Y-134824033D02*
X170353333Y-134757366D01*
X170353333Y-134757366D02*
X170353333Y-134707366D01*
X170353333Y-134707366D02*
X170370000Y-134640700D01*
X170370000Y-134640700D02*
X170386667Y-134607366D01*
X170386667Y-134607366D02*
X170420000Y-134574033D01*
X170420000Y-134574033D02*
X170470000Y-134557366D01*
X170470000Y-134557366D02*
X170503333Y-134557366D01*
X170503333Y-134557366D02*
X170553333Y-134574033D01*
X170553333Y-134574033D02*
X170570000Y-134590700D01*
X170870000Y-134674033D02*
X170870000Y-134907366D01*
X170786667Y-134540700D02*
X170703333Y-134790700D01*
X170703333Y-134790700D02*
X170920000Y-134790700D01*
X171020000Y-134557366D02*
X171236666Y-134557366D01*
X171236666Y-134557366D02*
X171120000Y-134690700D01*
X171120000Y-134690700D02*
X171170000Y-134690700D01*
X171170000Y-134690700D02*
X171203333Y-134707366D01*
X171203333Y-134707366D02*
X171220000Y-134724033D01*
X171220000Y-134724033D02*
X171236666Y-134757366D01*
X171236666Y-134757366D02*
X171236666Y-134840700D01*
X171236666Y-134840700D02*
X171220000Y-134874033D01*
X171220000Y-134874033D02*
X171203333Y-134890700D01*
X171203333Y-134890700D02*
X171170000Y-134907366D01*
X171170000Y-134907366D02*
X171070000Y-134907366D01*
X171070000Y-134907366D02*
X171036666Y-134890700D01*
X171036666Y-134890700D02*
X171020000Y-134874033D01*
X167470000Y-137324033D02*
X167453333Y-137340700D01*
X167453333Y-137340700D02*
X167403333Y-137357366D01*
X167403333Y-137357366D02*
X167370000Y-137357366D01*
X167370000Y-137357366D02*
X167320000Y-137340700D01*
X167320000Y-137340700D02*
X167286667Y-137307366D01*
X167286667Y-137307366D02*
X167270000Y-137274033D01*
X167270000Y-137274033D02*
X167253333Y-137207366D01*
X167253333Y-137207366D02*
X167253333Y-137157366D01*
X167253333Y-137157366D02*
X167270000Y-137090700D01*
X167270000Y-137090700D02*
X167286667Y-137057366D01*
X167286667Y-137057366D02*
X167320000Y-137024033D01*
X167320000Y-137024033D02*
X167370000Y-137007366D01*
X167370000Y-137007366D02*
X167403333Y-137007366D01*
X167403333Y-137007366D02*
X167453333Y-137024033D01*
X167453333Y-137024033D02*
X167470000Y-137040700D01*
X167770000Y-137124033D02*
X167770000Y-137357366D01*
X167686667Y-136990700D02*
X167603333Y-137240700D01*
X167603333Y-137240700D02*
X167820000Y-137240700D01*
X168136666Y-137357366D02*
X167936666Y-137357366D01*
X168036666Y-137357366D02*
X168036666Y-137007366D01*
X168036666Y-137007366D02*
X168003333Y-137057366D01*
X168003333Y-137057366D02*
X167970000Y-137090700D01*
X167970000Y-137090700D02*
X167936666Y-137107366D01*
X145075000Y-91584033D02*
X145058333Y-91600700D01*
X145058333Y-91600700D02*
X145008333Y-91617366D01*
X145008333Y-91617366D02*
X144975000Y-91617366D01*
X144975000Y-91617366D02*
X144925000Y-91600700D01*
X144925000Y-91600700D02*
X144891667Y-91567366D01*
X144891667Y-91567366D02*
X144875000Y-91534033D01*
X144875000Y-91534033D02*
X144858333Y-91467366D01*
X144858333Y-91467366D02*
X144858333Y-91417366D01*
X144858333Y-91417366D02*
X144875000Y-91350700D01*
X144875000Y-91350700D02*
X144891667Y-91317366D01*
X144891667Y-91317366D02*
X144925000Y-91284033D01*
X144925000Y-91284033D02*
X144975000Y-91267366D01*
X144975000Y-91267366D02*
X145008333Y-91267366D01*
X145008333Y-91267366D02*
X145058333Y-91284033D01*
X145058333Y-91284033D02*
X145075000Y-91300700D01*
X145191667Y-91267366D02*
X145408333Y-91267366D01*
X145408333Y-91267366D02*
X145291667Y-91400700D01*
X145291667Y-91400700D02*
X145341667Y-91400700D01*
X145341667Y-91400700D02*
X145375000Y-91417366D01*
X145375000Y-91417366D02*
X145391667Y-91434033D01*
X145391667Y-91434033D02*
X145408333Y-91467366D01*
X145408333Y-91467366D02*
X145408333Y-91550700D01*
X145408333Y-91550700D02*
X145391667Y-91584033D01*
X145391667Y-91584033D02*
X145375000Y-91600700D01*
X145375000Y-91600700D02*
X145341667Y-91617366D01*
X145341667Y-91617366D02*
X145241667Y-91617366D01*
X145241667Y-91617366D02*
X145208333Y-91600700D01*
X145208333Y-91600700D02*
X145191667Y-91584033D01*
X145575000Y-91617366D02*
X145641666Y-91617366D01*
X145641666Y-91617366D02*
X145675000Y-91600700D01*
X145675000Y-91600700D02*
X145691666Y-91584033D01*
X145691666Y-91584033D02*
X145725000Y-91534033D01*
X145725000Y-91534033D02*
X145741666Y-91467366D01*
X145741666Y-91467366D02*
X145741666Y-91334033D01*
X145741666Y-91334033D02*
X145725000Y-91300700D01*
X145725000Y-91300700D02*
X145708333Y-91284033D01*
X145708333Y-91284033D02*
X145675000Y-91267366D01*
X145675000Y-91267366D02*
X145608333Y-91267366D01*
X145608333Y-91267366D02*
X145575000Y-91284033D01*
X145575000Y-91284033D02*
X145558333Y-91300700D01*
X145558333Y-91300700D02*
X145541666Y-91334033D01*
X145541666Y-91334033D02*
X145541666Y-91417366D01*
X145541666Y-91417366D02*
X145558333Y-91450700D01*
X145558333Y-91450700D02*
X145575000Y-91467366D01*
X145575000Y-91467366D02*
X145608333Y-91484033D01*
X145608333Y-91484033D02*
X145675000Y-91484033D01*
X145675000Y-91484033D02*
X145708333Y-91467366D01*
X145708333Y-91467366D02*
X145725000Y-91450700D01*
X145725000Y-91450700D02*
X145741666Y-91417366D01*
X90515000Y-99284033D02*
X90498333Y-99300700D01*
X90498333Y-99300700D02*
X90448333Y-99317366D01*
X90448333Y-99317366D02*
X90415000Y-99317366D01*
X90415000Y-99317366D02*
X90365000Y-99300700D01*
X90365000Y-99300700D02*
X90331667Y-99267366D01*
X90331667Y-99267366D02*
X90315000Y-99234033D01*
X90315000Y-99234033D02*
X90298333Y-99167366D01*
X90298333Y-99167366D02*
X90298333Y-99117366D01*
X90298333Y-99117366D02*
X90315000Y-99050700D01*
X90315000Y-99050700D02*
X90331667Y-99017366D01*
X90331667Y-99017366D02*
X90365000Y-98984033D01*
X90365000Y-98984033D02*
X90415000Y-98967366D01*
X90415000Y-98967366D02*
X90448333Y-98967366D01*
X90448333Y-98967366D02*
X90498333Y-98984033D01*
X90498333Y-98984033D02*
X90515000Y-99000700D01*
X90648333Y-99000700D02*
X90665000Y-98984033D01*
X90665000Y-98984033D02*
X90698333Y-98967366D01*
X90698333Y-98967366D02*
X90781667Y-98967366D01*
X90781667Y-98967366D02*
X90815000Y-98984033D01*
X90815000Y-98984033D02*
X90831667Y-99000700D01*
X90831667Y-99000700D02*
X90848333Y-99034033D01*
X90848333Y-99034033D02*
X90848333Y-99067366D01*
X90848333Y-99067366D02*
X90831667Y-99117366D01*
X90831667Y-99117366D02*
X90631667Y-99317366D01*
X90631667Y-99317366D02*
X90848333Y-99317366D01*
X91148333Y-99084033D02*
X91148333Y-99317366D01*
X91065000Y-98950700D02*
X90981666Y-99200700D01*
X90981666Y-99200700D02*
X91198333Y-99200700D01*
X115015000Y-83322366D02*
X114898333Y-83155700D01*
X114815000Y-83322366D02*
X114815000Y-82972366D01*
X114815000Y-82972366D02*
X114948333Y-82972366D01*
X114948333Y-82972366D02*
X114981667Y-82989033D01*
X114981667Y-82989033D02*
X114998333Y-83005700D01*
X114998333Y-83005700D02*
X115015000Y-83039033D01*
X115015000Y-83039033D02*
X115015000Y-83089033D01*
X115015000Y-83089033D02*
X114998333Y-83122366D01*
X114998333Y-83122366D02*
X114981667Y-83139033D01*
X114981667Y-83139033D02*
X114948333Y-83155700D01*
X114948333Y-83155700D02*
X114815000Y-83155700D01*
X115148333Y-83005700D02*
X115165000Y-82989033D01*
X115165000Y-82989033D02*
X115198333Y-82972366D01*
X115198333Y-82972366D02*
X115281667Y-82972366D01*
X115281667Y-82972366D02*
X115315000Y-82989033D01*
X115315000Y-82989033D02*
X115331667Y-83005700D01*
X115331667Y-83005700D02*
X115348333Y-83039033D01*
X115348333Y-83039033D02*
X115348333Y-83072366D01*
X115348333Y-83072366D02*
X115331667Y-83122366D01*
X115331667Y-83122366D02*
X115131667Y-83322366D01*
X115131667Y-83322366D02*
X115348333Y-83322366D01*
X115481666Y-83005700D02*
X115498333Y-82989033D01*
X115498333Y-82989033D02*
X115531666Y-82972366D01*
X115531666Y-82972366D02*
X115615000Y-82972366D01*
X115615000Y-82972366D02*
X115648333Y-82989033D01*
X115648333Y-82989033D02*
X115665000Y-83005700D01*
X115665000Y-83005700D02*
X115681666Y-83039033D01*
X115681666Y-83039033D02*
X115681666Y-83072366D01*
X115681666Y-83072366D02*
X115665000Y-83122366D01*
X115665000Y-83122366D02*
X115465000Y-83322366D01*
X115465000Y-83322366D02*
X115681666Y-83322366D01*
X64896116Y-94564582D02*
X65146116Y-94564582D01*
X65146116Y-94564582D02*
X65196116Y-94581249D01*
X65196116Y-94581249D02*
X65229450Y-94614582D01*
X65229450Y-94614582D02*
X65246116Y-94664582D01*
X65246116Y-94664582D02*
X65246116Y-94697916D01*
X65246116Y-94214582D02*
X65246116Y-94414582D01*
X65246116Y-94314582D02*
X64896116Y-94314582D01*
X64896116Y-94314582D02*
X64946116Y-94347915D01*
X64946116Y-94347915D02*
X64979450Y-94381249D01*
X64979450Y-94381249D02*
X64996116Y-94414582D01*
X64896116Y-93997916D02*
X64896116Y-93964582D01*
X64896116Y-93964582D02*
X64912783Y-93931249D01*
X64912783Y-93931249D02*
X64929450Y-93914582D01*
X64929450Y-93914582D02*
X64962783Y-93897916D01*
X64962783Y-93897916D02*
X65029450Y-93881249D01*
X65029450Y-93881249D02*
X65112783Y-93881249D01*
X65112783Y-93881249D02*
X65179450Y-93897916D01*
X65179450Y-93897916D02*
X65212783Y-93914582D01*
X65212783Y-93914582D02*
X65229450Y-93931249D01*
X65229450Y-93931249D02*
X65246116Y-93964582D01*
X65246116Y-93964582D02*
X65246116Y-93997916D01*
X65246116Y-93997916D02*
X65229450Y-94031249D01*
X65229450Y-94031249D02*
X65212783Y-94047916D01*
X65212783Y-94047916D02*
X65179450Y-94064582D01*
X65179450Y-94064582D02*
X65112783Y-94081249D01*
X65112783Y-94081249D02*
X65029450Y-94081249D01*
X65029450Y-94081249D02*
X64962783Y-94064582D01*
X64962783Y-94064582D02*
X64929450Y-94047916D01*
X64929450Y-94047916D02*
X64912783Y-94031249D01*
X64912783Y-94031249D02*
X64896116Y-93997916D01*
D11*
X80703450Y-89352678D02*
X80703450Y-88209821D01*
X81274878Y-88781249D02*
X80132021Y-88781249D01*
X80703450Y-100352678D02*
X80703450Y-99209821D01*
D10*
X146323333Y-122947366D02*
X146323333Y-123230700D01*
X146323333Y-123230700D02*
X146340000Y-123264033D01*
X146340000Y-123264033D02*
X146356666Y-123280700D01*
X146356666Y-123280700D02*
X146390000Y-123297366D01*
X146390000Y-123297366D02*
X146456666Y-123297366D01*
X146456666Y-123297366D02*
X146490000Y-123280700D01*
X146490000Y-123280700D02*
X146506666Y-123264033D01*
X146506666Y-123264033D02*
X146523333Y-123230700D01*
X146523333Y-123230700D02*
X146523333Y-122947366D01*
X146840000Y-122947366D02*
X146773333Y-122947366D01*
X146773333Y-122947366D02*
X146740000Y-122964033D01*
X146740000Y-122964033D02*
X146723333Y-122980700D01*
X146723333Y-122980700D02*
X146690000Y-123030700D01*
X146690000Y-123030700D02*
X146673333Y-123097366D01*
X146673333Y-123097366D02*
X146673333Y-123230700D01*
X146673333Y-123230700D02*
X146690000Y-123264033D01*
X146690000Y-123264033D02*
X146706667Y-123280700D01*
X146706667Y-123280700D02*
X146740000Y-123297366D01*
X146740000Y-123297366D02*
X146806667Y-123297366D01*
X146806667Y-123297366D02*
X146840000Y-123280700D01*
X146840000Y-123280700D02*
X146856667Y-123264033D01*
X146856667Y-123264033D02*
X146873333Y-123230700D01*
X146873333Y-123230700D02*
X146873333Y-123147366D01*
X146873333Y-123147366D02*
X146856667Y-123114033D01*
X146856667Y-123114033D02*
X146840000Y-123097366D01*
X146840000Y-123097366D02*
X146806667Y-123080700D01*
X146806667Y-123080700D02*
X146740000Y-123080700D01*
X146740000Y-123080700D02*
X146706667Y-123097366D01*
X146706667Y-123097366D02*
X146690000Y-123114033D01*
X146690000Y-123114033D02*
X146673333Y-123147366D01*
D11*
X173408095Y-138804819D02*
X173408095Y-137804819D01*
X173408095Y-138281009D02*
X173979523Y-138281009D01*
X173979523Y-138804819D02*
X173979523Y-137804819D01*
X174408095Y-137900057D02*
X174455714Y-137852438D01*
X174455714Y-137852438D02*
X174550952Y-137804819D01*
X174550952Y-137804819D02*
X174789047Y-137804819D01*
X174789047Y-137804819D02*
X174884285Y-137852438D01*
X174884285Y-137852438D02*
X174931904Y-137900057D01*
X174931904Y-137900057D02*
X174979523Y-137995295D01*
X174979523Y-137995295D02*
X174979523Y-138090533D01*
X174979523Y-138090533D02*
X174931904Y-138233390D01*
X174931904Y-138233390D02*
X174360476Y-138804819D01*
X174360476Y-138804819D02*
X174979523Y-138804819D01*
D10*
X149795000Y-140749033D02*
X149778333Y-140765700D01*
X149778333Y-140765700D02*
X149728333Y-140782366D01*
X149728333Y-140782366D02*
X149695000Y-140782366D01*
X149695000Y-140782366D02*
X149645000Y-140765700D01*
X149645000Y-140765700D02*
X149611667Y-140732366D01*
X149611667Y-140732366D02*
X149595000Y-140699033D01*
X149595000Y-140699033D02*
X149578333Y-140632366D01*
X149578333Y-140632366D02*
X149578333Y-140582366D01*
X149578333Y-140582366D02*
X149595000Y-140515700D01*
X149595000Y-140515700D02*
X149611667Y-140482366D01*
X149611667Y-140482366D02*
X149645000Y-140449033D01*
X149645000Y-140449033D02*
X149695000Y-140432366D01*
X149695000Y-140432366D02*
X149728333Y-140432366D01*
X149728333Y-140432366D02*
X149778333Y-140449033D01*
X149778333Y-140449033D02*
X149795000Y-140465700D01*
X149911667Y-140432366D02*
X150128333Y-140432366D01*
X150128333Y-140432366D02*
X150011667Y-140565700D01*
X150011667Y-140565700D02*
X150061667Y-140565700D01*
X150061667Y-140565700D02*
X150095000Y-140582366D01*
X150095000Y-140582366D02*
X150111667Y-140599033D01*
X150111667Y-140599033D02*
X150128333Y-140632366D01*
X150128333Y-140632366D02*
X150128333Y-140715700D01*
X150128333Y-140715700D02*
X150111667Y-140749033D01*
X150111667Y-140749033D02*
X150095000Y-140765700D01*
X150095000Y-140765700D02*
X150061667Y-140782366D01*
X150061667Y-140782366D02*
X149961667Y-140782366D01*
X149961667Y-140782366D02*
X149928333Y-140765700D01*
X149928333Y-140765700D02*
X149911667Y-140749033D01*
X150328333Y-140582366D02*
X150295000Y-140565700D01*
X150295000Y-140565700D02*
X150278333Y-140549033D01*
X150278333Y-140549033D02*
X150261666Y-140515700D01*
X150261666Y-140515700D02*
X150261666Y-140499033D01*
X150261666Y-140499033D02*
X150278333Y-140465700D01*
X150278333Y-140465700D02*
X150295000Y-140449033D01*
X150295000Y-140449033D02*
X150328333Y-140432366D01*
X150328333Y-140432366D02*
X150395000Y-140432366D01*
X150395000Y-140432366D02*
X150428333Y-140449033D01*
X150428333Y-140449033D02*
X150445000Y-140465700D01*
X150445000Y-140465700D02*
X150461666Y-140499033D01*
X150461666Y-140499033D02*
X150461666Y-140515700D01*
X150461666Y-140515700D02*
X150445000Y-140549033D01*
X150445000Y-140549033D02*
X150428333Y-140565700D01*
X150428333Y-140565700D02*
X150395000Y-140582366D01*
X150395000Y-140582366D02*
X150328333Y-140582366D01*
X150328333Y-140582366D02*
X150295000Y-140599033D01*
X150295000Y-140599033D02*
X150278333Y-140615700D01*
X150278333Y-140615700D02*
X150261666Y-140649033D01*
X150261666Y-140649033D02*
X150261666Y-140715700D01*
X150261666Y-140715700D02*
X150278333Y-140749033D01*
X150278333Y-140749033D02*
X150295000Y-140765700D01*
X150295000Y-140765700D02*
X150328333Y-140782366D01*
X150328333Y-140782366D02*
X150395000Y-140782366D01*
X150395000Y-140782366D02*
X150428333Y-140765700D01*
X150428333Y-140765700D02*
X150445000Y-140749033D01*
X150445000Y-140749033D02*
X150461666Y-140715700D01*
X150461666Y-140715700D02*
X150461666Y-140649033D01*
X150461666Y-140649033D02*
X150445000Y-140615700D01*
X150445000Y-140615700D02*
X150428333Y-140599033D01*
X150428333Y-140599033D02*
X150395000Y-140582366D01*
X130494033Y-142879999D02*
X130510700Y-142896666D01*
X130510700Y-142896666D02*
X130527366Y-142946666D01*
X130527366Y-142946666D02*
X130527366Y-142979999D01*
X130527366Y-142979999D02*
X130510700Y-143029999D01*
X130510700Y-143029999D02*
X130477366Y-143063333D01*
X130477366Y-143063333D02*
X130444033Y-143079999D01*
X130444033Y-143079999D02*
X130377366Y-143096666D01*
X130377366Y-143096666D02*
X130327366Y-143096666D01*
X130327366Y-143096666D02*
X130260700Y-143079999D01*
X130260700Y-143079999D02*
X130227366Y-143063333D01*
X130227366Y-143063333D02*
X130194033Y-143029999D01*
X130194033Y-143029999D02*
X130177366Y-142979999D01*
X130177366Y-142979999D02*
X130177366Y-142946666D01*
X130177366Y-142946666D02*
X130194033Y-142896666D01*
X130194033Y-142896666D02*
X130210700Y-142879999D01*
X130294033Y-142579999D02*
X130527366Y-142579999D01*
X130160700Y-142663333D02*
X130410700Y-142746666D01*
X130410700Y-142746666D02*
X130410700Y-142529999D01*
X130327366Y-142346666D02*
X130310700Y-142380000D01*
X130310700Y-142380000D02*
X130294033Y-142396666D01*
X130294033Y-142396666D02*
X130260700Y-142413333D01*
X130260700Y-142413333D02*
X130244033Y-142413333D01*
X130244033Y-142413333D02*
X130210700Y-142396666D01*
X130210700Y-142396666D02*
X130194033Y-142380000D01*
X130194033Y-142380000D02*
X130177366Y-142346666D01*
X130177366Y-142346666D02*
X130177366Y-142280000D01*
X130177366Y-142280000D02*
X130194033Y-142246666D01*
X130194033Y-142246666D02*
X130210700Y-142230000D01*
X130210700Y-142230000D02*
X130244033Y-142213333D01*
X130244033Y-142213333D02*
X130260700Y-142213333D01*
X130260700Y-142213333D02*
X130294033Y-142230000D01*
X130294033Y-142230000D02*
X130310700Y-142246666D01*
X130310700Y-142246666D02*
X130327366Y-142280000D01*
X130327366Y-142280000D02*
X130327366Y-142346666D01*
X130327366Y-142346666D02*
X130344033Y-142380000D01*
X130344033Y-142380000D02*
X130360700Y-142396666D01*
X130360700Y-142396666D02*
X130394033Y-142413333D01*
X130394033Y-142413333D02*
X130460700Y-142413333D01*
X130460700Y-142413333D02*
X130494033Y-142396666D01*
X130494033Y-142396666D02*
X130510700Y-142380000D01*
X130510700Y-142380000D02*
X130527366Y-142346666D01*
X130527366Y-142346666D02*
X130527366Y-142280000D01*
X130527366Y-142280000D02*
X130510700Y-142246666D01*
X130510700Y-142246666D02*
X130494033Y-142230000D01*
X130494033Y-142230000D02*
X130460700Y-142213333D01*
X130460700Y-142213333D02*
X130394033Y-142213333D01*
X130394033Y-142213333D02*
X130360700Y-142230000D01*
X130360700Y-142230000D02*
X130344033Y-142246666D01*
X130344033Y-142246666D02*
X130327366Y-142280000D01*
X120028333Y-82590700D02*
X120078333Y-82607366D01*
X120078333Y-82607366D02*
X120161667Y-82607366D01*
X120161667Y-82607366D02*
X120195000Y-82590700D01*
X120195000Y-82590700D02*
X120211667Y-82574033D01*
X120211667Y-82574033D02*
X120228333Y-82540700D01*
X120228333Y-82540700D02*
X120228333Y-82507366D01*
X120228333Y-82507366D02*
X120211667Y-82474033D01*
X120211667Y-82474033D02*
X120195000Y-82457366D01*
X120195000Y-82457366D02*
X120161667Y-82440700D01*
X120161667Y-82440700D02*
X120095000Y-82424033D01*
X120095000Y-82424033D02*
X120061667Y-82407366D01*
X120061667Y-82407366D02*
X120045000Y-82390700D01*
X120045000Y-82390700D02*
X120028333Y-82357366D01*
X120028333Y-82357366D02*
X120028333Y-82324033D01*
X120028333Y-82324033D02*
X120045000Y-82290700D01*
X120045000Y-82290700D02*
X120061667Y-82274033D01*
X120061667Y-82274033D02*
X120095000Y-82257366D01*
X120095000Y-82257366D02*
X120178333Y-82257366D01*
X120178333Y-82257366D02*
X120228333Y-82274033D01*
X120345000Y-82257366D02*
X120428333Y-82607366D01*
X120428333Y-82607366D02*
X120495000Y-82357366D01*
X120495000Y-82357366D02*
X120561666Y-82607366D01*
X120561666Y-82607366D02*
X120645000Y-82257366D01*
X120961666Y-82607366D02*
X120761666Y-82607366D01*
X120861666Y-82607366D02*
X120861666Y-82257366D01*
X120861666Y-82257366D02*
X120828333Y-82307366D01*
X120828333Y-82307366D02*
X120795000Y-82340700D01*
X120795000Y-82340700D02*
X120761666Y-82357366D01*
X137795000Y-116634033D02*
X137778333Y-116650700D01*
X137778333Y-116650700D02*
X137728333Y-116667366D01*
X137728333Y-116667366D02*
X137695000Y-116667366D01*
X137695000Y-116667366D02*
X137645000Y-116650700D01*
X137645000Y-116650700D02*
X137611667Y-116617366D01*
X137611667Y-116617366D02*
X137595000Y-116584033D01*
X137595000Y-116584033D02*
X137578333Y-116517366D01*
X137578333Y-116517366D02*
X137578333Y-116467366D01*
X137578333Y-116467366D02*
X137595000Y-116400700D01*
X137595000Y-116400700D02*
X137611667Y-116367366D01*
X137611667Y-116367366D02*
X137645000Y-116334033D01*
X137645000Y-116334033D02*
X137695000Y-116317366D01*
X137695000Y-116317366D02*
X137728333Y-116317366D01*
X137728333Y-116317366D02*
X137778333Y-116334033D01*
X137778333Y-116334033D02*
X137795000Y-116350700D01*
X138095000Y-116434033D02*
X138095000Y-116667366D01*
X138011667Y-116300700D02*
X137928333Y-116550700D01*
X137928333Y-116550700D02*
X138145000Y-116550700D01*
X138245000Y-116317366D02*
X138478333Y-116317366D01*
X138478333Y-116317366D02*
X138328333Y-116667366D01*
X114335000Y-115867366D02*
X114218333Y-115700700D01*
X114135000Y-115867366D02*
X114135000Y-115517366D01*
X114135000Y-115517366D02*
X114268333Y-115517366D01*
X114268333Y-115517366D02*
X114301667Y-115534033D01*
X114301667Y-115534033D02*
X114318333Y-115550700D01*
X114318333Y-115550700D02*
X114335000Y-115584033D01*
X114335000Y-115584033D02*
X114335000Y-115634033D01*
X114335000Y-115634033D02*
X114318333Y-115667366D01*
X114318333Y-115667366D02*
X114301667Y-115684033D01*
X114301667Y-115684033D02*
X114268333Y-115700700D01*
X114268333Y-115700700D02*
X114135000Y-115700700D01*
X114668333Y-115867366D02*
X114468333Y-115867366D01*
X114568333Y-115867366D02*
X114568333Y-115517366D01*
X114568333Y-115517366D02*
X114535000Y-115567366D01*
X114535000Y-115567366D02*
X114501667Y-115600700D01*
X114501667Y-115600700D02*
X114468333Y-115617366D01*
X114968333Y-115517366D02*
X114901666Y-115517366D01*
X114901666Y-115517366D02*
X114868333Y-115534033D01*
X114868333Y-115534033D02*
X114851666Y-115550700D01*
X114851666Y-115550700D02*
X114818333Y-115600700D01*
X114818333Y-115600700D02*
X114801666Y-115667366D01*
X114801666Y-115667366D02*
X114801666Y-115800700D01*
X114801666Y-115800700D02*
X114818333Y-115834033D01*
X114818333Y-115834033D02*
X114835000Y-115850700D01*
X114835000Y-115850700D02*
X114868333Y-115867366D01*
X114868333Y-115867366D02*
X114935000Y-115867366D01*
X114935000Y-115867366D02*
X114968333Y-115850700D01*
X114968333Y-115850700D02*
X114985000Y-115834033D01*
X114985000Y-115834033D02*
X115001666Y-115800700D01*
X115001666Y-115800700D02*
X115001666Y-115717366D01*
X115001666Y-115717366D02*
X114985000Y-115684033D01*
X114985000Y-115684033D02*
X114968333Y-115667366D01*
X114968333Y-115667366D02*
X114935000Y-115650700D01*
X114935000Y-115650700D02*
X114868333Y-115650700D01*
X114868333Y-115650700D02*
X114835000Y-115667366D01*
X114835000Y-115667366D02*
X114818333Y-115684033D01*
X114818333Y-115684033D02*
X114801666Y-115717366D01*
X168327366Y-102091666D02*
X168577366Y-102091666D01*
X168577366Y-102091666D02*
X168627366Y-102108333D01*
X168627366Y-102108333D02*
X168660700Y-102141666D01*
X168660700Y-102141666D02*
X168677366Y-102191666D01*
X168677366Y-102191666D02*
X168677366Y-102225000D01*
X168327366Y-101758333D02*
X168327366Y-101924999D01*
X168327366Y-101924999D02*
X168494033Y-101941666D01*
X168494033Y-101941666D02*
X168477366Y-101924999D01*
X168477366Y-101924999D02*
X168460700Y-101891666D01*
X168460700Y-101891666D02*
X168460700Y-101808333D01*
X168460700Y-101808333D02*
X168477366Y-101774999D01*
X168477366Y-101774999D02*
X168494033Y-101758333D01*
X168494033Y-101758333D02*
X168527366Y-101741666D01*
X168527366Y-101741666D02*
X168610700Y-101741666D01*
X168610700Y-101741666D02*
X168644033Y-101758333D01*
X168644033Y-101758333D02*
X168660700Y-101774999D01*
X168660700Y-101774999D02*
X168677366Y-101808333D01*
X168677366Y-101808333D02*
X168677366Y-101891666D01*
X168677366Y-101891666D02*
X168660700Y-101924999D01*
X168660700Y-101924999D02*
X168644033Y-101941666D01*
X109865000Y-84327366D02*
X109748333Y-84160700D01*
X109665000Y-84327366D02*
X109665000Y-83977366D01*
X109665000Y-83977366D02*
X109798333Y-83977366D01*
X109798333Y-83977366D02*
X109831667Y-83994033D01*
X109831667Y-83994033D02*
X109848333Y-84010700D01*
X109848333Y-84010700D02*
X109865000Y-84044033D01*
X109865000Y-84044033D02*
X109865000Y-84094033D01*
X109865000Y-84094033D02*
X109848333Y-84127366D01*
X109848333Y-84127366D02*
X109831667Y-84144033D01*
X109831667Y-84144033D02*
X109798333Y-84160700D01*
X109798333Y-84160700D02*
X109665000Y-84160700D01*
X109998333Y-84010700D02*
X110015000Y-83994033D01*
X110015000Y-83994033D02*
X110048333Y-83977366D01*
X110048333Y-83977366D02*
X110131667Y-83977366D01*
X110131667Y-83977366D02*
X110165000Y-83994033D01*
X110165000Y-83994033D02*
X110181667Y-84010700D01*
X110181667Y-84010700D02*
X110198333Y-84044033D01*
X110198333Y-84044033D02*
X110198333Y-84077366D01*
X110198333Y-84077366D02*
X110181667Y-84127366D01*
X110181667Y-84127366D02*
X109981667Y-84327366D01*
X109981667Y-84327366D02*
X110198333Y-84327366D01*
X110315000Y-83977366D02*
X110531666Y-83977366D01*
X110531666Y-83977366D02*
X110415000Y-84110700D01*
X110415000Y-84110700D02*
X110465000Y-84110700D01*
X110465000Y-84110700D02*
X110498333Y-84127366D01*
X110498333Y-84127366D02*
X110515000Y-84144033D01*
X110515000Y-84144033D02*
X110531666Y-84177366D01*
X110531666Y-84177366D02*
X110531666Y-84260700D01*
X110531666Y-84260700D02*
X110515000Y-84294033D01*
X110515000Y-84294033D02*
X110498333Y-84310700D01*
X110498333Y-84310700D02*
X110465000Y-84327366D01*
X110465000Y-84327366D02*
X110365000Y-84327366D01*
X110365000Y-84327366D02*
X110331666Y-84310700D01*
X110331666Y-84310700D02*
X110315000Y-84294033D01*
X129360700Y-87741666D02*
X129377366Y-87691666D01*
X129377366Y-87691666D02*
X129377366Y-87608333D01*
X129377366Y-87608333D02*
X129360700Y-87574999D01*
X129360700Y-87574999D02*
X129344033Y-87558333D01*
X129344033Y-87558333D02*
X129310700Y-87541666D01*
X129310700Y-87541666D02*
X129277366Y-87541666D01*
X129277366Y-87541666D02*
X129244033Y-87558333D01*
X129244033Y-87558333D02*
X129227366Y-87574999D01*
X129227366Y-87574999D02*
X129210700Y-87608333D01*
X129210700Y-87608333D02*
X129194033Y-87674999D01*
X129194033Y-87674999D02*
X129177366Y-87708333D01*
X129177366Y-87708333D02*
X129160700Y-87724999D01*
X129160700Y-87724999D02*
X129127366Y-87741666D01*
X129127366Y-87741666D02*
X129094033Y-87741666D01*
X129094033Y-87741666D02*
X129060700Y-87724999D01*
X129060700Y-87724999D02*
X129044033Y-87708333D01*
X129044033Y-87708333D02*
X129027366Y-87674999D01*
X129027366Y-87674999D02*
X129027366Y-87591666D01*
X129027366Y-87591666D02*
X129044033Y-87541666D01*
X129027366Y-87425000D02*
X129377366Y-87341666D01*
X129377366Y-87341666D02*
X129127366Y-87275000D01*
X129127366Y-87275000D02*
X129377366Y-87208333D01*
X129377366Y-87208333D02*
X129027366Y-87125000D01*
X129060700Y-87008333D02*
X129044033Y-86991666D01*
X129044033Y-86991666D02*
X129027366Y-86958333D01*
X129027366Y-86958333D02*
X129027366Y-86875000D01*
X129027366Y-86875000D02*
X129044033Y-86841666D01*
X129044033Y-86841666D02*
X129060700Y-86825000D01*
X129060700Y-86825000D02*
X129094033Y-86808333D01*
X129094033Y-86808333D02*
X129127366Y-86808333D01*
X129127366Y-86808333D02*
X129177366Y-86825000D01*
X129177366Y-86825000D02*
X129377366Y-87025000D01*
X129377366Y-87025000D02*
X129377366Y-86808333D01*
X167761667Y-124757366D02*
X167645000Y-124590700D01*
X167561667Y-124757366D02*
X167561667Y-124407366D01*
X167561667Y-124407366D02*
X167695000Y-124407366D01*
X167695000Y-124407366D02*
X167728334Y-124424033D01*
X167728334Y-124424033D02*
X167745000Y-124440700D01*
X167745000Y-124440700D02*
X167761667Y-124474033D01*
X167761667Y-124474033D02*
X167761667Y-124524033D01*
X167761667Y-124524033D02*
X167745000Y-124557366D01*
X167745000Y-124557366D02*
X167728334Y-124574033D01*
X167728334Y-124574033D02*
X167695000Y-124590700D01*
X167695000Y-124590700D02*
X167561667Y-124590700D01*
X167961667Y-124557366D02*
X167928334Y-124540700D01*
X167928334Y-124540700D02*
X167911667Y-124524033D01*
X167911667Y-124524033D02*
X167895000Y-124490700D01*
X167895000Y-124490700D02*
X167895000Y-124474033D01*
X167895000Y-124474033D02*
X167911667Y-124440700D01*
X167911667Y-124440700D02*
X167928334Y-124424033D01*
X167928334Y-124424033D02*
X167961667Y-124407366D01*
X167961667Y-124407366D02*
X168028334Y-124407366D01*
X168028334Y-124407366D02*
X168061667Y-124424033D01*
X168061667Y-124424033D02*
X168078334Y-124440700D01*
X168078334Y-124440700D02*
X168095000Y-124474033D01*
X168095000Y-124474033D02*
X168095000Y-124490700D01*
X168095000Y-124490700D02*
X168078334Y-124524033D01*
X168078334Y-124524033D02*
X168061667Y-124540700D01*
X168061667Y-124540700D02*
X168028334Y-124557366D01*
X168028334Y-124557366D02*
X167961667Y-124557366D01*
X167961667Y-124557366D02*
X167928334Y-124574033D01*
X167928334Y-124574033D02*
X167911667Y-124590700D01*
X167911667Y-124590700D02*
X167895000Y-124624033D01*
X167895000Y-124624033D02*
X167895000Y-124690700D01*
X167895000Y-124690700D02*
X167911667Y-124724033D01*
X167911667Y-124724033D02*
X167928334Y-124740700D01*
X167928334Y-124740700D02*
X167961667Y-124757366D01*
X167961667Y-124757366D02*
X168028334Y-124757366D01*
X168028334Y-124757366D02*
X168061667Y-124740700D01*
X168061667Y-124740700D02*
X168078334Y-124724033D01*
X168078334Y-124724033D02*
X168095000Y-124690700D01*
X168095000Y-124690700D02*
X168095000Y-124624033D01*
X168095000Y-124624033D02*
X168078334Y-124590700D01*
X168078334Y-124590700D02*
X168061667Y-124574033D01*
X168061667Y-124574033D02*
X168028334Y-124557366D01*
X134628334Y-112574033D02*
X134511667Y-112574033D01*
X134511667Y-112757366D02*
X134511667Y-112407366D01*
X134511667Y-112407366D02*
X134678334Y-112407366D01*
X134928334Y-112574033D02*
X134978334Y-112590700D01*
X134978334Y-112590700D02*
X134995000Y-112607366D01*
X134995000Y-112607366D02*
X135011667Y-112640700D01*
X135011667Y-112640700D02*
X135011667Y-112690700D01*
X135011667Y-112690700D02*
X134995000Y-112724033D01*
X134995000Y-112724033D02*
X134978334Y-112740700D01*
X134978334Y-112740700D02*
X134945000Y-112757366D01*
X134945000Y-112757366D02*
X134811667Y-112757366D01*
X134811667Y-112757366D02*
X134811667Y-112407366D01*
X134811667Y-112407366D02*
X134928334Y-112407366D01*
X134928334Y-112407366D02*
X134961667Y-112424033D01*
X134961667Y-112424033D02*
X134978334Y-112440700D01*
X134978334Y-112440700D02*
X134995000Y-112474033D01*
X134995000Y-112474033D02*
X134995000Y-112507366D01*
X134995000Y-112507366D02*
X134978334Y-112540700D01*
X134978334Y-112540700D02*
X134961667Y-112557366D01*
X134961667Y-112557366D02*
X134928334Y-112574033D01*
X134928334Y-112574033D02*
X134811667Y-112574033D01*
X135345000Y-112757366D02*
X135145000Y-112757366D01*
X135245000Y-112757366D02*
X135245000Y-112407366D01*
X135245000Y-112407366D02*
X135211667Y-112457366D01*
X135211667Y-112457366D02*
X135178334Y-112490700D01*
X135178334Y-112490700D02*
X135145000Y-112507366D01*
X147987366Y-93953332D02*
X147820700Y-94069999D01*
X147987366Y-94153332D02*
X147637366Y-94153332D01*
X147637366Y-94153332D02*
X147637366Y-94019999D01*
X147637366Y-94019999D02*
X147654033Y-93986666D01*
X147654033Y-93986666D02*
X147670700Y-93969999D01*
X147670700Y-93969999D02*
X147704033Y-93953332D01*
X147704033Y-93953332D02*
X147754033Y-93953332D01*
X147754033Y-93953332D02*
X147787366Y-93969999D01*
X147787366Y-93969999D02*
X147804033Y-93986666D01*
X147804033Y-93986666D02*
X147820700Y-94019999D01*
X147820700Y-94019999D02*
X147820700Y-94153332D01*
X147637366Y-93653332D02*
X147637366Y-93719999D01*
X147637366Y-93719999D02*
X147654033Y-93753332D01*
X147654033Y-93753332D02*
X147670700Y-93769999D01*
X147670700Y-93769999D02*
X147720700Y-93803332D01*
X147720700Y-93803332D02*
X147787366Y-93819999D01*
X147787366Y-93819999D02*
X147920700Y-93819999D01*
X147920700Y-93819999D02*
X147954033Y-93803332D01*
X147954033Y-93803332D02*
X147970700Y-93786666D01*
X147970700Y-93786666D02*
X147987366Y-93753332D01*
X147987366Y-93753332D02*
X147987366Y-93686666D01*
X147987366Y-93686666D02*
X147970700Y-93653332D01*
X147970700Y-93653332D02*
X147954033Y-93636666D01*
X147954033Y-93636666D02*
X147920700Y-93619999D01*
X147920700Y-93619999D02*
X147837366Y-93619999D01*
X147837366Y-93619999D02*
X147804033Y-93636666D01*
X147804033Y-93636666D02*
X147787366Y-93653332D01*
X147787366Y-93653332D02*
X147770700Y-93686666D01*
X147770700Y-93686666D02*
X147770700Y-93753332D01*
X147770700Y-93753332D02*
X147787366Y-93786666D01*
X147787366Y-93786666D02*
X147804033Y-93803332D01*
X147804033Y-93803332D02*
X147837366Y-93819999D01*
X64896116Y-109197916D02*
X65146116Y-109197916D01*
X65146116Y-109197916D02*
X65196116Y-109214583D01*
X65196116Y-109214583D02*
X65229450Y-109247916D01*
X65229450Y-109247916D02*
X65246116Y-109297916D01*
X65246116Y-109297916D02*
X65246116Y-109331250D01*
X65246116Y-109014583D02*
X65246116Y-108947916D01*
X65246116Y-108947916D02*
X65229450Y-108914583D01*
X65229450Y-108914583D02*
X65212783Y-108897916D01*
X65212783Y-108897916D02*
X65162783Y-108864583D01*
X65162783Y-108864583D02*
X65096116Y-108847916D01*
X65096116Y-108847916D02*
X64962783Y-108847916D01*
X64962783Y-108847916D02*
X64929450Y-108864583D01*
X64929450Y-108864583D02*
X64912783Y-108881249D01*
X64912783Y-108881249D02*
X64896116Y-108914583D01*
X64896116Y-108914583D02*
X64896116Y-108981249D01*
X64896116Y-108981249D02*
X64912783Y-109014583D01*
X64912783Y-109014583D02*
X64929450Y-109031249D01*
X64929450Y-109031249D02*
X64962783Y-109047916D01*
X64962783Y-109047916D02*
X65046116Y-109047916D01*
X65046116Y-109047916D02*
X65079450Y-109031249D01*
X65079450Y-109031249D02*
X65096116Y-109014583D01*
X65096116Y-109014583D02*
X65112783Y-108981249D01*
X65112783Y-108981249D02*
X65112783Y-108914583D01*
X65112783Y-108914583D02*
X65096116Y-108881249D01*
X65096116Y-108881249D02*
X65079450Y-108864583D01*
X65079450Y-108864583D02*
X65046116Y-108847916D01*
D11*
X80703450Y-104152678D02*
X80703450Y-103009821D01*
X81274878Y-103581249D02*
X80132021Y-103581249D01*
X80703450Y-115152678D02*
X80703450Y-114009821D01*
D10*
X166561667Y-124782366D02*
X166445000Y-124615700D01*
X166361667Y-124782366D02*
X166361667Y-124432366D01*
X166361667Y-124432366D02*
X166495000Y-124432366D01*
X166495000Y-124432366D02*
X166528334Y-124449033D01*
X166528334Y-124449033D02*
X166545000Y-124465700D01*
X166545000Y-124465700D02*
X166561667Y-124499033D01*
X166561667Y-124499033D02*
X166561667Y-124549033D01*
X166561667Y-124549033D02*
X166545000Y-124582366D01*
X166545000Y-124582366D02*
X166528334Y-124599033D01*
X166528334Y-124599033D02*
X166495000Y-124615700D01*
X166495000Y-124615700D02*
X166361667Y-124615700D01*
X166678334Y-124432366D02*
X166911667Y-124432366D01*
X166911667Y-124432366D02*
X166761667Y-124782366D01*
X109885000Y-85504033D02*
X109868333Y-85520700D01*
X109868333Y-85520700D02*
X109818333Y-85537366D01*
X109818333Y-85537366D02*
X109785000Y-85537366D01*
X109785000Y-85537366D02*
X109735000Y-85520700D01*
X109735000Y-85520700D02*
X109701667Y-85487366D01*
X109701667Y-85487366D02*
X109685000Y-85454033D01*
X109685000Y-85454033D02*
X109668333Y-85387366D01*
X109668333Y-85387366D02*
X109668333Y-85337366D01*
X109668333Y-85337366D02*
X109685000Y-85270700D01*
X109685000Y-85270700D02*
X109701667Y-85237366D01*
X109701667Y-85237366D02*
X109735000Y-85204033D01*
X109735000Y-85204033D02*
X109785000Y-85187366D01*
X109785000Y-85187366D02*
X109818333Y-85187366D01*
X109818333Y-85187366D02*
X109868333Y-85204033D01*
X109868333Y-85204033D02*
X109885000Y-85220700D01*
X110201667Y-85187366D02*
X110035000Y-85187366D01*
X110035000Y-85187366D02*
X110018333Y-85354033D01*
X110018333Y-85354033D02*
X110035000Y-85337366D01*
X110035000Y-85337366D02*
X110068333Y-85320700D01*
X110068333Y-85320700D02*
X110151667Y-85320700D01*
X110151667Y-85320700D02*
X110185000Y-85337366D01*
X110185000Y-85337366D02*
X110201667Y-85354033D01*
X110201667Y-85354033D02*
X110218333Y-85387366D01*
X110218333Y-85387366D02*
X110218333Y-85470700D01*
X110218333Y-85470700D02*
X110201667Y-85504033D01*
X110201667Y-85504033D02*
X110185000Y-85520700D01*
X110185000Y-85520700D02*
X110151667Y-85537366D01*
X110151667Y-85537366D02*
X110068333Y-85537366D01*
X110068333Y-85537366D02*
X110035000Y-85520700D01*
X110035000Y-85520700D02*
X110018333Y-85504033D01*
X110535000Y-85187366D02*
X110368333Y-85187366D01*
X110368333Y-85187366D02*
X110351666Y-85354033D01*
X110351666Y-85354033D02*
X110368333Y-85337366D01*
X110368333Y-85337366D02*
X110401666Y-85320700D01*
X110401666Y-85320700D02*
X110485000Y-85320700D01*
X110485000Y-85320700D02*
X110518333Y-85337366D01*
X110518333Y-85337366D02*
X110535000Y-85354033D01*
X110535000Y-85354033D02*
X110551666Y-85387366D01*
X110551666Y-85387366D02*
X110551666Y-85470700D01*
X110551666Y-85470700D02*
X110535000Y-85504033D01*
X110535000Y-85504033D02*
X110518333Y-85520700D01*
X110518333Y-85520700D02*
X110485000Y-85537366D01*
X110485000Y-85537366D02*
X110401666Y-85537366D01*
X110401666Y-85537366D02*
X110368333Y-85520700D01*
X110368333Y-85520700D02*
X110351666Y-85504033D01*
X123303333Y-144357366D02*
X123303333Y-144607366D01*
X123303333Y-144607366D02*
X123286666Y-144657366D01*
X123286666Y-144657366D02*
X123253333Y-144690700D01*
X123253333Y-144690700D02*
X123203333Y-144707366D01*
X123203333Y-144707366D02*
X123170000Y-144707366D01*
X123436667Y-144357366D02*
X123653333Y-144357366D01*
X123653333Y-144357366D02*
X123536667Y-144490700D01*
X123536667Y-144490700D02*
X123586667Y-144490700D01*
X123586667Y-144490700D02*
X123620000Y-144507366D01*
X123620000Y-144507366D02*
X123636667Y-144524033D01*
X123636667Y-144524033D02*
X123653333Y-144557366D01*
X123653333Y-144557366D02*
X123653333Y-144640700D01*
X123653333Y-144640700D02*
X123636667Y-144674033D01*
X123636667Y-144674033D02*
X123620000Y-144690700D01*
X123620000Y-144690700D02*
X123586667Y-144707366D01*
X123586667Y-144707366D02*
X123486667Y-144707366D01*
X123486667Y-144707366D02*
X123453333Y-144690700D01*
X123453333Y-144690700D02*
X123436667Y-144674033D01*
X107928333Y-144732366D02*
X107928333Y-144982366D01*
X107928333Y-144982366D02*
X107911666Y-145032366D01*
X107911666Y-145032366D02*
X107878333Y-145065700D01*
X107878333Y-145065700D02*
X107828333Y-145082366D01*
X107828333Y-145082366D02*
X107795000Y-145082366D01*
X108061667Y-144732366D02*
X108295000Y-144732366D01*
X108295000Y-144732366D02*
X108145000Y-145082366D01*
X162241667Y-119207366D02*
X162125000Y-119040700D01*
X162041667Y-119207366D02*
X162041667Y-118857366D01*
X162041667Y-118857366D02*
X162175000Y-118857366D01*
X162175000Y-118857366D02*
X162208334Y-118874033D01*
X162208334Y-118874033D02*
X162225000Y-118890700D01*
X162225000Y-118890700D02*
X162241667Y-118924033D01*
X162241667Y-118924033D02*
X162241667Y-118974033D01*
X162241667Y-118974033D02*
X162225000Y-119007366D01*
X162225000Y-119007366D02*
X162208334Y-119024033D01*
X162208334Y-119024033D02*
X162175000Y-119040700D01*
X162175000Y-119040700D02*
X162041667Y-119040700D01*
X162375000Y-118890700D02*
X162391667Y-118874033D01*
X162391667Y-118874033D02*
X162425000Y-118857366D01*
X162425000Y-118857366D02*
X162508334Y-118857366D01*
X162508334Y-118857366D02*
X162541667Y-118874033D01*
X162541667Y-118874033D02*
X162558334Y-118890700D01*
X162558334Y-118890700D02*
X162575000Y-118924033D01*
X162575000Y-118924033D02*
X162575000Y-118957366D01*
X162575000Y-118957366D02*
X162558334Y-119007366D01*
X162558334Y-119007366D02*
X162358334Y-119207366D01*
X162358334Y-119207366D02*
X162575000Y-119207366D01*
X89375000Y-112547366D02*
X89258333Y-112380700D01*
X89175000Y-112547366D02*
X89175000Y-112197366D01*
X89175000Y-112197366D02*
X89308333Y-112197366D01*
X89308333Y-112197366D02*
X89341667Y-112214033D01*
X89341667Y-112214033D02*
X89358333Y-112230700D01*
X89358333Y-112230700D02*
X89375000Y-112264033D01*
X89375000Y-112264033D02*
X89375000Y-112314033D01*
X89375000Y-112314033D02*
X89358333Y-112347366D01*
X89358333Y-112347366D02*
X89341667Y-112364033D01*
X89341667Y-112364033D02*
X89308333Y-112380700D01*
X89308333Y-112380700D02*
X89175000Y-112380700D01*
X89708333Y-112547366D02*
X89508333Y-112547366D01*
X89608333Y-112547366D02*
X89608333Y-112197366D01*
X89608333Y-112197366D02*
X89575000Y-112247366D01*
X89575000Y-112247366D02*
X89541667Y-112280700D01*
X89541667Y-112280700D02*
X89508333Y-112297366D01*
X89825000Y-112197366D02*
X90041666Y-112197366D01*
X90041666Y-112197366D02*
X89925000Y-112330700D01*
X89925000Y-112330700D02*
X89975000Y-112330700D01*
X89975000Y-112330700D02*
X90008333Y-112347366D01*
X90008333Y-112347366D02*
X90025000Y-112364033D01*
X90025000Y-112364033D02*
X90041666Y-112397366D01*
X90041666Y-112397366D02*
X90041666Y-112480700D01*
X90041666Y-112480700D02*
X90025000Y-112514033D01*
X90025000Y-112514033D02*
X90008333Y-112530700D01*
X90008333Y-112530700D02*
X89975000Y-112547366D01*
X89975000Y-112547366D02*
X89875000Y-112547366D01*
X89875000Y-112547366D02*
X89841666Y-112530700D01*
X89841666Y-112530700D02*
X89825000Y-112514033D01*
X162711667Y-113787366D02*
X162595000Y-113620700D01*
X162511667Y-113787366D02*
X162511667Y-113437366D01*
X162511667Y-113437366D02*
X162645000Y-113437366D01*
X162645000Y-113437366D02*
X162678334Y-113454033D01*
X162678334Y-113454033D02*
X162695000Y-113470700D01*
X162695000Y-113470700D02*
X162711667Y-113504033D01*
X162711667Y-113504033D02*
X162711667Y-113554033D01*
X162711667Y-113554033D02*
X162695000Y-113587366D01*
X162695000Y-113587366D02*
X162678334Y-113604033D01*
X162678334Y-113604033D02*
X162645000Y-113620700D01*
X162645000Y-113620700D02*
X162511667Y-113620700D01*
X162828334Y-113437366D02*
X163045000Y-113437366D01*
X163045000Y-113437366D02*
X162928334Y-113570700D01*
X162928334Y-113570700D02*
X162978334Y-113570700D01*
X162978334Y-113570700D02*
X163011667Y-113587366D01*
X163011667Y-113587366D02*
X163028334Y-113604033D01*
X163028334Y-113604033D02*
X163045000Y-113637366D01*
X163045000Y-113637366D02*
X163045000Y-113720700D01*
X163045000Y-113720700D02*
X163028334Y-113754033D01*
X163028334Y-113754033D02*
X163011667Y-113770700D01*
X163011667Y-113770700D02*
X162978334Y-113787366D01*
X162978334Y-113787366D02*
X162878334Y-113787366D01*
X162878334Y-113787366D02*
X162845000Y-113770700D01*
X162845000Y-113770700D02*
X162828334Y-113754033D01*
X88621116Y-109106249D02*
X88454450Y-109222916D01*
X88621116Y-109306249D02*
X88271116Y-109306249D01*
X88271116Y-109306249D02*
X88271116Y-109172916D01*
X88271116Y-109172916D02*
X88287783Y-109139583D01*
X88287783Y-109139583D02*
X88304450Y-109122916D01*
X88304450Y-109122916D02*
X88337783Y-109106249D01*
X88337783Y-109106249D02*
X88387783Y-109106249D01*
X88387783Y-109106249D02*
X88421116Y-109122916D01*
X88421116Y-109122916D02*
X88437783Y-109139583D01*
X88437783Y-109139583D02*
X88454450Y-109172916D01*
X88454450Y-109172916D02*
X88454450Y-109306249D01*
X88621116Y-108772916D02*
X88621116Y-108972916D01*
X88621116Y-108872916D02*
X88271116Y-108872916D01*
X88271116Y-108872916D02*
X88321116Y-108906249D01*
X88321116Y-108906249D02*
X88354450Y-108939583D01*
X88354450Y-108939583D02*
X88371116Y-108972916D01*
X88304450Y-108639583D02*
X88287783Y-108622916D01*
X88287783Y-108622916D02*
X88271116Y-108589583D01*
X88271116Y-108589583D02*
X88271116Y-108506250D01*
X88271116Y-108506250D02*
X88287783Y-108472916D01*
X88287783Y-108472916D02*
X88304450Y-108456250D01*
X88304450Y-108456250D02*
X88337783Y-108439583D01*
X88337783Y-108439583D02*
X88371116Y-108439583D01*
X88371116Y-108439583D02*
X88421116Y-108456250D01*
X88421116Y-108456250D02*
X88621116Y-108656250D01*
X88621116Y-108656250D02*
X88621116Y-108439583D01*
X146430000Y-117174033D02*
X146413333Y-117190700D01*
X146413333Y-117190700D02*
X146363333Y-117207366D01*
X146363333Y-117207366D02*
X146330000Y-117207366D01*
X146330000Y-117207366D02*
X146280000Y-117190700D01*
X146280000Y-117190700D02*
X146246667Y-117157366D01*
X146246667Y-117157366D02*
X146230000Y-117124033D01*
X146230000Y-117124033D02*
X146213333Y-117057366D01*
X146213333Y-117057366D02*
X146213333Y-117007366D01*
X146213333Y-117007366D02*
X146230000Y-116940700D01*
X146230000Y-116940700D02*
X146246667Y-116907366D01*
X146246667Y-116907366D02*
X146280000Y-116874033D01*
X146280000Y-116874033D02*
X146330000Y-116857366D01*
X146330000Y-116857366D02*
X146363333Y-116857366D01*
X146363333Y-116857366D02*
X146413333Y-116874033D01*
X146413333Y-116874033D02*
X146430000Y-116890700D01*
X146730000Y-116974033D02*
X146730000Y-117207366D01*
X146646667Y-116840700D02*
X146563333Y-117090700D01*
X146563333Y-117090700D02*
X146780000Y-117090700D01*
X147063333Y-116857366D02*
X146996666Y-116857366D01*
X146996666Y-116857366D02*
X146963333Y-116874033D01*
X146963333Y-116874033D02*
X146946666Y-116890700D01*
X146946666Y-116890700D02*
X146913333Y-116940700D01*
X146913333Y-116940700D02*
X146896666Y-117007366D01*
X146896666Y-117007366D02*
X146896666Y-117140700D01*
X146896666Y-117140700D02*
X146913333Y-117174033D01*
X146913333Y-117174033D02*
X146930000Y-117190700D01*
X146930000Y-117190700D02*
X146963333Y-117207366D01*
X146963333Y-117207366D02*
X147030000Y-117207366D01*
X147030000Y-117207366D02*
X147063333Y-117190700D01*
X147063333Y-117190700D02*
X147080000Y-117174033D01*
X147080000Y-117174033D02*
X147096666Y-117140700D01*
X147096666Y-117140700D02*
X147096666Y-117057366D01*
X147096666Y-117057366D02*
X147080000Y-117024033D01*
X147080000Y-117024033D02*
X147063333Y-117007366D01*
X147063333Y-117007366D02*
X147030000Y-116990700D01*
X147030000Y-116990700D02*
X146963333Y-116990700D01*
X146963333Y-116990700D02*
X146930000Y-117007366D01*
X146930000Y-117007366D02*
X146913333Y-117024033D01*
X146913333Y-117024033D02*
X146896666Y-117057366D01*
X124667366Y-129954666D02*
X124950700Y-129954666D01*
X124950700Y-129954666D02*
X124984033Y-129938000D01*
X124984033Y-129938000D02*
X125000700Y-129921333D01*
X125000700Y-129921333D02*
X125017366Y-129888000D01*
X125017366Y-129888000D02*
X125017366Y-129821333D01*
X125017366Y-129821333D02*
X125000700Y-129788000D01*
X125000700Y-129788000D02*
X124984033Y-129771333D01*
X124984033Y-129771333D02*
X124950700Y-129754666D01*
X124950700Y-129754666D02*
X124667366Y-129754666D01*
X125017366Y-129571333D02*
X125017366Y-129504666D01*
X125017366Y-129504666D02*
X125000700Y-129471333D01*
X125000700Y-129471333D02*
X124984033Y-129454666D01*
X124984033Y-129454666D02*
X124934033Y-129421333D01*
X124934033Y-129421333D02*
X124867366Y-129404666D01*
X124867366Y-129404666D02*
X124734033Y-129404666D01*
X124734033Y-129404666D02*
X124700700Y-129421333D01*
X124700700Y-129421333D02*
X124684033Y-129437999D01*
X124684033Y-129437999D02*
X124667366Y-129471333D01*
X124667366Y-129471333D02*
X124667366Y-129537999D01*
X124667366Y-129537999D02*
X124684033Y-129571333D01*
X124684033Y-129571333D02*
X124700700Y-129587999D01*
X124700700Y-129587999D02*
X124734033Y-129604666D01*
X124734033Y-129604666D02*
X124817366Y-129604666D01*
X124817366Y-129604666D02*
X124850700Y-129587999D01*
X124850700Y-129587999D02*
X124867366Y-129571333D01*
X124867366Y-129571333D02*
X124884033Y-129537999D01*
X124884033Y-129537999D02*
X124884033Y-129471333D01*
X124884033Y-129471333D02*
X124867366Y-129437999D01*
X124867366Y-129437999D02*
X124850700Y-129421333D01*
X124850700Y-129421333D02*
X124817366Y-129404666D01*
X94073333Y-110527366D02*
X94073333Y-110810700D01*
X94073333Y-110810700D02*
X94090000Y-110844033D01*
X94090000Y-110844033D02*
X94106666Y-110860700D01*
X94106666Y-110860700D02*
X94140000Y-110877366D01*
X94140000Y-110877366D02*
X94206666Y-110877366D01*
X94206666Y-110877366D02*
X94240000Y-110860700D01*
X94240000Y-110860700D02*
X94256666Y-110844033D01*
X94256666Y-110844033D02*
X94273333Y-110810700D01*
X94273333Y-110810700D02*
X94273333Y-110527366D01*
X94606667Y-110527366D02*
X94440000Y-110527366D01*
X94440000Y-110527366D02*
X94423333Y-110694033D01*
X94423333Y-110694033D02*
X94440000Y-110677366D01*
X94440000Y-110677366D02*
X94473333Y-110660700D01*
X94473333Y-110660700D02*
X94556667Y-110660700D01*
X94556667Y-110660700D02*
X94590000Y-110677366D01*
X94590000Y-110677366D02*
X94606667Y-110694033D01*
X94606667Y-110694033D02*
X94623333Y-110727366D01*
X94623333Y-110727366D02*
X94623333Y-110810700D01*
X94623333Y-110810700D02*
X94606667Y-110844033D01*
X94606667Y-110844033D02*
X94590000Y-110860700D01*
X94590000Y-110860700D02*
X94556667Y-110877366D01*
X94556667Y-110877366D02*
X94473333Y-110877366D01*
X94473333Y-110877366D02*
X94440000Y-110860700D01*
X94440000Y-110860700D02*
X94423333Y-110844033D01*
X129870000Y-106999033D02*
X129853333Y-107015700D01*
X129853333Y-107015700D02*
X129803333Y-107032366D01*
X129803333Y-107032366D02*
X129770000Y-107032366D01*
X129770000Y-107032366D02*
X129720000Y-107015700D01*
X129720000Y-107015700D02*
X129686667Y-106982366D01*
X129686667Y-106982366D02*
X129670000Y-106949033D01*
X129670000Y-106949033D02*
X129653333Y-106882366D01*
X129653333Y-106882366D02*
X129653333Y-106832366D01*
X129653333Y-106832366D02*
X129670000Y-106765700D01*
X129670000Y-106765700D02*
X129686667Y-106732366D01*
X129686667Y-106732366D02*
X129720000Y-106699033D01*
X129720000Y-106699033D02*
X129770000Y-106682366D01*
X129770000Y-106682366D02*
X129803333Y-106682366D01*
X129803333Y-106682366D02*
X129853333Y-106699033D01*
X129853333Y-106699033D02*
X129870000Y-106715700D01*
X130203333Y-107032366D02*
X130003333Y-107032366D01*
X130103333Y-107032366D02*
X130103333Y-106682366D01*
X130103333Y-106682366D02*
X130070000Y-106732366D01*
X130070000Y-106732366D02*
X130036667Y-106765700D01*
X130036667Y-106765700D02*
X130003333Y-106782366D01*
X130336666Y-106715700D02*
X130353333Y-106699033D01*
X130353333Y-106699033D02*
X130386666Y-106682366D01*
X130386666Y-106682366D02*
X130470000Y-106682366D01*
X130470000Y-106682366D02*
X130503333Y-106699033D01*
X130503333Y-106699033D02*
X130520000Y-106715700D01*
X130520000Y-106715700D02*
X130536666Y-106749033D01*
X130536666Y-106749033D02*
X130536666Y-106782366D01*
X130536666Y-106782366D02*
X130520000Y-106832366D01*
X130520000Y-106832366D02*
X130320000Y-107032366D01*
X130320000Y-107032366D02*
X130536666Y-107032366D01*
X115603333Y-144732366D02*
X115603333Y-144982366D01*
X115603333Y-144982366D02*
X115586666Y-145032366D01*
X115586666Y-145032366D02*
X115553333Y-145065700D01*
X115553333Y-145065700D02*
X115503333Y-145082366D01*
X115503333Y-145082366D02*
X115470000Y-145082366D01*
X115920000Y-144732366D02*
X115853333Y-144732366D01*
X115853333Y-144732366D02*
X115820000Y-144749033D01*
X115820000Y-144749033D02*
X115803333Y-144765700D01*
X115803333Y-144765700D02*
X115770000Y-144815700D01*
X115770000Y-144815700D02*
X115753333Y-144882366D01*
X115753333Y-144882366D02*
X115753333Y-145015700D01*
X115753333Y-145015700D02*
X115770000Y-145049033D01*
X115770000Y-145049033D02*
X115786667Y-145065700D01*
X115786667Y-145065700D02*
X115820000Y-145082366D01*
X115820000Y-145082366D02*
X115886667Y-145082366D01*
X115886667Y-145082366D02*
X115920000Y-145065700D01*
X115920000Y-145065700D02*
X115936667Y-145049033D01*
X115936667Y-145049033D02*
X115953333Y-145015700D01*
X115953333Y-145015700D02*
X115953333Y-144932366D01*
X115953333Y-144932366D02*
X115936667Y-144899033D01*
X115936667Y-144899033D02*
X115920000Y-144882366D01*
X115920000Y-144882366D02*
X115886667Y-144865700D01*
X115886667Y-144865700D02*
X115820000Y-144865700D01*
X115820000Y-144865700D02*
X115786667Y-144882366D01*
X115786667Y-144882366D02*
X115770000Y-144899033D01*
X115770000Y-144899033D02*
X115753333Y-144932366D01*
X170670000Y-137374033D02*
X170653333Y-137390700D01*
X170653333Y-137390700D02*
X170603333Y-137407366D01*
X170603333Y-137407366D02*
X170570000Y-137407366D01*
X170570000Y-137407366D02*
X170520000Y-137390700D01*
X170520000Y-137390700D02*
X170486667Y-137357366D01*
X170486667Y-137357366D02*
X170470000Y-137324033D01*
X170470000Y-137324033D02*
X170453333Y-137257366D01*
X170453333Y-137257366D02*
X170453333Y-137207366D01*
X170453333Y-137207366D02*
X170470000Y-137140700D01*
X170470000Y-137140700D02*
X170486667Y-137107366D01*
X170486667Y-137107366D02*
X170520000Y-137074033D01*
X170520000Y-137074033D02*
X170570000Y-137057366D01*
X170570000Y-137057366D02*
X170603333Y-137057366D01*
X170603333Y-137057366D02*
X170653333Y-137074033D01*
X170653333Y-137074033D02*
X170670000Y-137090700D01*
X170970000Y-137174033D02*
X170970000Y-137407366D01*
X170886667Y-137040700D02*
X170803333Y-137290700D01*
X170803333Y-137290700D02*
X171020000Y-137290700D01*
X171136666Y-137090700D02*
X171153333Y-137074033D01*
X171153333Y-137074033D02*
X171186666Y-137057366D01*
X171186666Y-137057366D02*
X171270000Y-137057366D01*
X171270000Y-137057366D02*
X171303333Y-137074033D01*
X171303333Y-137074033D02*
X171320000Y-137090700D01*
X171320000Y-137090700D02*
X171336666Y-137124033D01*
X171336666Y-137124033D02*
X171336666Y-137157366D01*
X171336666Y-137157366D02*
X171320000Y-137207366D01*
X171320000Y-137207366D02*
X171120000Y-137407366D01*
X171120000Y-137407366D02*
X171336666Y-137407366D01*
%TO.C,C49*%
D12*
X129205000Y-140368748D02*
X129205000Y-141791252D01*
X127385000Y-140368748D02*
X127385000Y-141791252D01*
%TO.C,U1*%
X158260000Y-114190000D02*
X160080000Y-114190000D01*
X158260000Y-114240000D02*
X158260000Y-114190000D01*
X158260000Y-117310000D02*
X158260000Y-117260000D01*
X160080000Y-114190000D02*
X160080000Y-114240000D01*
X160080000Y-117260000D02*
X160080000Y-117310000D01*
X160080000Y-117310000D02*
X158260000Y-117310000D01*
X160860000Y-117590000D02*
X160380000Y-117590000D01*
X160620000Y-117260000D01*
X160860000Y-117590000D01*
G36*
X160860000Y-117590000D02*
G01*
X160380000Y-117590000D01*
X160620000Y-117260000D01*
X160860000Y-117590000D01*
G37*
%TO.C,R4*%
X161050000Y-110503641D02*
X161050000Y-110196359D01*
X161810000Y-110503641D02*
X161810000Y-110196359D01*
%TO.C,C30*%
X169710000Y-124263748D02*
X169710000Y-125686252D01*
X172430000Y-124263748D02*
X172430000Y-125686252D01*
%TO.C,R10*%
X126960000Y-135583641D02*
X126960000Y-135276359D01*
X127720000Y-135583641D02*
X127720000Y-135276359D01*
%TO.C,C11*%
X132807836Y-101110000D02*
X132592164Y-101110000D01*
X132807836Y-101830000D02*
X132592164Y-101830000D01*
%TO.C,C29*%
X108148750Y-117917502D02*
X108148750Y-116494998D01*
X110868750Y-117917502D02*
X110868750Y-116494998D01*
%TO.C,U2*%
X137260000Y-99540000D02*
X138210000Y-99540000D01*
X137260000Y-100490000D02*
X137260000Y-99540000D01*
X137260000Y-109760000D02*
X137260000Y-108810000D01*
X138210000Y-109760000D02*
X137260000Y-109760000D01*
X146530000Y-99540000D02*
X147480000Y-99540000D01*
X147480000Y-99540000D02*
X147480000Y-100490000D01*
X147480000Y-108810000D02*
X147480000Y-109760000D01*
X147480000Y-109760000D02*
X146530000Y-109760000D01*
X136620000Y-100490000D02*
X136280000Y-100020000D01*
X136960000Y-100020000D01*
X136620000Y-100490000D01*
G36*
X136620000Y-100490000D02*
G01*
X136280000Y-100020000D01*
X136960000Y-100020000D01*
X136620000Y-100490000D01*
G37*
%TO.C,U3*%
D13*
X167460200Y-133065200D02*
X167460200Y-132465200D01*
X167460200Y-133065200D02*
X168060200Y-133065200D01*
X167880200Y-129730200D02*
X167525200Y-130105200D01*
X170260200Y-133065200D02*
X170860200Y-133065200D01*
X170860200Y-129665200D02*
X170260200Y-129665200D01*
X170860200Y-130265200D02*
X170860200Y-129665200D01*
X170860200Y-133065200D02*
X170860200Y-132465200D01*
D14*
X167509200Y-129587200D02*
G75*
G02*
X167255200Y-129587200I-127000J0D01*
G01*
X167255200Y-129587200D02*
G75*
G02*
X167509200Y-129587200I127000J0D01*
G01*
%TO.C,C26*%
D12*
X101626586Y-108771250D02*
X101410914Y-108771250D01*
X101626586Y-109491250D02*
X101410914Y-109491250D01*
%TO.C,C51*%
X132110000Y-135097164D02*
X132110000Y-135312836D01*
X132830000Y-135097164D02*
X132830000Y-135312836D01*
%TO.C,C2*%
X147697836Y-110290000D02*
X147482164Y-110290000D01*
X147697836Y-111010000D02*
X147482164Y-111010000D01*
%TO.C,U8*%
D15*
X140720000Y-113060000D02*
X141230000Y-113060000D01*
X140720000Y-115560000D02*
X141230000Y-115560000D01*
X143210000Y-113060000D02*
X143720000Y-113060000D01*
X143720000Y-115560000D02*
X143210000Y-115560000D01*
D16*
X140320000Y-113510000D02*
G75*
G02*
X140120000Y-113510000I-100000J0D01*
G01*
X140120000Y-113510000D02*
G75*
G02*
X140320000Y-113510000I100000J0D01*
G01*
%TO.C,J8*%
D12*
X111540000Y-79885000D02*
X111540000Y-81035000D01*
X111540000Y-81035000D02*
X112590000Y-81035000D01*
X112590000Y-81035000D02*
X112590000Y-82025000D01*
X112710000Y-77915000D02*
X114590000Y-77915000D01*
X115760000Y-79885000D02*
X115760000Y-81035000D01*
X115760000Y-81035000D02*
X114710000Y-81035000D01*
%TO.C,C3*%
X150397836Y-99260000D02*
X150182164Y-99260000D01*
X150397836Y-99980000D02*
X150182164Y-99980000D01*
%TO.C,C14*%
X150162164Y-100640000D02*
X150377836Y-100640000D01*
X150162164Y-101360000D02*
X150377836Y-101360000D01*
%TO.C,C37*%
X145210000Y-132297836D02*
X145210000Y-132082164D01*
X145930000Y-132297836D02*
X145930000Y-132082164D01*
%TO.C,Q1*%
X106110000Y-135840000D02*
X106160000Y-135840000D01*
X106110000Y-137360000D02*
X106110000Y-135840000D01*
X107110000Y-137360000D02*
X106110000Y-137360000D01*
X107280000Y-135840000D02*
X108060000Y-135840000D01*
X109180000Y-135840000D02*
X109230000Y-135840000D01*
X109230000Y-135840000D02*
X109230000Y-137360000D01*
X109230000Y-137360000D02*
X108230000Y-137360000D01*
X108050000Y-135300000D02*
X107720000Y-135540000D01*
X107720000Y-135060000D01*
X108050000Y-135300000D01*
G36*
X108050000Y-135300000D02*
G01*
X107720000Y-135540000D01*
X107720000Y-135060000D01*
X108050000Y-135300000D01*
G37*
%TO.C,C50*%
X134982164Y-125090000D02*
X135197836Y-125090000D01*
X134982164Y-125810000D02*
X135197836Y-125810000D01*
%TO.C,D2*%
D17*
X97853750Y-100941850D02*
X97853750Y-93820650D01*
D13*
X99958750Y-96838250D02*
X100958750Y-98211250D01*
X100958750Y-98211250D02*
X101958750Y-96838250D01*
X101958750Y-96838250D02*
X99958750Y-96838250D01*
D17*
X104063750Y-100941850D02*
X104063750Y-93820650D01*
D18*
X104058750Y-99481250D02*
X97858750Y-99481250D01*
X97858750Y-98231250D01*
X104058750Y-98231250D01*
X104058750Y-99481250D01*
G36*
X104058750Y-99481250D02*
G01*
X97858750Y-99481250D01*
X97858750Y-98231250D01*
X104058750Y-98231250D01*
X104058750Y-99481250D01*
G37*
%TO.C,R18*%
D12*
X134190000Y-138128641D02*
X134190000Y-137821359D01*
X134950000Y-138128641D02*
X134950000Y-137821359D01*
%TO.C,C35*%
X120645914Y-112546250D02*
X120861586Y-112546250D01*
X120645914Y-113266250D02*
X120861586Y-113266250D01*
%TO.C,C36*%
X154977836Y-140190000D02*
X154762164Y-140190000D01*
X154977836Y-140910000D02*
X154762164Y-140910000D01*
%TO.C,R5*%
X161851359Y-108420000D02*
X162158641Y-108420000D01*
X161851359Y-109180000D02*
X162158641Y-109180000D01*
%TO.C,C10*%
X140097836Y-96330000D02*
X139882164Y-96330000D01*
X140097836Y-97050000D02*
X139882164Y-97050000D01*
%TO.C,C8*%
X131058748Y-111930000D02*
X131581252Y-111930000D01*
X131058748Y-113400000D02*
X131581252Y-113400000D01*
%TO.C,R25*%
X91295109Y-94926250D02*
X91602391Y-94926250D01*
X91295109Y-95686250D02*
X91602391Y-95686250D01*
%TO.C,C54*%
X130810000Y-135107836D02*
X130810000Y-134892164D01*
X131530000Y-135107836D02*
X131530000Y-134892164D01*
%TO.C,C44*%
X168382836Y-134240000D02*
X168167164Y-134240000D01*
X168382836Y-134960000D02*
X168167164Y-134960000D01*
%TO.C,R9*%
X128140000Y-135203641D02*
X128140000Y-134896359D01*
X128900000Y-135203641D02*
X128900000Y-134896359D01*
%TO.C,C33*%
X114398750Y-111389086D02*
X114398750Y-111173414D01*
X115118750Y-111389086D02*
X115118750Y-111173414D01*
%TO.C,R15*%
X99492391Y-108751250D02*
X99185109Y-108751250D01*
X99492391Y-109511250D02*
X99185109Y-109511250D01*
%TO.C,C9*%
X133012164Y-91365000D02*
X133227836Y-91365000D01*
X133012164Y-92085000D02*
X133227836Y-92085000D01*
%TO.C,C15*%
X163320000Y-110187836D02*
X163320000Y-109972164D01*
X164040000Y-110187836D02*
X164040000Y-109972164D01*
%TO.C,R11*%
X125340000Y-125103641D02*
X125340000Y-124796359D01*
X126100000Y-125103641D02*
X126100000Y-124796359D01*
%TO.C,C27*%
X104648750Y-117917502D02*
X104648750Y-116494998D01*
X107368750Y-117917502D02*
X107368750Y-116494998D01*
%TO.C,C23*%
X85690000Y-101038748D02*
X85690000Y-102461252D01*
X88410000Y-101038748D02*
X88410000Y-102461252D01*
%TO.C,R20*%
X108041359Y-132645000D02*
X108348641Y-132645000D01*
X108041359Y-133405000D02*
X108348641Y-133405000D01*
%TO.C,U7*%
D16*
X143520000Y-94700000D02*
G75*
G02*
X143320000Y-94700000I-100000J0D01*
G01*
X143320000Y-94700000D02*
G75*
G02*
X143520000Y-94700000I100000J0D01*
G01*
%TO.C,C13*%
D12*
X146000000Y-113192164D02*
X146000000Y-113407836D01*
X146720000Y-113192164D02*
X146720000Y-113407836D01*
%TO.C,C53*%
X135152836Y-135990000D02*
X134937164Y-135990000D01*
X135152836Y-136710000D02*
X134937164Y-136710000D01*
%TO.C,J4*%
X131860000Y-140615000D02*
X132910000Y-140615000D01*
X131860000Y-141765000D02*
X131860000Y-140615000D01*
X136910000Y-143735000D02*
X133030000Y-143735000D01*
X137030000Y-140615000D02*
X137030000Y-139625000D01*
X138080000Y-140615000D02*
X137030000Y-140615000D01*
X138080000Y-141765000D02*
X138080000Y-140615000D01*
%TO.C,C5*%
X132908748Y-97965000D02*
X133431252Y-97965000D01*
X132908748Y-99435000D02*
X133431252Y-99435000D01*
%TO.C,C40*%
X141910000Y-93387836D02*
X141910000Y-93172164D01*
X142630000Y-93387836D02*
X142630000Y-93172164D01*
%TO.C,Y1*%
X130180000Y-106210000D02*
X133600000Y-106210000D01*
X133600000Y-106210000D02*
X133600000Y-102090000D01*
%TO.C,J2*%
X133660000Y-81305000D02*
X133660000Y-79925000D01*
X135040000Y-81305000D02*
X133660000Y-81305000D01*
X136310000Y-78545000D02*
X146580000Y-78545000D01*
X136310000Y-81305000D02*
X136310000Y-78545000D01*
X136310000Y-81305000D02*
X146580000Y-81305000D01*
X146580000Y-81305000D02*
X146580000Y-78545000D01*
%TO.C,C45*%
X145207836Y-115890000D02*
X144992164Y-115890000D01*
X145207836Y-116610000D02*
X144992164Y-116610000D01*
%TO.C,C25*%
X94546586Y-103871250D02*
X94330914Y-103871250D01*
X94546586Y-104591250D02*
X94330914Y-104591250D01*
%TO.C,C56*%
X91541586Y-96371250D02*
X91325914Y-96371250D01*
X91541586Y-97091250D02*
X91325914Y-97091250D01*
%TO.C,R1*%
X124966359Y-84770000D02*
X125273641Y-84770000D01*
X124966359Y-85530000D02*
X125273641Y-85530000D01*
%TO.C,R24*%
X87430109Y-96376250D02*
X87737391Y-96376250D01*
X87430109Y-97136250D02*
X87737391Y-97136250D01*
%TO.C,C4*%
X136970000Y-98112164D02*
X136970000Y-98327836D01*
X137690000Y-98112164D02*
X137690000Y-98327836D01*
%TO.C,C7*%
X131558748Y-109765000D02*
X132081252Y-109765000D01*
X131558748Y-111235000D02*
X132081252Y-111235000D01*
%TO.C,J1*%
X168020000Y-120280000D02*
X169940000Y-120280000D01*
X169940000Y-111120000D02*
X168020000Y-111120000D01*
X171950000Y-111120000D02*
X173655000Y-111120000D01*
X173655000Y-111120000D02*
X173655000Y-120280000D01*
X173655000Y-120280000D02*
X171950000Y-120280000D01*
%TO.C,R21*%
X110623641Y-133670000D02*
X110316359Y-133670000D01*
X110623641Y-134430000D02*
X110316359Y-134430000D01*
%TO.C,R17*%
X113078750Y-118134891D02*
X113078750Y-117827609D01*
X113838750Y-118134891D02*
X113838750Y-117827609D01*
%TO.C,C52*%
X129535000Y-134897164D02*
X129535000Y-135112836D01*
X130255000Y-134897164D02*
X130255000Y-135112836D01*
%TO.C,U4*%
X116628750Y-112158750D02*
X118448750Y-112158750D01*
X116628750Y-112208750D02*
X116628750Y-112158750D01*
X116628750Y-115278750D02*
X116628750Y-115228750D01*
X118448750Y-112158750D02*
X118448750Y-112208750D01*
X118448750Y-113328750D02*
X118448750Y-114108750D01*
X118448750Y-115228750D02*
X118448750Y-115278750D01*
X118448750Y-115278750D02*
X116628750Y-115278750D01*
X116088750Y-112208750D02*
X115848750Y-111878750D01*
X116328750Y-111878750D01*
X116088750Y-112208750D01*
G36*
X116088750Y-112208750D02*
G01*
X115848750Y-111878750D01*
X116328750Y-111878750D01*
X116088750Y-112208750D01*
G37*
%TO.C,L2*%
X103888750Y-106218750D02*
X106188750Y-106218750D01*
X103888750Y-113618750D02*
X103888750Y-106218750D01*
X106188750Y-113618750D02*
X103888750Y-113618750D01*
X108988750Y-106218750D02*
X111288750Y-106218750D01*
X111288750Y-106218750D02*
X111288750Y-113618750D01*
X111288750Y-113618750D02*
X108988750Y-113618750D01*
%TO.C,C28*%
X99396586Y-107621250D02*
X99180914Y-107621250D01*
X99396586Y-108341250D02*
X99180914Y-108341250D01*
%TO.C,R19*%
X130815000Y-137878641D02*
X130815000Y-137571359D01*
X131575000Y-137878641D02*
X131575000Y-137571359D01*
%TO.C,C34*%
X120675914Y-114346250D02*
X120891586Y-114346250D01*
X120675914Y-115066250D02*
X120891586Y-115066250D01*
%TO.C,R14*%
X91108750Y-111784891D02*
X91108750Y-111477609D01*
X91868750Y-111784891D02*
X91868750Y-111477609D01*
%TO.C,C1*%
X138830000Y-114277836D02*
X138830000Y-114062164D01*
X139550000Y-114277836D02*
X139550000Y-114062164D01*
%TO.C,Y2*%
X129760000Y-121590000D02*
X129760000Y-125010000D01*
X129760000Y-125010000D02*
X133880000Y-125010000D01*
%TO.C,C6*%
X131562164Y-108405000D02*
X131777836Y-108405000D01*
X131562164Y-109125000D02*
X131777836Y-109125000D01*
%TO.C,C43*%
X170737164Y-133590000D02*
X170952836Y-133590000D01*
X170737164Y-134310000D02*
X170952836Y-134310000D01*
%TO.C,C41*%
X168335000Y-136642164D02*
X168335000Y-136857836D01*
X169055000Y-136642164D02*
X169055000Y-136857836D01*
%TO.C,C39*%
X145237164Y-91965000D02*
X145452836Y-91965000D01*
X145237164Y-92685000D02*
X145452836Y-92685000D01*
%TO.C,C24*%
X89350000Y-101078748D02*
X89350000Y-102501252D01*
X92070000Y-101078748D02*
X92070000Y-102501252D01*
%TO.C,R22*%
X113536359Y-82845000D02*
X113843641Y-82845000D01*
X113536359Y-83605000D02*
X113843641Y-83605000D01*
%TO.C,J10*%
X66428750Y-89751250D02*
X72428750Y-89751250D01*
X66428750Y-98811250D02*
X66428750Y-89781250D01*
X66428750Y-98811250D02*
X72428750Y-98811250D01*
X72428750Y-89221250D02*
X74478750Y-89221250D01*
X72428750Y-89751250D02*
X72428750Y-89221250D01*
X72428750Y-99341250D02*
X72428750Y-98811250D01*
X72428750Y-99341250D02*
X74478750Y-99341250D01*
X74478750Y-89221250D02*
X74478750Y-88521250D01*
X74478750Y-100041250D02*
X74478750Y-99341250D01*
X76698750Y-100041250D02*
X76698750Y-88521250D01*
X74478750Y-88631250D02*
G75*
G02*
X76698750Y-88631250I1110000J0D01*
G01*
X76685385Y-100102979D02*
G75*
G02*
X74478750Y-99931250I-1096635J171730D01*
G01*
%TO.C,U6*%
D15*
X146545000Y-123912500D02*
X146545000Y-126662500D01*
X146545000Y-123912500D02*
X149295000Y-123912500D01*
X146545000Y-139412500D02*
X146545000Y-136662500D01*
X146545000Y-139412500D02*
X149295000Y-139412500D01*
X162045000Y-123912500D02*
X159295000Y-123912500D01*
X162045000Y-123912500D02*
X162045000Y-126662500D01*
X162045000Y-139412500D02*
X159295000Y-139412500D01*
X162045000Y-139412500D02*
X162045000Y-136662500D01*
D16*
X150595000Y-140162500D02*
G75*
G02*
X150395000Y-140162500I-100000J0D01*
G01*
X150395000Y-140162500D02*
G75*
G02*
X150595000Y-140162500I100000J0D01*
G01*
%TO.C,C38*%
D12*
X151612164Y-140215000D02*
X151827836Y-140215000D01*
X151612164Y-140935000D02*
X151827836Y-140935000D01*
%TO.C,C48*%
X130010000Y-140972164D02*
X130010000Y-141187836D01*
X130730000Y-140972164D02*
X130730000Y-141187836D01*
%TO.C,SW1*%
X120220000Y-81550000D02*
X120220000Y-79250000D01*
X121420000Y-81550000D02*
X120220000Y-81550000D01*
X123220000Y-81550000D02*
X123920000Y-81550000D01*
X125720000Y-81550000D02*
X126420000Y-81550000D01*
X129420000Y-79250000D02*
X129420000Y-81550000D01*
X129420000Y-81550000D02*
X128220000Y-81550000D01*
%TO.C,C47*%
X139462164Y-116100000D02*
X139677836Y-116100000D01*
X139462164Y-116820000D02*
X139677836Y-116820000D01*
%TO.C,R16*%
X113078750Y-115872391D02*
X113078750Y-115565109D01*
X113838750Y-115872391D02*
X113838750Y-115565109D01*
%TO.C,J5*%
X164110000Y-96865000D02*
X164110000Y-97915000D01*
X164110000Y-97915000D02*
X163120000Y-97915000D01*
X164110000Y-107085000D02*
X164110000Y-106035000D01*
X165260000Y-96865000D02*
X164110000Y-96865000D01*
X165260000Y-107085000D02*
X164110000Y-107085000D01*
X167230000Y-98035000D02*
X167230000Y-105915000D01*
%TO.C,R23*%
X111843641Y-83840000D02*
X111536359Y-83840000D01*
X111843641Y-84600000D02*
X111536359Y-84600000D01*
%TO.C,SW2*%
X130220000Y-88575000D02*
X130220000Y-85975000D01*
X130670000Y-85525000D02*
X130220000Y-85975000D01*
X130670000Y-89025000D02*
X130220000Y-88575000D01*
X131970000Y-84525000D02*
X133970000Y-84525000D01*
X131970000Y-90025000D02*
X133970000Y-90025000D01*
X135270000Y-85525000D02*
X135720000Y-85975000D01*
X135270000Y-89025000D02*
X135720000Y-88575000D01*
X135720000Y-88575000D02*
X135720000Y-85975000D01*
%TO.C,R8*%
X167465000Y-125686359D02*
X167465000Y-125993641D01*
X168225000Y-125686359D02*
X168225000Y-125993641D01*
%TO.C,R6*%
X147400000Y-95316359D02*
X147400000Y-95623641D01*
X148160000Y-95316359D02*
X148160000Y-95623641D01*
%TO.C,J9*%
X66428750Y-104551250D02*
X72428750Y-104551250D01*
X66428750Y-113611250D02*
X66428750Y-104581250D01*
X66428750Y-113611250D02*
X72428750Y-113611250D01*
X72428750Y-104021250D02*
X74478750Y-104021250D01*
X72428750Y-104551250D02*
X72428750Y-104021250D01*
X72428750Y-114141250D02*
X72428750Y-113611250D01*
X72428750Y-114141250D02*
X74478750Y-114141250D01*
X74478750Y-104021250D02*
X74478750Y-103321250D01*
X74478750Y-114841250D02*
X74478750Y-114141250D01*
X76698750Y-114841250D02*
X76698750Y-103321250D01*
X74478750Y-103431250D02*
G75*
G02*
X76698750Y-103431250I1110000J0D01*
G01*
X76685385Y-114902979D02*
G75*
G02*
X74478750Y-114731250I-1096635J171730D01*
G01*
%TO.C,R7*%
X166265000Y-125696359D02*
X166265000Y-126003641D01*
X167025000Y-125696359D02*
X167025000Y-126003641D01*
%TO.C,C55*%
X111797836Y-84980000D02*
X111582164Y-84980000D01*
X111797836Y-85700000D02*
X111582164Y-85700000D01*
%TO.C,J3*%
X120760000Y-140540000D02*
X121810000Y-140540000D01*
X120760000Y-141690000D02*
X120760000Y-140540000D01*
X124810000Y-143660000D02*
X121930000Y-143660000D01*
X124930000Y-140540000D02*
X124930000Y-139550000D01*
X125980000Y-140540000D02*
X124930000Y-140540000D01*
X125980000Y-141690000D02*
X125980000Y-140540000D01*
%TO.C,J7*%
X105935000Y-140515000D02*
X106985000Y-140515000D01*
X105935000Y-141665000D02*
X105935000Y-140515000D01*
X108985000Y-143635000D02*
X107105000Y-143635000D01*
X109105000Y-140515000D02*
X109105000Y-139525000D01*
X110155000Y-140515000D02*
X109105000Y-140515000D01*
X110155000Y-141665000D02*
X110155000Y-140515000D01*
%TO.C,R2*%
X162453641Y-117500000D02*
X162146359Y-117500000D01*
X162453641Y-118260000D02*
X162146359Y-118260000D01*
%TO.C,R13*%
X89228750Y-111209891D02*
X89228750Y-110902609D01*
X89988750Y-111209891D02*
X89988750Y-110902609D01*
%TO.C,R3*%
X162548641Y-114070000D02*
X162241359Y-114070000D01*
X162548641Y-114830000D02*
X162241359Y-114830000D01*
%TO.C,R12*%
X89253750Y-109034891D02*
X89253750Y-108727609D01*
X90013750Y-109034891D02*
X90013750Y-108727609D01*
%TO.C,C46*%
X145237836Y-116990000D02*
X145022164Y-116990000D01*
X145237836Y-117710000D02*
X145022164Y-117710000D01*
%TO.C,U9*%
D16*
X135645000Y-126363000D02*
X135645000Y-127838000D01*
%TO.C,U5*%
D11*
X92263750Y-105056250D02*
X96413750Y-105056250D01*
X92263750Y-110206250D02*
X96413750Y-110206250D01*
D12*
X91838750Y-105131250D02*
X91598750Y-104801250D01*
X92078750Y-104801250D01*
X91838750Y-105131250D01*
G36*
X91838750Y-105131250D02*
G01*
X91598750Y-104801250D01*
X92078750Y-104801250D01*
X91838750Y-105131250D01*
G37*
%TO.C,C12*%
X132072836Y-106515000D02*
X131857164Y-106515000D01*
X132072836Y-107235000D02*
X131857164Y-107235000D01*
%TO.C,J6*%
X112610000Y-140515000D02*
X113660000Y-140515000D01*
X112610000Y-141665000D02*
X112610000Y-140515000D01*
X117660000Y-143635000D02*
X113780000Y-143635000D01*
X117780000Y-140515000D02*
X117780000Y-139525000D01*
X118830000Y-140515000D02*
X117780000Y-140515000D01*
X118830000Y-141665000D02*
X118830000Y-140515000D01*
%TO.C,C42*%
X169485000Y-136622164D02*
X169485000Y-136837836D01*
X170205000Y-136622164D02*
X170205000Y-136837836D01*
%TD*%
M02*
