%TF.GenerationSoftware,KiCad,Pcbnew,10.0.0*%
%TF.CreationDate,2026-06-03T23:12:14-07:00*%
%TF.ProjectId,STM32_Drone,53544d33-325f-4447-926f-6e652e6b6963,rev?*%
%TF.SameCoordinates,Original*%
%TF.FileFunction,Copper,L4,Bot*%
%TF.FilePolarity,Positive*%
%FSLAX46Y46*%
G04 Gerber Fmt 4.6, Leading zero omitted, Abs format (unit mm)*
G04 Created by KiCad (PCBNEW 10.0.0) date 2026-06-03 23:12:14*
%MOMM*%
%LPD*%
G01*
G04 APERTURE LIST*
G04 Aperture macros list*
%AMRoundRect*
0 Rectangle with rounded corners*
0 $1 Rounding radius*
0 $2 $3 $4 $5 $6 $7 $8 $9 X,Y pos of 4 corners*
0 Add a 4 corners polygon primitive as box body*
4,1,4,$2,$3,$4,$5,$6,$7,$8,$9,$2,$3,0*
0 Add four circle primitives for the rounded corners*
1,1,$1+$1,$2,$3*
1,1,$1+$1,$4,$5*
1,1,$1+$1,$6,$7*
1,1,$1+$1,$8,$9*
0 Add four rect primitives between the rounded corners*
20,1,$1+$1,$2,$3,$4,$5,0*
20,1,$1+$1,$4,$5,$6,$7,0*
20,1,$1+$1,$6,$7,$8,$9,0*
20,1,$1+$1,$8,$9,$2,$3,0*%
G04 Aperture macros list end*
%TA.AperFunction,ComponentPad*%
%ADD10R,1.700000X1.700000*%
%TD*%
%TA.AperFunction,ComponentPad*%
%ADD11C,1.700000*%
%TD*%
%TA.AperFunction,ComponentPad*%
%ADD12O,2.100000X1.000000*%
%TD*%
%TA.AperFunction,ComponentPad*%
%ADD13O,1.600000X1.000000*%
%TD*%
%TA.AperFunction,ComponentPad*%
%ADD14C,1.400000*%
%TD*%
%TA.AperFunction,ComponentPad*%
%ADD15RoundRect,0.770000X0.980000X-0.980000X0.980000X0.980000X-0.980000X0.980000X-0.980000X-0.980000X0*%
%TD*%
%TA.AperFunction,ComponentPad*%
%ADD16C,3.500000*%
%TD*%
%TA.AperFunction,ComponentPad*%
%ADD17C,0.600000*%
%TD*%
%TA.AperFunction,SMDPad,CuDef*%
%ADD18R,2.950000X4.500000*%
%TD*%
%TA.AperFunction,ViaPad*%
%ADD19C,0.600000*%
%TD*%
%TA.AperFunction,ViaPad*%
%ADD20C,0.900000*%
%TD*%
%TA.AperFunction,Conductor*%
%ADD21C,0.500000*%
%TD*%
G04 APERTURE END LIST*
D10*
%TO.P,J2,1,Pin_1_1*%
%TO.N,+3.3V*%
X135040000Y-79925000D03*
D11*
%TO.P,J2,2,Pin_2_2*%
%TO.N,PA13*%
X137580000Y-79925000D03*
%TO.P,J2,3,Pin_3_3*%
%TO.N,PA14*%
X140120000Y-79925000D03*
%TO.P,J2,4,Pin_4_4*%
%TO.N,NRST*%
X142660000Y-79925000D03*
%TO.P,J2,5,Pin_5_5*%
%TO.N,GND*%
X145200000Y-79925000D03*
%TD*%
D12*
%TO.P,J1,SH,SHIELD_SH*%
%TO.N,GND*%
X166765000Y-120020000D03*
D13*
X170945000Y-120020000D03*
D12*
X166765000Y-111380000D03*
D13*
X170945000Y-111380000D03*
%TD*%
D14*
%TO.P,J10,*%
%TO.N,*%
X75588750Y-99781250D03*
X75588750Y-88781250D03*
D15*
%TO.P,J10,1,Pin_1_1*%
%TO.N,VBAT*%
X80588750Y-96781250D03*
D16*
%TO.P,J10,2,Pin_2_2*%
%TO.N,GND*%
X80588750Y-91781250D03*
%TD*%
D14*
%TO.P,J9,*%
%TO.N,*%
X75588750Y-114581250D03*
X75588750Y-103581250D03*
D15*
%TO.P,J9,1,Pin_1_1*%
%TO.N,VBAT*%
X80588750Y-111581250D03*
D16*
%TO.P,J9,2,Pin_2_2*%
%TO.N,GND*%
X80588750Y-106581250D03*
%TD*%
D17*
%TO.P,U5,9,GNDPAD_9*%
%TO.N,GND*%
X93738750Y-105831250D03*
X93738750Y-107031250D03*
X93738750Y-108331250D03*
X93738750Y-109431250D03*
D18*
X94338750Y-107631250D03*
D17*
X94938750Y-105831250D03*
X94938750Y-107031250D03*
X94938750Y-108331250D03*
X94938750Y-109431250D03*
%TD*%
D19*
%TO.N,*%
X174370000Y-106650000D03*
X70370000Y-118650000D03*
X70370000Y-126650000D03*
X70370000Y-124650000D03*
X174370000Y-132650000D03*
X70370000Y-122650000D03*
X174370000Y-134650000D03*
X174370000Y-98650000D03*
X174370000Y-124650000D03*
X70370000Y-130650000D03*
X174370000Y-96650000D03*
X174370000Y-122650000D03*
X70370000Y-134650000D03*
X70370000Y-128650000D03*
X174370000Y-128650000D03*
X174370000Y-126650000D03*
X70370000Y-120650000D03*
X70370000Y-132650000D03*
X174370000Y-102650000D03*
X174370000Y-104650000D03*
X174370000Y-130650000D03*
X174370000Y-108650000D03*
X70370000Y-116650000D03*
X174370000Y-100650000D03*
%TO.N,GND*%
X86370000Y-74650000D03*
X98370000Y-120650000D03*
X164370000Y-86650000D03*
X86370000Y-130650000D03*
X94370000Y-132650000D03*
X87920000Y-100290000D03*
X130380000Y-112170000D03*
X156370000Y-86650000D03*
X128360098Y-108760368D03*
X98370000Y-74650000D03*
X106370000Y-102650000D03*
X128230000Y-129100000D03*
X88370000Y-132650000D03*
X113470000Y-118490000D03*
X172370000Y-82650000D03*
X166370000Y-88650000D03*
X84370000Y-88650000D03*
X110370000Y-88650000D03*
X120370000Y-88650000D03*
X118370000Y-122650000D03*
X135370000Y-106340000D03*
X82370000Y-124650000D03*
X86370000Y-84650000D03*
X88370000Y-134650000D03*
X106730000Y-136170000D03*
X98370000Y-86650000D03*
X142370000Y-128650000D03*
X170370000Y-84650000D03*
X154370000Y-92650000D03*
X94370000Y-76650000D03*
X112370000Y-92650000D03*
X120370000Y-84650000D03*
X94370000Y-134650000D03*
X105050000Y-118680000D03*
X130910000Y-130920000D03*
X92370000Y-114650000D03*
X98370000Y-82650000D03*
X174370000Y-88650000D03*
X82370000Y-130650000D03*
X158370000Y-86650000D03*
X143385000Y-114060000D03*
X100370000Y-136650000D03*
X88370000Y-124650000D03*
X98370000Y-142650000D03*
X96370000Y-96650000D03*
X162370000Y-92650000D03*
X160370000Y-82650000D03*
X88370000Y-114650000D03*
X172370000Y-100650000D03*
X128370000Y-92650000D03*
X135470000Y-140930000D03*
X96370000Y-84650000D03*
X152370000Y-110650000D03*
X100370000Y-138650000D03*
X151240000Y-140580000D03*
X110370000Y-98650000D03*
X88370000Y-84650000D03*
X94370000Y-100650000D03*
X148370000Y-144650000D03*
X105370000Y-123650000D03*
X160370000Y-74650000D03*
X90370000Y-76650000D03*
X76370000Y-132650000D03*
X100370000Y-134650000D03*
X118370000Y-106650000D03*
X118370000Y-98650000D03*
X154370000Y-94650000D03*
X116401250Y-113718750D03*
X76370000Y-118650000D03*
X128370000Y-112650000D03*
X98370000Y-118650000D03*
X94370000Y-112650000D03*
X94370000Y-96650000D03*
X78370000Y-130650000D03*
X107370000Y-123650000D03*
X147695000Y-135462500D03*
X91980000Y-95320000D03*
X142230000Y-115850000D03*
X145560000Y-132660000D03*
X92370000Y-116650000D03*
X92370000Y-120650000D03*
X172370000Y-98650000D03*
X82370000Y-142650000D03*
X150370000Y-78650000D03*
X86370000Y-120650000D03*
X156370000Y-90650000D03*
X142370000Y-88650000D03*
X90370000Y-126650000D03*
X100370000Y-142650000D03*
X98370000Y-76650000D03*
X143580000Y-113270000D03*
X152370000Y-80650000D03*
X118370000Y-80650000D03*
X108370000Y-98650000D03*
X84370000Y-124650000D03*
X92370000Y-78650000D03*
X104370000Y-84650000D03*
X127310000Y-82460000D03*
X158370000Y-88650000D03*
X166370000Y-94650000D03*
X80370000Y-142650000D03*
X118370000Y-100650000D03*
X108370000Y-84650000D03*
X124370000Y-116650000D03*
X142370000Y-144650000D03*
X134370000Y-76650000D03*
X82370000Y-84650000D03*
X100370000Y-80650000D03*
X84370000Y-114650000D03*
X150370000Y-82650000D03*
X78370000Y-134650000D03*
X156370000Y-88650000D03*
X92370000Y-132650000D03*
X88370000Y-76650000D03*
X148370000Y-80650000D03*
X84370000Y-90650000D03*
X116370000Y-100650000D03*
X94370000Y-122650000D03*
X96370000Y-134650000D03*
X154370000Y-80650000D03*
X100370000Y-124650000D03*
X116370000Y-94650000D03*
X152370000Y-106650000D03*
X92370000Y-136650000D03*
X94370000Y-74650000D03*
X162370000Y-96650000D03*
X140190000Y-113810000D03*
X110370000Y-86650000D03*
X92370000Y-128650000D03*
X160370000Y-106650000D03*
X96370000Y-142650000D03*
X128370000Y-103650000D03*
X76370000Y-122650000D03*
X100370000Y-128650000D03*
X82370000Y-138650000D03*
X124370000Y-74650000D03*
X100370000Y-84650000D03*
X145510000Y-94080000D03*
X154370000Y-82650000D03*
X102370000Y-76650000D03*
X88370000Y-80650000D03*
X92370000Y-130650000D03*
X114370000Y-122650000D03*
X156370000Y-76650000D03*
X110500000Y-118690000D03*
X104370000Y-88650000D03*
X114370000Y-100650000D03*
X106910000Y-118680000D03*
X86370000Y-136650000D03*
X80370000Y-84650000D03*
X88370000Y-78650000D03*
X94370000Y-116650000D03*
X84370000Y-112650000D03*
X90370000Y-86650000D03*
X94370000Y-130650000D03*
X140370000Y-124650000D03*
X128370000Y-86650000D03*
X74370000Y-124650000D03*
X129370000Y-103150000D03*
X114370000Y-124650000D03*
X100370000Y-116650000D03*
X74370000Y-128650000D03*
X172370000Y-86650000D03*
X172370000Y-92650000D03*
X116370000Y-118650000D03*
X104370000Y-80650000D03*
X90370000Y-88650000D03*
X74370000Y-122650000D03*
X96370000Y-86650000D03*
X147700000Y-127860000D03*
X90370000Y-78650000D03*
X170370000Y-96650000D03*
X114370000Y-98650000D03*
X162370000Y-144650000D03*
X114760000Y-110790000D03*
X112370000Y-124650000D03*
X84370000Y-140650000D03*
X158370000Y-106650000D03*
X154370000Y-76650000D03*
X127870000Y-115650000D03*
X82370000Y-118650000D03*
X74370000Y-120650000D03*
X84370000Y-126650000D03*
X96370000Y-98650000D03*
X142370000Y-74650000D03*
X170370000Y-94650000D03*
X174370000Y-90650000D03*
X120370000Y-104650000D03*
X76370000Y-130650000D03*
X160370000Y-120650000D03*
X146990000Y-91930000D03*
X116220000Y-140830000D03*
X128370000Y-110650000D03*
X135470000Y-139880000D03*
X112370000Y-106650000D03*
X148370000Y-84650000D03*
X84370000Y-132650000D03*
X110370000Y-100650000D03*
X168370000Y-86650000D03*
X158370000Y-78650000D03*
X172370000Y-104650000D03*
X156370000Y-84650000D03*
X111370000Y-123650000D03*
X99460000Y-92680000D03*
X84370000Y-142650000D03*
X120370000Y-74650000D03*
X94370000Y-120650000D03*
X116370000Y-98650000D03*
X108370000Y-88650000D03*
X108370000Y-94650000D03*
X112370000Y-122650000D03*
X92370000Y-126650000D03*
X168370000Y-88650000D03*
X90370000Y-124650000D03*
X118370000Y-120650000D03*
X72370000Y-128650000D03*
X90370000Y-134650000D03*
X89740000Y-100320000D03*
X140370000Y-140650000D03*
X86370000Y-76650000D03*
X86370000Y-142650000D03*
X156370000Y-92650000D03*
X164370000Y-142650000D03*
X106370000Y-84650000D03*
X84370000Y-138650000D03*
X156370000Y-96650000D03*
X116370000Y-74650000D03*
X86370000Y-88650000D03*
X164370000Y-90650000D03*
X94370000Y-78650000D03*
X92370000Y-124650000D03*
X170370000Y-88650000D03*
X110370000Y-96650000D03*
X88370000Y-136650000D03*
X102370000Y-112650000D03*
X150370000Y-122650000D03*
X108370000Y-102650000D03*
X82370000Y-76650000D03*
X158370000Y-96650000D03*
X166370000Y-140650000D03*
X86370000Y-128650000D03*
X82370000Y-134650000D03*
X116370000Y-106650000D03*
X96370000Y-88650000D03*
X120370000Y-120650000D03*
X162370000Y-84650000D03*
X132370000Y-74650000D03*
X150370000Y-94650000D03*
X156370000Y-94650000D03*
X94370000Y-92650000D03*
X120370000Y-122650000D03*
X106370000Y-100650000D03*
X96370000Y-78650000D03*
X84370000Y-76650000D03*
X140370000Y-130650000D03*
X118370000Y-116650000D03*
X164370000Y-94650000D03*
X163870000Y-104450000D03*
X150495000Y-138262500D03*
X112370000Y-100650000D03*
X170370000Y-98650000D03*
X108370000Y-74650000D03*
X92370000Y-88650000D03*
X96370000Y-120650000D03*
X158095000Y-125062500D03*
X130870000Y-110010000D03*
X78370000Y-138650000D03*
X140370000Y-142650000D03*
X158370000Y-74650000D03*
X112370000Y-108650000D03*
X78370000Y-126650000D03*
X174370000Y-82650000D03*
X76370000Y-124650000D03*
X109370000Y-123650000D03*
X156370000Y-82650000D03*
X116370000Y-116650000D03*
X96370000Y-124650000D03*
X170370000Y-106650000D03*
X98370000Y-138650000D03*
X170370000Y-104650000D03*
X92370000Y-122650000D03*
X108590000Y-118680000D03*
X96370000Y-102650000D03*
X92370000Y-84650000D03*
X92370000Y-80650000D03*
X86370000Y-122650000D03*
X156370000Y-74650000D03*
X160370000Y-144650000D03*
X140370000Y-134650000D03*
X142370000Y-138650000D03*
X84370000Y-92650000D03*
X88370000Y-116650000D03*
X136370000Y-76650000D03*
X108370000Y-86650000D03*
X130370000Y-141560000D03*
X166370000Y-92650000D03*
X134620000Y-125440000D03*
X124370000Y-102650000D03*
X116370000Y-122650000D03*
X158370000Y-82650000D03*
X94370000Y-124650000D03*
X140470000Y-96700000D03*
X76370000Y-120650000D03*
X82370000Y-132650000D03*
X112370000Y-86650000D03*
X98370000Y-134650000D03*
X158370000Y-80650000D03*
X86370000Y-138650000D03*
X72370000Y-134650000D03*
X160370000Y-84650000D03*
X84370000Y-122650000D03*
X76370000Y-128650000D03*
X162370000Y-90650000D03*
X84370000Y-134650000D03*
X110370000Y-94650000D03*
X96370000Y-118650000D03*
X106370000Y-86650000D03*
X116220000Y-139760000D03*
X106370000Y-82650000D03*
X114370000Y-94650000D03*
X154370000Y-78650000D03*
X100370000Y-122650000D03*
X72370000Y-126650000D03*
X82370000Y-122650000D03*
X80370000Y-74650000D03*
X172030000Y-123500000D03*
X92370000Y-76650000D03*
X84370000Y-128650000D03*
X78370000Y-118650000D03*
X96370000Y-132650000D03*
X105370000Y-127650000D03*
X80370000Y-138650000D03*
X114370000Y-92650000D03*
X90370000Y-138650000D03*
X168370000Y-94650000D03*
X98370000Y-124650000D03*
X102370000Y-78650000D03*
X96240000Y-107060000D03*
X168370000Y-84650000D03*
X92370000Y-86650000D03*
X100370000Y-82650000D03*
X158370000Y-94650000D03*
X150370000Y-80650000D03*
X121240000Y-112900000D03*
X174370000Y-94650000D03*
X174370000Y-84650000D03*
X150370000Y-120650000D03*
X163870000Y-102450000D03*
X124370000Y-98650000D03*
X144370000Y-84650000D03*
X148070000Y-110650000D03*
X96370000Y-92650000D03*
X166370000Y-144650000D03*
X164370000Y-144650000D03*
X88370000Y-120650000D03*
X120370000Y-108650000D03*
X78370000Y-142650000D03*
X114370000Y-120650000D03*
X108370000Y-76650000D03*
X158370000Y-76650000D03*
X109370000Y-121650000D03*
X150370000Y-84650000D03*
X72370000Y-132650000D03*
X140370000Y-74650000D03*
X90370000Y-132650000D03*
X164370000Y-88650000D03*
X131480000Y-106890000D03*
X130350000Y-113160000D03*
X100370000Y-74650000D03*
X140370000Y-136650000D03*
X132200000Y-98230000D03*
X124370000Y-104650000D03*
X72370000Y-118650000D03*
X96370000Y-100650000D03*
X140370000Y-138650000D03*
X108370000Y-82650000D03*
X132230000Y-101470000D03*
X98370000Y-132650000D03*
X152370000Y-84650000D03*
X114370000Y-96650000D03*
X98370000Y-128650000D03*
X74370000Y-134650000D03*
X90370000Y-128650000D03*
X146370000Y-86650000D03*
X146370000Y-76650000D03*
X118370000Y-78650000D03*
X111200000Y-85330000D03*
X74370000Y-118650000D03*
X170370000Y-108650000D03*
X84370000Y-80650000D03*
X94370000Y-142650000D03*
X170370000Y-102650000D03*
X131090000Y-84260000D03*
X102370000Y-82650000D03*
X108370000Y-78650000D03*
X150370000Y-74650000D03*
X118370000Y-82650000D03*
X156370000Y-80650000D03*
X156370000Y-120650000D03*
X84370000Y-94650000D03*
X103370000Y-125650000D03*
X107370000Y-125650000D03*
X146370000Y-74650000D03*
X146370000Y-144650000D03*
X120370000Y-116650000D03*
X116370000Y-96650000D03*
X111370000Y-121650000D03*
X172370000Y-102650000D03*
X168370000Y-90650000D03*
X154370000Y-96650000D03*
X80370000Y-118650000D03*
X78370000Y-140650000D03*
X96370000Y-130650000D03*
X116370000Y-84650000D03*
X96370000Y-112650000D03*
X94370000Y-140650000D03*
X80370000Y-136650000D03*
X86359189Y-92611302D03*
X126370000Y-74650000D03*
X94370000Y-98650000D03*
X103370000Y-127650000D03*
X72370000Y-120650000D03*
X80370000Y-76650000D03*
X152370000Y-82650000D03*
X96370000Y-136650000D03*
X170370000Y-82650000D03*
X148370000Y-122650000D03*
X142280000Y-92790000D03*
X120370000Y-102650000D03*
X114370000Y-74650000D03*
X124370000Y-112650000D03*
X84370000Y-78650000D03*
X100370000Y-78650000D03*
X167770000Y-134650000D03*
X168370000Y-92650000D03*
X118370000Y-118650000D03*
X130890000Y-110980000D03*
X114370000Y-108650000D03*
X154370000Y-98650000D03*
X122370000Y-139790000D03*
X106370000Y-96650000D03*
X162370000Y-88650000D03*
X86370000Y-124650000D03*
X138370000Y-76650000D03*
X90370000Y-140650000D03*
X94370000Y-126650000D03*
X92370000Y-138650000D03*
X98370000Y-126650000D03*
X132640000Y-91720000D03*
X74370000Y-126650000D03*
X114370000Y-104650000D03*
X100370000Y-118650000D03*
X94370000Y-82650000D03*
X170050000Y-123490000D03*
X82370000Y-74650000D03*
X102370000Y-86650000D03*
X86370000Y-86650000D03*
X86370000Y-112650000D03*
X98370000Y-88650000D03*
X102370000Y-88650000D03*
X94370000Y-84650000D03*
X78370000Y-132650000D03*
X92370000Y-74650000D03*
X150770000Y-101000000D03*
X144030000Y-114540000D03*
X98370000Y-80650000D03*
X158370000Y-118650000D03*
X110930000Y-134035000D03*
X128370000Y-74650000D03*
X118370000Y-86650000D03*
X118370000Y-74650000D03*
X86370000Y-114650000D03*
X146350000Y-113780000D03*
X80370000Y-120650000D03*
X114370000Y-88650000D03*
X96370000Y-116650000D03*
X80370000Y-82650000D03*
X152370000Y-90650000D03*
X90370000Y-80650000D03*
X98370000Y-78650000D03*
X100370000Y-130650000D03*
X108370000Y-104650000D03*
X120370000Y-86650000D03*
X118370000Y-92650000D03*
X150370000Y-96650000D03*
X100370000Y-76650000D03*
X90370000Y-142650000D03*
X122370000Y-74650000D03*
X112370000Y-94650000D03*
X140370000Y-144650000D03*
X112370000Y-96650000D03*
X103370000Y-121650000D03*
X124370000Y-118650000D03*
X106370000Y-98650000D03*
X160370000Y-80650000D03*
X128290000Y-142650000D03*
X94370000Y-88650000D03*
X106370000Y-80650000D03*
X174370000Y-92650000D03*
X156370000Y-144650000D03*
X88370000Y-74650000D03*
X118370000Y-104650000D03*
X129370000Y-102150000D03*
X120370000Y-100650000D03*
X158370000Y-84650000D03*
X172370000Y-108650000D03*
X118370000Y-84650000D03*
X96370000Y-94650000D03*
X104370000Y-74650000D03*
X84370000Y-84650000D03*
X94370000Y-128650000D03*
X156370000Y-78650000D03*
X118370000Y-96650000D03*
X137330000Y-97740000D03*
X142370000Y-132650000D03*
X145610000Y-117350000D03*
X143030000Y-115890000D03*
X144370000Y-74650000D03*
X152370000Y-112650000D03*
X94370000Y-114650000D03*
X110370000Y-104650000D03*
X90370000Y-74650000D03*
X103370000Y-123650000D03*
X144370000Y-76650000D03*
X90370000Y-118650000D03*
X86370000Y-94650000D03*
X136370000Y-74650000D03*
X90370000Y-84650000D03*
X102450000Y-92630000D03*
X84370000Y-130650000D03*
X164370000Y-92650000D03*
X160370000Y-140650000D03*
X152370000Y-78650000D03*
X134370000Y-74650000D03*
X140400000Y-114590000D03*
X166370000Y-84650000D03*
X91490000Y-112140000D03*
X160370000Y-88650000D03*
X86370000Y-82650000D03*
X86370000Y-78650000D03*
X82370000Y-82650000D03*
X122370000Y-118650000D03*
X133500000Y-129060000D03*
X116370000Y-104650000D03*
X86370000Y-134650000D03*
X144370000Y-144650000D03*
X92370000Y-134650000D03*
X100958750Y-93681250D03*
X110370000Y-102650000D03*
X160370000Y-104650000D03*
X80370000Y-80650000D03*
X128370000Y-90650000D03*
X128370000Y-88650000D03*
X91530000Y-100320000D03*
X110370000Y-76650000D03*
X154370000Y-86650000D03*
X116370000Y-90650000D03*
X160370000Y-86650000D03*
X142370000Y-142650000D03*
X80370000Y-128650000D03*
X158095000Y-138262500D03*
X92370000Y-82650000D03*
X162370000Y-82650000D03*
X82370000Y-128650000D03*
X82370000Y-126650000D03*
X150370000Y-76650000D03*
X90370000Y-82650000D03*
X90370000Y-114650000D03*
X94370000Y-80650000D03*
X80370000Y-130650000D03*
X128370000Y-106650000D03*
X100370000Y-140650000D03*
X107370000Y-121650000D03*
X130370000Y-74650000D03*
X114150000Y-81260000D03*
X172370000Y-84650000D03*
X74370000Y-132650000D03*
X90370000Y-120650000D03*
X105370000Y-125650000D03*
X160370000Y-78650000D03*
X82370000Y-140650000D03*
X160370000Y-94650000D03*
X90370000Y-130650000D03*
X164410000Y-119050000D03*
X112370000Y-74650000D03*
X132200000Y-99150000D03*
X172370000Y-90650000D03*
X148370000Y-78650000D03*
X104370000Y-76650000D03*
X106370000Y-78650000D03*
X155350000Y-140550000D03*
X170370000Y-92650000D03*
X116370000Y-76650000D03*
X127870000Y-100650000D03*
X152370000Y-74650000D03*
X84370000Y-86650000D03*
X78370000Y-136650000D03*
X82370000Y-120650000D03*
X150580000Y-125020000D03*
X124370000Y-108650000D03*
X124370000Y-106650000D03*
X112370000Y-76650000D03*
X88370000Y-122650000D03*
X170370000Y-86650000D03*
X160370000Y-115750000D03*
X106370000Y-94650000D03*
X92370000Y-118650000D03*
X82370000Y-136650000D03*
X120370000Y-94650000D03*
X96370000Y-122650000D03*
X160370000Y-118650000D03*
X171330000Y-132300000D03*
X86370000Y-80650000D03*
X158370000Y-90650000D03*
X89620000Y-111570000D03*
X80370000Y-78650000D03*
X162370000Y-94650000D03*
X112370000Y-102650000D03*
X140370000Y-132650000D03*
X142370000Y-130650000D03*
X120370000Y-106650000D03*
X88370000Y-128650000D03*
X172370000Y-94650000D03*
X88370000Y-118650000D03*
X100370000Y-86650000D03*
X94370000Y-118650000D03*
X72370000Y-122650000D03*
X144290000Y-95880000D03*
X158370000Y-144650000D03*
X131210000Y-108780000D03*
X131200000Y-138220000D03*
X142370000Y-76650000D03*
X110370000Y-92650000D03*
X160370000Y-76650000D03*
X154370000Y-74650000D03*
X108370000Y-100650000D03*
X132370000Y-76650000D03*
X110370000Y-74650000D03*
X122370000Y-140840000D03*
X102370000Y-80650000D03*
X174370000Y-86650000D03*
X105370000Y-121650000D03*
X92370000Y-142650000D03*
X131080000Y-90330000D03*
X139450000Y-97600000D03*
X158370000Y-92650000D03*
X150370000Y-144650000D03*
X86370000Y-116650000D03*
X145870000Y-92350000D03*
X166370000Y-90650000D03*
X154370000Y-84650000D03*
X96370000Y-114650000D03*
X161770000Y-117850000D03*
X98370000Y-140650000D03*
X163670000Y-109550000D03*
X160370000Y-90650000D03*
X99780000Y-107980000D03*
X150770000Y-99620000D03*
X120370000Y-98650000D03*
X152370000Y-108650000D03*
X90370000Y-122650000D03*
X158370000Y-104650000D03*
X145600000Y-116250000D03*
X96370000Y-74650000D03*
X121280000Y-114720000D03*
X118370000Y-76650000D03*
X114370000Y-102650000D03*
X154370000Y-88650000D03*
X148370000Y-76650000D03*
X106370000Y-88650000D03*
X86370000Y-126650000D03*
X88370000Y-126650000D03*
X80370000Y-132650000D03*
X82370000Y-80650000D03*
X80370000Y-140650000D03*
X116370000Y-108650000D03*
X91930000Y-96760000D03*
X100370000Y-120650000D03*
X164750000Y-112460000D03*
X94370000Y-86650000D03*
X140370000Y-76650000D03*
X106370000Y-92650000D03*
X160895000Y-127862500D03*
X106730000Y-135150000D03*
X148370000Y-82650000D03*
X96370000Y-128650000D03*
X170370000Y-90650000D03*
X166370000Y-82650000D03*
X88370000Y-138650000D03*
X104370000Y-82650000D03*
X102370000Y-74650000D03*
X78370000Y-124650000D03*
X122370000Y-116650000D03*
X139180000Y-114680000D03*
X127870000Y-102150000D03*
X84370000Y-136650000D03*
X96370000Y-126650000D03*
X108370000Y-96650000D03*
X96370000Y-80650000D03*
X161870000Y-114450000D03*
X168370000Y-82650000D03*
X111170000Y-84220000D03*
X88370000Y-130650000D03*
X112370000Y-88650000D03*
X120370000Y-118650000D03*
X94370000Y-94650000D03*
X96370000Y-82650000D03*
X160370000Y-92650000D03*
X130850000Y-128940000D03*
X88370000Y-82650000D03*
X98370000Y-122650000D03*
X152370000Y-144650000D03*
X84370000Y-118650000D03*
X170370000Y-100650000D03*
X84370000Y-120650000D03*
X86180000Y-100260000D03*
X148370000Y-74650000D03*
X118370000Y-102650000D03*
X94370000Y-136650000D03*
X84370000Y-82650000D03*
X142370000Y-136650000D03*
X88370000Y-140650000D03*
X80370000Y-126650000D03*
X104370000Y-86650000D03*
X152370000Y-76650000D03*
X160895000Y-135462500D03*
X86370000Y-90650000D03*
X80370000Y-124650000D03*
X98370000Y-116650000D03*
X74370000Y-130650000D03*
X86370000Y-118650000D03*
X112370000Y-104650000D03*
X163870000Y-103450000D03*
X116370000Y-102650000D03*
X92370000Y-140650000D03*
X104370000Y-78650000D03*
X96370000Y-76650000D03*
X100370000Y-132650000D03*
X133430000Y-125780000D03*
X100370000Y-88650000D03*
X78370000Y-120650000D03*
X172370000Y-106650000D03*
X98370000Y-136650000D03*
X76370000Y-134650000D03*
X100370000Y-126650000D03*
X112370000Y-98650000D03*
X84370000Y-116650000D03*
X162570000Y-108850000D03*
X156195000Y-138262500D03*
X108370000Y-80650000D03*
X96370000Y-140650000D03*
X96370000Y-138650000D03*
X94370000Y-138650000D03*
X166370000Y-142650000D03*
X128200000Y-130940000D03*
X100370000Y-112650000D03*
X98370000Y-84650000D03*
X142370000Y-134650000D03*
X164370000Y-84650000D03*
X163870000Y-105450000D03*
X111370000Y-125650000D03*
X139090000Y-116450000D03*
X133500000Y-130970000D03*
X78370000Y-122650000D03*
X171410000Y-130930000D03*
X88370000Y-142650000D03*
X86370000Y-140650000D03*
X98370000Y-130650000D03*
X78370000Y-128650000D03*
X172370000Y-96650000D03*
X102370000Y-84650000D03*
X116370000Y-120650000D03*
X102010000Y-109150000D03*
X80370000Y-134650000D03*
X90338206Y-90703685D03*
X172370000Y-88650000D03*
X160370000Y-96650000D03*
X122370000Y-120650000D03*
X82370000Y-78650000D03*
X72370000Y-130650000D03*
X72370000Y-124650000D03*
X84370000Y-74650000D03*
X154370000Y-90650000D03*
X154370000Y-144650000D03*
X138370000Y-74650000D03*
X118370000Y-108650000D03*
X90370000Y-116650000D03*
X80370000Y-122650000D03*
X162370000Y-86650000D03*
X164370000Y-82650000D03*
X166370000Y-86650000D03*
X114370000Y-106650000D03*
X109370000Y-125650000D03*
X108370000Y-92650000D03*
X144370000Y-142650000D03*
X90370000Y-136650000D03*
X138640000Y-111600000D03*
X76370000Y-126650000D03*
X86370000Y-132650000D03*
%TO.N,PA12*%
X151820000Y-102400000D03*
X157420000Y-113300000D03*
D20*
%TO.N,/VBUS*%
X163970000Y-113625000D03*
X163920000Y-117700000D03*
D19*
%TO.N,PA11*%
X156410000Y-116720000D03*
X151120000Y-103100000D03*
%TO.N,PA1*%
X150320000Y-117900000D03*
X135870000Y-109300000D03*
%TO.N,Net-(U3-C1)*%
X171895000Y-128125000D03*
X172480000Y-130975000D03*
%TO.N,PC7*%
X124420000Y-133625000D03*
X136720000Y-130810000D03*
D20*
%TO.N,+3.3V*%
X136645000Y-82750000D03*
X140795000Y-91475000D03*
X130620000Y-114650000D03*
X152145000Y-143275000D03*
X122020000Y-86150000D03*
X144120000Y-130425000D03*
X135370000Y-96200000D03*
X121695000Y-110356250D03*
X164795000Y-139600000D03*
X135920000Y-114625000D03*
D19*
%TO.N,NRST*%
X135145000Y-103625000D03*
X142670000Y-82750000D03*
X133470000Y-93875000D03*
%TO.N,PC0*%
X147750000Y-97970000D03*
X135095000Y-104375000D03*
%TO.N,PC1*%
X134250000Y-104270000D03*
X114310000Y-85370000D03*
%TO.N,PC2*%
X127170000Y-123400000D03*
X134190000Y-105080000D03*
%TO.N,PC3*%
X129270000Y-119700000D03*
X134590000Y-105890000D03*
%TO.N,PA0*%
X89420000Y-94450000D03*
X134210000Y-107960000D03*
%TO.N,PA2*%
X135820000Y-110400000D03*
X133520000Y-138375000D03*
%TO.N,PA5*%
X142220000Y-112910000D03*
X140530000Y-111590000D03*
%TO.N,PC5*%
X137520000Y-111750000D03*
X142620000Y-111240000D03*
%TO.N,PB0*%
X151820000Y-117350000D03*
X143150000Y-111840000D03*
%TO.N,PB1*%
X143960000Y-111800000D03*
X152460000Y-118830000D03*
%TO.N,PB10*%
X145020000Y-114420000D03*
X165495000Y-126200000D03*
X164555000Y-124630000D03*
X167195000Y-129350000D03*
%TO.N,PB11*%
X167115000Y-123830000D03*
X145110000Y-111980000D03*
X168795000Y-125875000D03*
X168645000Y-128800000D03*
%TO.N,PB13*%
X132970000Y-119900000D03*
X128120000Y-124800000D03*
%TO.N,PC6*%
X107620000Y-130975000D03*
X137045000Y-129650000D03*
%TO.N,PA14*%
X147680000Y-88790000D03*
X146510000Y-97610000D03*
%TO.N,PB3*%
X142695000Y-95950000D03*
X143995000Y-97775000D03*
%TO.N,PB6*%
X131445000Y-93150000D03*
X129020000Y-96000000D03*
%TO.N,PB7*%
X128295000Y-97475000D03*
X132270000Y-94175000D03*
%TO.N,FB*%
X102060000Y-116610000D03*
X112670000Y-116830000D03*
%TO.N,Net-(U9-CLKIN)*%
X131270000Y-125650000D03*
X132470000Y-125800000D03*
%TD*%
%TO.N,/VBUS*%
D21*
X163920000Y-117700000D02*
X163920000Y-113675000D01*
X163920000Y-113675000D02*
X163970000Y-113625000D01*
%TO.N,+3.3V*%
X122995000Y-87200000D02*
X122020000Y-86225000D01*
X144120000Y-125155000D02*
X133590000Y-114625000D01*
X136745000Y-84350000D02*
X136745000Y-82825000D01*
X122995000Y-98320000D02*
X122995000Y-99550000D01*
X138420000Y-86025000D02*
X136745000Y-84350000D01*
X126065000Y-95250000D02*
X122995000Y-98320000D01*
X144120000Y-139750000D02*
X147645000Y-143275000D01*
X122213750Y-110356250D02*
X121695000Y-110356250D01*
X138420000Y-91475000D02*
X138420000Y-86025000D01*
X134645000Y-95250000D02*
X138420000Y-91475000D01*
X147645000Y-143275000D02*
X152145000Y-143275000D01*
X133590000Y-114625000D02*
X135895000Y-114625000D01*
X122995000Y-109575000D02*
X122995000Y-99550000D01*
X122995000Y-99550000D02*
X122995000Y-87200000D01*
X133590000Y-114625000D02*
X128045000Y-114625000D01*
X134645000Y-95250000D02*
X126065000Y-95250000D01*
X134645000Y-95475000D02*
X135370000Y-96200000D01*
X122995000Y-109575000D02*
X122213750Y-110356250D01*
X164832500Y-139537500D02*
X161095000Y-143275000D01*
X144120000Y-130425000D02*
X144120000Y-139750000D01*
X161095000Y-143275000D02*
X152145000Y-143275000D01*
X134645000Y-95250000D02*
X134645000Y-95475000D01*
X138420000Y-91475000D02*
X140795000Y-91475000D01*
X128045000Y-114625000D02*
X122995000Y-109575000D01*
X144120000Y-130425000D02*
X144120000Y-125155000D01*
%TD*%
%TA.AperFunction,Conductor*%
%TO.N,GND*%
G36*
X176012539Y-72970185D02*
G01*
X176058294Y-73022989D01*
X176069500Y-73074500D01*
X176069500Y-146225500D01*
X176049815Y-146292539D01*
X175997011Y-146338294D01*
X175945500Y-146349500D01*
X68794500Y-146349500D01*
X68727461Y-146329815D01*
X68681706Y-146277011D01*
X68670500Y-146225500D01*
X68670500Y-142528711D01*
X70519500Y-142528711D01*
X70519500Y-142771288D01*
X70551161Y-143011785D01*
X70613947Y-143246104D01*
X70696026Y-143444260D01*
X70706776Y-143470212D01*
X70828064Y-143680289D01*
X70828066Y-143680292D01*
X70828067Y-143680293D01*
X70975733Y-143872736D01*
X70975739Y-143872743D01*
X71147256Y-144044260D01*
X71147262Y-144044265D01*
X71339711Y-144191936D01*
X71549788Y-144313224D01*
X71773900Y-144406054D01*
X72008211Y-144468838D01*
X72188586Y-144492584D01*
X72248711Y-144500500D01*
X72248712Y-144500500D01*
X72491289Y-144500500D01*
X72539388Y-144494167D01*
X72731789Y-144468838D01*
X72966100Y-144406054D01*
X73190212Y-144313224D01*
X73400289Y-144191936D01*
X73592738Y-144044265D01*
X73764265Y-143872738D01*
X73911936Y-143680289D01*
X74033224Y-143470212D01*
X74126054Y-143246100D01*
X74188838Y-143011789D01*
X74220500Y-142771288D01*
X74220500Y-142528712D01*
X74188838Y-142288211D01*
X74126054Y-142053900D01*
X74033224Y-141829788D01*
X73911936Y-141619711D01*
X73764265Y-141427262D01*
X73764260Y-141427256D01*
X73592743Y-141255739D01*
X73592736Y-141255733D01*
X73400293Y-141108067D01*
X73400292Y-141108066D01*
X73400289Y-141108064D01*
X73190212Y-140986776D01*
X73190205Y-140986773D01*
X72966104Y-140893947D01*
X72731785Y-140831161D01*
X72491289Y-140799500D01*
X72491288Y-140799500D01*
X72248712Y-140799500D01*
X72248711Y-140799500D01*
X72008214Y-140831161D01*
X71773895Y-140893947D01*
X71549794Y-140986773D01*
X71549785Y-140986777D01*
X71339706Y-141108067D01*
X71147263Y-141255733D01*
X71147256Y-141255739D01*
X70975739Y-141427256D01*
X70975733Y-141427263D01*
X70828067Y-141619706D01*
X70706777Y-141829785D01*
X70706773Y-141829794D01*
X70613947Y-142053895D01*
X70551161Y-142288214D01*
X70519500Y-142528711D01*
X68670500Y-142528711D01*
X68670500Y-138309108D01*
X133019500Y-138309108D01*
X133019500Y-138440891D01*
X133053608Y-138568187D01*
X133086554Y-138625250D01*
X133119500Y-138682314D01*
X133212686Y-138775500D01*
X133326814Y-138841392D01*
X133454108Y-138875500D01*
X133454110Y-138875500D01*
X133585890Y-138875500D01*
X133585892Y-138875500D01*
X133713186Y-138841392D01*
X133827314Y-138775500D01*
X133920500Y-138682314D01*
X133986392Y-138568186D01*
X134020500Y-138440892D01*
X134020500Y-138309108D01*
X133986392Y-138181814D01*
X133920500Y-138067686D01*
X133827314Y-137974500D01*
X133770250Y-137941554D01*
X133713187Y-137908608D01*
X133649539Y-137891554D01*
X133585892Y-137874500D01*
X133454108Y-137874500D01*
X133326812Y-137908608D01*
X133212686Y-137974500D01*
X133212683Y-137974502D01*
X133119502Y-138067683D01*
X133119500Y-138067686D01*
X133053608Y-138181812D01*
X133019500Y-138309108D01*
X68670500Y-138309108D01*
X68670500Y-134584108D01*
X69869500Y-134584108D01*
X69869500Y-134715891D01*
X69903608Y-134843187D01*
X69936554Y-134900250D01*
X69969500Y-134957314D01*
X70062686Y-135050500D01*
X70176814Y-135116392D01*
X70304108Y-135150500D01*
X70304110Y-135150500D01*
X70435890Y-135150500D01*
X70435892Y-135150500D01*
X70563186Y-135116392D01*
X70677314Y-135050500D01*
X70770500Y-134957314D01*
X70836392Y-134843186D01*
X70870500Y-134715892D01*
X70870500Y-134584108D01*
X70836392Y-134456814D01*
X70770500Y-134342686D01*
X70677314Y-134249500D01*
X70620250Y-134216554D01*
X70563187Y-134183608D01*
X70499539Y-134166554D01*
X70435892Y-134149500D01*
X70304108Y-134149500D01*
X70176812Y-134183608D01*
X70062686Y-134249500D01*
X70062683Y-134249502D01*
X69969502Y-134342683D01*
X69969500Y-134342686D01*
X69903608Y-134456812D01*
X69869500Y-134584108D01*
X68670500Y-134584108D01*
X68670500Y-133559108D01*
X123919500Y-133559108D01*
X123919500Y-133690891D01*
X123953608Y-133818187D01*
X123986554Y-133875250D01*
X124019500Y-133932314D01*
X124112686Y-134025500D01*
X124226814Y-134091392D01*
X124354108Y-134125500D01*
X124354110Y-134125500D01*
X124485890Y-134125500D01*
X124485892Y-134125500D01*
X124613186Y-134091392D01*
X124727314Y-134025500D01*
X124820500Y-133932314D01*
X124886392Y-133818186D01*
X124920500Y-133690892D01*
X124920500Y-133559108D01*
X124886392Y-133431814D01*
X124820500Y-133317686D01*
X124727314Y-133224500D01*
X124670250Y-133191554D01*
X124613187Y-133158608D01*
X124549539Y-133141554D01*
X124485892Y-133124500D01*
X124354108Y-133124500D01*
X124226812Y-133158608D01*
X124112686Y-133224500D01*
X124112683Y-133224502D01*
X124019502Y-133317683D01*
X124019500Y-133317686D01*
X123953608Y-133431812D01*
X123919500Y-133559108D01*
X68670500Y-133559108D01*
X68670500Y-132584108D01*
X69869500Y-132584108D01*
X69869500Y-132715891D01*
X69903608Y-132843187D01*
X69936554Y-132900250D01*
X69969500Y-132957314D01*
X70062686Y-133050500D01*
X70176814Y-133116392D01*
X70304108Y-133150500D01*
X70304110Y-133150500D01*
X70435890Y-133150500D01*
X70435892Y-133150500D01*
X70563186Y-133116392D01*
X70677314Y-133050500D01*
X70770500Y-132957314D01*
X70836392Y-132843186D01*
X70870500Y-132715892D01*
X70870500Y-132584108D01*
X70836392Y-132456814D01*
X70770500Y-132342686D01*
X70677314Y-132249500D01*
X70620250Y-132216554D01*
X70563187Y-132183608D01*
X70499539Y-132166554D01*
X70435892Y-132149500D01*
X70304108Y-132149500D01*
X70176812Y-132183608D01*
X70062686Y-132249500D01*
X70062683Y-132249502D01*
X69969502Y-132342683D01*
X69969500Y-132342686D01*
X69903608Y-132456812D01*
X69869500Y-132584108D01*
X68670500Y-132584108D01*
X68670500Y-130584108D01*
X69869500Y-130584108D01*
X69869500Y-130715892D01*
X69877061Y-130744110D01*
X69903608Y-130843187D01*
X69922490Y-130875891D01*
X69969500Y-130957314D01*
X70062686Y-131050500D01*
X70176814Y-131116392D01*
X70304108Y-131150500D01*
X70304110Y-131150500D01*
X70435890Y-131150500D01*
X70435892Y-131150500D01*
X70563186Y-131116392D01*
X70677314Y-131050500D01*
X70770500Y-130957314D01*
X70798332Y-130909108D01*
X107119500Y-130909108D01*
X107119500Y-131040892D01*
X107136554Y-131104539D01*
X107153608Y-131168187D01*
X107178036Y-131210497D01*
X107219500Y-131282314D01*
X107312686Y-131375500D01*
X107426814Y-131441392D01*
X107554108Y-131475500D01*
X107554110Y-131475500D01*
X107685890Y-131475500D01*
X107685892Y-131475500D01*
X107813186Y-131441392D01*
X107927314Y-131375500D01*
X108020500Y-131282314D01*
X108086392Y-131168186D01*
X108120500Y-131040892D01*
X108120500Y-130909108D01*
X108086392Y-130781814D01*
X108064622Y-130744108D01*
X136219500Y-130744108D01*
X136219500Y-130875891D01*
X136253608Y-131003187D01*
X136280923Y-131050497D01*
X136319500Y-131117314D01*
X136412686Y-131210500D01*
X136526814Y-131276392D01*
X136654108Y-131310500D01*
X136654110Y-131310500D01*
X136785890Y-131310500D01*
X136785892Y-131310500D01*
X136913186Y-131276392D01*
X137027314Y-131210500D01*
X137120500Y-131117314D01*
X137186392Y-131003186D01*
X137220500Y-130875892D01*
X137220500Y-130744108D01*
X137186392Y-130616814D01*
X137185193Y-130614738D01*
X137161962Y-130574500D01*
X137120500Y-130502686D01*
X137027314Y-130409500D01*
X136979486Y-130381886D01*
X136931271Y-130331320D01*
X136918048Y-130262713D01*
X136944017Y-130197848D01*
X137000931Y-130157320D01*
X137041487Y-130150500D01*
X137110890Y-130150500D01*
X137110892Y-130150500D01*
X137238186Y-130116392D01*
X137352314Y-130050500D01*
X137445500Y-129957314D01*
X137511392Y-129843186D01*
X137545500Y-129715892D01*
X137545500Y-129584108D01*
X137511392Y-129456814D01*
X137445500Y-129342686D01*
X137352314Y-129249500D01*
X137267439Y-129200497D01*
X137238187Y-129183608D01*
X137138188Y-129156814D01*
X137110892Y-129149500D01*
X136979108Y-129149500D01*
X136851812Y-129183608D01*
X136737686Y-129249500D01*
X136737683Y-129249502D01*
X136644502Y-129342683D01*
X136644500Y-129342686D01*
X136578608Y-129456812D01*
X136544500Y-129584108D01*
X136544500Y-129715891D01*
X136578608Y-129843187D01*
X136611554Y-129900250D01*
X136644500Y-129957314D01*
X136737686Y-130050500D01*
X136785513Y-130078113D01*
X136833729Y-130128680D01*
X136846952Y-130197287D01*
X136820983Y-130262152D01*
X136764069Y-130302680D01*
X136723513Y-130309500D01*
X136654108Y-130309500D01*
X136526812Y-130343608D01*
X136412686Y-130409500D01*
X136412683Y-130409502D01*
X136319502Y-130502683D01*
X136319500Y-130502686D01*
X136253608Y-130616812D01*
X136219500Y-130744108D01*
X108064622Y-130744108D01*
X108020500Y-130667686D01*
X107927314Y-130574500D01*
X107870250Y-130541554D01*
X107813187Y-130508608D01*
X107740265Y-130489069D01*
X107685892Y-130474500D01*
X107554108Y-130474500D01*
X107426812Y-130508608D01*
X107312686Y-130574500D01*
X107312683Y-130574502D01*
X107219502Y-130667683D01*
X107219500Y-130667686D01*
X107153608Y-130781812D01*
X107123429Y-130894445D01*
X107119500Y-130909108D01*
X70798332Y-130909108D01*
X70836392Y-130843186D01*
X70870500Y-130715892D01*
X70870500Y-130584108D01*
X70836392Y-130456814D01*
X70770500Y-130342686D01*
X70677314Y-130249500D01*
X70620250Y-130216554D01*
X70563187Y-130183608D01*
X70499539Y-130166554D01*
X70435892Y-130149500D01*
X70304108Y-130149500D01*
X70176812Y-130183608D01*
X70062686Y-130249500D01*
X70062683Y-130249502D01*
X69969502Y-130342683D01*
X69969500Y-130342686D01*
X69903608Y-130456812D01*
X69889730Y-130508608D01*
X69869500Y-130584108D01*
X68670500Y-130584108D01*
X68670500Y-128584108D01*
X69869500Y-128584108D01*
X69869500Y-128715892D01*
X69886554Y-128779539D01*
X69903608Y-128843187D01*
X69916717Y-128865892D01*
X69969500Y-128957314D01*
X70062686Y-129050500D01*
X70176814Y-129116392D01*
X70304108Y-129150500D01*
X70304110Y-129150500D01*
X70435890Y-129150500D01*
X70435892Y-129150500D01*
X70563186Y-129116392D01*
X70677314Y-129050500D01*
X70770500Y-128957314D01*
X70836392Y-128843186D01*
X70870500Y-128715892D01*
X70870500Y-128584108D01*
X70836392Y-128456814D01*
X70770500Y-128342686D01*
X70677314Y-128249500D01*
X70620250Y-128216554D01*
X70563187Y-128183608D01*
X70499539Y-128166554D01*
X70435892Y-128149500D01*
X70304108Y-128149500D01*
X70176812Y-128183608D01*
X70062686Y-128249500D01*
X70062683Y-128249502D01*
X69969502Y-128342683D01*
X69969500Y-128342686D01*
X69903608Y-128456812D01*
X69885204Y-128525499D01*
X69869500Y-128584108D01*
X68670500Y-128584108D01*
X68670500Y-126584108D01*
X69869500Y-126584108D01*
X69869500Y-126715891D01*
X69903608Y-126843187D01*
X69936554Y-126900250D01*
X69969500Y-126957314D01*
X70062686Y-127050500D01*
X70176814Y-127116392D01*
X70304108Y-127150500D01*
X70304110Y-127150500D01*
X70435890Y-127150500D01*
X70435892Y-127150500D01*
X70563186Y-127116392D01*
X70677314Y-127050500D01*
X70770500Y-126957314D01*
X70836392Y-126843186D01*
X70870500Y-126715892D01*
X70870500Y-126584108D01*
X70836392Y-126456814D01*
X70770500Y-126342686D01*
X70677314Y-126249500D01*
X70592439Y-126200497D01*
X70563187Y-126183608D01*
X70499539Y-126166554D01*
X70435892Y-126149500D01*
X70304108Y-126149500D01*
X70176812Y-126183608D01*
X70062686Y-126249500D01*
X70062683Y-126249502D01*
X69969502Y-126342683D01*
X69969500Y-126342686D01*
X69903608Y-126456812D01*
X69869500Y-126584108D01*
X68670500Y-126584108D01*
X68670500Y-125584108D01*
X130769500Y-125584108D01*
X130769500Y-125715892D01*
X130784374Y-125771404D01*
X130803608Y-125843187D01*
X130816717Y-125865892D01*
X130869500Y-125957314D01*
X130962686Y-126050500D01*
X131076814Y-126116392D01*
X131204108Y-126150500D01*
X131204110Y-126150500D01*
X131335890Y-126150500D01*
X131335892Y-126150500D01*
X131463186Y-126116392D01*
X131577314Y-126050500D01*
X131670500Y-125957314D01*
X131736392Y-125843186D01*
X131736392Y-125843185D01*
X131740456Y-125836147D01*
X131742809Y-125837506D01*
X131778269Y-125793484D01*
X131844558Y-125771404D01*
X131912262Y-125788668D01*
X131959884Y-125839795D01*
X131968787Y-125863230D01*
X131969500Y-125865890D01*
X131969500Y-125865892D01*
X132003608Y-125993186D01*
X132069500Y-126107314D01*
X132162686Y-126200500D01*
X132247560Y-126249502D01*
X132275944Y-126265890D01*
X132276814Y-126266392D01*
X132404108Y-126300500D01*
X132404110Y-126300500D01*
X132535890Y-126300500D01*
X132535892Y-126300500D01*
X132663186Y-126266392D01*
X132777314Y-126200500D01*
X132870500Y-126107314D01*
X132936392Y-125993186D01*
X132970500Y-125865892D01*
X132970500Y-125734108D01*
X132936392Y-125606814D01*
X132870500Y-125492686D01*
X132777314Y-125399500D01*
X132678910Y-125342686D01*
X132663187Y-125333608D01*
X132557478Y-125305284D01*
X132535892Y-125299500D01*
X132404108Y-125299500D01*
X132276812Y-125333608D01*
X132162686Y-125399500D01*
X132162683Y-125399502D01*
X132069502Y-125492683D01*
X132069500Y-125492686D01*
X131999544Y-125613853D01*
X131997196Y-125612497D01*
X131961686Y-125656546D01*
X131895388Y-125678597D01*
X131827692Y-125661304D01*
X131780092Y-125610157D01*
X131771212Y-125586768D01*
X131770500Y-125584110D01*
X131770500Y-125584108D01*
X131736392Y-125456814D01*
X131670500Y-125342686D01*
X131577314Y-125249500D01*
X131492439Y-125200497D01*
X131463187Y-125183608D01*
X131399539Y-125166554D01*
X131335892Y-125149500D01*
X131204108Y-125149500D01*
X131076812Y-125183608D01*
X130962686Y-125249500D01*
X130962683Y-125249502D01*
X130869502Y-125342683D01*
X130869500Y-125342686D01*
X130803608Y-125456812D01*
X130793997Y-125492683D01*
X130769500Y-125584108D01*
X68670500Y-125584108D01*
X68670500Y-124584108D01*
X69869500Y-124584108D01*
X69869500Y-124715892D01*
X69886554Y-124779539D01*
X69903608Y-124843187D01*
X69936554Y-124900250D01*
X69969500Y-124957314D01*
X70062686Y-125050500D01*
X70176814Y-125116392D01*
X70304108Y-125150500D01*
X70304110Y-125150500D01*
X70435890Y-125150500D01*
X70435892Y-125150500D01*
X70563186Y-125116392D01*
X70677314Y-125050500D01*
X70770500Y-124957314D01*
X70836392Y-124843186D01*
X70865619Y-124734108D01*
X127619500Y-124734108D01*
X127619500Y-124865891D01*
X127653608Y-124993187D01*
X127675151Y-125030499D01*
X127719500Y-125107314D01*
X127812686Y-125200500D01*
X127926814Y-125266392D01*
X128054108Y-125300500D01*
X128054110Y-125300500D01*
X128185890Y-125300500D01*
X128185892Y-125300500D01*
X128313186Y-125266392D01*
X128427314Y-125200500D01*
X128520500Y-125107314D01*
X128586392Y-124993186D01*
X128620500Y-124865892D01*
X128620500Y-124734108D01*
X128586392Y-124606814D01*
X128520500Y-124492686D01*
X128427314Y-124399500D01*
X128328910Y-124342686D01*
X128313187Y-124333608D01*
X128249539Y-124316554D01*
X128185892Y-124299500D01*
X128054108Y-124299500D01*
X127926812Y-124333608D01*
X127812686Y-124399500D01*
X127812683Y-124399502D01*
X127719502Y-124492683D01*
X127719500Y-124492686D01*
X127653608Y-124606812D01*
X127619500Y-124734108D01*
X70865619Y-124734108D01*
X70870500Y-124715892D01*
X70870500Y-124584108D01*
X70836392Y-124456814D01*
X70770500Y-124342686D01*
X70677314Y-124249500D01*
X70620250Y-124216554D01*
X70563187Y-124183608D01*
X70488544Y-124163608D01*
X70435892Y-124149500D01*
X70304108Y-124149500D01*
X70176812Y-124183608D01*
X70062686Y-124249500D01*
X70062683Y-124249502D01*
X69969502Y-124342683D01*
X69969500Y-124342686D01*
X69903608Y-124456812D01*
X69893997Y-124492683D01*
X69869500Y-124584108D01*
X68670500Y-124584108D01*
X68670500Y-123334108D01*
X126669500Y-123334108D01*
X126669500Y-123465891D01*
X126703608Y-123593187D01*
X126728797Y-123636814D01*
X126769500Y-123707314D01*
X126862686Y-123800500D01*
X126976814Y-123866392D01*
X127104108Y-123900500D01*
X127104110Y-123900500D01*
X127235890Y-123900500D01*
X127235892Y-123900500D01*
X127363186Y-123866392D01*
X127477314Y-123800500D01*
X127570500Y-123707314D01*
X127636392Y-123593186D01*
X127670500Y-123465892D01*
X127670500Y-123334108D01*
X127636392Y-123206814D01*
X127570500Y-123092686D01*
X127477314Y-122999500D01*
X127420250Y-122966554D01*
X127363187Y-122933608D01*
X127299539Y-122916554D01*
X127235892Y-122899500D01*
X127104108Y-122899500D01*
X126976812Y-122933608D01*
X126862686Y-122999500D01*
X126862683Y-122999502D01*
X126769502Y-123092683D01*
X126769500Y-123092686D01*
X126703608Y-123206812D01*
X126669500Y-123334108D01*
X68670500Y-123334108D01*
X68670500Y-122584108D01*
X69869500Y-122584108D01*
X69869500Y-122715891D01*
X69903608Y-122843187D01*
X69936121Y-122899500D01*
X69969500Y-122957314D01*
X70062686Y-123050500D01*
X70176814Y-123116392D01*
X70304108Y-123150500D01*
X70304110Y-123150500D01*
X70435890Y-123150500D01*
X70435892Y-123150500D01*
X70563186Y-123116392D01*
X70677314Y-123050500D01*
X70770500Y-122957314D01*
X70836392Y-122843186D01*
X70870500Y-122715892D01*
X70870500Y-122584108D01*
X70836392Y-122456814D01*
X70770500Y-122342686D01*
X70677314Y-122249500D01*
X70620250Y-122216554D01*
X70563187Y-122183608D01*
X70499539Y-122166554D01*
X70435892Y-122149500D01*
X70304108Y-122149500D01*
X70176812Y-122183608D01*
X70062686Y-122249500D01*
X70062683Y-122249502D01*
X69969502Y-122342683D01*
X69969500Y-122342686D01*
X69903608Y-122456812D01*
X69869500Y-122584108D01*
X68670500Y-122584108D01*
X68670500Y-120584108D01*
X69869500Y-120584108D01*
X69869500Y-120715891D01*
X69903608Y-120843187D01*
X69936554Y-120900250D01*
X69969500Y-120957314D01*
X70062686Y-121050500D01*
X70176814Y-121116392D01*
X70304108Y-121150500D01*
X70304110Y-121150500D01*
X70435890Y-121150500D01*
X70435892Y-121150500D01*
X70563186Y-121116392D01*
X70677314Y-121050500D01*
X70770500Y-120957314D01*
X70836392Y-120843186D01*
X70870500Y-120715892D01*
X70870500Y-120584108D01*
X70836392Y-120456814D01*
X70770500Y-120342686D01*
X70677314Y-120249500D01*
X70620250Y-120216554D01*
X70563187Y-120183608D01*
X70498931Y-120166391D01*
X70435892Y-120149500D01*
X70304108Y-120149500D01*
X70176812Y-120183608D01*
X70062686Y-120249500D01*
X70062683Y-120249502D01*
X69969502Y-120342683D01*
X69969500Y-120342686D01*
X69903608Y-120456812D01*
X69869500Y-120584108D01*
X68670500Y-120584108D01*
X68670500Y-119634108D01*
X128769500Y-119634108D01*
X128769500Y-119765892D01*
X128786554Y-119829539D01*
X128803608Y-119893187D01*
X128836554Y-119950250D01*
X128869500Y-120007314D01*
X128962686Y-120100500D01*
X129076814Y-120166392D01*
X129204108Y-120200500D01*
X129204110Y-120200500D01*
X129335890Y-120200500D01*
X129335892Y-120200500D01*
X129463186Y-120166392D01*
X129577314Y-120100500D01*
X129670500Y-120007314D01*
X129736392Y-119893186D01*
X129752222Y-119834108D01*
X132469500Y-119834108D01*
X132469500Y-119965892D01*
X132486554Y-120029539D01*
X132503608Y-120093187D01*
X132536121Y-120149500D01*
X132569500Y-120207314D01*
X132662686Y-120300500D01*
X132776814Y-120366392D01*
X132904108Y-120400500D01*
X132904110Y-120400500D01*
X133035890Y-120400500D01*
X133035892Y-120400500D01*
X133163186Y-120366392D01*
X133277314Y-120300500D01*
X133370500Y-120207314D01*
X133436392Y-120093186D01*
X133470500Y-119965892D01*
X133470500Y-119834108D01*
X133436392Y-119706814D01*
X133370500Y-119592686D01*
X133277314Y-119499500D01*
X133220250Y-119466554D01*
X133163187Y-119433608D01*
X133099539Y-119416554D01*
X133035892Y-119399500D01*
X132904108Y-119399500D01*
X132776812Y-119433608D01*
X132662686Y-119499500D01*
X132662683Y-119499502D01*
X132569502Y-119592683D01*
X132569500Y-119592686D01*
X132503608Y-119706812D01*
X132487778Y-119765892D01*
X132469500Y-119834108D01*
X129752222Y-119834108D01*
X129770500Y-119765892D01*
X129770500Y-119634108D01*
X129736392Y-119506814D01*
X129670500Y-119392686D01*
X129577314Y-119299500D01*
X129520250Y-119266554D01*
X129463187Y-119233608D01*
X129399539Y-119216554D01*
X129335892Y-119199500D01*
X129204108Y-119199500D01*
X129076812Y-119233608D01*
X128962686Y-119299500D01*
X128962683Y-119299502D01*
X128869502Y-119392683D01*
X128869500Y-119392686D01*
X128803608Y-119506812D01*
X128780600Y-119592683D01*
X128769500Y-119634108D01*
X68670500Y-119634108D01*
X68670500Y-118584108D01*
X69869500Y-118584108D01*
X69869500Y-118715891D01*
X69903608Y-118843187D01*
X69934037Y-118895890D01*
X69969500Y-118957314D01*
X70062686Y-119050500D01*
X70176814Y-119116392D01*
X70304108Y-119150500D01*
X70304110Y-119150500D01*
X70435890Y-119150500D01*
X70435892Y-119150500D01*
X70563186Y-119116392D01*
X70677314Y-119050500D01*
X70770500Y-118957314D01*
X70836392Y-118843186D01*
X70870500Y-118715892D01*
X70870500Y-118584108D01*
X70836392Y-118456814D01*
X70770500Y-118342686D01*
X70677314Y-118249500D01*
X70620250Y-118216554D01*
X70563187Y-118183608D01*
X70499539Y-118166554D01*
X70435892Y-118149500D01*
X70304108Y-118149500D01*
X70176812Y-118183608D01*
X70062686Y-118249500D01*
X70062683Y-118249502D01*
X69969502Y-118342683D01*
X69969500Y-118342686D01*
X69903608Y-118456812D01*
X69869500Y-118584108D01*
X68670500Y-118584108D01*
X68670500Y-116584108D01*
X69869500Y-116584108D01*
X69869500Y-116715891D01*
X69903608Y-116843187D01*
X69907253Y-116849500D01*
X69969500Y-116957314D01*
X70062686Y-117050500D01*
X70176814Y-117116392D01*
X70304108Y-117150500D01*
X70304110Y-117150500D01*
X70435890Y-117150500D01*
X70435892Y-117150500D01*
X70563186Y-117116392D01*
X70677314Y-117050500D01*
X70770500Y-116957314D01*
X70836392Y-116843186D01*
X70870500Y-116715892D01*
X70870500Y-116584108D01*
X70859782Y-116544108D01*
X101559500Y-116544108D01*
X101559500Y-116675891D01*
X101593608Y-116803187D01*
X101620347Y-116849500D01*
X101659500Y-116917314D01*
X101752686Y-117010500D01*
X101866814Y-117076392D01*
X101994108Y-117110500D01*
X101994110Y-117110500D01*
X102125890Y-117110500D01*
X102125892Y-117110500D01*
X102253186Y-117076392D01*
X102367314Y-117010500D01*
X102460500Y-116917314D01*
X102526392Y-116803186D01*
X102536863Y-116764108D01*
X112169500Y-116764108D01*
X112169500Y-116895892D01*
X112183864Y-116949500D01*
X112203608Y-117023187D01*
X112234326Y-117076391D01*
X112269500Y-117137314D01*
X112362686Y-117230500D01*
X112476814Y-117296392D01*
X112604108Y-117330500D01*
X112604110Y-117330500D01*
X112735890Y-117330500D01*
X112735892Y-117330500D01*
X112863186Y-117296392D01*
X112977314Y-117230500D01*
X113070500Y-117137314D01*
X113136392Y-117023186D01*
X113170500Y-116895892D01*
X113170500Y-116764108D01*
X113136392Y-116636814D01*
X113070500Y-116522686D01*
X112977314Y-116429500D01*
X112920250Y-116396554D01*
X112863187Y-116363608D01*
X112785092Y-116342683D01*
X112735892Y-116329500D01*
X112604108Y-116329500D01*
X112476812Y-116363608D01*
X112362686Y-116429500D01*
X112362683Y-116429502D01*
X112269502Y-116522683D01*
X112269500Y-116522686D01*
X112203608Y-116636812D01*
X112182419Y-116715892D01*
X112169500Y-116764108D01*
X102536863Y-116764108D01*
X102560500Y-116675892D01*
X102560500Y-116544108D01*
X102526392Y-116416814D01*
X102460500Y-116302686D01*
X102367314Y-116209500D01*
X102310250Y-116176554D01*
X102253187Y-116143608D01*
X102189539Y-116126554D01*
X102125892Y-116109500D01*
X101994108Y-116109500D01*
X101866812Y-116143608D01*
X101752686Y-116209500D01*
X101752683Y-116209502D01*
X101659502Y-116302683D01*
X101659500Y-116302686D01*
X101593608Y-116416812D01*
X101559500Y-116544108D01*
X70859782Y-116544108D01*
X70836392Y-116456814D01*
X70770500Y-116342686D01*
X70677314Y-116249500D01*
X70608032Y-116209500D01*
X70563187Y-116183608D01*
X70499539Y-116166554D01*
X70435892Y-116149500D01*
X70304108Y-116149500D01*
X70176812Y-116183608D01*
X70062686Y-116249500D01*
X70062683Y-116249502D01*
X69969502Y-116342683D01*
X69969500Y-116342686D01*
X69903608Y-116456812D01*
X69869500Y-116584108D01*
X68670500Y-116584108D01*
X68670500Y-114492554D01*
X74688250Y-114492554D01*
X74688250Y-114669945D01*
X74722853Y-114843908D01*
X74722856Y-114843917D01*
X74790733Y-115007790D01*
X74790740Y-115007803D01*
X74889285Y-115155284D01*
X74889288Y-115155288D01*
X75014711Y-115280711D01*
X75014715Y-115280714D01*
X75162196Y-115379259D01*
X75162209Y-115379266D01*
X75285113Y-115430173D01*
X75326084Y-115447144D01*
X75326086Y-115447144D01*
X75326091Y-115447146D01*
X75500054Y-115481749D01*
X75500057Y-115481750D01*
X75500059Y-115481750D01*
X75677443Y-115481750D01*
X75677444Y-115481749D01*
X75735432Y-115470214D01*
X75851408Y-115447146D01*
X75851411Y-115447144D01*
X75851416Y-115447144D01*
X76015297Y-115379263D01*
X76162785Y-115280714D01*
X76288214Y-115155285D01*
X76386763Y-115007797D01*
X76454644Y-114843916D01*
X76459303Y-114820497D01*
X76489249Y-114669945D01*
X76489250Y-114669943D01*
X76489250Y-114492556D01*
X76489249Y-114492554D01*
X76454646Y-114318591D01*
X76454643Y-114318582D01*
X76453936Y-114316876D01*
X76403789Y-114195807D01*
X76386766Y-114154709D01*
X76386759Y-114154696D01*
X76288214Y-114007215D01*
X76288211Y-114007211D01*
X76162788Y-113881788D01*
X76162784Y-113881785D01*
X76015303Y-113783240D01*
X76015290Y-113783233D01*
X75851417Y-113715356D01*
X75851408Y-113715353D01*
X75677444Y-113680750D01*
X75677441Y-113680750D01*
X75500059Y-113680750D01*
X75500056Y-113680750D01*
X75326091Y-113715353D01*
X75326082Y-113715356D01*
X75162209Y-113783233D01*
X75162196Y-113783240D01*
X75014715Y-113881785D01*
X75014711Y-113881788D01*
X74889288Y-114007211D01*
X74889285Y-114007215D01*
X74790740Y-114154696D01*
X74790733Y-114154709D01*
X74722856Y-114318582D01*
X74722853Y-114318591D01*
X74688250Y-114492554D01*
X68670500Y-114492554D01*
X68670500Y-110544959D01*
X78638250Y-110544959D01*
X78638250Y-112617540D01*
X78648545Y-112733343D01*
X78648546Y-112733347D01*
X78702842Y-112923109D01*
X78702843Y-112923112D01*
X78702844Y-112923113D01*
X78768360Y-113048535D01*
X78794231Y-113098063D01*
X78918963Y-113251036D01*
X78999709Y-113316875D01*
X79071937Y-113375769D01*
X79246887Y-113467156D01*
X79436652Y-113521454D01*
X79552456Y-113531750D01*
X79552462Y-113531750D01*
X81625038Y-113531750D01*
X81625044Y-113531750D01*
X81740848Y-113521454D01*
X81930613Y-113467156D01*
X82105563Y-113375769D01*
X82258536Y-113251036D01*
X82383269Y-113098063D01*
X82474656Y-112923113D01*
X82528954Y-112733348D01*
X82539250Y-112617544D01*
X82539250Y-110544956D01*
X82528954Y-110429152D01*
X82526427Y-110420321D01*
X121044499Y-110420321D01*
X121069497Y-110545988D01*
X121069499Y-110545994D01*
X121118533Y-110664374D01*
X121118538Y-110664383D01*
X121189723Y-110770918D01*
X121189726Y-110770922D01*
X121280327Y-110861523D01*
X121280331Y-110861526D01*
X121386866Y-110932711D01*
X121386872Y-110932714D01*
X121386873Y-110932715D01*
X121505256Y-110981751D01*
X121505260Y-110981751D01*
X121505261Y-110981752D01*
X121630928Y-111006750D01*
X121630931Y-111006750D01*
X121759071Y-111006750D01*
X121843615Y-110989932D01*
X121884744Y-110981751D01*
X122003127Y-110932715D01*
X122109669Y-110861526D01*
X122109672Y-110861523D01*
X122128127Y-110843069D01*
X122189450Y-110809584D01*
X122196426Y-110808274D01*
X122206056Y-110806750D01*
X122273059Y-110806750D01*
X122363423Y-110782536D01*
X122387637Y-110776049D01*
X122490364Y-110716739D01*
X122907319Y-110299784D01*
X122968642Y-110266299D01*
X123038334Y-110271283D01*
X123082681Y-110299784D01*
X127768386Y-114985489D01*
X127807025Y-115007797D01*
X127871114Y-115044799D01*
X127985691Y-115075500D01*
X130074193Y-115075500D01*
X130141232Y-115095185D01*
X130161875Y-115111820D01*
X130205327Y-115155273D01*
X130205331Y-115155276D01*
X130311866Y-115226461D01*
X130311872Y-115226464D01*
X130311873Y-115226465D01*
X130430256Y-115275501D01*
X130430260Y-115275501D01*
X130430261Y-115275502D01*
X130555928Y-115300500D01*
X130555931Y-115300500D01*
X130684071Y-115300500D01*
X130783552Y-115280711D01*
X130809744Y-115275501D01*
X130928127Y-115226465D01*
X131034669Y-115155276D01*
X131078125Y-115111820D01*
X131139448Y-115078334D01*
X131165807Y-115075500D01*
X133352035Y-115075500D01*
X133419074Y-115095185D01*
X133439716Y-115111819D01*
X143633181Y-125305284D01*
X143666666Y-125366607D01*
X143669500Y-125392965D01*
X143669500Y-129904192D01*
X143649815Y-129971231D01*
X143633181Y-129991873D01*
X143614726Y-130010327D01*
X143614723Y-130010331D01*
X143543538Y-130116866D01*
X143543533Y-130116875D01*
X143494499Y-130235255D01*
X143494497Y-130235261D01*
X143469500Y-130360928D01*
X143469500Y-130360931D01*
X143469500Y-130489069D01*
X143469500Y-130489071D01*
X143469499Y-130489071D01*
X143494497Y-130614738D01*
X143494499Y-130614744D01*
X143543533Y-130733124D01*
X143543538Y-130733133D01*
X143614723Y-130839668D01*
X143614725Y-130839671D01*
X143633179Y-130858124D01*
X143666666Y-130919446D01*
X143669500Y-130945807D01*
X143669500Y-139809309D01*
X143670788Y-139814114D01*
X143700201Y-139923887D01*
X143759511Y-140026614D01*
X147368386Y-143635490D01*
X147471113Y-143694799D01*
X147495321Y-143701284D01*
X147495324Y-143701286D01*
X147495325Y-143701286D01*
X147525447Y-143709357D01*
X147585691Y-143725500D01*
X151624192Y-143725500D01*
X151691231Y-143745185D01*
X151711873Y-143761819D01*
X151730327Y-143780273D01*
X151730331Y-143780276D01*
X151836866Y-143851461D01*
X151836872Y-143851464D01*
X151836873Y-143851465D01*
X151955256Y-143900501D01*
X151955260Y-143900501D01*
X151955261Y-143900502D01*
X152080928Y-143925500D01*
X152080931Y-143925500D01*
X152209071Y-143925500D01*
X152293615Y-143908682D01*
X152334744Y-143900501D01*
X152453127Y-143851465D01*
X152559669Y-143780276D01*
X152559672Y-143780273D01*
X152578127Y-143761819D01*
X152639450Y-143728334D01*
X152665808Y-143725500D01*
X161154308Y-143725500D01*
X161154309Y-143725500D01*
X161244673Y-143701286D01*
X161268887Y-143694799D01*
X161371614Y-143635489D01*
X163078392Y-141928711D01*
X170019500Y-141928711D01*
X170019500Y-142171288D01*
X170051161Y-142411785D01*
X170113947Y-142646104D01*
X170206773Y-142870205D01*
X170206776Y-142870212D01*
X170328064Y-143080289D01*
X170328066Y-143080292D01*
X170328067Y-143080293D01*
X170475733Y-143272736D01*
X170475739Y-143272743D01*
X170647256Y-143444260D01*
X170647262Y-143444265D01*
X170839711Y-143591936D01*
X171049788Y-143713224D01*
X171273900Y-143806054D01*
X171508211Y-143868838D01*
X171688586Y-143892584D01*
X171748711Y-143900500D01*
X171748712Y-143900500D01*
X171991289Y-143900500D01*
X172039388Y-143894167D01*
X172231789Y-143868838D01*
X172466100Y-143806054D01*
X172690212Y-143713224D01*
X172900289Y-143591936D01*
X173092738Y-143444265D01*
X173264265Y-143272738D01*
X173411936Y-143080289D01*
X173533224Y-142870212D01*
X173626054Y-142646100D01*
X173688838Y-142411789D01*
X173720500Y-142171288D01*
X173720500Y-141928712D01*
X173688838Y-141688211D01*
X173626054Y-141453900D01*
X173533224Y-141229788D01*
X173411936Y-141019711D01*
X173264265Y-140827262D01*
X173264260Y-140827256D01*
X173092743Y-140655739D01*
X173092736Y-140655733D01*
X172900293Y-140508067D01*
X172900292Y-140508066D01*
X172900289Y-140508064D01*
X172690212Y-140386776D01*
X172690205Y-140386773D01*
X172466104Y-140293947D01*
X172231785Y-140231161D01*
X171991289Y-140199500D01*
X171991288Y-140199500D01*
X171748712Y-140199500D01*
X171748711Y-140199500D01*
X171508214Y-140231161D01*
X171273895Y-140293947D01*
X171049794Y-140386773D01*
X171049785Y-140386777D01*
X170839706Y-140508067D01*
X170647263Y-140655733D01*
X170647256Y-140655739D01*
X170475739Y-140827256D01*
X170475733Y-140827263D01*
X170328067Y-141019706D01*
X170206777Y-141229785D01*
X170206773Y-141229794D01*
X170113947Y-141453895D01*
X170051161Y-141688214D01*
X170019500Y-141928711D01*
X163078392Y-141928711D01*
X164720284Y-140286819D01*
X164781607Y-140253334D01*
X164807965Y-140250500D01*
X164859071Y-140250500D01*
X164956290Y-140231161D01*
X164984744Y-140225501D01*
X165103127Y-140176465D01*
X165209669Y-140105276D01*
X165300276Y-140014669D01*
X165371465Y-139908127D01*
X165420501Y-139789744D01*
X165445500Y-139664069D01*
X165445500Y-139535931D01*
X165445500Y-139535928D01*
X165420502Y-139410261D01*
X165420501Y-139410260D01*
X165420501Y-139410256D01*
X165371465Y-139291873D01*
X165371464Y-139291872D01*
X165371461Y-139291866D01*
X165300276Y-139185331D01*
X165300273Y-139185327D01*
X165209672Y-139094726D01*
X165209668Y-139094723D01*
X165103133Y-139023538D01*
X165103124Y-139023533D01*
X164984744Y-138974499D01*
X164984738Y-138974497D01*
X164859071Y-138949500D01*
X164859069Y-138949500D01*
X164730931Y-138949500D01*
X164730929Y-138949500D01*
X164605261Y-138974497D01*
X164605255Y-138974499D01*
X164486875Y-139023533D01*
X164486866Y-139023538D01*
X164380331Y-139094723D01*
X164380327Y-139094726D01*
X164289726Y-139185327D01*
X164289723Y-139185331D01*
X164218538Y-139291866D01*
X164218533Y-139291875D01*
X164169499Y-139410255D01*
X164169497Y-139410261D01*
X164144500Y-139535928D01*
X164144500Y-139537035D01*
X164144336Y-139537593D01*
X164143903Y-139541991D01*
X164143068Y-139541908D01*
X164124815Y-139604074D01*
X164108181Y-139624716D01*
X160944716Y-142788181D01*
X160883393Y-142821666D01*
X160857035Y-142824500D01*
X152665808Y-142824500D01*
X152598769Y-142804815D01*
X152578127Y-142788181D01*
X152559672Y-142769726D01*
X152559668Y-142769723D01*
X152453133Y-142698538D01*
X152453124Y-142698533D01*
X152334744Y-142649499D01*
X152334738Y-142649497D01*
X152209071Y-142624500D01*
X152209069Y-142624500D01*
X152080931Y-142624500D01*
X152080929Y-142624500D01*
X151955261Y-142649497D01*
X151955255Y-142649499D01*
X151836875Y-142698533D01*
X151836866Y-142698538D01*
X151730331Y-142769723D01*
X151730327Y-142769726D01*
X151711873Y-142788181D01*
X151650550Y-142821666D01*
X151624192Y-142824500D01*
X147882966Y-142824500D01*
X147815927Y-142804815D01*
X147795285Y-142788181D01*
X144606819Y-139599715D01*
X144573334Y-139538392D01*
X144570500Y-139512034D01*
X144570500Y-134584108D01*
X173869500Y-134584108D01*
X173869500Y-134715891D01*
X173903608Y-134843187D01*
X173936554Y-134900250D01*
X173969500Y-134957314D01*
X174062686Y-135050500D01*
X174176814Y-135116392D01*
X174304108Y-135150500D01*
X174304110Y-135150500D01*
X174435890Y-135150500D01*
X174435892Y-135150500D01*
X174563186Y-135116392D01*
X174677314Y-135050500D01*
X174770500Y-134957314D01*
X174836392Y-134843186D01*
X174870500Y-134715892D01*
X174870500Y-134584108D01*
X174836392Y-134456814D01*
X174770500Y-134342686D01*
X174677314Y-134249500D01*
X174620250Y-134216554D01*
X174563187Y-134183608D01*
X174499539Y-134166554D01*
X174435892Y-134149500D01*
X174304108Y-134149500D01*
X174176812Y-134183608D01*
X174062686Y-134249500D01*
X174062683Y-134249502D01*
X173969502Y-134342683D01*
X173969500Y-134342686D01*
X173903608Y-134456812D01*
X173869500Y-134584108D01*
X144570500Y-134584108D01*
X144570500Y-132584108D01*
X173869500Y-132584108D01*
X173869500Y-132715891D01*
X173903608Y-132843187D01*
X173936554Y-132900250D01*
X173969500Y-132957314D01*
X174062686Y-133050500D01*
X174176814Y-133116392D01*
X174304108Y-133150500D01*
X174304110Y-133150500D01*
X174435890Y-133150500D01*
X174435892Y-133150500D01*
X174563186Y-133116392D01*
X174677314Y-133050500D01*
X174770500Y-132957314D01*
X174836392Y-132843186D01*
X174870500Y-132715892D01*
X174870500Y-132584108D01*
X174836392Y-132456814D01*
X174770500Y-132342686D01*
X174677314Y-132249500D01*
X174620250Y-132216554D01*
X174563187Y-132183608D01*
X174499539Y-132166554D01*
X174435892Y-132149500D01*
X174304108Y-132149500D01*
X174176812Y-132183608D01*
X174062686Y-132249500D01*
X174062683Y-132249502D01*
X173969502Y-132342683D01*
X173969500Y-132342686D01*
X173903608Y-132456812D01*
X173869500Y-132584108D01*
X144570500Y-132584108D01*
X144570500Y-130945807D01*
X144581276Y-130909108D01*
X171979500Y-130909108D01*
X171979500Y-131040892D01*
X171996554Y-131104539D01*
X172013608Y-131168187D01*
X172038036Y-131210497D01*
X172079500Y-131282314D01*
X172172686Y-131375500D01*
X172286814Y-131441392D01*
X172414108Y-131475500D01*
X172414110Y-131475500D01*
X172545890Y-131475500D01*
X172545892Y-131475500D01*
X172673186Y-131441392D01*
X172787314Y-131375500D01*
X172880500Y-131282314D01*
X172946392Y-131168186D01*
X172980500Y-131040892D01*
X172980500Y-130909108D01*
X172946392Y-130781814D01*
X172880500Y-130667686D01*
X172796922Y-130584108D01*
X173869500Y-130584108D01*
X173869500Y-130715892D01*
X173877061Y-130744110D01*
X173903608Y-130843187D01*
X173922490Y-130875891D01*
X173969500Y-130957314D01*
X174062686Y-131050500D01*
X174176814Y-131116392D01*
X174304108Y-131150500D01*
X174304110Y-131150500D01*
X174435890Y-131150500D01*
X174435892Y-131150500D01*
X174563186Y-131116392D01*
X174677314Y-131050500D01*
X174770500Y-130957314D01*
X174836392Y-130843186D01*
X174870500Y-130715892D01*
X174870500Y-130584108D01*
X174836392Y-130456814D01*
X174770500Y-130342686D01*
X174677314Y-130249500D01*
X174620250Y-130216554D01*
X174563187Y-130183608D01*
X174499539Y-130166554D01*
X174435892Y-130149500D01*
X174304108Y-130149500D01*
X174176812Y-130183608D01*
X174062686Y-130249500D01*
X174062683Y-130249502D01*
X173969502Y-130342683D01*
X173969500Y-130342686D01*
X173903608Y-130456812D01*
X173889730Y-130508608D01*
X173869500Y-130584108D01*
X172796922Y-130584108D01*
X172787314Y-130574500D01*
X172730250Y-130541554D01*
X172673187Y-130508608D01*
X172600265Y-130489069D01*
X172545892Y-130474500D01*
X172414108Y-130474500D01*
X172286812Y-130508608D01*
X172172686Y-130574500D01*
X172172683Y-130574502D01*
X172079502Y-130667683D01*
X172079500Y-130667686D01*
X172013608Y-130781812D01*
X171983429Y-130894445D01*
X171979500Y-130909108D01*
X144581276Y-130909108D01*
X144590185Y-130878768D01*
X144600891Y-130864485D01*
X144603743Y-130861201D01*
X144625276Y-130839669D01*
X144696465Y-130733127D01*
X144745501Y-130614744D01*
X144753682Y-130573615D01*
X144770500Y-130489071D01*
X144770500Y-130360928D01*
X144745502Y-130235261D01*
X144745501Y-130235260D01*
X144745501Y-130235256D01*
X144696465Y-130116873D01*
X144696464Y-130116872D01*
X144696461Y-130116866D01*
X144625276Y-130010331D01*
X144625273Y-130010327D01*
X144606819Y-129991873D01*
X144573334Y-129930550D01*
X144570500Y-129904192D01*
X144570500Y-129284108D01*
X166694500Y-129284108D01*
X166694500Y-129415891D01*
X166728608Y-129543187D01*
X166761554Y-129600250D01*
X166794500Y-129657314D01*
X166887686Y-129750500D01*
X167001814Y-129816392D01*
X167129108Y-129850500D01*
X167129110Y-129850500D01*
X167260890Y-129850500D01*
X167260892Y-129850500D01*
X167388186Y-129816392D01*
X167502314Y-129750500D01*
X167595500Y-129657314D01*
X167661392Y-129543186D01*
X167695500Y-129415892D01*
X167695500Y-129284108D01*
X167661392Y-129156814D01*
X167595500Y-129042686D01*
X167502314Y-128949500D01*
X167445250Y-128916554D01*
X167388187Y-128883608D01*
X167322061Y-128865890D01*
X167260892Y-128849500D01*
X167129108Y-128849500D01*
X167001812Y-128883608D01*
X166887686Y-128949500D01*
X166887683Y-128949502D01*
X166794502Y-129042683D01*
X166794500Y-129042686D01*
X166728608Y-129156812D01*
X166694500Y-129284108D01*
X144570500Y-129284108D01*
X144570500Y-128734108D01*
X168144500Y-128734108D01*
X168144500Y-128865891D01*
X168178608Y-128993187D01*
X168207185Y-129042683D01*
X168244500Y-129107314D01*
X168337686Y-129200500D01*
X168451814Y-129266392D01*
X168579108Y-129300500D01*
X168579110Y-129300500D01*
X168710890Y-129300500D01*
X168710892Y-129300500D01*
X168838186Y-129266392D01*
X168952314Y-129200500D01*
X169045500Y-129107314D01*
X169111392Y-128993186D01*
X169145500Y-128865892D01*
X169145500Y-128734108D01*
X169111392Y-128606814D01*
X169045500Y-128492686D01*
X168952314Y-128399500D01*
X168853910Y-128342686D01*
X168838187Y-128333608D01*
X168774539Y-128316554D01*
X168710892Y-128299500D01*
X168579108Y-128299500D01*
X168451812Y-128333608D01*
X168337686Y-128399500D01*
X168337683Y-128399502D01*
X168244502Y-128492683D01*
X168244500Y-128492686D01*
X168178608Y-128606812D01*
X168144500Y-128734108D01*
X144570500Y-128734108D01*
X144570500Y-128059108D01*
X171394500Y-128059108D01*
X171394500Y-128190891D01*
X171428608Y-128318187D01*
X171442751Y-128342683D01*
X171494500Y-128432314D01*
X171587686Y-128525500D01*
X171701814Y-128591392D01*
X171829108Y-128625500D01*
X171829110Y-128625500D01*
X171960890Y-128625500D01*
X171960892Y-128625500D01*
X172088186Y-128591392D01*
X172100802Y-128584108D01*
X173869500Y-128584108D01*
X173869500Y-128715892D01*
X173886554Y-128779539D01*
X173903608Y-128843187D01*
X173916717Y-128865892D01*
X173969500Y-128957314D01*
X174062686Y-129050500D01*
X174176814Y-129116392D01*
X174304108Y-129150500D01*
X174304110Y-129150500D01*
X174435890Y-129150500D01*
X174435892Y-129150500D01*
X174563186Y-129116392D01*
X174677314Y-129050500D01*
X174770500Y-128957314D01*
X174836392Y-128843186D01*
X174870500Y-128715892D01*
X174870500Y-128584108D01*
X174836392Y-128456814D01*
X174770500Y-128342686D01*
X174677314Y-128249500D01*
X174620250Y-128216554D01*
X174563187Y-128183608D01*
X174499539Y-128166554D01*
X174435892Y-128149500D01*
X174304108Y-128149500D01*
X174176812Y-128183608D01*
X174062686Y-128249500D01*
X174062683Y-128249502D01*
X173969502Y-128342683D01*
X173969500Y-128342686D01*
X173903608Y-128456812D01*
X173885204Y-128525499D01*
X173869500Y-128584108D01*
X172100802Y-128584108D01*
X172202314Y-128525500D01*
X172295500Y-128432314D01*
X172361392Y-128318186D01*
X172395500Y-128190892D01*
X172395500Y-128059108D01*
X172361392Y-127931814D01*
X172295500Y-127817686D01*
X172202314Y-127724500D01*
X172145250Y-127691554D01*
X172088187Y-127658608D01*
X172024539Y-127641554D01*
X171960892Y-127624500D01*
X171829108Y-127624500D01*
X171701812Y-127658608D01*
X171587686Y-127724500D01*
X171587683Y-127724502D01*
X171494502Y-127817683D01*
X171494500Y-127817686D01*
X171428608Y-127931812D01*
X171394500Y-128059108D01*
X144570500Y-128059108D01*
X144570500Y-126134108D01*
X164994500Y-126134108D01*
X164994500Y-126265892D01*
X165003773Y-126300499D01*
X165028608Y-126393187D01*
X165061554Y-126450250D01*
X165094500Y-126507314D01*
X165187686Y-126600500D01*
X165301814Y-126666392D01*
X165429108Y-126700500D01*
X165429110Y-126700500D01*
X165560890Y-126700500D01*
X165560892Y-126700500D01*
X165688186Y-126666392D01*
X165802314Y-126600500D01*
X165818706Y-126584108D01*
X173869500Y-126584108D01*
X173869500Y-126715891D01*
X173903608Y-126843187D01*
X173936554Y-126900250D01*
X173969500Y-126957314D01*
X174062686Y-127050500D01*
X174176814Y-127116392D01*
X174304108Y-127150500D01*
X174304110Y-127150500D01*
X174435890Y-127150500D01*
X174435892Y-127150500D01*
X174563186Y-127116392D01*
X174677314Y-127050500D01*
X174770500Y-126957314D01*
X174836392Y-126843186D01*
X174870500Y-126715892D01*
X174870500Y-126584108D01*
X174836392Y-126456814D01*
X174770500Y-126342686D01*
X174677314Y-126249500D01*
X174592439Y-126200497D01*
X174563187Y-126183608D01*
X174499539Y-126166554D01*
X174435892Y-126149500D01*
X174304108Y-126149500D01*
X174176812Y-126183608D01*
X174062686Y-126249500D01*
X174062683Y-126249502D01*
X173969502Y-126342683D01*
X173969500Y-126342686D01*
X173903608Y-126456812D01*
X173869500Y-126584108D01*
X165818706Y-126584108D01*
X165895500Y-126507314D01*
X165961392Y-126393186D01*
X165995500Y-126265892D01*
X165995500Y-126134108D01*
X165961392Y-126006814D01*
X165895500Y-125892686D01*
X165811922Y-125809108D01*
X168294500Y-125809108D01*
X168294500Y-125940891D01*
X168328608Y-126068187D01*
X168351200Y-126107316D01*
X168394500Y-126182314D01*
X168487686Y-126275500D01*
X168601814Y-126341392D01*
X168729108Y-126375500D01*
X168729110Y-126375500D01*
X168860890Y-126375500D01*
X168860892Y-126375500D01*
X168988186Y-126341392D01*
X169102314Y-126275500D01*
X169195500Y-126182314D01*
X169261392Y-126068186D01*
X169295500Y-125940892D01*
X169295500Y-125809108D01*
X169261392Y-125681814D01*
X169195500Y-125567686D01*
X169102314Y-125474500D01*
X169045250Y-125441554D01*
X168988187Y-125408608D01*
X168924539Y-125391554D01*
X168860892Y-125374500D01*
X168729108Y-125374500D01*
X168601812Y-125408608D01*
X168487686Y-125474500D01*
X168487683Y-125474502D01*
X168394502Y-125567683D01*
X168394500Y-125567686D01*
X168328608Y-125681812D01*
X168294500Y-125809108D01*
X165811922Y-125809108D01*
X165802314Y-125799500D01*
X165745250Y-125766554D01*
X165688187Y-125733608D01*
X165622065Y-125715891D01*
X165560892Y-125699500D01*
X165429108Y-125699500D01*
X165301812Y-125733608D01*
X165187686Y-125799500D01*
X165187683Y-125799502D01*
X165094502Y-125892683D01*
X165094500Y-125892686D01*
X165028608Y-126006812D01*
X165012163Y-126068187D01*
X164994500Y-126134108D01*
X144570500Y-126134108D01*
X144570500Y-125095693D01*
X144570500Y-125095691D01*
X144539799Y-124981114D01*
X144539799Y-124981113D01*
X144539799Y-124981112D01*
X144480492Y-124878389D01*
X144480488Y-124878384D01*
X144166212Y-124564108D01*
X164054500Y-124564108D01*
X164054500Y-124695892D01*
X164059859Y-124715891D01*
X164088608Y-124823187D01*
X164113263Y-124865890D01*
X164154500Y-124937314D01*
X164247686Y-125030500D01*
X164361814Y-125096392D01*
X164489108Y-125130500D01*
X164489110Y-125130500D01*
X164620890Y-125130500D01*
X164620892Y-125130500D01*
X164748186Y-125096392D01*
X164862314Y-125030500D01*
X164955500Y-124937314D01*
X165021392Y-124823186D01*
X165055500Y-124695892D01*
X165055500Y-124584108D01*
X173869500Y-124584108D01*
X173869500Y-124715892D01*
X173886554Y-124779539D01*
X173903608Y-124843187D01*
X173936554Y-124900250D01*
X173969500Y-124957314D01*
X174062686Y-125050500D01*
X174176814Y-125116392D01*
X174304108Y-125150500D01*
X174304110Y-125150500D01*
X174435890Y-125150500D01*
X174435892Y-125150500D01*
X174563186Y-125116392D01*
X174677314Y-125050500D01*
X174770500Y-124957314D01*
X174836392Y-124843186D01*
X174870500Y-124715892D01*
X174870500Y-124584108D01*
X174836392Y-124456814D01*
X174770500Y-124342686D01*
X174677314Y-124249500D01*
X174620250Y-124216554D01*
X174563187Y-124183608D01*
X174488544Y-124163608D01*
X174435892Y-124149500D01*
X174304108Y-124149500D01*
X174176812Y-124183608D01*
X174062686Y-124249500D01*
X174062683Y-124249502D01*
X173969502Y-124342683D01*
X173969500Y-124342686D01*
X173903608Y-124456812D01*
X173893997Y-124492683D01*
X173869500Y-124584108D01*
X165055500Y-124584108D01*
X165055500Y-124564108D01*
X165021392Y-124436814D01*
X164955500Y-124322686D01*
X164862314Y-124229500D01*
X164782827Y-124183608D01*
X164748187Y-124163608D01*
X164684539Y-124146554D01*
X164620892Y-124129500D01*
X164489108Y-124129500D01*
X164361812Y-124163608D01*
X164247686Y-124229500D01*
X164247683Y-124229502D01*
X164154502Y-124322683D01*
X164154500Y-124322686D01*
X164088608Y-124436812D01*
X164083249Y-124456814D01*
X164054500Y-124564108D01*
X144166212Y-124564108D01*
X143366212Y-123764108D01*
X166614500Y-123764108D01*
X166614500Y-123895892D01*
X166615735Y-123900500D01*
X166648608Y-124023187D01*
X166681554Y-124080250D01*
X166714500Y-124137314D01*
X166807686Y-124230500D01*
X166921814Y-124296392D01*
X167049108Y-124330500D01*
X167049110Y-124330500D01*
X167180890Y-124330500D01*
X167180892Y-124330500D01*
X167308186Y-124296392D01*
X167422314Y-124230500D01*
X167515500Y-124137314D01*
X167581392Y-124023186D01*
X167615500Y-123895892D01*
X167615500Y-123764108D01*
X167581392Y-123636814D01*
X167515500Y-123522686D01*
X167422314Y-123429500D01*
X167365250Y-123396554D01*
X167308187Y-123363608D01*
X167244539Y-123346554D01*
X167180892Y-123329500D01*
X167049108Y-123329500D01*
X166921812Y-123363608D01*
X166807686Y-123429500D01*
X166807683Y-123429502D01*
X166714502Y-123522683D01*
X166714500Y-123522686D01*
X166648608Y-123636812D01*
X166629718Y-123707313D01*
X166614500Y-123764108D01*
X143366212Y-123764108D01*
X142265766Y-122663662D01*
X142186212Y-122584108D01*
X173869500Y-122584108D01*
X173869500Y-122715891D01*
X173903608Y-122843187D01*
X173936121Y-122899500D01*
X173969500Y-122957314D01*
X174062686Y-123050500D01*
X174176814Y-123116392D01*
X174304108Y-123150500D01*
X174304110Y-123150500D01*
X174435890Y-123150500D01*
X174435892Y-123150500D01*
X174563186Y-123116392D01*
X174677314Y-123050500D01*
X174770500Y-122957314D01*
X174836392Y-122843186D01*
X174870500Y-122715892D01*
X174870500Y-122584108D01*
X174836392Y-122456814D01*
X174770500Y-122342686D01*
X174677314Y-122249500D01*
X174620250Y-122216554D01*
X174563187Y-122183608D01*
X174499539Y-122166554D01*
X174435892Y-122149500D01*
X174304108Y-122149500D01*
X174176812Y-122183608D01*
X174062686Y-122249500D01*
X174062683Y-122249502D01*
X173969502Y-122342683D01*
X173969500Y-122342686D01*
X173903608Y-122456812D01*
X173869500Y-122584108D01*
X142186212Y-122584108D01*
X140445290Y-120843186D01*
X138366211Y-118764108D01*
X151959500Y-118764108D01*
X151959500Y-118895891D01*
X151993608Y-119023187D01*
X152009386Y-119050514D01*
X152059500Y-119137314D01*
X152152686Y-119230500D01*
X152266814Y-119296392D01*
X152394108Y-119330500D01*
X152394110Y-119330500D01*
X152525890Y-119330500D01*
X152525892Y-119330500D01*
X152653186Y-119296392D01*
X152767314Y-119230500D01*
X152860500Y-119137314D01*
X152926392Y-119023186D01*
X152960500Y-118895892D01*
X152960500Y-118764108D01*
X152926392Y-118636814D01*
X152860500Y-118522686D01*
X152852048Y-118514234D01*
X166689500Y-118514234D01*
X166689500Y-118665765D01*
X166728719Y-118812136D01*
X166746646Y-118843186D01*
X166804485Y-118943365D01*
X166911635Y-119050515D01*
X167042865Y-119126281D01*
X167189234Y-119165500D01*
X167189236Y-119165500D01*
X167340764Y-119165500D01*
X167340766Y-119165500D01*
X167487135Y-119126281D01*
X167618365Y-119050515D01*
X167725515Y-118943365D01*
X167801281Y-118812135D01*
X167840500Y-118665766D01*
X167840500Y-118514234D01*
X167801281Y-118367865D01*
X167725515Y-118236635D01*
X167618365Y-118129485D01*
X167552750Y-118091602D01*
X167487136Y-118053719D01*
X167413950Y-118034109D01*
X167340766Y-118014500D01*
X167189234Y-118014500D01*
X167042863Y-118053719D01*
X166911635Y-118129485D01*
X166911632Y-118129487D01*
X166804487Y-118236632D01*
X166804485Y-118236635D01*
X166728719Y-118367863D01*
X166689500Y-118514234D01*
X152852048Y-118514234D01*
X152767314Y-118429500D01*
X152710250Y-118396554D01*
X152653187Y-118363608D01*
X152575092Y-118342683D01*
X152525892Y-118329500D01*
X152394108Y-118329500D01*
X152266812Y-118363608D01*
X152152686Y-118429500D01*
X152152683Y-118429502D01*
X152059502Y-118522683D01*
X152059500Y-118522686D01*
X151993608Y-118636812D01*
X151959500Y-118764108D01*
X138366211Y-118764108D01*
X137436211Y-117834108D01*
X149819500Y-117834108D01*
X149819500Y-117965891D01*
X149853608Y-118093187D01*
X149866011Y-118114669D01*
X149919500Y-118207314D01*
X150012686Y-118300500D01*
X150126814Y-118366392D01*
X150254108Y-118400500D01*
X150254110Y-118400500D01*
X150385890Y-118400500D01*
X150385892Y-118400500D01*
X150513186Y-118366392D01*
X150627314Y-118300500D01*
X150720500Y-118207314D01*
X150786392Y-118093186D01*
X150820500Y-117965892D01*
X150820500Y-117834108D01*
X150786392Y-117706814D01*
X150720500Y-117592686D01*
X150627314Y-117499500D01*
X150570250Y-117466554D01*
X150513187Y-117433608D01*
X150447061Y-117415890D01*
X150385892Y-117399500D01*
X150254108Y-117399500D01*
X150126812Y-117433608D01*
X150012686Y-117499500D01*
X150012683Y-117499502D01*
X149919502Y-117592683D01*
X149919500Y-117592686D01*
X149853608Y-117706812D01*
X149819500Y-117834108D01*
X137436211Y-117834108D01*
X136886211Y-117284108D01*
X151319500Y-117284108D01*
X151319500Y-117415891D01*
X151353608Y-117543187D01*
X151367841Y-117567838D01*
X151419500Y-117657314D01*
X151512686Y-117750500D01*
X151626814Y-117816392D01*
X151754108Y-117850500D01*
X151754110Y-117850500D01*
X151885890Y-117850500D01*
X151885892Y-117850500D01*
X152013186Y-117816392D01*
X152103808Y-117764071D01*
X163269499Y-117764071D01*
X163294497Y-117889738D01*
X163294499Y-117889744D01*
X163343533Y-118008124D01*
X163343538Y-118008133D01*
X163414723Y-118114668D01*
X163414726Y-118114672D01*
X163505327Y-118205273D01*
X163505331Y-118205276D01*
X163611866Y-118276461D01*
X163611872Y-118276464D01*
X163611873Y-118276465D01*
X163730256Y-118325501D01*
X163730260Y-118325501D01*
X163730261Y-118325502D01*
X163855928Y-118350500D01*
X163855931Y-118350500D01*
X163984071Y-118350500D01*
X164089640Y-118329500D01*
X164109744Y-118325501D01*
X164228127Y-118276465D01*
X164334669Y-118205276D01*
X164425276Y-118114669D01*
X164496465Y-118008127D01*
X164545501Y-117889744D01*
X164570500Y-117764069D01*
X164570500Y-117635931D01*
X164570500Y-117635928D01*
X164545502Y-117510261D01*
X164545501Y-117510260D01*
X164545501Y-117510256D01*
X164496465Y-117391873D01*
X164496464Y-117391872D01*
X164496461Y-117391866D01*
X164425276Y-117285331D01*
X164425273Y-117285327D01*
X164406819Y-117266873D01*
X164373334Y-117205550D01*
X164370500Y-117179192D01*
X164370500Y-114195807D01*
X164390185Y-114128768D01*
X164406814Y-114108130D01*
X164475276Y-114039669D01*
X164546465Y-113933127D01*
X164595501Y-113814744D01*
X164615272Y-113715353D01*
X164620500Y-113689071D01*
X164620500Y-113560928D01*
X164595502Y-113435261D01*
X164595501Y-113435260D01*
X164595501Y-113435256D01*
X164546465Y-113316873D01*
X164546464Y-113316872D01*
X164546461Y-113316866D01*
X164475276Y-113210331D01*
X164475273Y-113210327D01*
X164384672Y-113119726D01*
X164384668Y-113119723D01*
X164278133Y-113048538D01*
X164278124Y-113048533D01*
X164159744Y-112999499D01*
X164159738Y-112999497D01*
X164034071Y-112974500D01*
X164034069Y-112974500D01*
X163905931Y-112974500D01*
X163905929Y-112974500D01*
X163780261Y-112999497D01*
X163780255Y-112999499D01*
X163661875Y-113048533D01*
X163661866Y-113048538D01*
X163555331Y-113119723D01*
X163555327Y-113119726D01*
X163464726Y-113210327D01*
X163464723Y-113210331D01*
X163393538Y-113316866D01*
X163393533Y-113316875D01*
X163344499Y-113435255D01*
X163344497Y-113435261D01*
X163319500Y-113560928D01*
X163319500Y-113560931D01*
X163319500Y-113689069D01*
X163319500Y-113689071D01*
X163319499Y-113689071D01*
X163344497Y-113814738D01*
X163344499Y-113814744D01*
X163393533Y-113933124D01*
X163393538Y-113933133D01*
X163448602Y-114015541D01*
X163469480Y-114082218D01*
X163469500Y-114084432D01*
X163469500Y-117179192D01*
X163449815Y-117246231D01*
X163433181Y-117266873D01*
X163414726Y-117285327D01*
X163414723Y-117285331D01*
X163343538Y-117391866D01*
X163343533Y-117391875D01*
X163294499Y-117510255D01*
X163294497Y-117510261D01*
X163269500Y-117635928D01*
X163269500Y-117635931D01*
X163269500Y-117764069D01*
X163269500Y-117764071D01*
X163269499Y-117764071D01*
X152103808Y-117764071D01*
X152127314Y-117750500D01*
X152220500Y-117657314D01*
X152286392Y-117543186D01*
X152320500Y-117415892D01*
X152320500Y-117284108D01*
X152286392Y-117156814D01*
X152220500Y-117042686D01*
X152127314Y-116949500D01*
X152064418Y-116913187D01*
X152013187Y-116883608D01*
X151949539Y-116866554D01*
X151885892Y-116849500D01*
X151754108Y-116849500D01*
X151626812Y-116883608D01*
X151512686Y-116949500D01*
X151512683Y-116949502D01*
X151419502Y-117042683D01*
X151419500Y-117042686D01*
X151353608Y-117156812D01*
X151319500Y-117284108D01*
X136886211Y-117284108D01*
X136256211Y-116654108D01*
X155909500Y-116654108D01*
X155909500Y-116785891D01*
X155943608Y-116913187D01*
X155976554Y-116970250D01*
X156009500Y-117027314D01*
X156102686Y-117120500D01*
X156216814Y-117186392D01*
X156344108Y-117220500D01*
X156344110Y-117220500D01*
X156475890Y-117220500D01*
X156475892Y-117220500D01*
X156603186Y-117186392D01*
X156717314Y-117120500D01*
X156810500Y-117027314D01*
X156876392Y-116913186D01*
X156910500Y-116785892D01*
X156910500Y-116654108D01*
X156876392Y-116526814D01*
X156810500Y-116412686D01*
X156717314Y-116319500D01*
X156660250Y-116286554D01*
X156603187Y-116253608D01*
X156539539Y-116236554D01*
X156475892Y-116219500D01*
X156344108Y-116219500D01*
X156216812Y-116253608D01*
X156102686Y-116319500D01*
X156102683Y-116319502D01*
X156009502Y-116412683D01*
X156009500Y-116412686D01*
X155943608Y-116526812D01*
X155909500Y-116654108D01*
X136256211Y-116654108D01*
X134889283Y-115287180D01*
X134855799Y-115225858D01*
X134860783Y-115156166D01*
X134902655Y-115100233D01*
X134968119Y-115075816D01*
X134976965Y-115075500D01*
X135399192Y-115075500D01*
X135466231Y-115095185D01*
X135486873Y-115111819D01*
X135505327Y-115130273D01*
X135505331Y-115130276D01*
X135611866Y-115201461D01*
X135611872Y-115201464D01*
X135611873Y-115201465D01*
X135730256Y-115250501D01*
X135730260Y-115250501D01*
X135730261Y-115250502D01*
X135855928Y-115275500D01*
X135855931Y-115275500D01*
X135984071Y-115275500D01*
X136068615Y-115258682D01*
X136109744Y-115250501D01*
X136228127Y-115201465D01*
X136334669Y-115130276D01*
X136425276Y-115039669D01*
X136496465Y-114933127D01*
X136545501Y-114814744D01*
X136562892Y-114727316D01*
X136570500Y-114689071D01*
X136570500Y-114560928D01*
X136545502Y-114435261D01*
X136545501Y-114435260D01*
X136545501Y-114435256D01*
X136545499Y-114435251D01*
X136528178Y-114393433D01*
X136511888Y-114354108D01*
X144519500Y-114354108D01*
X144519500Y-114485892D01*
X144536554Y-114549539D01*
X144553608Y-114613187D01*
X144586376Y-114669941D01*
X144619500Y-114727314D01*
X144712686Y-114820500D01*
X144826814Y-114886392D01*
X144954108Y-114920500D01*
X144954110Y-114920500D01*
X145085890Y-114920500D01*
X145085892Y-114920500D01*
X145213186Y-114886392D01*
X145327314Y-114820500D01*
X145420500Y-114727314D01*
X145486392Y-114613186D01*
X145520500Y-114485892D01*
X145520500Y-114354108D01*
X145486392Y-114226814D01*
X145420500Y-114112686D01*
X145327314Y-114019500D01*
X145249372Y-113974500D01*
X145213187Y-113953608D01*
X145149539Y-113936554D01*
X145085892Y-113919500D01*
X144954108Y-113919500D01*
X144826812Y-113953608D01*
X144712686Y-114019500D01*
X144712683Y-114019502D01*
X144619502Y-114112683D01*
X144619500Y-114112686D01*
X144553608Y-114226812D01*
X144529017Y-114318591D01*
X144519500Y-114354108D01*
X136511888Y-114354108D01*
X136504552Y-114336398D01*
X136496465Y-114316873D01*
X136496463Y-114316870D01*
X136496461Y-114316866D01*
X136425276Y-114210331D01*
X136425273Y-114210327D01*
X136334672Y-114119726D01*
X136334668Y-114119723D01*
X136228133Y-114048538D01*
X136228124Y-114048533D01*
X136109744Y-113999499D01*
X136109738Y-113999497D01*
X135984071Y-113974500D01*
X135984069Y-113974500D01*
X135855931Y-113974500D01*
X135855929Y-113974500D01*
X135730261Y-113999497D01*
X135730255Y-113999499D01*
X135611875Y-114048533D01*
X135611866Y-114048538D01*
X135505331Y-114119723D01*
X135505327Y-114119726D01*
X135486873Y-114138181D01*
X135425550Y-114171666D01*
X135399192Y-114174500D01*
X131115320Y-114174500D01*
X131048281Y-114154815D01*
X131036659Y-114146356D01*
X131034673Y-114144726D01*
X130928133Y-114073538D01*
X130928124Y-114073533D01*
X130809744Y-114024499D01*
X130809738Y-114024497D01*
X130684071Y-113999500D01*
X130684069Y-113999500D01*
X130555931Y-113999500D01*
X130555929Y-113999500D01*
X130430261Y-114024497D01*
X130430255Y-114024499D01*
X130311875Y-114073533D01*
X130311866Y-114073538D01*
X130205326Y-114144726D01*
X130203341Y-114146356D01*
X130202098Y-114146883D01*
X130200266Y-114148108D01*
X130200033Y-114147760D01*
X130139030Y-114173667D01*
X130124680Y-114174500D01*
X128282965Y-114174500D01*
X128215926Y-114154815D01*
X128195284Y-114138181D01*
X126901211Y-112844108D01*
X141719500Y-112844108D01*
X141719500Y-112975892D01*
X141734570Y-113032135D01*
X141753608Y-113103187D01*
X141763156Y-113119724D01*
X141819500Y-113217314D01*
X141912686Y-113310500D01*
X142026814Y-113376392D01*
X142154108Y-113410500D01*
X142154110Y-113410500D01*
X142285890Y-113410500D01*
X142285892Y-113410500D01*
X142413186Y-113376392D01*
X142527314Y-113310500D01*
X142603706Y-113234108D01*
X156919500Y-113234108D01*
X156919500Y-113365892D01*
X156924754Y-113385499D01*
X156953608Y-113493187D01*
X156975872Y-113531749D01*
X157019500Y-113607314D01*
X157112686Y-113700500D01*
X157226814Y-113766392D01*
X157354108Y-113800500D01*
X157354110Y-113800500D01*
X157485890Y-113800500D01*
X157485892Y-113800500D01*
X157613186Y-113766392D01*
X157727314Y-113700500D01*
X157820500Y-113607314D01*
X157886392Y-113493186D01*
X157920500Y-113365892D01*
X157920500Y-113234108D01*
X157886392Y-113106814D01*
X157820500Y-112992686D01*
X157727314Y-112899500D01*
X157670250Y-112866554D01*
X157613187Y-112833608D01*
X157549539Y-112816554D01*
X157485892Y-112799500D01*
X157354108Y-112799500D01*
X157226812Y-112833608D01*
X157112686Y-112899500D01*
X157112683Y-112899502D01*
X157019502Y-112992683D01*
X157019500Y-112992686D01*
X156953608Y-113106812D01*
X156938290Y-113163981D01*
X156919500Y-113234108D01*
X142603706Y-113234108D01*
X142620500Y-113217314D01*
X142686392Y-113103186D01*
X142720500Y-112975892D01*
X142720500Y-112844108D01*
X142691060Y-112734234D01*
X166689500Y-112734234D01*
X166689500Y-112885765D01*
X166728719Y-113032136D01*
X166738189Y-113048538D01*
X166804485Y-113163365D01*
X166911635Y-113270515D01*
X167042865Y-113346281D01*
X167189234Y-113385500D01*
X167189236Y-113385500D01*
X167340764Y-113385500D01*
X167340766Y-113385500D01*
X167487135Y-113346281D01*
X167618365Y-113270515D01*
X167725515Y-113163365D01*
X167801281Y-113032135D01*
X167840500Y-112885766D01*
X167840500Y-112734234D01*
X167801281Y-112587865D01*
X167725515Y-112456635D01*
X167618365Y-112349485D01*
X167510686Y-112287316D01*
X167487136Y-112273719D01*
X167413950Y-112254109D01*
X167340766Y-112234500D01*
X167189234Y-112234500D01*
X167042863Y-112273719D01*
X166911635Y-112349485D01*
X166911632Y-112349487D01*
X166804487Y-112456632D01*
X166804485Y-112456635D01*
X166728719Y-112587863D01*
X166689500Y-112734234D01*
X142691060Y-112734234D01*
X142686392Y-112716814D01*
X142620500Y-112602686D01*
X142527314Y-112509500D01*
X142470250Y-112476554D01*
X142413187Y-112443608D01*
X142349539Y-112426554D01*
X142285892Y-112409500D01*
X142154108Y-112409500D01*
X142026812Y-112443608D01*
X141912686Y-112509500D01*
X141912683Y-112509502D01*
X141819502Y-112602683D01*
X141819500Y-112602686D01*
X141753608Y-112716812D01*
X141722313Y-112833608D01*
X141719500Y-112844108D01*
X126901211Y-112844108D01*
X125741211Y-111684108D01*
X137019500Y-111684108D01*
X137019500Y-111815891D01*
X137053608Y-111943187D01*
X137080923Y-111990497D01*
X137119500Y-112057314D01*
X137212686Y-112150500D01*
X137326814Y-112216392D01*
X137454108Y-112250500D01*
X137454110Y-112250500D01*
X137585890Y-112250500D01*
X137585892Y-112250500D01*
X137713186Y-112216392D01*
X137827314Y-112150500D01*
X137920500Y-112057314D01*
X137986392Y-111943186D01*
X138020500Y-111815892D01*
X138020500Y-111684108D01*
X137986392Y-111556814D01*
X137967509Y-111524108D01*
X140029500Y-111524108D01*
X140029500Y-111655892D01*
X140037061Y-111684110D01*
X140063608Y-111783187D01*
X140082490Y-111815891D01*
X140129500Y-111897314D01*
X140222686Y-111990500D01*
X140336814Y-112056392D01*
X140464108Y-112090500D01*
X140464110Y-112090500D01*
X140595890Y-112090500D01*
X140595892Y-112090500D01*
X140723186Y-112056392D01*
X140837314Y-111990500D01*
X140930500Y-111897314D01*
X140996392Y-111783186D01*
X141030500Y-111655892D01*
X141030500Y-111524108D01*
X140996392Y-111396814D01*
X140930500Y-111282686D01*
X140837314Y-111189500D01*
X140810654Y-111174108D01*
X142119500Y-111174108D01*
X142119500Y-111305892D01*
X142128255Y-111338566D01*
X142153608Y-111433187D01*
X142180347Y-111479500D01*
X142219500Y-111547314D01*
X142312686Y-111640500D01*
X142388217Y-111684108D01*
X142426176Y-111706024D01*
X142426814Y-111706392D01*
X142554108Y-111740500D01*
X142554111Y-111740500D01*
X142557593Y-111741433D01*
X142617254Y-111777798D01*
X142647783Y-111840644D01*
X142649500Y-111861208D01*
X142649500Y-111905892D01*
X142651702Y-111914110D01*
X142683608Y-112033187D01*
X142716554Y-112090250D01*
X142749500Y-112147314D01*
X142842686Y-112240500D01*
X142956814Y-112306392D01*
X143084108Y-112340500D01*
X143084110Y-112340500D01*
X143215890Y-112340500D01*
X143215892Y-112340500D01*
X143343186Y-112306392D01*
X143457314Y-112240500D01*
X143487879Y-112209934D01*
X143549199Y-112176450D01*
X143618891Y-112181434D01*
X143651052Y-112199245D01*
X143652679Y-112200493D01*
X143652686Y-112200500D01*
X143766814Y-112266392D01*
X143894108Y-112300500D01*
X143894110Y-112300500D01*
X144025890Y-112300500D01*
X144025892Y-112300500D01*
X144153186Y-112266392D01*
X144267314Y-112200500D01*
X144360500Y-112107314D01*
X144392130Y-112052528D01*
X144442697Y-112004313D01*
X144511304Y-111991090D01*
X144576169Y-112017058D01*
X144616697Y-112073972D01*
X144619292Y-112082436D01*
X144643608Y-112173187D01*
X144668552Y-112216391D01*
X144709500Y-112287314D01*
X144802686Y-112380500D01*
X144916814Y-112446392D01*
X145044108Y-112480500D01*
X145044110Y-112480500D01*
X145175890Y-112480500D01*
X145175892Y-112480500D01*
X145303186Y-112446392D01*
X145417314Y-112380500D01*
X145510500Y-112287314D01*
X145576392Y-112173186D01*
X145610500Y-112045892D01*
X145610500Y-111914108D01*
X145576392Y-111786814D01*
X145510500Y-111672686D01*
X145417314Y-111579500D01*
X145360250Y-111546554D01*
X145303187Y-111513608D01*
X145225092Y-111492683D01*
X145175892Y-111479500D01*
X145044108Y-111479500D01*
X144916812Y-111513608D01*
X144802686Y-111579500D01*
X144802683Y-111579502D01*
X144709502Y-111672683D01*
X144709498Y-111672689D01*
X144677868Y-111727472D01*
X144627300Y-111775687D01*
X144558693Y-111788908D01*
X144493829Y-111762939D01*
X144453301Y-111706024D01*
X144450714Y-111697586D01*
X144426392Y-111606814D01*
X144360500Y-111492686D01*
X144267314Y-111399500D01*
X144210250Y-111366554D01*
X144153187Y-111333608D01*
X144049747Y-111305892D01*
X144025892Y-111299500D01*
X143894108Y-111299500D01*
X143766812Y-111333608D01*
X143652686Y-111399500D01*
X143652682Y-111399503D01*
X143622120Y-111430065D01*
X143560796Y-111463550D01*
X143491105Y-111458564D01*
X143458949Y-111440755D01*
X143457315Y-111439501D01*
X143457314Y-111439500D01*
X143343186Y-111373608D01*
X143215892Y-111339500D01*
X143212406Y-111338566D01*
X143152746Y-111302201D01*
X143122217Y-111239354D01*
X143120500Y-111218791D01*
X143120500Y-111174110D01*
X143120500Y-111174108D01*
X143086392Y-111046814D01*
X143020500Y-110932686D01*
X142927314Y-110839500D01*
X142859764Y-110800500D01*
X142813187Y-110773608D01*
X142749539Y-110756554D01*
X142685892Y-110739500D01*
X142554108Y-110739500D01*
X142426812Y-110773608D01*
X142312686Y-110839500D01*
X142312683Y-110839502D01*
X142219502Y-110932683D01*
X142219500Y-110932686D01*
X142153608Y-111046812D01*
X142142170Y-111089500D01*
X142119500Y-111174108D01*
X140810654Y-111174108D01*
X140780250Y-111156554D01*
X140723187Y-111123608D01*
X140659539Y-111106554D01*
X140595892Y-111089500D01*
X140464108Y-111089500D01*
X140336812Y-111123608D01*
X140222686Y-111189500D01*
X140222683Y-111189502D01*
X140129502Y-111282683D01*
X140129500Y-111282686D01*
X140063608Y-111396812D01*
X140037920Y-111492683D01*
X140029500Y-111524108D01*
X137967509Y-111524108D01*
X137920500Y-111442686D01*
X137827314Y-111349500D01*
X137751783Y-111305892D01*
X137713187Y-111283608D01*
X137649539Y-111266554D01*
X137585892Y-111249500D01*
X137454108Y-111249500D01*
X137326812Y-111283608D01*
X137212686Y-111349500D01*
X137212683Y-111349502D01*
X137119502Y-111442683D01*
X137119500Y-111442686D01*
X137053608Y-111556812D01*
X137019500Y-111684108D01*
X125741211Y-111684108D01*
X124391211Y-110334108D01*
X135319500Y-110334108D01*
X135319500Y-110465891D01*
X135353608Y-110593187D01*
X135386554Y-110650250D01*
X135419500Y-110707314D01*
X135512686Y-110800500D01*
X135626814Y-110866392D01*
X135754108Y-110900500D01*
X135754110Y-110900500D01*
X135885890Y-110900500D01*
X135885892Y-110900500D01*
X136013186Y-110866392D01*
X136127314Y-110800500D01*
X136220500Y-110707314D01*
X136286392Y-110593186D01*
X136320500Y-110465892D01*
X136320500Y-110334108D01*
X136286392Y-110206814D01*
X136220500Y-110092686D01*
X136127314Y-109999500D01*
X136079371Y-109971820D01*
X136031156Y-109921252D01*
X136017934Y-109852645D01*
X136043902Y-109787780D01*
X136079368Y-109757049D01*
X136177314Y-109700500D01*
X136270500Y-109607314D01*
X136336392Y-109493186D01*
X136370500Y-109365892D01*
X136370500Y-109234108D01*
X136336392Y-109106814D01*
X136270500Y-108992686D01*
X136177314Y-108899500D01*
X136120250Y-108866554D01*
X136063187Y-108833608D01*
X135999539Y-108816554D01*
X135935892Y-108799500D01*
X135804108Y-108799500D01*
X135676812Y-108833608D01*
X135562686Y-108899500D01*
X135562683Y-108899502D01*
X135469502Y-108992683D01*
X135469500Y-108992686D01*
X135403608Y-109106812D01*
X135391902Y-109150500D01*
X135369500Y-109234108D01*
X135369500Y-109365892D01*
X135385261Y-109424715D01*
X135403608Y-109493187D01*
X135436554Y-109550250D01*
X135469500Y-109607314D01*
X135562686Y-109700500D01*
X135601167Y-109722717D01*
X135610627Y-109728179D01*
X135658843Y-109778746D01*
X135672065Y-109847353D01*
X135646097Y-109912218D01*
X135610628Y-109942953D01*
X135512686Y-109999500D01*
X135512683Y-109999502D01*
X135419502Y-110092683D01*
X135419500Y-110092686D01*
X135353608Y-110206812D01*
X135319500Y-110334108D01*
X124391211Y-110334108D01*
X123481819Y-109424716D01*
X123448334Y-109363393D01*
X123445500Y-109337035D01*
X123445500Y-108584108D01*
X173869500Y-108584108D01*
X173869500Y-108715891D01*
X173903608Y-108843187D01*
X173936121Y-108899500D01*
X173969500Y-108957314D01*
X174062686Y-109050500D01*
X174176814Y-109116392D01*
X174304108Y-109150500D01*
X174304110Y-109150500D01*
X174435890Y-109150500D01*
X174435892Y-109150500D01*
X174563186Y-109116392D01*
X174677314Y-109050500D01*
X174770500Y-108957314D01*
X174836392Y-108843186D01*
X174870500Y-108715892D01*
X174870500Y-108584108D01*
X174836392Y-108456814D01*
X174770500Y-108342686D01*
X174677314Y-108249500D01*
X174620250Y-108216554D01*
X174563187Y-108183608D01*
X174499539Y-108166554D01*
X174435892Y-108149500D01*
X174304108Y-108149500D01*
X174176812Y-108183608D01*
X174062686Y-108249500D01*
X174062683Y-108249502D01*
X173969502Y-108342683D01*
X173969500Y-108342686D01*
X173903608Y-108456812D01*
X173869500Y-108584108D01*
X123445500Y-108584108D01*
X123445500Y-107894108D01*
X133709500Y-107894108D01*
X133709500Y-108025891D01*
X133743608Y-108153187D01*
X133761172Y-108183608D01*
X133809500Y-108267314D01*
X133902686Y-108360500D01*
X134016814Y-108426392D01*
X134144108Y-108460500D01*
X134144110Y-108460500D01*
X134275890Y-108460500D01*
X134275892Y-108460500D01*
X134403186Y-108426392D01*
X134517314Y-108360500D01*
X134610500Y-108267314D01*
X134676392Y-108153186D01*
X134710500Y-108025892D01*
X134710500Y-107894108D01*
X134676392Y-107766814D01*
X134610500Y-107652686D01*
X134517314Y-107559500D01*
X134460250Y-107526554D01*
X134403187Y-107493608D01*
X134339539Y-107476554D01*
X134275892Y-107459500D01*
X134144108Y-107459500D01*
X134016812Y-107493608D01*
X133902686Y-107559500D01*
X133902683Y-107559502D01*
X133809502Y-107652683D01*
X133809500Y-107652686D01*
X133743608Y-107766812D01*
X133709500Y-107894108D01*
X123445500Y-107894108D01*
X123445500Y-106584108D01*
X173869500Y-106584108D01*
X173869500Y-106715891D01*
X173903608Y-106843187D01*
X173936554Y-106900250D01*
X173969500Y-106957314D01*
X174062686Y-107050500D01*
X174176814Y-107116392D01*
X174304108Y-107150500D01*
X174304110Y-107150500D01*
X174435890Y-107150500D01*
X174435892Y-107150500D01*
X174563186Y-107116392D01*
X174677314Y-107050500D01*
X174770500Y-106957314D01*
X174836392Y-106843186D01*
X174870500Y-106715892D01*
X174870500Y-106584108D01*
X174836392Y-106456814D01*
X174770500Y-106342686D01*
X174677314Y-106249500D01*
X174586929Y-106197316D01*
X174563187Y-106183608D01*
X174499539Y-106166554D01*
X174435892Y-106149500D01*
X174304108Y-106149500D01*
X174176812Y-106183608D01*
X174062686Y-106249500D01*
X174062683Y-106249502D01*
X173969502Y-106342683D01*
X173969500Y-106342686D01*
X173903608Y-106456812D01*
X173869500Y-106584108D01*
X123445500Y-106584108D01*
X123445500Y-105014108D01*
X133689500Y-105014108D01*
X133689500Y-105145892D01*
X133690735Y-105150500D01*
X133723608Y-105273187D01*
X133747585Y-105314715D01*
X133789500Y-105387314D01*
X133882686Y-105480500D01*
X133996814Y-105546392D01*
X134032944Y-105556073D01*
X134092604Y-105592436D01*
X134123134Y-105655282D01*
X134120626Y-105707939D01*
X134089500Y-105824106D01*
X134089500Y-105955891D01*
X134123608Y-106083187D01*
X134156554Y-106140250D01*
X134189500Y-106197314D01*
X134282686Y-106290500D01*
X134396814Y-106356392D01*
X134524108Y-106390500D01*
X134524110Y-106390500D01*
X134655890Y-106390500D01*
X134655892Y-106390500D01*
X134783186Y-106356392D01*
X134897314Y-106290500D01*
X134990500Y-106197314D01*
X135056392Y-106083186D01*
X135090500Y-105955892D01*
X135090500Y-105824108D01*
X135056392Y-105696814D01*
X134990500Y-105582686D01*
X134897314Y-105489500D01*
X134783186Y-105423608D01*
X134747052Y-105413926D01*
X134687394Y-105377562D01*
X134656865Y-105314715D01*
X134659373Y-105262059D01*
X134690500Y-105145892D01*
X134690500Y-105014108D01*
X134674558Y-104954611D01*
X134676221Y-104884765D01*
X134715383Y-104826902D01*
X134779611Y-104799398D01*
X134848514Y-104810984D01*
X134856333Y-104815134D01*
X134901810Y-104841390D01*
X134901811Y-104841390D01*
X134901814Y-104841392D01*
X135029108Y-104875500D01*
X135029110Y-104875500D01*
X135160890Y-104875500D01*
X135160892Y-104875500D01*
X135288186Y-104841392D01*
X135402314Y-104775500D01*
X135495500Y-104682314D01*
X135552199Y-104584108D01*
X173869500Y-104584108D01*
X173869500Y-104715892D01*
X173885472Y-104775500D01*
X173903608Y-104843187D01*
X173928797Y-104886814D01*
X173969500Y-104957314D01*
X174062686Y-105050500D01*
X174176814Y-105116392D01*
X174304108Y-105150500D01*
X174304110Y-105150500D01*
X174435890Y-105150500D01*
X174435892Y-105150500D01*
X174563186Y-105116392D01*
X174677314Y-105050500D01*
X174770500Y-104957314D01*
X174836392Y-104843186D01*
X174870500Y-104715892D01*
X174870500Y-104584108D01*
X174836392Y-104456814D01*
X174770500Y-104342686D01*
X174677314Y-104249500D01*
X174598693Y-104204108D01*
X174563187Y-104183608D01*
X174457493Y-104155288D01*
X174435892Y-104149500D01*
X174304108Y-104149500D01*
X174176812Y-104183608D01*
X174062686Y-104249500D01*
X174062683Y-104249502D01*
X173969502Y-104342683D01*
X173969500Y-104342686D01*
X173903608Y-104456812D01*
X173896926Y-104481750D01*
X173869500Y-104584108D01*
X135552199Y-104584108D01*
X135561392Y-104568186D01*
X135595500Y-104440892D01*
X135595500Y-104309108D01*
X135561392Y-104181814D01*
X135546075Y-104155285D01*
X135511826Y-104095964D01*
X135495352Y-104028064D01*
X135518204Y-103962037D01*
X135531527Y-103946286D01*
X135545500Y-103932314D01*
X135611392Y-103818186D01*
X135645500Y-103690892D01*
X135645500Y-103559108D01*
X135611392Y-103431814D01*
X135545500Y-103317686D01*
X135452314Y-103224500D01*
X135395250Y-103191554D01*
X135338187Y-103158608D01*
X135307926Y-103150500D01*
X135210892Y-103124500D01*
X135079108Y-103124500D01*
X134951812Y-103158608D01*
X134837686Y-103224500D01*
X134837683Y-103224502D01*
X134744502Y-103317683D01*
X134744500Y-103317686D01*
X134678608Y-103431812D01*
X134644500Y-103559108D01*
X134644500Y-103699019D01*
X134642796Y-103699019D01*
X134633534Y-103758409D01*
X134587154Y-103810665D01*
X134519885Y-103829550D01*
X134459361Y-103812946D01*
X134443189Y-103803609D01*
X134443186Y-103803608D01*
X134315892Y-103769500D01*
X134184108Y-103769500D01*
X134056812Y-103803608D01*
X133942686Y-103869500D01*
X133942683Y-103869502D01*
X133849502Y-103962683D01*
X133849500Y-103962686D01*
X133783608Y-104076812D01*
X133764132Y-104149500D01*
X133749500Y-104204108D01*
X133749500Y-104335892D01*
X133781900Y-104456812D01*
X133783609Y-104463188D01*
X133783609Y-104463189D01*
X133851475Y-104580735D01*
X133867948Y-104648635D01*
X133845096Y-104714662D01*
X133831770Y-104730415D01*
X133789503Y-104772682D01*
X133789500Y-104772686D01*
X133723608Y-104886812D01*
X133705441Y-104954615D01*
X133689500Y-105014108D01*
X123445500Y-105014108D01*
X123445500Y-103034108D01*
X150619500Y-103034108D01*
X150619500Y-103165891D01*
X150653608Y-103293187D01*
X150686554Y-103350250D01*
X150719500Y-103407314D01*
X150812686Y-103500500D01*
X150926814Y-103566392D01*
X151054108Y-103600500D01*
X151054110Y-103600500D01*
X151185890Y-103600500D01*
X151185892Y-103600500D01*
X151313186Y-103566392D01*
X151427314Y-103500500D01*
X151520500Y-103407314D01*
X151586392Y-103293186D01*
X151620500Y-103165892D01*
X151620500Y-103034108D01*
X151620500Y-103025981D01*
X151623599Y-103025981D01*
X151632089Y-102971451D01*
X151678457Y-102919184D01*
X151745722Y-102900283D01*
X151748754Y-102900500D01*
X151754108Y-102900500D01*
X151885890Y-102900500D01*
X151885892Y-102900500D01*
X152013186Y-102866392D01*
X152127314Y-102800500D01*
X152220500Y-102707314D01*
X152286392Y-102593186D01*
X152288824Y-102584108D01*
X173869500Y-102584108D01*
X173869500Y-102715891D01*
X173903608Y-102843187D01*
X173917005Y-102866391D01*
X173969500Y-102957314D01*
X174062686Y-103050500D01*
X174176814Y-103116392D01*
X174304108Y-103150500D01*
X174304110Y-103150500D01*
X174435890Y-103150500D01*
X174435892Y-103150500D01*
X174563186Y-103116392D01*
X174677314Y-103050500D01*
X174770500Y-102957314D01*
X174836392Y-102843186D01*
X174870500Y-102715892D01*
X174870500Y-102584108D01*
X174836392Y-102456814D01*
X174770500Y-102342686D01*
X174677314Y-102249500D01*
X174603380Y-102206814D01*
X174563187Y-102183608D01*
X174499539Y-102166554D01*
X174435892Y-102149500D01*
X174304108Y-102149500D01*
X174176812Y-102183608D01*
X174062686Y-102249500D01*
X174062683Y-102249502D01*
X173969502Y-102342683D01*
X173969500Y-102342686D01*
X173903608Y-102456812D01*
X173869500Y-102584108D01*
X152288824Y-102584108D01*
X152320500Y-102465892D01*
X152320500Y-102334108D01*
X152286392Y-102206814D01*
X152220500Y-102092686D01*
X152127314Y-101999500D01*
X152070250Y-101966554D01*
X152013187Y-101933608D01*
X151949539Y-101916554D01*
X151885892Y-101899500D01*
X151754108Y-101899500D01*
X151626812Y-101933608D01*
X151512686Y-101999500D01*
X151512683Y-101999502D01*
X151419502Y-102092683D01*
X151419500Y-102092686D01*
X151353608Y-102206812D01*
X151319500Y-102334108D01*
X151319500Y-102474019D01*
X151316411Y-102474019D01*
X151307883Y-102528604D01*
X151261489Y-102580848D01*
X151194215Y-102599715D01*
X151191208Y-102599500D01*
X151185892Y-102599500D01*
X151054108Y-102599500D01*
X150926812Y-102633608D01*
X150812686Y-102699500D01*
X150812683Y-102699502D01*
X150719502Y-102792683D01*
X150719500Y-102792686D01*
X150653608Y-102906812D01*
X150619500Y-103034108D01*
X123445500Y-103034108D01*
X123445500Y-100584108D01*
X173869500Y-100584108D01*
X173869500Y-100715891D01*
X173903608Y-100843187D01*
X173936554Y-100900250D01*
X173969500Y-100957314D01*
X174062686Y-101050500D01*
X174176814Y-101116392D01*
X174304108Y-101150500D01*
X174304110Y-101150500D01*
X174435890Y-101150500D01*
X174435892Y-101150500D01*
X174563186Y-101116392D01*
X174677314Y-101050500D01*
X174770500Y-100957314D01*
X174836392Y-100843186D01*
X174870500Y-100715892D01*
X174870500Y-100584108D01*
X174836392Y-100456814D01*
X174770500Y-100342686D01*
X174677314Y-100249500D01*
X174605093Y-100207803D01*
X174563187Y-100183608D01*
X174499539Y-100166554D01*
X174435892Y-100149500D01*
X174304108Y-100149500D01*
X174176812Y-100183608D01*
X174062686Y-100249500D01*
X174062683Y-100249502D01*
X173969502Y-100342683D01*
X173969500Y-100342686D01*
X173903608Y-100456812D01*
X173869500Y-100584108D01*
X123445500Y-100584108D01*
X123445500Y-98584108D01*
X173869500Y-98584108D01*
X173869500Y-98715892D01*
X173873749Y-98731749D01*
X173903608Y-98843187D01*
X173936554Y-98900250D01*
X173969500Y-98957314D01*
X174062686Y-99050500D01*
X174176814Y-99116392D01*
X174304108Y-99150500D01*
X174304110Y-99150500D01*
X174435890Y-99150500D01*
X174435892Y-99150500D01*
X174563186Y-99116392D01*
X174677314Y-99050500D01*
X174770500Y-98957314D01*
X174836392Y-98843186D01*
X174870500Y-98715892D01*
X174870500Y-98584108D01*
X174836392Y-98456814D01*
X174770500Y-98342686D01*
X174677314Y-98249500D01*
X174620250Y-98216554D01*
X174563187Y-98183608D01*
X174486969Y-98163186D01*
X174435892Y-98149500D01*
X174304108Y-98149500D01*
X174176812Y-98183608D01*
X174062686Y-98249500D01*
X174062683Y-98249502D01*
X173969502Y-98342683D01*
X173969500Y-98342686D01*
X173903608Y-98456812D01*
X173890267Y-98506603D01*
X173869500Y-98584108D01*
X123445500Y-98584108D01*
X123445500Y-98557965D01*
X123465185Y-98490926D01*
X123481819Y-98470284D01*
X124542995Y-97409108D01*
X127794500Y-97409108D01*
X127794500Y-97540892D01*
X127802166Y-97569502D01*
X127828608Y-97668187D01*
X127861554Y-97725250D01*
X127894500Y-97782314D01*
X127987686Y-97875500D01*
X128101814Y-97941392D01*
X128229108Y-97975500D01*
X128229110Y-97975500D01*
X128360890Y-97975500D01*
X128360892Y-97975500D01*
X128488186Y-97941392D01*
X128602314Y-97875500D01*
X128695500Y-97782314D01*
X128737766Y-97709108D01*
X143494500Y-97709108D01*
X143494500Y-97840891D01*
X143528608Y-97968187D01*
X143553036Y-98010497D01*
X143594500Y-98082314D01*
X143687686Y-98175500D01*
X143801814Y-98241392D01*
X143929108Y-98275500D01*
X143929110Y-98275500D01*
X144060890Y-98275500D01*
X144060892Y-98275500D01*
X144188186Y-98241392D01*
X144302314Y-98175500D01*
X144395500Y-98082314D01*
X144461392Y-97968186D01*
X144495500Y-97840892D01*
X144495500Y-97709108D01*
X144461392Y-97581814D01*
X144439622Y-97544108D01*
X146009500Y-97544108D01*
X146009500Y-97675891D01*
X146043608Y-97803187D01*
X146076554Y-97860250D01*
X146109500Y-97917314D01*
X146202686Y-98010500D01*
X146316814Y-98076392D01*
X146444108Y-98110500D01*
X146444110Y-98110500D01*
X146575890Y-98110500D01*
X146575892Y-98110500D01*
X146703186Y-98076392D01*
X146817314Y-98010500D01*
X146910500Y-97917314D01*
X146918125Y-97904108D01*
X147249500Y-97904108D01*
X147249500Y-98035891D01*
X147283608Y-98163187D01*
X147316554Y-98220250D01*
X147349500Y-98277314D01*
X147442686Y-98370500D01*
X147556814Y-98436392D01*
X147684108Y-98470500D01*
X147684110Y-98470500D01*
X147815890Y-98470500D01*
X147815892Y-98470500D01*
X147943186Y-98436392D01*
X148057314Y-98370500D01*
X148150500Y-98277314D01*
X148216392Y-98163186D01*
X148250500Y-98035892D01*
X148250500Y-97904108D01*
X148216392Y-97776814D01*
X148150500Y-97662686D01*
X148057314Y-97569500D01*
X148000250Y-97536554D01*
X147943187Y-97503608D01*
X147879539Y-97486554D01*
X147815892Y-97469500D01*
X147684108Y-97469500D01*
X147556812Y-97503608D01*
X147442686Y-97569500D01*
X147442683Y-97569502D01*
X147349502Y-97662683D01*
X147349500Y-97662686D01*
X147283608Y-97776812D01*
X147249500Y-97904108D01*
X146918125Y-97904108D01*
X146976392Y-97803186D01*
X147010500Y-97675892D01*
X147010500Y-97544108D01*
X146976392Y-97416814D01*
X146910500Y-97302686D01*
X146817314Y-97209500D01*
X146744885Y-97167683D01*
X146703187Y-97143608D01*
X146639539Y-97126554D01*
X146575892Y-97109500D01*
X146444108Y-97109500D01*
X146316812Y-97143608D01*
X146202686Y-97209500D01*
X146202683Y-97209502D01*
X146109502Y-97302683D01*
X146109500Y-97302686D01*
X146043608Y-97416812D01*
X146009500Y-97544108D01*
X144439622Y-97544108D01*
X144395500Y-97467686D01*
X144302314Y-97374500D01*
X144245250Y-97341554D01*
X144188187Y-97308608D01*
X144088188Y-97281814D01*
X144060892Y-97274500D01*
X143929108Y-97274500D01*
X143801812Y-97308608D01*
X143687686Y-97374500D01*
X143687683Y-97374502D01*
X143594502Y-97467683D01*
X143594500Y-97467686D01*
X143528608Y-97581812D01*
X143494500Y-97709108D01*
X128737766Y-97709108D01*
X128761392Y-97668186D01*
X128795500Y-97540892D01*
X128795500Y-97409108D01*
X128761392Y-97281814D01*
X128695500Y-97167686D01*
X128602314Y-97074500D01*
X128545250Y-97041554D01*
X128488187Y-97008608D01*
X128424539Y-96991554D01*
X128360892Y-96974500D01*
X128229108Y-96974500D01*
X128101812Y-97008608D01*
X127987686Y-97074500D01*
X127987683Y-97074502D01*
X127894502Y-97167683D01*
X127894500Y-97167686D01*
X127828608Y-97281812D01*
X127794500Y-97409108D01*
X124542995Y-97409108D01*
X124638803Y-97313300D01*
X124877602Y-97074502D01*
X126215285Y-95736819D01*
X126276608Y-95703334D01*
X126302966Y-95700500D01*
X128420495Y-95700500D01*
X128487534Y-95720185D01*
X128533289Y-95772989D01*
X128543233Y-95842147D01*
X128540270Y-95856593D01*
X128519500Y-95934108D01*
X128519500Y-96065891D01*
X128553608Y-96193187D01*
X128564243Y-96211607D01*
X128619500Y-96307314D01*
X128712686Y-96400500D01*
X128826814Y-96466392D01*
X128954108Y-96500500D01*
X128954110Y-96500500D01*
X129085890Y-96500500D01*
X129085892Y-96500500D01*
X129213186Y-96466392D01*
X129327314Y-96400500D01*
X129420500Y-96307314D01*
X129486392Y-96193186D01*
X129520500Y-96065892D01*
X129520500Y-95934108D01*
X129499730Y-95856592D01*
X129501393Y-95786743D01*
X129540556Y-95728881D01*
X129604784Y-95701377D01*
X129619505Y-95700500D01*
X134184140Y-95700500D01*
X134251179Y-95720185D01*
X134282515Y-95749012D01*
X134284513Y-95751616D01*
X134683181Y-96150284D01*
X134716666Y-96211607D01*
X134719500Y-96237965D01*
X134719500Y-96264069D01*
X134719500Y-96264071D01*
X134719499Y-96264071D01*
X134744497Y-96389738D01*
X134744499Y-96389744D01*
X134793533Y-96508124D01*
X134793538Y-96508133D01*
X134864723Y-96614668D01*
X134864726Y-96614672D01*
X134955327Y-96705273D01*
X134955331Y-96705276D01*
X135061866Y-96776461D01*
X135061872Y-96776464D01*
X135061873Y-96776465D01*
X135180256Y-96825501D01*
X135180260Y-96825501D01*
X135180261Y-96825502D01*
X135305928Y-96850500D01*
X135305931Y-96850500D01*
X135434071Y-96850500D01*
X135518615Y-96833682D01*
X135559744Y-96825501D01*
X135678127Y-96776465D01*
X135784669Y-96705276D01*
X135875276Y-96614669D01*
X135895696Y-96584108D01*
X173869500Y-96584108D01*
X173869500Y-96715891D01*
X173903608Y-96843187D01*
X173936554Y-96900250D01*
X173969500Y-96957314D01*
X174062686Y-97050500D01*
X174176814Y-97116392D01*
X174304108Y-97150500D01*
X174304110Y-97150500D01*
X174435890Y-97150500D01*
X174435892Y-97150500D01*
X174563186Y-97116392D01*
X174677314Y-97050500D01*
X174770500Y-96957314D01*
X174836392Y-96843186D01*
X174870500Y-96715892D01*
X174870500Y-96584108D01*
X174836392Y-96456814D01*
X174770500Y-96342686D01*
X174677314Y-96249500D01*
X174611682Y-96211607D01*
X174563187Y-96183608D01*
X174499539Y-96166554D01*
X174435892Y-96149500D01*
X174304108Y-96149500D01*
X174176812Y-96183608D01*
X174062686Y-96249500D01*
X174062683Y-96249502D01*
X173969502Y-96342683D01*
X173969500Y-96342686D01*
X173903608Y-96456812D01*
X173869500Y-96584108D01*
X135895696Y-96584108D01*
X135946465Y-96508127D01*
X135995501Y-96389744D01*
X136004862Y-96342683D01*
X136020500Y-96264071D01*
X136020500Y-96135928D01*
X135995502Y-96010261D01*
X135995501Y-96010260D01*
X135995501Y-96010256D01*
X135955783Y-95914370D01*
X135946468Y-95891879D01*
X135946461Y-95891866D01*
X135941277Y-95884108D01*
X142194500Y-95884108D01*
X142194500Y-96015891D01*
X142228608Y-96143187D01*
X142232253Y-96149500D01*
X142294500Y-96257314D01*
X142387686Y-96350500D01*
X142501814Y-96416392D01*
X142629108Y-96450500D01*
X142629110Y-96450500D01*
X142760890Y-96450500D01*
X142760892Y-96450500D01*
X142888186Y-96416392D01*
X143002314Y-96350500D01*
X143095500Y-96257314D01*
X143161392Y-96143186D01*
X143195500Y-96015892D01*
X143195500Y-95884108D01*
X143161392Y-95756814D01*
X143154547Y-95744959D01*
X143125544Y-95694724D01*
X143095500Y-95642686D01*
X143002314Y-95549500D01*
X142939408Y-95513181D01*
X142888187Y-95483608D01*
X142824539Y-95466554D01*
X142760892Y-95449500D01*
X142629108Y-95449500D01*
X142501812Y-95483608D01*
X142387686Y-95549500D01*
X142387683Y-95549502D01*
X142294502Y-95642683D01*
X142294500Y-95642686D01*
X142228608Y-95756812D01*
X142194500Y-95884108D01*
X135941277Y-95884108D01*
X135875276Y-95785331D01*
X135875273Y-95785327D01*
X135784672Y-95694726D01*
X135784668Y-95694723D01*
X135678133Y-95623538D01*
X135678124Y-95623533D01*
X135559744Y-95574499D01*
X135559738Y-95574497D01*
X135434071Y-95549500D01*
X135434069Y-95549500D01*
X135407966Y-95549500D01*
X135340927Y-95529815D01*
X135320285Y-95513181D01*
X135257284Y-95450180D01*
X135223799Y-95388857D01*
X135228783Y-95319165D01*
X135257284Y-95274818D01*
X138570284Y-91961819D01*
X138631607Y-91928334D01*
X138657965Y-91925500D01*
X140274192Y-91925500D01*
X140341231Y-91945185D01*
X140361873Y-91961819D01*
X140380327Y-91980273D01*
X140380331Y-91980276D01*
X140486866Y-92051461D01*
X140486872Y-92051464D01*
X140486873Y-92051465D01*
X140605256Y-92100501D01*
X140605260Y-92100501D01*
X140605261Y-92100502D01*
X140730928Y-92125500D01*
X140730931Y-92125500D01*
X140859071Y-92125500D01*
X140943615Y-92108682D01*
X140984744Y-92100501D01*
X141103127Y-92051465D01*
X141209669Y-91980276D01*
X141300276Y-91889669D01*
X141371465Y-91783127D01*
X141420501Y-91664744D01*
X141445500Y-91539069D01*
X141445500Y-91410931D01*
X141445500Y-91410928D01*
X141420502Y-91285261D01*
X141420501Y-91285260D01*
X141420501Y-91285256D01*
X141371465Y-91166873D01*
X141371464Y-91166872D01*
X141371461Y-91166866D01*
X141300276Y-91060331D01*
X141300273Y-91060327D01*
X141209672Y-90969726D01*
X141209668Y-90969723D01*
X141103133Y-90898538D01*
X141103124Y-90898533D01*
X140984744Y-90849499D01*
X140984738Y-90849497D01*
X140859071Y-90824500D01*
X140859069Y-90824500D01*
X140730931Y-90824500D01*
X140730929Y-90824500D01*
X140605261Y-90849497D01*
X140605255Y-90849499D01*
X140486875Y-90898533D01*
X140486866Y-90898538D01*
X140380331Y-90969723D01*
X140380327Y-90969726D01*
X140361873Y-90988181D01*
X140300550Y-91021666D01*
X140274192Y-91024500D01*
X138994500Y-91024500D01*
X138927461Y-91004815D01*
X138881706Y-90952011D01*
X138870500Y-90900500D01*
X138870500Y-88724108D01*
X147179500Y-88724108D01*
X147179500Y-88855892D01*
X147196554Y-88919539D01*
X147213608Y-88983187D01*
X147246554Y-89040250D01*
X147279500Y-89097314D01*
X147372686Y-89190500D01*
X147486814Y-89256392D01*
X147614108Y-89290500D01*
X147614110Y-89290500D01*
X147745890Y-89290500D01*
X147745892Y-89290500D01*
X147873186Y-89256392D01*
X147987314Y-89190500D01*
X148080500Y-89097314D01*
X148146392Y-88983186D01*
X148180500Y-88855892D01*
X148180500Y-88724108D01*
X148146392Y-88596814D01*
X148080500Y-88482686D01*
X147987314Y-88389500D01*
X147927032Y-88354696D01*
X147873187Y-88323608D01*
X147809539Y-88306554D01*
X147745892Y-88289500D01*
X147614108Y-88289500D01*
X147486812Y-88323608D01*
X147372686Y-88389500D01*
X147372683Y-88389502D01*
X147279502Y-88482683D01*
X147279500Y-88482686D01*
X147213608Y-88596812D01*
X147187955Y-88692554D01*
X147179500Y-88724108D01*
X138870500Y-88724108D01*
X138870500Y-85965692D01*
X138869043Y-85960256D01*
X138846286Y-85875326D01*
X138846286Y-85875325D01*
X138846286Y-85875324D01*
X138843042Y-85863219D01*
X138839799Y-85851113D01*
X138780490Y-85748386D01*
X137231819Y-84199715D01*
X137198334Y-84138392D01*
X137195500Y-84112034D01*
X137195500Y-83134600D01*
X137215185Y-83067561D01*
X137216359Y-83065768D01*
X137221465Y-83058127D01*
X137270501Y-82939744D01*
X137278682Y-82898615D01*
X137295500Y-82814071D01*
X137295500Y-82685928D01*
X137295138Y-82684108D01*
X142169500Y-82684108D01*
X142169500Y-82815891D01*
X142203608Y-82943187D01*
X142236554Y-83000250D01*
X142269500Y-83057314D01*
X142362686Y-83150500D01*
X142476814Y-83216392D01*
X142604108Y-83250500D01*
X142604110Y-83250500D01*
X142735890Y-83250500D01*
X142735892Y-83250500D01*
X142863186Y-83216392D01*
X142977314Y-83150500D01*
X143070500Y-83057314D01*
X143136392Y-82943186D01*
X143170500Y-82815892D01*
X143170500Y-82684108D01*
X143136392Y-82556814D01*
X143070500Y-82442686D01*
X142977314Y-82349500D01*
X142920250Y-82316554D01*
X142863187Y-82283608D01*
X142799539Y-82266554D01*
X142735892Y-82249500D01*
X142604108Y-82249500D01*
X142476812Y-82283608D01*
X142362686Y-82349500D01*
X142362683Y-82349502D01*
X142269502Y-82442683D01*
X142269500Y-82442686D01*
X142203608Y-82556812D01*
X142169500Y-82684108D01*
X137295138Y-82684108D01*
X137270502Y-82560261D01*
X137270501Y-82560260D01*
X137270501Y-82560256D01*
X137221465Y-82441873D01*
X137221464Y-82441872D01*
X137221461Y-82441866D01*
X137150276Y-82335331D01*
X137150273Y-82335327D01*
X137059672Y-82244726D01*
X137059668Y-82244723D01*
X136953133Y-82173538D01*
X136953124Y-82173533D01*
X136834744Y-82124499D01*
X136834738Y-82124497D01*
X136709071Y-82099500D01*
X136709069Y-82099500D01*
X136580931Y-82099500D01*
X136580929Y-82099500D01*
X136455261Y-82124497D01*
X136455255Y-82124499D01*
X136336875Y-82173533D01*
X136336866Y-82173538D01*
X136230331Y-82244723D01*
X136230327Y-82244726D01*
X136139726Y-82335327D01*
X136139723Y-82335331D01*
X136068538Y-82441866D01*
X136068533Y-82441875D01*
X136019499Y-82560255D01*
X136019497Y-82560261D01*
X135994500Y-82685928D01*
X135994500Y-82685931D01*
X135994500Y-82814069D01*
X135994500Y-82814071D01*
X135994499Y-82814071D01*
X136019497Y-82939738D01*
X136019499Y-82939744D01*
X136068533Y-83058124D01*
X136068538Y-83058133D01*
X136139723Y-83164668D01*
X136139726Y-83164672D01*
X136230325Y-83255271D01*
X136230328Y-83255273D01*
X136230331Y-83255276D01*
X136239388Y-83261327D01*
X136284193Y-83314935D01*
X136294500Y-83364431D01*
X136294500Y-84409308D01*
X136318712Y-84499672D01*
X136325200Y-84523885D01*
X136325200Y-84523886D01*
X136325201Y-84523887D01*
X136384511Y-84626614D01*
X136384513Y-84626616D01*
X137933181Y-86175284D01*
X137966666Y-86236607D01*
X137969500Y-86262965D01*
X137969500Y-91237035D01*
X137949815Y-91304074D01*
X137933181Y-91324716D01*
X134494716Y-94763181D01*
X134433393Y-94796666D01*
X134407035Y-94799500D01*
X132650683Y-94799500D01*
X132583644Y-94779815D01*
X132537889Y-94727011D01*
X132527945Y-94657853D01*
X132556970Y-94594297D01*
X132575198Y-94577123D01*
X132577306Y-94575504D01*
X132577314Y-94575500D01*
X132670500Y-94482314D01*
X132736392Y-94368186D01*
X132770500Y-94240892D01*
X132770500Y-94109108D01*
X132736392Y-93981814D01*
X132670500Y-93867686D01*
X132611922Y-93809108D01*
X132969500Y-93809108D01*
X132969500Y-93940892D01*
X133003608Y-94068186D01*
X133069500Y-94182314D01*
X133162686Y-94275500D01*
X133276814Y-94341392D01*
X133404108Y-94375500D01*
X133404110Y-94375500D01*
X133535890Y-94375500D01*
X133535892Y-94375500D01*
X133663186Y-94341392D01*
X133777314Y-94275500D01*
X133870500Y-94182314D01*
X133936392Y-94068186D01*
X133970500Y-93940892D01*
X133970500Y-93809108D01*
X133936392Y-93681814D01*
X133870500Y-93567686D01*
X133777314Y-93474500D01*
X133720250Y-93441554D01*
X133663187Y-93408608D01*
X133599539Y-93391554D01*
X133535892Y-93374500D01*
X133404108Y-93374500D01*
X133276812Y-93408608D01*
X133162686Y-93474500D01*
X133162683Y-93474502D01*
X133069502Y-93567683D01*
X133069500Y-93567686D01*
X133003608Y-93681812D01*
X132969500Y-93809108D01*
X132611922Y-93809108D01*
X132577314Y-93774500D01*
X132520250Y-93741554D01*
X132463187Y-93708608D01*
X132363188Y-93681814D01*
X132335892Y-93674500D01*
X132204108Y-93674500D01*
X132076812Y-93708608D01*
X131962686Y-93774500D01*
X131962683Y-93774502D01*
X131869502Y-93867683D01*
X131869500Y-93867686D01*
X131803608Y-93981812D01*
X131769500Y-94109108D01*
X131769500Y-94240891D01*
X131803608Y-94368187D01*
X131836554Y-94425250D01*
X131869500Y-94482314D01*
X131962686Y-94575500D01*
X131962689Y-94575502D01*
X131964802Y-94577123D01*
X131966136Y-94578950D01*
X131968433Y-94581247D01*
X131968074Y-94581605D01*
X132006006Y-94633551D01*
X132010161Y-94703297D01*
X131975950Y-94764217D01*
X131914233Y-94796971D01*
X131889317Y-94799500D01*
X126005691Y-94799500D01*
X125919758Y-94822525D01*
X125891113Y-94830201D01*
X125788386Y-94889509D01*
X125788384Y-94889511D01*
X123657181Y-97020715D01*
X123595858Y-97054200D01*
X123526166Y-97049216D01*
X123470233Y-97007344D01*
X123445816Y-96941880D01*
X123445500Y-96933034D01*
X123445500Y-93084108D01*
X130944500Y-93084108D01*
X130944500Y-93215891D01*
X130978608Y-93343187D01*
X130996687Y-93374500D01*
X131044500Y-93457314D01*
X131137686Y-93550500D01*
X131251814Y-93616392D01*
X131379108Y-93650500D01*
X131379110Y-93650500D01*
X131510890Y-93650500D01*
X131510892Y-93650500D01*
X131638186Y-93616392D01*
X131752314Y-93550500D01*
X131845500Y-93457314D01*
X131911392Y-93343186D01*
X131945500Y-93215892D01*
X131945500Y-93084108D01*
X131911392Y-92956814D01*
X131845500Y-92842686D01*
X131752314Y-92749500D01*
X131695250Y-92716554D01*
X131638187Y-92683608D01*
X131574539Y-92666554D01*
X131510892Y-92649500D01*
X131379108Y-92649500D01*
X131251812Y-92683608D01*
X131137686Y-92749500D01*
X131137683Y-92749502D01*
X131044502Y-92842683D01*
X131044500Y-92842686D01*
X130978608Y-92956812D01*
X130944500Y-93084108D01*
X123445500Y-93084108D01*
X123445500Y-87140693D01*
X123445500Y-87140691D01*
X123414799Y-87026114D01*
X123414799Y-87026113D01*
X123355489Y-86923386D01*
X122706819Y-86274716D01*
X122673334Y-86213393D01*
X122670500Y-86187035D01*
X122670500Y-86085928D01*
X122645502Y-85960261D01*
X122645501Y-85960260D01*
X122645501Y-85960256D01*
X122596465Y-85841873D01*
X122596464Y-85841872D01*
X122596461Y-85841866D01*
X122525276Y-85735331D01*
X122525273Y-85735327D01*
X122434672Y-85644726D01*
X122434668Y-85644723D01*
X122328133Y-85573538D01*
X122328124Y-85573533D01*
X122209744Y-85524499D01*
X122209738Y-85524497D01*
X122084071Y-85499500D01*
X122084069Y-85499500D01*
X121955931Y-85499500D01*
X121955929Y-85499500D01*
X121830261Y-85524497D01*
X121830255Y-85524499D01*
X121711875Y-85573533D01*
X121711866Y-85573538D01*
X121605331Y-85644723D01*
X121605327Y-85644726D01*
X121514726Y-85735327D01*
X121514723Y-85735331D01*
X121443538Y-85841866D01*
X121443533Y-85841875D01*
X121394499Y-85960255D01*
X121394497Y-85960261D01*
X121369500Y-86085928D01*
X121369500Y-86085931D01*
X121369500Y-86214069D01*
X121369500Y-86214071D01*
X121369499Y-86214071D01*
X121394497Y-86339738D01*
X121394499Y-86339744D01*
X121443533Y-86458124D01*
X121443538Y-86458133D01*
X121514723Y-86564668D01*
X121514726Y-86564672D01*
X121605327Y-86655273D01*
X121605331Y-86655276D01*
X121711866Y-86726461D01*
X121711872Y-86726464D01*
X121711873Y-86726465D01*
X121830256Y-86775501D01*
X121890300Y-86787444D01*
X121922117Y-86793774D01*
X121984028Y-86826159D01*
X121985607Y-86827710D01*
X122508181Y-87350284D01*
X122541666Y-87411607D01*
X122544500Y-87437965D01*
X122544500Y-109337034D01*
X122524815Y-109404073D01*
X122508181Y-109424715D01*
X122164994Y-109767902D01*
X122103671Y-109801387D01*
X122033979Y-109796403D01*
X122008422Y-109783323D01*
X122003126Y-109779784D01*
X121884744Y-109730749D01*
X121884738Y-109730747D01*
X121759071Y-109705750D01*
X121759069Y-109705750D01*
X121630931Y-109705750D01*
X121630929Y-109705750D01*
X121505261Y-109730747D01*
X121505255Y-109730749D01*
X121386875Y-109779783D01*
X121386866Y-109779788D01*
X121280331Y-109850973D01*
X121280327Y-109850976D01*
X121189726Y-109941577D01*
X121189723Y-109941581D01*
X121118538Y-110048116D01*
X121118533Y-110048125D01*
X121069499Y-110166505D01*
X121069497Y-110166511D01*
X121044500Y-110292178D01*
X121044500Y-110292181D01*
X121044500Y-110420319D01*
X121044500Y-110420321D01*
X121044499Y-110420321D01*
X82526427Y-110420321D01*
X82474656Y-110239387D01*
X82383269Y-110064437D01*
X82284212Y-109942953D01*
X82258536Y-109911463D01*
X82105563Y-109786731D01*
X82066626Y-109766392D01*
X81930613Y-109695344D01*
X81930612Y-109695343D01*
X81930609Y-109695342D01*
X81788409Y-109654654D01*
X81740848Y-109641046D01*
X81740846Y-109641045D01*
X81740843Y-109641045D01*
X81670242Y-109634768D01*
X81625044Y-109630750D01*
X79552456Y-109630750D01*
X79518557Y-109633763D01*
X79436656Y-109641045D01*
X79436652Y-109641046D01*
X79246890Y-109695342D01*
X79071936Y-109786731D01*
X78918963Y-109911463D01*
X78794231Y-110064436D01*
X78702842Y-110239390D01*
X78648546Y-110429152D01*
X78648545Y-110429156D01*
X78638250Y-110544959D01*
X68670500Y-110544959D01*
X68670500Y-103492554D01*
X74688250Y-103492554D01*
X74688250Y-103669945D01*
X74722853Y-103843908D01*
X74722856Y-103843917D01*
X74790733Y-104007790D01*
X74790740Y-104007803D01*
X74889285Y-104155284D01*
X74889288Y-104155288D01*
X75014711Y-104280711D01*
X75014715Y-104280714D01*
X75162196Y-104379259D01*
X75162209Y-104379266D01*
X75285113Y-104430173D01*
X75326084Y-104447144D01*
X75326086Y-104447144D01*
X75326091Y-104447146D01*
X75500054Y-104481749D01*
X75500057Y-104481750D01*
X75500059Y-104481750D01*
X75677443Y-104481750D01*
X75677444Y-104481749D01*
X75770753Y-104463189D01*
X75851408Y-104447146D01*
X75851411Y-104447144D01*
X75851416Y-104447144D01*
X76015297Y-104379263D01*
X76162785Y-104280714D01*
X76288214Y-104155285D01*
X76386763Y-104007797D01*
X76454644Y-103843916D01*
X76460805Y-103812946D01*
X76483466Y-103699019D01*
X76489250Y-103669941D01*
X76489250Y-103492559D01*
X76489250Y-103492556D01*
X76489249Y-103492554D01*
X76454646Y-103318591D01*
X76454643Y-103318582D01*
X76386766Y-103154709D01*
X76386759Y-103154696D01*
X76288214Y-103007215D01*
X76288211Y-103007211D01*
X76162788Y-102881788D01*
X76162784Y-102881785D01*
X76015303Y-102783240D01*
X76015290Y-102783233D01*
X75851417Y-102715356D01*
X75851408Y-102715353D01*
X75677444Y-102680750D01*
X75677441Y-102680750D01*
X75500059Y-102680750D01*
X75500056Y-102680750D01*
X75326091Y-102715353D01*
X75326082Y-102715356D01*
X75162209Y-102783233D01*
X75162196Y-102783240D01*
X75014715Y-102881785D01*
X75014711Y-102881788D01*
X74889288Y-103007211D01*
X74889285Y-103007215D01*
X74790740Y-103154696D01*
X74790733Y-103154709D01*
X74722856Y-103318582D01*
X74722853Y-103318591D01*
X74688250Y-103492554D01*
X68670500Y-103492554D01*
X68670500Y-99692554D01*
X74688250Y-99692554D01*
X74688250Y-99869945D01*
X74722853Y-100043908D01*
X74722856Y-100043917D01*
X74790733Y-100207790D01*
X74790740Y-100207803D01*
X74889285Y-100355284D01*
X74889288Y-100355288D01*
X75014711Y-100480711D01*
X75014715Y-100480714D01*
X75162196Y-100579259D01*
X75162209Y-100579266D01*
X75285113Y-100630173D01*
X75326084Y-100647144D01*
X75326086Y-100647144D01*
X75326091Y-100647146D01*
X75500054Y-100681749D01*
X75500057Y-100681750D01*
X75500059Y-100681750D01*
X75677443Y-100681750D01*
X75677444Y-100681749D01*
X75735432Y-100670214D01*
X75851408Y-100647146D01*
X75851411Y-100647144D01*
X75851416Y-100647144D01*
X76015297Y-100579263D01*
X76162785Y-100480714D01*
X76288214Y-100355285D01*
X76386763Y-100207797D01*
X76454644Y-100043916D01*
X76489250Y-99869941D01*
X76489250Y-99692559D01*
X76489250Y-99692556D01*
X76489249Y-99692554D01*
X76454646Y-99518591D01*
X76454643Y-99518582D01*
X76386766Y-99354709D01*
X76386759Y-99354696D01*
X76288214Y-99207215D01*
X76288211Y-99207211D01*
X76162788Y-99081788D01*
X76162784Y-99081785D01*
X76015303Y-98983240D01*
X76015290Y-98983233D01*
X75851417Y-98915356D01*
X75851408Y-98915353D01*
X75677444Y-98880750D01*
X75677441Y-98880750D01*
X75500059Y-98880750D01*
X75500056Y-98880750D01*
X75326091Y-98915353D01*
X75326082Y-98915356D01*
X75162209Y-98983233D01*
X75162196Y-98983240D01*
X75014715Y-99081785D01*
X75014711Y-99081788D01*
X74889288Y-99207211D01*
X74889285Y-99207215D01*
X74790740Y-99354696D01*
X74790733Y-99354709D01*
X74722856Y-99518582D01*
X74722853Y-99518591D01*
X74688250Y-99692554D01*
X68670500Y-99692554D01*
X68670500Y-95744956D01*
X78638250Y-95744956D01*
X78638250Y-97817544D01*
X78640326Y-97840890D01*
X78648545Y-97933343D01*
X78648545Y-97933346D01*
X78648546Y-97933348D01*
X78650848Y-97941392D01*
X78702842Y-98123109D01*
X78794231Y-98298063D01*
X78918963Y-98451036D01*
X79043696Y-98552741D01*
X79071937Y-98575769D01*
X79246887Y-98667156D01*
X79436652Y-98721454D01*
X79552456Y-98731750D01*
X79552462Y-98731750D01*
X81625038Y-98731750D01*
X81625044Y-98731750D01*
X81740848Y-98721454D01*
X81930613Y-98667156D01*
X82105563Y-98575769D01*
X82258536Y-98451036D01*
X82383269Y-98298063D01*
X82474656Y-98123113D01*
X82528954Y-97933348D01*
X82539250Y-97817544D01*
X82539250Y-95744956D01*
X82528954Y-95629152D01*
X82474656Y-95439387D01*
X82383269Y-95264437D01*
X82360241Y-95236196D01*
X82258536Y-95111463D01*
X82105563Y-94986731D01*
X81930609Y-94895342D01*
X81788409Y-94854654D01*
X81740848Y-94841046D01*
X81740846Y-94841045D01*
X81740843Y-94841045D01*
X81670242Y-94834768D01*
X81625044Y-94830750D01*
X79552456Y-94830750D01*
X79518557Y-94833763D01*
X79436656Y-94841045D01*
X79436652Y-94841046D01*
X79246890Y-94895342D01*
X79071936Y-94986731D01*
X78918963Y-95111463D01*
X78794231Y-95264436D01*
X78702842Y-95439390D01*
X78648546Y-95629152D01*
X78648545Y-95629156D01*
X78641951Y-95703334D01*
X78638250Y-95744956D01*
X68670500Y-95744956D01*
X68670500Y-94384108D01*
X88919500Y-94384108D01*
X88919500Y-94515891D01*
X88953608Y-94643187D01*
X88986554Y-94700250D01*
X89019500Y-94757314D01*
X89112686Y-94850500D01*
X89226814Y-94916392D01*
X89354108Y-94950500D01*
X89354110Y-94950500D01*
X89485890Y-94950500D01*
X89485892Y-94950500D01*
X89613186Y-94916392D01*
X89727314Y-94850500D01*
X89820500Y-94757314D01*
X89886392Y-94643186D01*
X89920500Y-94515892D01*
X89920500Y-94384108D01*
X89886392Y-94256814D01*
X89820500Y-94142686D01*
X89727314Y-94049500D01*
X89670250Y-94016554D01*
X89613187Y-93983608D01*
X89549539Y-93966554D01*
X89485892Y-93949500D01*
X89354108Y-93949500D01*
X89226812Y-93983608D01*
X89112686Y-94049500D01*
X89112683Y-94049502D01*
X89019502Y-94142683D01*
X89019500Y-94142686D01*
X88953608Y-94256812D01*
X88919500Y-94384108D01*
X68670500Y-94384108D01*
X68670500Y-88692554D01*
X74688250Y-88692554D01*
X74688250Y-88869945D01*
X74722853Y-89043908D01*
X74722856Y-89043917D01*
X74790733Y-89207790D01*
X74790740Y-89207803D01*
X74889285Y-89355284D01*
X74889288Y-89355288D01*
X75014711Y-89480711D01*
X75014715Y-89480714D01*
X75162196Y-89579259D01*
X75162209Y-89579266D01*
X75285113Y-89630173D01*
X75326084Y-89647144D01*
X75326086Y-89647144D01*
X75326091Y-89647146D01*
X75500054Y-89681749D01*
X75500057Y-89681750D01*
X75500059Y-89681750D01*
X75677443Y-89681750D01*
X75677444Y-89681749D01*
X75735432Y-89670214D01*
X75851408Y-89647146D01*
X75851411Y-89647144D01*
X75851416Y-89647144D01*
X76015297Y-89579263D01*
X76162785Y-89480714D01*
X76288214Y-89355285D01*
X76386763Y-89207797D01*
X76454644Y-89043916D01*
X76489250Y-88869941D01*
X76489250Y-88692559D01*
X76489250Y-88692556D01*
X76489249Y-88692554D01*
X76454646Y-88518591D01*
X76454643Y-88518582D01*
X76386766Y-88354709D01*
X76386759Y-88354696D01*
X76288214Y-88207215D01*
X76288211Y-88207211D01*
X76162788Y-88081788D01*
X76162784Y-88081785D01*
X76015303Y-87983240D01*
X76015290Y-87983233D01*
X75851417Y-87915356D01*
X75851408Y-87915353D01*
X75677444Y-87880750D01*
X75677441Y-87880750D01*
X75500059Y-87880750D01*
X75500056Y-87880750D01*
X75326091Y-87915353D01*
X75326082Y-87915356D01*
X75162209Y-87983233D01*
X75162196Y-87983240D01*
X75014715Y-88081785D01*
X75014711Y-88081788D01*
X74889288Y-88207211D01*
X74889285Y-88207215D01*
X74790740Y-88354696D01*
X74790733Y-88354709D01*
X74722856Y-88518582D01*
X74722853Y-88518591D01*
X74688250Y-88692554D01*
X68670500Y-88692554D01*
X68670500Y-85304108D01*
X113809500Y-85304108D01*
X113809500Y-85435891D01*
X113843608Y-85563187D01*
X113876554Y-85620250D01*
X113909500Y-85677314D01*
X114002686Y-85770500D01*
X114116814Y-85836392D01*
X114244108Y-85870500D01*
X114244110Y-85870500D01*
X114375890Y-85870500D01*
X114375892Y-85870500D01*
X114503186Y-85836392D01*
X114617314Y-85770500D01*
X114710500Y-85677314D01*
X114776392Y-85563186D01*
X114810500Y-85435892D01*
X114810500Y-85304108D01*
X114776392Y-85176814D01*
X114710500Y-85062686D01*
X114617314Y-84969500D01*
X114560250Y-84936554D01*
X114503187Y-84903608D01*
X114439539Y-84886554D01*
X114375892Y-84869500D01*
X114244108Y-84869500D01*
X114116812Y-84903608D01*
X114002686Y-84969500D01*
X114002683Y-84969502D01*
X113909502Y-85062683D01*
X113909500Y-85062686D01*
X113843608Y-85176812D01*
X113809500Y-85304108D01*
X68670500Y-85304108D01*
X68670500Y-79718995D01*
X120719499Y-79718995D01*
X120746418Y-79854322D01*
X120746421Y-79854332D01*
X120799221Y-79981804D01*
X120799228Y-79981817D01*
X120875885Y-80096541D01*
X120875888Y-80096545D01*
X120973454Y-80194111D01*
X120973458Y-80194114D01*
X121088182Y-80270771D01*
X121088195Y-80270778D01*
X121215667Y-80323578D01*
X121215672Y-80323580D01*
X121215676Y-80323580D01*
X121215677Y-80323581D01*
X121351004Y-80350500D01*
X121351007Y-80350500D01*
X121488995Y-80350500D01*
X121580041Y-80332389D01*
X121624328Y-80323580D01*
X121751811Y-80270775D01*
X121866542Y-80194114D01*
X121964114Y-80096542D01*
X122040775Y-79981811D01*
X122093580Y-79854328D01*
X122120500Y-79718995D01*
X127519499Y-79718995D01*
X127546418Y-79854322D01*
X127546421Y-79854332D01*
X127599221Y-79981804D01*
X127599228Y-79981817D01*
X127675885Y-80096541D01*
X127675888Y-80096545D01*
X127773454Y-80194111D01*
X127773458Y-80194114D01*
X127888182Y-80270771D01*
X127888195Y-80270778D01*
X128015667Y-80323578D01*
X128015672Y-80323580D01*
X128015676Y-80323580D01*
X128015677Y-80323581D01*
X128151004Y-80350500D01*
X128151007Y-80350500D01*
X128288995Y-80350500D01*
X128380041Y-80332389D01*
X128424328Y-80323580D01*
X128551811Y-80270775D01*
X128666542Y-80194114D01*
X128764114Y-80096542D01*
X128840775Y-79981811D01*
X128893580Y-79854328D01*
X128920500Y-79718993D01*
X128920500Y-79581007D01*
X128920500Y-79581004D01*
X128893581Y-79445677D01*
X128893580Y-79445676D01*
X128893580Y-79445672D01*
X128886012Y-79427402D01*
X128840778Y-79318195D01*
X128840771Y-79318182D01*
X128764114Y-79203458D01*
X128764111Y-79203454D01*
X128666545Y-79105888D01*
X128666541Y-79105885D01*
X128590757Y-79055247D01*
X133989500Y-79055247D01*
X133989500Y-80794752D01*
X134001131Y-80853229D01*
X134001132Y-80853230D01*
X134045447Y-80919552D01*
X134111769Y-80963867D01*
X134111770Y-80963868D01*
X134170247Y-80975499D01*
X134170250Y-80975500D01*
X134170252Y-80975500D01*
X135909750Y-80975500D01*
X135909751Y-80975499D01*
X135924568Y-80972552D01*
X135968229Y-80963868D01*
X135968229Y-80963867D01*
X135968231Y-80963867D01*
X136034552Y-80919552D01*
X136078867Y-80853231D01*
X136078867Y-80853229D01*
X136078868Y-80853229D01*
X136090499Y-80794752D01*
X136090500Y-80794750D01*
X136090500Y-79821530D01*
X136529500Y-79821530D01*
X136529500Y-80028469D01*
X136569868Y-80231412D01*
X136569870Y-80231420D01*
X136649058Y-80422596D01*
X136764024Y-80594657D01*
X136910342Y-80740975D01*
X136910345Y-80740977D01*
X137082402Y-80855941D01*
X137273580Y-80935130D01*
X137418052Y-80963867D01*
X137476530Y-80975499D01*
X137476534Y-80975500D01*
X137476535Y-80975500D01*
X137683466Y-80975500D01*
X137683467Y-80975499D01*
X137886420Y-80935130D01*
X138077598Y-80855941D01*
X138249655Y-80740977D01*
X138395977Y-80594655D01*
X138510941Y-80422598D01*
X138590130Y-80231420D01*
X138630500Y-80028465D01*
X138630500Y-79821535D01*
X138630499Y-79821530D01*
X139069500Y-79821530D01*
X139069500Y-80028469D01*
X139109868Y-80231412D01*
X139109870Y-80231420D01*
X139189058Y-80422596D01*
X139304024Y-80594657D01*
X139450342Y-80740975D01*
X139450345Y-80740977D01*
X139622402Y-80855941D01*
X139813580Y-80935130D01*
X139958052Y-80963867D01*
X140016530Y-80975499D01*
X140016534Y-80975500D01*
X140016535Y-80975500D01*
X140223466Y-80975500D01*
X140223467Y-80975499D01*
X140426420Y-80935130D01*
X140617598Y-80855941D01*
X140789655Y-80740977D01*
X140935977Y-80594655D01*
X141050941Y-80422598D01*
X141130130Y-80231420D01*
X141170500Y-80028465D01*
X141170500Y-79821535D01*
X141170499Y-79821530D01*
X141609500Y-79821530D01*
X141609500Y-80028469D01*
X141649868Y-80231412D01*
X141649870Y-80231420D01*
X141729058Y-80422596D01*
X141844024Y-80594657D01*
X141990342Y-80740975D01*
X141990345Y-80740977D01*
X142162402Y-80855941D01*
X142353580Y-80935130D01*
X142498052Y-80963867D01*
X142556530Y-80975499D01*
X142556534Y-80975500D01*
X142556535Y-80975500D01*
X142763466Y-80975500D01*
X142763467Y-80975499D01*
X142966420Y-80935130D01*
X143157598Y-80855941D01*
X143329655Y-80740977D01*
X143475977Y-80594655D01*
X143590941Y-80422598D01*
X143670130Y-80231420D01*
X143710500Y-80028465D01*
X143710500Y-79821535D01*
X143670130Y-79618580D01*
X143590941Y-79427402D01*
X143475977Y-79255345D01*
X143475975Y-79255342D01*
X143329657Y-79109024D01*
X143161655Y-78996770D01*
X143157598Y-78994059D01*
X143115016Y-78976421D01*
X142966420Y-78914870D01*
X142966412Y-78914868D01*
X142763469Y-78874500D01*
X142763465Y-78874500D01*
X142556535Y-78874500D01*
X142556530Y-78874500D01*
X142353587Y-78914868D01*
X142353579Y-78914870D01*
X142162403Y-78994058D01*
X141990342Y-79109024D01*
X141844024Y-79255342D01*
X141729058Y-79427403D01*
X141649870Y-79618579D01*
X141649868Y-79618587D01*
X141609500Y-79821530D01*
X141170499Y-79821530D01*
X141130130Y-79618580D01*
X141050941Y-79427402D01*
X140935977Y-79255345D01*
X140935975Y-79255342D01*
X140789657Y-79109024D01*
X140621655Y-78996770D01*
X140617598Y-78994059D01*
X140575016Y-78976421D01*
X140426420Y-78914870D01*
X140426412Y-78914868D01*
X140223469Y-78874500D01*
X140223465Y-78874500D01*
X140016535Y-78874500D01*
X140016530Y-78874500D01*
X139813587Y-78914868D01*
X139813579Y-78914870D01*
X139622403Y-78994058D01*
X139450342Y-79109024D01*
X139304024Y-79255342D01*
X139189058Y-79427403D01*
X139109870Y-79618579D01*
X139109868Y-79618587D01*
X139069500Y-79821530D01*
X138630499Y-79821530D01*
X138590130Y-79618580D01*
X138510941Y-79427402D01*
X138395977Y-79255345D01*
X138395975Y-79255342D01*
X138249657Y-79109024D01*
X138081655Y-78996770D01*
X138077598Y-78994059D01*
X138035016Y-78976421D01*
X137886420Y-78914870D01*
X137886412Y-78914868D01*
X137683469Y-78874500D01*
X137683465Y-78874500D01*
X137476535Y-78874500D01*
X137476530Y-78874500D01*
X137273587Y-78914868D01*
X137273579Y-78914870D01*
X137082403Y-78994058D01*
X136910342Y-79109024D01*
X136764024Y-79255342D01*
X136649058Y-79427403D01*
X136569870Y-79618579D01*
X136569868Y-79618587D01*
X136529500Y-79821530D01*
X136090500Y-79821530D01*
X136090500Y-79055249D01*
X136090499Y-79055247D01*
X136078868Y-78996770D01*
X136078867Y-78996769D01*
X136034552Y-78930447D01*
X135968230Y-78886132D01*
X135968229Y-78886131D01*
X135909752Y-78874500D01*
X135909748Y-78874500D01*
X134170252Y-78874500D01*
X134170247Y-78874500D01*
X134111770Y-78886131D01*
X134111769Y-78886132D01*
X134045447Y-78930447D01*
X134001132Y-78996769D01*
X134001131Y-78996770D01*
X133989500Y-79055247D01*
X128590757Y-79055247D01*
X128551817Y-79029228D01*
X128551804Y-79029221D01*
X128424332Y-78976421D01*
X128424322Y-78976418D01*
X128288995Y-78949500D01*
X128288993Y-78949500D01*
X128151007Y-78949500D01*
X128151005Y-78949500D01*
X128015677Y-78976418D01*
X128015667Y-78976421D01*
X127888195Y-79029221D01*
X127888182Y-79029228D01*
X127773458Y-79105885D01*
X127773454Y-79105888D01*
X127675888Y-79203454D01*
X127675885Y-79203458D01*
X127599228Y-79318182D01*
X127599221Y-79318195D01*
X127546421Y-79445667D01*
X127546418Y-79445677D01*
X127519500Y-79581004D01*
X127519500Y-79581007D01*
X127519500Y-79718993D01*
X127519500Y-79718995D01*
X127519499Y-79718995D01*
X122120500Y-79718995D01*
X122120500Y-79718993D01*
X122120500Y-79581007D01*
X122120500Y-79581004D01*
X122093581Y-79445677D01*
X122093580Y-79445676D01*
X122093580Y-79445672D01*
X122086012Y-79427402D01*
X122040778Y-79318195D01*
X122040771Y-79318182D01*
X121964114Y-79203458D01*
X121964111Y-79203454D01*
X121866545Y-79105888D01*
X121866541Y-79105885D01*
X121751817Y-79029228D01*
X121751804Y-79029221D01*
X121624332Y-78976421D01*
X121624322Y-78976418D01*
X121488995Y-78949500D01*
X121488993Y-78949500D01*
X121351007Y-78949500D01*
X121351005Y-78949500D01*
X121215677Y-78976418D01*
X121215667Y-78976421D01*
X121088195Y-79029221D01*
X121088182Y-79029228D01*
X120973458Y-79105885D01*
X120973454Y-79105888D01*
X120875888Y-79203454D01*
X120875885Y-79203458D01*
X120799228Y-79318182D01*
X120799221Y-79318195D01*
X120746421Y-79445667D01*
X120746418Y-79445677D01*
X120719500Y-79581004D01*
X120719500Y-79581007D01*
X120719500Y-79718993D01*
X120719500Y-79718995D01*
X120719499Y-79718995D01*
X68670500Y-79718995D01*
X68670500Y-76528711D01*
X70519500Y-76528711D01*
X70519500Y-76771288D01*
X70551161Y-77011785D01*
X70613947Y-77246104D01*
X70706773Y-77470205D01*
X70706776Y-77470212D01*
X70828064Y-77680289D01*
X70828066Y-77680292D01*
X70828067Y-77680293D01*
X70975733Y-77872736D01*
X70975739Y-77872743D01*
X71147256Y-78044260D01*
X71147262Y-78044265D01*
X71339711Y-78191936D01*
X71549788Y-78313224D01*
X71773900Y-78406054D01*
X72008211Y-78468838D01*
X72188586Y-78492584D01*
X72248711Y-78500500D01*
X72248712Y-78500500D01*
X72491289Y-78500500D01*
X72539388Y-78494167D01*
X72731789Y-78468838D01*
X72966100Y-78406054D01*
X73190212Y-78313224D01*
X73400289Y-78191936D01*
X73592738Y-78044265D01*
X73764265Y-77872738D01*
X73911936Y-77680289D01*
X74033224Y-77470212D01*
X74126054Y-77246100D01*
X74188838Y-77011789D01*
X74220500Y-76771288D01*
X74220500Y-76528712D01*
X74220500Y-76528711D01*
X170519500Y-76528711D01*
X170519500Y-76771288D01*
X170551161Y-77011785D01*
X170613947Y-77246104D01*
X170706773Y-77470205D01*
X170706776Y-77470212D01*
X170828064Y-77680289D01*
X170828066Y-77680292D01*
X170828067Y-77680293D01*
X170975733Y-77872736D01*
X170975739Y-77872743D01*
X171147256Y-78044260D01*
X171147262Y-78044265D01*
X171339711Y-78191936D01*
X171549788Y-78313224D01*
X171773900Y-78406054D01*
X172008211Y-78468838D01*
X172188586Y-78492584D01*
X172248711Y-78500500D01*
X172248712Y-78500500D01*
X172491289Y-78500500D01*
X172539388Y-78494167D01*
X172731789Y-78468838D01*
X172966100Y-78406054D01*
X173190212Y-78313224D01*
X173400289Y-78191936D01*
X173592738Y-78044265D01*
X173764265Y-77872738D01*
X173911936Y-77680289D01*
X174033224Y-77470212D01*
X174126054Y-77246100D01*
X174188838Y-77011789D01*
X174220500Y-76771288D01*
X174220500Y-76528712D01*
X174188838Y-76288211D01*
X174126054Y-76053900D01*
X174033224Y-75829788D01*
X173911936Y-75619711D01*
X173764265Y-75427262D01*
X173764260Y-75427256D01*
X173592743Y-75255739D01*
X173592736Y-75255733D01*
X173400293Y-75108067D01*
X173400292Y-75108066D01*
X173400289Y-75108064D01*
X173190212Y-74986776D01*
X173190205Y-74986773D01*
X172966104Y-74893947D01*
X172731785Y-74831161D01*
X172491289Y-74799500D01*
X172491288Y-74799500D01*
X172248712Y-74799500D01*
X172248711Y-74799500D01*
X172008214Y-74831161D01*
X171773895Y-74893947D01*
X171549794Y-74986773D01*
X171549785Y-74986777D01*
X171339706Y-75108067D01*
X171147263Y-75255733D01*
X171147256Y-75255739D01*
X170975739Y-75427256D01*
X170975733Y-75427263D01*
X170828067Y-75619706D01*
X170706777Y-75829785D01*
X170706773Y-75829794D01*
X170613947Y-76053895D01*
X170551161Y-76288214D01*
X170519500Y-76528711D01*
X74220500Y-76528711D01*
X74188838Y-76288211D01*
X74126054Y-76053900D01*
X74033224Y-75829788D01*
X73911936Y-75619711D01*
X73764265Y-75427262D01*
X73764260Y-75427256D01*
X73592743Y-75255739D01*
X73592736Y-75255733D01*
X73400293Y-75108067D01*
X73400292Y-75108066D01*
X73400289Y-75108064D01*
X73190212Y-74986776D01*
X73190205Y-74986773D01*
X72966104Y-74893947D01*
X72731785Y-74831161D01*
X72491289Y-74799500D01*
X72491288Y-74799500D01*
X72248712Y-74799500D01*
X72248711Y-74799500D01*
X72008214Y-74831161D01*
X71773895Y-74893947D01*
X71549794Y-74986773D01*
X71549785Y-74986777D01*
X71339706Y-75108067D01*
X71147263Y-75255733D01*
X71147256Y-75255739D01*
X70975739Y-75427256D01*
X70975733Y-75427263D01*
X70828067Y-75619706D01*
X70706777Y-75829785D01*
X70706773Y-75829794D01*
X70613947Y-76053895D01*
X70551161Y-76288214D01*
X70519500Y-76528711D01*
X68670500Y-76528711D01*
X68670500Y-73074500D01*
X68690185Y-73007461D01*
X68742989Y-72961706D01*
X68794500Y-72950500D01*
X175945500Y-72950500D01*
X176012539Y-72970185D01*
G37*
%TD.AperFunction*%
%TD*%
M02*
