M48
; DRILL file KiCad 10.0.0 date 2026-06-03T23:12:40
; FORMAT={-:-/ absolute / metric / decimal}
; #@! TF.CreationDate,2026-06-03T23:12:40-07:00
; #@! TF.GenerationSoftware,Kicad,Pcbnew,10.0.0
; #@! TF.FileFunction,Plated,1,4,PTH
FMAT,2
METRIC
; #@! TA.AperFunction,Plated,PTH,ViaDrill
T1C0.300
; #@! TA.AperFunction,Plated,PTH,ComponentDrill
T2C0.300
; #@! TA.AperFunction,Plated,PTH,ViaDrill
T3C0.600
; #@! TA.AperFunction,Plated,PTH,ComponentDrill
T4C0.600
; #@! TA.AperFunction,Plated,PTH,ComponentDrill
T5C1.000
; #@! TA.AperFunction,Plated,PTH,ComponentDrill
T6C1.900
%
G90
G05
T1
X70.37Y-116.65
X70.37Y-118.65
X70.37Y-120.65
X70.37Y-122.65
X70.37Y-124.65
X70.37Y-126.65
X70.37Y-128.65
X70.37Y-130.65
X70.37Y-132.65
X70.37Y-134.65
X72.37Y-118.65
X72.37Y-120.65
X72.37Y-122.65
X72.37Y-124.65
X72.37Y-126.65
X72.37Y-128.65
X72.37Y-130.65
X72.37Y-132.65
X72.37Y-134.65
X74.37Y-118.65
X74.37Y-120.65
X74.37Y-122.65
X74.37Y-124.65
X74.37Y-126.65
X74.37Y-128.65
X74.37Y-130.65
X74.37Y-132.65
X74.37Y-134.65
X76.37Y-118.65
X76.37Y-120.65
X76.37Y-122.65
X76.37Y-124.65
X76.37Y-126.65
X76.37Y-128.65
X76.37Y-130.65
X76.37Y-132.65
X76.37Y-134.65
X78.37Y-118.65
X78.37Y-120.65
X78.37Y-122.65
X78.37Y-124.65
X78.37Y-126.65
X78.37Y-128.65
X78.37Y-130.65
X78.37Y-132.65
X78.37Y-134.65
X78.37Y-136.65
X78.37Y-138.65
X78.37Y-140.65
X78.37Y-142.65
X80.37Y-74.65
X80.37Y-76.65
X80.37Y-78.65
X80.37Y-80.65
X80.37Y-82.65
X80.37Y-84.65
X80.37Y-118.65
X80.37Y-120.65
X80.37Y-122.65
X80.37Y-124.65
X80.37Y-126.65
X80.37Y-128.65
X80.37Y-130.65
X80.37Y-132.65
X80.37Y-134.65
X80.37Y-136.65
X80.37Y-138.65
X80.37Y-140.65
X80.37Y-142.65
X82.37Y-74.65
X82.37Y-76.65
X82.37Y-78.65
X82.37Y-80.65
X82.37Y-82.65
X82.37Y-84.65
X82.37Y-118.65
X82.37Y-120.65
X82.37Y-122.65
X82.37Y-124.65
X82.37Y-126.65
X82.37Y-128.65
X82.37Y-130.65
X82.37Y-132.65
X82.37Y-134.65
X82.37Y-136.65
X82.37Y-138.65
X82.37Y-140.65
X82.37Y-142.65
X84.37Y-74.65
X84.37Y-76.65
X84.37Y-78.65
X84.37Y-80.65
X84.37Y-82.65
X84.37Y-84.65
X84.37Y-86.65
X84.37Y-88.65
X84.37Y-90.65
X84.37Y-92.65
X84.37Y-94.65
X84.37Y-112.65
X84.37Y-114.65
X84.37Y-116.65
X84.37Y-118.65
X84.37Y-120.65
X84.37Y-122.65
X84.37Y-124.65
X84.37Y-126.65
X84.37Y-128.65
X84.37Y-130.65
X84.37Y-132.65
X84.37Y-134.65
X84.37Y-136.65
X84.37Y-138.65
X84.37Y-140.65
X84.37Y-142.65
X86.18Y-100.26
X86.359Y-92.611
X86.37Y-74.65
X86.37Y-76.65
X86.37Y-78.65
X86.37Y-80.65
X86.37Y-82.65
X86.37Y-84.65
X86.37Y-86.65
X86.37Y-88.65
X86.37Y-90.65
X86.37Y-94.65
X86.37Y-112.65
X86.37Y-114.65
X86.37Y-116.65
X86.37Y-118.65
X86.37Y-120.65
X86.37Y-122.65
X86.37Y-124.65
X86.37Y-126.65
X86.37Y-128.65
X86.37Y-130.65
X86.37Y-132.65
X86.37Y-134.65
X86.37Y-136.65
X86.37Y-138.65
X86.37Y-140.65
X86.37Y-142.65
X87.92Y-100.29
X88.37Y-74.65
X88.37Y-76.65
X88.37Y-78.65
X88.37Y-80.65
X88.37Y-82.65
X88.37Y-84.65
X88.37Y-114.65
X88.37Y-116.65
X88.37Y-118.65
X88.37Y-120.65
X88.37Y-122.65
X88.37Y-124.65
X88.37Y-126.65
X88.37Y-128.65
X88.37Y-130.65
X88.37Y-132.65
X88.37Y-134.65
X88.37Y-136.65
X88.37Y-138.65
X88.37Y-140.65
X88.37Y-142.65
X89.42Y-94.45
X89.62Y-111.57
X89.74Y-100.32
X90.338Y-90.704
X90.37Y-74.65
X90.37Y-76.65
X90.37Y-78.65
X90.37Y-80.65
X90.37Y-82.65
X90.37Y-84.65
X90.37Y-86.65
X90.37Y-88.65
X90.37Y-114.65
X90.37Y-116.65
X90.37Y-118.65
X90.37Y-120.65
X90.37Y-122.65
X90.37Y-124.65
X90.37Y-126.65
X90.37Y-128.65
X90.37Y-130.65
X90.37Y-132.65
X90.37Y-134.65
X90.37Y-136.65
X90.37Y-138.65
X90.37Y-140.65
X90.37Y-142.65
X91.49Y-112.14
X91.53Y-100.32
X91.93Y-96.76
X91.98Y-95.32
X92.37Y-74.65
X92.37Y-76.65
X92.37Y-78.65
X92.37Y-80.65
X92.37Y-82.65
X92.37Y-84.65
X92.37Y-86.65
X92.37Y-88.65
X92.37Y-114.65
X92.37Y-116.65
X92.37Y-118.65
X92.37Y-120.65
X92.37Y-122.65
X92.37Y-124.65
X92.37Y-126.65
X92.37Y-128.65
X92.37Y-130.65
X92.37Y-132.65
X92.37Y-134.65
X92.37Y-136.65
X92.37Y-138.65
X92.37Y-140.65
X92.37Y-142.65
X94.37Y-74.65
X94.37Y-76.65
X94.37Y-78.65
X94.37Y-80.65
X94.37Y-82.65
X94.37Y-84.65
X94.37Y-86.65
X94.37Y-88.65
X94.37Y-92.65
X94.37Y-94.65
X94.37Y-96.65
X94.37Y-98.65
X94.37Y-100.65
X94.37Y-112.65
X94.37Y-114.65
X94.37Y-116.65
X94.37Y-118.65
X94.37Y-120.65
X94.37Y-122.65
X94.37Y-124.65
X94.37Y-126.65
X94.37Y-128.65
X94.37Y-130.65
X94.37Y-132.65
X94.37Y-134.65
X94.37Y-136.65
X94.37Y-138.65
X94.37Y-140.65
X94.37Y-142.65
X96.24Y-107.06
X96.37Y-74.65
X96.37Y-76.65
X96.37Y-78.65
X96.37Y-80.65
X96.37Y-82.65
X96.37Y-84.65
X96.37Y-86.65
X96.37Y-88.65
X96.37Y-92.65
X96.37Y-94.65
X96.37Y-96.65
X96.37Y-98.65
X96.37Y-100.65
X96.37Y-102.65
X96.37Y-112.65
X96.37Y-114.65
X96.37Y-116.65
X96.37Y-118.65
X96.37Y-120.65
X96.37Y-122.65
X96.37Y-124.65
X96.37Y-126.65
X96.37Y-128.65
X96.37Y-130.65
X96.37Y-132.65
X96.37Y-134.65
X96.37Y-136.65
X96.37Y-138.65
X96.37Y-140.65
X96.37Y-142.65
X98.37Y-74.65
X98.37Y-76.65
X98.37Y-78.65
X98.37Y-80.65
X98.37Y-82.65
X98.37Y-84.65
X98.37Y-86.65
X98.37Y-88.65
X98.37Y-116.65
X98.37Y-118.65
X98.37Y-120.65
X98.37Y-122.65
X98.37Y-124.65
X98.37Y-126.65
X98.37Y-128.65
X98.37Y-130.65
X98.37Y-132.65
X98.37Y-134.65
X98.37Y-136.65
X98.37Y-138.65
X98.37Y-140.65
X98.37Y-142.65
X99.46Y-92.68
X99.78Y-107.98
X100.37Y-74.65
X100.37Y-76.65
X100.37Y-78.65
X100.37Y-80.65
X100.37Y-82.65
X100.37Y-84.65
X100.37Y-86.65
X100.37Y-88.65
X100.37Y-112.65
X100.37Y-116.65
X100.37Y-118.65
X100.37Y-120.65
X100.37Y-122.65
X100.37Y-124.65
X100.37Y-126.65
X100.37Y-128.65
X100.37Y-130.65
X100.37Y-132.65
X100.37Y-134.65
X100.37Y-136.65
X100.37Y-138.65
X100.37Y-140.65
X100.37Y-142.65
X100.959Y-93.681
X102.01Y-109.15
X102.06Y-116.61
X102.37Y-74.65
X102.37Y-76.65
X102.37Y-78.65
X102.37Y-80.65
X102.37Y-82.65
X102.37Y-84.65
X102.37Y-86.65
X102.37Y-88.65
X102.37Y-112.65
X102.45Y-92.63
X103.37Y-121.65
X103.37Y-123.65
X103.37Y-125.65
X103.37Y-127.65
X104.37Y-74.65
X104.37Y-76.65
X104.37Y-78.65
X104.37Y-80.65
X104.37Y-82.65
X104.37Y-84.65
X104.37Y-86.65
X104.37Y-88.65
X105.05Y-118.68
X105.37Y-121.65
X105.37Y-123.65
X105.37Y-125.65
X105.37Y-127.65
X106.37Y-78.65
X106.37Y-80.65
X106.37Y-82.65
X106.37Y-84.65
X106.37Y-86.65
X106.37Y-88.65
X106.37Y-92.65
X106.37Y-94.65
X106.37Y-96.65
X106.37Y-98.65
X106.37Y-100.65
X106.37Y-102.65
X106.73Y-135.15
X106.73Y-136.17
X106.91Y-118.68
X107.37Y-121.65
X107.37Y-123.65
X107.37Y-125.65
X107.62Y-130.975
X108.37Y-74.65
X108.37Y-76.65
X108.37Y-78.65
X108.37Y-80.65
X108.37Y-82.65
X108.37Y-84.65
X108.37Y-86.65
X108.37Y-88.65
X108.37Y-92.65
X108.37Y-94.65
X108.37Y-96.65
X108.37Y-98.65
X108.37Y-100.65
X108.37Y-102.65
X108.37Y-104.65
X108.59Y-118.68
X109.37Y-121.65
X109.37Y-123.65
X109.37Y-125.65
X110.37Y-74.65
X110.37Y-76.65
X110.37Y-86.65
X110.37Y-88.65
X110.37Y-92.65
X110.37Y-94.65
X110.37Y-96.65
X110.37Y-98.65
X110.37Y-100.65
X110.37Y-102.65
X110.37Y-104.65
X110.5Y-118.69
X110.93Y-134.035
X111.17Y-84.22
X111.2Y-85.33
X111.37Y-121.65
X111.37Y-123.65
X111.37Y-125.65
X112.37Y-74.65
X112.37Y-76.65
X112.37Y-86.65
X112.37Y-88.65
X112.37Y-92.65
X112.37Y-94.65
X112.37Y-96.65
X112.37Y-98.65
X112.37Y-100.65
X112.37Y-102.65
X112.37Y-104.65
X112.37Y-106.65
X112.37Y-108.65
X112.37Y-122.65
X112.37Y-124.65
X112.67Y-116.83
X113.47Y-118.49
X114.15Y-81.26
X114.31Y-85.37
X114.37Y-74.65
X114.37Y-88.65
X114.37Y-92.65
X114.37Y-94.65
X114.37Y-96.65
X114.37Y-98.65
X114.37Y-100.65
X114.37Y-102.65
X114.37Y-104.65
X114.37Y-106.65
X114.37Y-108.65
X114.37Y-120.65
X114.37Y-122.65
X114.37Y-124.65
X114.76Y-110.79
X116.22Y-139.76
X116.22Y-140.83
X116.37Y-74.65
X116.37Y-76.65
X116.37Y-84.65
X116.37Y-90.65
X116.37Y-94.65
X116.37Y-96.65
X116.37Y-98.65
X116.37Y-100.65
X116.37Y-102.65
X116.37Y-104.65
X116.37Y-106.65
X116.37Y-108.65
X116.37Y-116.65
X116.37Y-118.65
X116.37Y-120.65
X116.37Y-122.65
X116.401Y-113.719
X118.37Y-74.65
X118.37Y-76.65
X118.37Y-78.65
X118.37Y-80.65
X118.37Y-82.65
X118.37Y-84.65
X118.37Y-86.65
X118.37Y-92.65
X118.37Y-96.65
X118.37Y-98.65
X118.37Y-100.65
X118.37Y-102.65
X118.37Y-104.65
X118.37Y-106.65
X118.37Y-108.65
X118.37Y-116.65
X118.37Y-118.65
X118.37Y-120.65
X118.37Y-122.65
X120.37Y-74.65
X120.37Y-84.65
X120.37Y-86.65
X120.37Y-88.65
X120.37Y-94.65
X120.37Y-98.65
X120.37Y-100.65
X120.37Y-102.65
X120.37Y-104.65
X120.37Y-106.65
X120.37Y-108.65
X120.37Y-116.65
X120.37Y-118.65
X120.37Y-120.65
X120.37Y-122.65
X121.24Y-112.9
X121.28Y-114.72
X122.37Y-74.65
X122.37Y-116.65
X122.37Y-118.65
X122.37Y-120.65
X122.37Y-139.79
X122.37Y-140.84
X124.37Y-74.65
X124.37Y-98.65
X124.37Y-102.65
X124.37Y-104.65
X124.37Y-106.65
X124.37Y-108.65
X124.37Y-112.65
X124.37Y-116.65
X124.37Y-118.65
X124.42Y-133.625
X126.37Y-74.65
X127.17Y-123.4
X127.31Y-82.46
X127.87Y-100.65
X127.87Y-102.15
X127.87Y-115.65
X128.12Y-124.8
X128.2Y-130.94
X128.23Y-129.1
X128.29Y-142.65
X128.295Y-97.475
X128.36Y-108.76
X128.37Y-74.65
X128.37Y-86.65
X128.37Y-88.65
X128.37Y-90.65
X128.37Y-92.65
X128.37Y-103.65
X128.37Y-106.65
X128.37Y-110.65
X128.37Y-112.65
X129.02Y-96.0
X129.27Y-119.7
X129.37Y-102.15
X129.37Y-103.15
X130.35Y-113.16
X130.37Y-74.65
X130.37Y-141.56
X130.38Y-112.17
X130.85Y-128.94
X130.87Y-110.01
X130.89Y-110.98
X130.91Y-130.92
X131.08Y-90.33
X131.09Y-84.26
X131.2Y-138.22
X131.21Y-108.78
X131.27Y-125.65
X131.445Y-93.15
X131.48Y-106.89
X132.2Y-98.23
X132.2Y-99.15
X132.23Y-101.47
X132.27Y-94.175
X132.37Y-74.65
X132.37Y-76.65
X132.47Y-125.8
X132.64Y-91.72
X132.97Y-119.9
X133.43Y-125.78
X133.47Y-93.875
X133.5Y-129.06
X133.5Y-130.97
X133.52Y-138.375
X134.19Y-105.08
X134.21Y-107.96
X134.25Y-104.27
X134.37Y-74.65
X134.37Y-76.65
X134.59Y-105.89
X134.62Y-125.44
X135.095Y-104.375
X135.145Y-103.625
X135.37Y-106.34
X135.47Y-139.88
X135.47Y-140.93
X135.82Y-110.4
X135.87Y-109.3
X136.37Y-74.65
X136.37Y-76.65
X136.72Y-130.81
X137.045Y-129.65
X137.33Y-97.74
X137.52Y-111.75
X138.37Y-74.65
X138.37Y-76.65
X138.64Y-111.6
X139.09Y-116.45
X139.18Y-114.68
X139.45Y-97.6
X140.19Y-113.81
X140.37Y-74.65
X140.37Y-76.65
X140.37Y-124.65
X140.37Y-130.65
X140.37Y-132.65
X140.37Y-134.65
X140.37Y-136.65
X140.37Y-138.65
X140.37Y-140.65
X140.37Y-142.65
X140.37Y-144.65
X140.4Y-114.59
X140.47Y-96.7
X140.53Y-111.59
X142.22Y-112.91
X142.23Y-115.85
X142.28Y-92.79
X142.37Y-74.65
X142.37Y-76.65
X142.37Y-88.65
X142.37Y-128.65
X142.37Y-130.65
X142.37Y-132.65
X142.37Y-134.65
X142.37Y-136.65
X142.37Y-138.65
X142.37Y-142.65
X142.37Y-144.65
X142.62Y-111.24
X142.67Y-82.75
X142.695Y-95.95
X143.03Y-115.89
X143.15Y-111.84
X143.385Y-114.06
X143.58Y-113.27
X143.96Y-111.8
X143.995Y-97.775
X144.03Y-114.54
X144.29Y-95.88
X144.37Y-74.65
X144.37Y-76.65
X144.37Y-84.65
X144.37Y-142.65
X144.37Y-144.65
X145.02Y-114.42
X145.11Y-111.98
X145.51Y-94.08
X145.56Y-132.66
X145.6Y-116.25
X145.61Y-117.35
X145.87Y-92.35
X146.35Y-113.78
X146.37Y-74.65
X146.37Y-76.65
X146.37Y-86.65
X146.37Y-144.65
X146.51Y-97.61
X146.99Y-91.93
X147.68Y-88.79
X147.695Y-135.463
X147.7Y-127.86
X147.75Y-97.97
X148.07Y-110.65
X148.37Y-74.65
X148.37Y-76.65
X148.37Y-78.65
X148.37Y-80.65
X148.37Y-82.65
X148.37Y-84.65
X148.37Y-122.65
X148.37Y-144.65
X150.32Y-117.9
X150.37Y-74.65
X150.37Y-76.65
X150.37Y-78.65
X150.37Y-80.65
X150.37Y-82.65
X150.37Y-84.65
X150.37Y-94.65
X150.37Y-96.65
X150.37Y-120.65
X150.37Y-122.65
X150.37Y-144.65
X150.495Y-138.262
X150.58Y-125.02
X150.77Y-99.62
X150.77Y-101.0
X151.12Y-103.1
X151.24Y-140.58
X151.82Y-102.4
X151.82Y-117.35
X152.37Y-74.65
X152.37Y-76.65
X152.37Y-78.65
X152.37Y-80.65
X152.37Y-82.65
X152.37Y-84.65
X152.37Y-90.65
X152.37Y-106.65
X152.37Y-108.65
X152.37Y-110.65
X152.37Y-112.65
X152.37Y-144.65
X152.46Y-118.83
X154.37Y-74.65
X154.37Y-76.65
X154.37Y-78.65
X154.37Y-80.65
X154.37Y-82.65
X154.37Y-84.65
X154.37Y-86.65
X154.37Y-88.65
X154.37Y-90.65
X154.37Y-92.65
X154.37Y-94.65
X154.37Y-96.65
X154.37Y-98.65
X154.37Y-144.65
X155.35Y-140.55
X156.195Y-138.262
X156.37Y-74.65
X156.37Y-76.65
X156.37Y-78.65
X156.37Y-80.65
X156.37Y-82.65
X156.37Y-84.65
X156.37Y-86.65
X156.37Y-88.65
X156.37Y-90.65
X156.37Y-92.65
X156.37Y-94.65
X156.37Y-96.65
X156.37Y-120.65
X156.37Y-144.65
X156.41Y-116.72
X157.42Y-113.3
X158.095Y-125.062
X158.095Y-138.262
X158.37Y-74.65
X158.37Y-76.65
X158.37Y-78.65
X158.37Y-80.65
X158.37Y-82.65
X158.37Y-84.65
X158.37Y-86.65
X158.37Y-88.65
X158.37Y-90.65
X158.37Y-92.65
X158.37Y-94.65
X158.37Y-96.65
X158.37Y-104.65
X158.37Y-106.65
X158.37Y-118.65
X158.37Y-144.65
X160.37Y-74.65
X160.37Y-76.65
X160.37Y-78.65
X160.37Y-80.65
X160.37Y-82.65
X160.37Y-84.65
X160.37Y-86.65
X160.37Y-88.65
X160.37Y-90.65
X160.37Y-92.65
X160.37Y-94.65
X160.37Y-96.65
X160.37Y-104.65
X160.37Y-106.65
X160.37Y-115.75
X160.37Y-118.65
X160.37Y-120.65
X160.37Y-140.65
X160.37Y-144.65
X160.895Y-127.862
X160.895Y-135.463
X161.77Y-117.85
X161.87Y-114.45
X162.37Y-82.65
X162.37Y-84.65
X162.37Y-86.65
X162.37Y-88.65
X162.37Y-90.65
X162.37Y-92.65
X162.37Y-94.65
X162.37Y-96.65
X162.37Y-144.65
X162.57Y-108.85
X163.67Y-109.55
X163.87Y-102.45
X163.87Y-103.45
X163.87Y-104.45
X163.87Y-105.45
X164.37Y-82.65
X164.37Y-84.65
X164.37Y-86.65
X164.37Y-88.65
X164.37Y-90.65
X164.37Y-92.65
X164.37Y-94.65
X164.37Y-142.65
X164.37Y-144.65
X164.41Y-119.05
X164.555Y-124.63
X164.75Y-112.46
X165.495Y-126.2
X166.37Y-82.65
X166.37Y-84.65
X166.37Y-86.65
X166.37Y-88.65
X166.37Y-90.65
X166.37Y-92.65
X166.37Y-94.65
X166.37Y-140.65
X166.37Y-142.65
X166.37Y-144.65
X167.115Y-123.83
X167.195Y-129.35
X167.77Y-134.65
X168.37Y-82.65
X168.37Y-84.65
X168.37Y-86.65
X168.37Y-88.65
X168.37Y-90.65
X168.37Y-92.65
X168.37Y-94.65
X168.645Y-128.8
X168.795Y-125.875
X170.05Y-123.49
X170.37Y-82.65
X170.37Y-84.65
X170.37Y-86.65
X170.37Y-88.65
X170.37Y-90.65
X170.37Y-92.65
X170.37Y-94.65
X170.37Y-96.65
X170.37Y-98.65
X170.37Y-100.65
X170.37Y-102.65
X170.37Y-104.65
X170.37Y-106.65
X170.37Y-108.65
X171.33Y-132.3
X171.41Y-130.93
X171.895Y-128.125
X172.03Y-123.5
X172.37Y-82.65
X172.37Y-84.65
X172.37Y-86.65
X172.37Y-88.65
X172.37Y-90.65
X172.37Y-92.65
X172.37Y-94.65
X172.37Y-96.65
X172.37Y-98.65
X172.37Y-100.65
X172.37Y-102.65
X172.37Y-104.65
X172.37Y-106.65
X172.37Y-108.65
X172.48Y-130.975
X174.37Y-82.65
X174.37Y-84.65
X174.37Y-86.65
X174.37Y-88.65
X174.37Y-90.65
X174.37Y-92.65
X174.37Y-94.65
X174.37Y-96.65
X174.37Y-98.65
X174.37Y-100.65
X174.37Y-102.65
X174.37Y-104.65
X174.37Y-106.65
X174.37Y-108.65
X174.37Y-122.65
X174.37Y-124.65
X174.37Y-126.65
X174.37Y-128.65
X174.37Y-130.65
X174.37Y-132.65
X174.37Y-134.65
T2
X93.739Y-105.831
X93.739Y-107.031
X93.739Y-108.331
X93.739Y-109.431
X94.939Y-105.831
X94.939Y-107.031
X94.939Y-108.331
X94.939Y-109.431
T3
X121.695Y-110.356
X122.02Y-86.15
X130.62Y-114.65
X135.37Y-96.2
X135.92Y-114.625
X136.645Y-82.75
X140.795Y-91.475
X144.12Y-130.425
X152.145Y-143.275
X163.92Y-117.7
X163.97Y-113.625
X164.795Y-139.6
T5
X75.589Y-88.781
X75.589Y-99.781
X75.589Y-103.581
X75.589Y-114.581
X135.04Y-79.925
X137.58Y-79.925
X140.12Y-79.925
X142.66Y-79.925
X145.2Y-79.925
T6
X80.589Y-91.781
X80.589Y-96.781
X80.589Y-106.581
X80.589Y-111.581
T4
G00X166.215Y-111.38
M15
G01X167.315Y-111.38
M16
G05
G00X166.215Y-120.02
M15
G01X167.315Y-120.02
M16
G05
G00X170.645Y-111.38
M15
G01X171.245Y-111.38
M16
G05
G00X170.645Y-120.02
M15
G01X171.245Y-120.02
M16
G05
M30
