%TF.GenerationSoftware,KiCad,Pcbnew,10.0.0*%
%TF.CreationDate,2026-06-03T23:12:14-07:00*%
%TF.ProjectId,STM32_Drone,53544d33-325f-4447-926f-6e652e6b6963,rev?*%
%TF.SameCoordinates,Original*%
%TF.FileFunction,Copper,L1,Top*%
%TF.FilePolarity,Positive*%
%FSLAX46Y46*%
G04 Gerber Fmt 4.6, Leading zero omitted, Abs format (unit mm)*
G04 Created by KiCad (PCBNEW 10.0.0) date 2026-06-03 23:12:14*
%MOMM*%
%LPD*%
G01*
G04 APERTURE LIST*
G04 Aperture macros list*
%AMRoundRect*
0 Rectangle with rounded corners*
0 $1 Rounding radius*
0 $2 $3 $4 $5 $6 $7 $8 $9 X,Y pos of 4 corners*
0 Add a 4 corners polygon primitive as box body*
4,1,4,$2,$3,$4,$5,$6,$7,$8,$9,$2,$3,0*
0 Add four circle primitives for the rounded corners*
1,1,$1+$1,$2,$3*
1,1,$1+$1,$4,$5*
1,1,$1+$1,$6,$7*
1,1,$1+$1,$8,$9*
0 Add four rect primitives between the rounded corners*
20,1,$1+$1,$2,$3,$4,$5,0*
20,1,$1+$1,$4,$5,$6,$7,0*
20,1,$1+$1,$6,$7,$8,$9,0*
20,1,$1+$1,$8,$9,$2,$3,0*%
G04 Aperture macros list end*
%TA.AperFunction,SMDPad,CuDef*%
%ADD10RoundRect,0.250000X-0.650000X0.325000X-0.650000X-0.325000X0.650000X-0.325000X0.650000X0.325000X0*%
%TD*%
%TA.AperFunction,SMDPad,CuDef*%
%ADD11RoundRect,0.150000X0.512500X0.150000X-0.512500X0.150000X-0.512500X-0.150000X0.512500X-0.150000X0*%
%TD*%
%TA.AperFunction,SMDPad,CuDef*%
%ADD12RoundRect,0.135000X0.185000X-0.135000X0.185000X0.135000X-0.185000X0.135000X-0.185000X-0.135000X0*%
%TD*%
%TA.AperFunction,SMDPad,CuDef*%
%ADD13RoundRect,0.250000X-1.100000X0.325000X-1.100000X-0.325000X1.100000X-0.325000X1.100000X0.325000X0*%
%TD*%
%TA.AperFunction,SMDPad,CuDef*%
%ADD14RoundRect,0.140000X0.140000X0.170000X-0.140000X0.170000X-0.140000X-0.170000X0.140000X-0.170000X0*%
%TD*%
%TA.AperFunction,SMDPad,CuDef*%
%ADD15RoundRect,0.250000X1.100000X-0.325000X1.100000X0.325000X-1.100000X0.325000X-1.100000X-0.325000X0*%
%TD*%
%TA.AperFunction,SMDPad,CuDef*%
%ADD16RoundRect,0.075000X-0.700000X-0.075000X0.700000X-0.075000X0.700000X0.075000X-0.700000X0.075000X0*%
%TD*%
%TA.AperFunction,SMDPad,CuDef*%
%ADD17RoundRect,0.075000X-0.075000X-0.700000X0.075000X-0.700000X0.075000X0.700000X-0.075000X0.700000X0*%
%TD*%
%TA.AperFunction,SMDPad,CuDef*%
%ADD18R,0.650000X0.280000*%
%TD*%
%TA.AperFunction,SMDPad,CuDef*%
%ADD19R,0.280000X0.650000*%
%TD*%
%TA.AperFunction,SMDPad,CuDef*%
%ADD20RoundRect,0.140000X-0.170000X0.140000X-0.170000X-0.140000X0.170000X-0.140000X0.170000X0.140000X0*%
%TD*%
%TA.AperFunction,SMDPad,CuDef*%
%ADD21RoundRect,0.087500X-0.207500X-0.087500X0.207500X-0.087500X0.207500X0.087500X-0.207500X0.087500X0*%
%TD*%
%TA.AperFunction,SMDPad,CuDef*%
%ADD22RoundRect,0.087500X-0.087500X-0.207500X0.087500X-0.207500X0.087500X0.207500X-0.087500X0.207500X0*%
%TD*%
%TA.AperFunction,SMDPad,CuDef*%
%ADD23RoundRect,0.150000X-0.150000X-0.625000X0.150000X-0.625000X0.150000X0.625000X-0.150000X0.625000X0*%
%TD*%
%TA.AperFunction,SMDPad,CuDef*%
%ADD24RoundRect,0.250000X-0.350000X-0.650000X0.350000X-0.650000X0.350000X0.650000X-0.350000X0.650000X0*%
%TD*%
%TA.AperFunction,SMDPad,CuDef*%
%ADD25RoundRect,0.140000X-0.140000X-0.170000X0.140000X-0.170000X0.140000X0.170000X-0.140000X0.170000X0*%
%TD*%
%TA.AperFunction,SMDPad,CuDef*%
%ADD26RoundRect,0.140000X0.170000X-0.140000X0.170000X0.140000X-0.170000X0.140000X-0.170000X-0.140000X0*%
%TD*%
%TA.AperFunction,SMDPad,CuDef*%
%ADD27RoundRect,0.150000X-0.150000X0.587500X-0.150000X-0.587500X0.150000X-0.587500X0.150000X0.587500X0*%
%TD*%
%TA.AperFunction,SMDPad,CuDef*%
%ADD28R,3.800000X2.800000*%
%TD*%
%TA.AperFunction,SMDPad,CuDef*%
%ADD29RoundRect,0.135000X-0.135000X-0.185000X0.135000X-0.185000X0.135000X0.185000X-0.135000X0.185000X0*%
%TD*%
%TA.AperFunction,SMDPad,CuDef*%
%ADD30RoundRect,0.250000X-0.250000X-0.475000X0.250000X-0.475000X0.250000X0.475000X-0.250000X0.475000X0*%
%TD*%
%TA.AperFunction,SMDPad,CuDef*%
%ADD31RoundRect,0.135000X0.135000X0.185000X-0.135000X0.185000X-0.135000X-0.185000X0.135000X-0.185000X0*%
%TD*%
%TA.AperFunction,SMDPad,CuDef*%
%ADD32R,0.275000X0.250000*%
%TD*%
%TA.AperFunction,SMDPad,CuDef*%
%ADD33R,0.250000X0.275000*%
%TD*%
%TA.AperFunction,SMDPad,CuDef*%
%ADD34RoundRect,0.150000X0.150000X0.625000X-0.150000X0.625000X-0.150000X-0.625000X0.150000X-0.625000X0*%
%TD*%
%TA.AperFunction,SMDPad,CuDef*%
%ADD35RoundRect,0.250000X0.350000X0.650000X-0.350000X0.650000X-0.350000X-0.650000X0.350000X-0.650000X0*%
%TD*%
%TA.AperFunction,SMDPad,CuDef*%
%ADD36RoundRect,0.250000X0.350000X-0.450000X0.350000X0.450000X-0.350000X0.450000X-0.350000X-0.450000X0*%
%TD*%
%TA.AperFunction,ComponentPad*%
%ADD37R,1.700000X1.700000*%
%TD*%
%TA.AperFunction,ComponentPad*%
%ADD38C,1.700000*%
%TD*%
%TA.AperFunction,SMDPad,CuDef*%
%ADD39RoundRect,0.147500X0.147500X0.172500X-0.147500X0.172500X-0.147500X-0.172500X0.147500X-0.172500X0*%
%TD*%
%TA.AperFunction,SMDPad,CuDef*%
%ADD40RoundRect,0.150000X0.425000X-0.150000X0.425000X0.150000X-0.425000X0.150000X-0.425000X-0.150000X0*%
%TD*%
%TA.AperFunction,SMDPad,CuDef*%
%ADD41RoundRect,0.075000X0.500000X-0.075000X0.500000X0.075000X-0.500000X0.075000X-0.500000X-0.075000X0*%
%TD*%
%TA.AperFunction,ComponentPad*%
%ADD42O,2.100000X1.000000*%
%TD*%
%TA.AperFunction,ComponentPad*%
%ADD43O,1.600000X1.000000*%
%TD*%
%TA.AperFunction,SMDPad,CuDef*%
%ADD44RoundRect,0.150000X-0.512500X-0.150000X0.512500X-0.150000X0.512500X0.150000X-0.512500X0.150000X0*%
%TD*%
%TA.AperFunction,SMDPad,CuDef*%
%ADD45R,2.200000X1.500000*%
%TD*%
%TA.AperFunction,SMDPad,CuDef*%
%ADD46RoundRect,0.250000X-0.450000X-0.350000X0.450000X-0.350000X0.450000X0.350000X-0.450000X0.350000X0*%
%TD*%
%TA.AperFunction,ComponentPad*%
%ADD47C,1.400000*%
%TD*%
%TA.AperFunction,ComponentPad*%
%ADD48RoundRect,0.770000X0.980000X-0.980000X0.980000X0.980000X-0.980000X0.980000X-0.980000X-0.980000X0*%
%TD*%
%TA.AperFunction,ComponentPad*%
%ADD49C,3.500000*%
%TD*%
%TA.AperFunction,SMDPad,CuDef*%
%ADD50R,1.500000X1.800000*%
%TD*%
%TA.AperFunction,SMDPad,CuDef*%
%ADD51R,1.800000X1.500000*%
%TD*%
%TA.AperFunction,SMDPad,CuDef*%
%ADD52RoundRect,0.250000X0.375000X1.000000X-0.375000X1.000000X-0.375000X-1.000000X0.375000X-1.000000X0*%
%TD*%
%TA.AperFunction,SMDPad,CuDef*%
%ADD53RoundRect,0.150000X-0.625000X0.150000X-0.625000X-0.150000X0.625000X-0.150000X0.625000X0.150000X0*%
%TD*%
%TA.AperFunction,SMDPad,CuDef*%
%ADD54RoundRect,0.250000X-0.650000X0.350000X-0.650000X-0.350000X0.650000X-0.350000X0.650000X0.350000X0*%
%TD*%
%TA.AperFunction,SMDPad,CuDef*%
%ADD55R,0.750000X1.000000*%
%TD*%
%TA.AperFunction,SMDPad,CuDef*%
%ADD56RoundRect,0.135000X-0.185000X0.135000X-0.185000X-0.135000X0.185000X-0.135000X0.185000X0.135000X0*%
%TD*%
%TA.AperFunction,SMDPad,CuDef*%
%ADD57RoundRect,0.147500X-0.172500X0.147500X-0.172500X-0.147500X0.172500X-0.147500X0.172500X0.147500X0*%
%TD*%
%TA.AperFunction,SMDPad,CuDef*%
%ADD58R,0.450000X1.475000*%
%TD*%
%TA.AperFunction,SMDPad,CuDef*%
%ADD59R,6.200000X2.750000*%
%TD*%
%TA.AperFunction,SMDPad,CuDef*%
%ADD60R,1.550000X0.600000*%
%TD*%
%TA.AperFunction,ComponentPad*%
%ADD61C,0.600000*%
%TD*%
%TA.AperFunction,SMDPad,CuDef*%
%ADD62R,2.600000X3.100000*%
%TD*%
%TA.AperFunction,SMDPad,CuDef*%
%ADD63R,2.950000X4.500000*%
%TD*%
%TA.AperFunction,ViaPad*%
%ADD64C,0.600000*%
%TD*%
%TA.AperFunction,ViaPad*%
%ADD65C,0.900000*%
%TD*%
%TA.AperFunction,Conductor*%
%ADD66C,0.300000*%
%TD*%
%TA.AperFunction,Conductor*%
%ADD67C,0.200000*%
%TD*%
%TA.AperFunction,Conductor*%
%ADD68C,0.500000*%
%TD*%
%TA.AperFunction,Conductor*%
%ADD69C,0.150000*%
%TD*%
%TA.AperFunction,Conductor*%
%ADD70C,1.500000*%
%TD*%
%TA.AperFunction,Conductor*%
%ADD71C,1.000000*%
%TD*%
G04 APERTURE END LIST*
D10*
%TO.P,C49,1*%
%TO.N,Net-(J3-Pin_1)*%
X128295000Y-139605000D03*
%TO.P,C49,2*%
%TO.N,GND*%
X128295000Y-142555000D03*
%TD*%
D11*
%TO.P,U1,1,I/O1_1*%
%TO.N,/D-*%
X160307500Y-116700000D03*
%TO.P,U1,2,GND_2*%
%TO.N,GND*%
X160307500Y-115750000D03*
%TO.P,U1,3,I/O2_3*%
%TO.N,/D+*%
X160307500Y-114800000D03*
%TO.P,U1,4,I/O2_4*%
%TO.N,PA12*%
X158032500Y-114800000D03*
%TO.P,U1,5,VBUS_5*%
%TO.N,/VBUS*%
X158032500Y-115750000D03*
%TO.P,U1,6,I/O1_6*%
%TO.N,PA11*%
X158032500Y-116700000D03*
%TD*%
D12*
%TO.P,R4,1*%
%TO.N,/VBUS*%
X161430000Y-110860000D03*
%TO.P,R4,2*%
%TO.N,PA1*%
X161430000Y-109840000D03*
%TD*%
D13*
%TO.P,C30,1*%
%TO.N,GND*%
X171070000Y-123500000D03*
%TO.P,C30,2*%
%TO.N,Net-(U3-C1)*%
X171070000Y-126450000D03*
%TD*%
D12*
%TO.P,R10,1*%
%TO.N,+5V*%
X127340000Y-135940000D03*
%TO.P,R10,2*%
%TO.N,PC7*%
X127340000Y-134920000D03*
%TD*%
D14*
%TO.P,C11,1*%
%TO.N,PH0*%
X133180000Y-101470000D03*
%TO.P,C11,2*%
%TO.N,GND*%
X132220000Y-101470000D03*
%TD*%
D15*
%TO.P,C29,1*%
%TO.N,GND*%
X109508750Y-118681250D03*
%TO.P,C29,2*%
%TO.N,Net-(U4-EN)*%
X109508750Y-115731250D03*
%TD*%
D16*
%TO.P,U2,1,VBAT_1*%
%TO.N,+3.3V*%
X136695000Y-100900000D03*
%TO.P,U2,2,PC13_2*%
%TO.N,unconnected-(U2-PC13-Pad2)*%
X136695000Y-101400000D03*
%TO.P,U2,3,PC14_3*%
%TO.N,unconnected-(U2-PC14-Pad3)*%
X136695000Y-101900000D03*
%TO.P,U2,4,PC15_4*%
%TO.N,unconnected-(U2-PC15-Pad4)*%
X136695000Y-102400000D03*
%TO.P,U2,5,PH0_5*%
%TO.N,PH0*%
X136695000Y-102900000D03*
%TO.P,U2,6,PH1_6*%
%TO.N,PH1*%
X136695000Y-103400000D03*
%TO.P,U2,7,NRST_7*%
%TO.N,NRST*%
X136695000Y-103900000D03*
%TO.P,U2,8,PC0_8*%
%TO.N,PC0*%
X136695000Y-104400000D03*
%TO.P,U2,9,PC1_9*%
%TO.N,PC1*%
X136695000Y-104900000D03*
%TO.P,U2,10,PC2_10*%
%TO.N,PC2*%
X136695000Y-105400000D03*
%TO.P,U2,11,PC3_11*%
%TO.N,PC3*%
X136695000Y-105900000D03*
%TO.P,U2,12,VSSA_12*%
%TO.N,GND*%
X136695000Y-106400000D03*
%TO.P,U2,13,VDDA_13*%
%TO.N,VDDA*%
X136695000Y-106900000D03*
%TO.P,U2,14,PA0_14*%
%TO.N,PA0*%
X136695000Y-107400000D03*
%TO.P,U2,15,PA1_15*%
%TO.N,PA1*%
X136695000Y-107900000D03*
%TO.P,U2,16,PA2_16*%
%TO.N,PA2*%
X136695000Y-108400000D03*
D17*
%TO.P,U2,17,PA3_17*%
%TO.N,unconnected-(U2-PA3-Pad17)*%
X138620000Y-110325000D03*
%TO.P,U2,18,VSS_18*%
%TO.N,GND*%
X139120000Y-110325000D03*
%TO.P,U2,19,VDD_19*%
%TO.N,+3.3V*%
X139620000Y-110325000D03*
%TO.P,U2,20,PA4_20*%
%TO.N,unconnected-(U2-PA4-Pad20)*%
X140120000Y-110325000D03*
%TO.P,U2,21,PA5_21*%
%TO.N,PA5*%
X140620000Y-110325000D03*
%TO.P,U2,22,PA6_22*%
%TO.N,PA6*%
X141120000Y-110325000D03*
%TO.P,U2,23,PA7_23*%
%TO.N,PA7*%
X141620000Y-110325000D03*
%TO.P,U2,24,PC4_24*%
%TO.N,PC4*%
X142120000Y-110325000D03*
%TO.P,U2,25,PC5_25*%
%TO.N,PC5*%
X142620000Y-110325000D03*
%TO.P,U2,26,PB0_26*%
%TO.N,PB0*%
X143120000Y-110325000D03*
%TO.P,U2,27,PB1_27*%
%TO.N,PB1*%
X143620000Y-110325000D03*
%TO.P,U2,28,PB2_28*%
%TO.N,unconnected-(U2-PB2-Pad28)*%
X144120000Y-110325000D03*
%TO.P,U2,29,PB10_29*%
%TO.N,PB10*%
X144620000Y-110325000D03*
%TO.P,U2,30,PB11_30*%
%TO.N,PB11*%
X145120000Y-110325000D03*
%TO.P,U2,31,VCAP_1_31*%
%TO.N,/VCAP1*%
X145620000Y-110325000D03*
%TO.P,U2,32,VDD_32*%
%TO.N,+3.3V*%
X146120000Y-110325000D03*
D16*
%TO.P,U2,33,PB12_33*%
%TO.N,unconnected-(U2-PB12-Pad33)*%
X148045000Y-108400000D03*
%TO.P,U2,34,PB13_34*%
%TO.N,PB13*%
X148045000Y-107900000D03*
%TO.P,U2,35,PB14_35*%
%TO.N,unconnected-(U2-PB14-Pad35)*%
X148045000Y-107400000D03*
%TO.P,U2,36,PB15_36*%
%TO.N,unconnected-(U2-PB15-Pad36)*%
X148045000Y-106900000D03*
%TO.P,U2,37,PC6_37*%
%TO.N,PC6*%
X148045000Y-106400000D03*
%TO.P,U2,38,PC7_38*%
%TO.N,PC7*%
X148045000Y-105900000D03*
%TO.P,U2,39,PC8_39*%
%TO.N,unconnected-(U2-PC8-Pad39)*%
X148045000Y-105400000D03*
%TO.P,U2,40,PC9_40*%
%TO.N,PC9*%
X148045000Y-104900000D03*
%TO.P,U2,41,PA8_41*%
%TO.N,PA8*%
X148045000Y-104400000D03*
%TO.P,U2,42,PA9_42*%
%TO.N,PA9*%
X148045000Y-103900000D03*
%TO.P,U2,43,PA10_43*%
%TO.N,PA10*%
X148045000Y-103400000D03*
%TO.P,U2,44,PA11_44*%
%TO.N,PA11*%
X148045000Y-102900000D03*
%TO.P,U2,45,PA12_45*%
%TO.N,PA12*%
X148045000Y-102400000D03*
%TO.P,U2,46,PA13_46*%
%TO.N,PA13*%
X148045000Y-101900000D03*
%TO.P,U2,47,VCAP_2_47*%
%TO.N,/VCAP2*%
X148045000Y-101400000D03*
%TO.P,U2,48,VDD_48*%
%TO.N,+3.3V*%
X148045000Y-100900000D03*
D17*
%TO.P,U2,49,PA14_49*%
%TO.N,PA14*%
X146120000Y-98975000D03*
%TO.P,U2,50,PA15_50*%
%TO.N,unconnected-(U2-PA15-Pad50)*%
X145620000Y-98975000D03*
%TO.P,U2,51,PC10_51*%
%TO.N,unconnected-(U2-PC10-Pad51)*%
X145120000Y-98975000D03*
%TO.P,U2,52,PC11_52*%
%TO.N,unconnected-(U2-PC11-Pad52)*%
X144620000Y-98975000D03*
%TO.P,U2,53,PC12_53*%
%TO.N,unconnected-(U2-PC12-Pad53)*%
X144120000Y-98975000D03*
%TO.P,U2,54,PD2_54*%
%TO.N,unconnected-(U2-PD2-Pad54)*%
X143620000Y-98975000D03*
%TO.P,U2,55,PB3_55*%
%TO.N,PB3*%
X143120000Y-98975000D03*
%TO.P,U2,56,PB4_56*%
%TO.N,PB4*%
X142620000Y-98975000D03*
%TO.P,U2,57,PB5_57*%
%TO.N,PB5*%
X142120000Y-98975000D03*
%TO.P,U2,58,PB6_58*%
%TO.N,PB6*%
X141620000Y-98975000D03*
%TO.P,U2,59,PB7_59*%
%TO.N,PB7*%
X141120000Y-98975000D03*
%TO.P,U2,60,BOOT0_60*%
%TO.N,BOOT0*%
X140620000Y-98975000D03*
%TO.P,U2,61,PB8_61*%
%TO.N,unconnected-(U2-PB8-Pad61)*%
X140120000Y-98975000D03*
%TO.P,U2,62,PB9_62*%
%TO.N,unconnected-(U2-PB9-Pad62)*%
X139620000Y-98975000D03*
%TO.P,U2,63,VSS_63*%
%TO.N,GND*%
X139120000Y-98975000D03*
%TO.P,U2,64,VDD_64*%
%TO.N,+3.3V*%
X138620000Y-98975000D03*
%TD*%
D18*
%TO.P,U3,1,SCL_1*%
%TO.N,PB10*%
X167790200Y-130615200D03*
%TO.P,U3,2,VDD_2*%
%TO.N,+3.3V*%
X167790200Y-131115200D03*
%TO.P,U3,3,NC_3*%
%TO.N,unconnected-(U3-NC-Pad3)*%
X167790200Y-131615200D03*
%TO.P,U3,4,S1_4*%
%TO.N,+3.3V*%
X167790200Y-132115200D03*
D19*
%TO.P,U3,5,NC_5*%
%TO.N,unconnected-(U3-NC-Pad5)*%
X168410200Y-132735200D03*
%TO.P,U3,6,NC_6*%
%TO.N,unconnected-(U3-NC-Pad6)*%
X168910200Y-132735200D03*
%TO.P,U3,7,NC_7*%
%TO.N,unconnected-(U3-NC-Pad7)*%
X169410200Y-132735200D03*
%TO.P,U3,8,SETP_8*%
%TO.N,Net-(U3-SETP)*%
X169910200Y-132735200D03*
D18*
%TO.P,U3,9,GND_9*%
%TO.N,GND*%
X170530200Y-132115200D03*
%TO.P,U3,10,C1_10*%
%TO.N,Net-(U3-C1)*%
X170530200Y-131615200D03*
%TO.P,U3,11,GND_11*%
%TO.N,GND*%
X170530200Y-131115200D03*
%TO.P,U3,12,SETC_12*%
%TO.N,Net-(U3-SETC)*%
X170530200Y-130615200D03*
D19*
%TO.P,U3,13,VDDIO_13*%
%TO.N,+3.3V*%
X169910200Y-129995200D03*
%TO.P,U3,14,NC_14*%
%TO.N,unconnected-(U3-NC-Pad14)*%
X169410200Y-129995200D03*
%TO.P,U3,15,DRDY_15*%
%TO.N,unconnected-(U3-DRDY-Pad15)*%
X168910200Y-129995200D03*
%TO.P,U3,16,SDA_16*%
%TO.N,PB11*%
X168410200Y-129995200D03*
%TD*%
D14*
%TO.P,C26,1*%
%TO.N,GND*%
X101998750Y-109131250D03*
%TO.P,C26,2*%
%TO.N,Net-(C26-Pad2)*%
X101038750Y-109131250D03*
%TD*%
D20*
%TO.P,C51,1*%
%TO.N,Net-(U9-PGND)*%
X132470000Y-134725000D03*
%TO.P,C51,2*%
%TO.N,+5V*%
X132470000Y-135685000D03*
%TD*%
D14*
%TO.P,C2,1*%
%TO.N,GND*%
X148070000Y-110650000D03*
%TO.P,C2,2*%
%TO.N,+3.3V*%
X147110000Y-110650000D03*
%TD*%
D21*
%TO.P,U8,1,AP_SDO/AP_AD0_1*%
%TO.N,PA6*%
X141055000Y-113560000D03*
%TO.P,U8,2,RESV_2_2*%
%TO.N,GND*%
X141055000Y-114060000D03*
%TO.P,U8,3,RESV_3_3*%
X141055000Y-114560000D03*
%TO.P,U8,4,INT1/INT_4*%
%TO.N,unconnected-(U8-INT1{slash}INT-Pad4)*%
X141055000Y-115060000D03*
D22*
%TO.P,U8,5,VDDIO_5*%
%TO.N,+3.3V*%
X141720000Y-115225000D03*
%TO.P,U8,6,GND_6*%
%TO.N,GND*%
X142220000Y-115225000D03*
%TO.P,U8,7,RESV_7_7*%
X142720000Y-115225000D03*
D21*
%TO.P,U8,8,VDD_8*%
%TO.N,+3.3V*%
X143385000Y-115060000D03*
%TO.P,U8,9,INT2/FSYNC/CLKIN_9*%
%TO.N,GND*%
X143385000Y-114560000D03*
%TO.P,U8,10,RESV_10_10*%
X143385000Y-114060000D03*
%TO.P,U8,11,RESV_11_11*%
X143385000Y-113560000D03*
D22*
%TO.P,U8,12,AP_CS_12*%
%TO.N,PC4*%
X142720000Y-113395000D03*
%TO.P,U8,13,AP_SCL/AP_SCLK_13*%
%TO.N,PA5*%
X142220000Y-113395000D03*
%TO.P,U8,14,AP_SDA/AP_SDIO/AP_SDI_14*%
%TO.N,PA7*%
X141720000Y-113395000D03*
%TD*%
D23*
%TO.P,J8,1,Pin_1_1*%
%TO.N,Net-(J8-Pin_1)*%
X113150000Y-81250000D03*
%TO.P,J8,2,Pin_2_2*%
%TO.N,GND*%
X114150000Y-81250000D03*
D24*
%TO.P,J8,MP*%
%TO.N,N/C*%
X111850000Y-78725000D03*
X115450000Y-78725000D03*
%TD*%
D14*
%TO.P,C3,1*%
%TO.N,GND*%
X150770000Y-99620000D03*
%TO.P,C3,2*%
%TO.N,+3.3V*%
X149810000Y-99620000D03*
%TD*%
D25*
%TO.P,C14,1*%
%TO.N,/VCAP2*%
X149790000Y-101000000D03*
%TO.P,C14,2*%
%TO.N,GND*%
X150750000Y-101000000D03*
%TD*%
D26*
%TO.P,C37,1*%
%TO.N,GND*%
X145570000Y-132670000D03*
%TO.P,C37,2*%
%TO.N,+3.3V*%
X145570000Y-131710000D03*
%TD*%
D27*
%TO.P,Q1,1,G_1*%
%TO.N,Net-(Q1-G)*%
X108620000Y-135662500D03*
%TO.P,Q1,2,S_2*%
%TO.N,GND*%
X106720000Y-135662500D03*
%TO.P,Q1,3,D_3*%
%TO.N,Net-(J7-Pin_2)*%
X107670000Y-137537500D03*
%TD*%
D25*
%TO.P,C50,1*%
%TO.N,GND*%
X134610000Y-125450000D03*
%TO.P,C50,2*%
%TO.N,+5V*%
X135570000Y-125450000D03*
%TD*%
D28*
%TO.P,D2,A*%
%TO.N,GND*%
X100958750Y-93681250D03*
%TO.P,D2,C*%
%TO.N,Net-(U5-SW)*%
X100958750Y-101081250D03*
%TD*%
D12*
%TO.P,R18,1*%
%TO.N,VTX*%
X134570000Y-138485000D03*
%TO.P,R18,2*%
%TO.N,Net-(C53-Pad1)*%
X134570000Y-137465000D03*
%TD*%
D25*
%TO.P,C35,1*%
%TO.N,+3.3V*%
X120273750Y-112906250D03*
%TO.P,C35,2*%
%TO.N,GND*%
X121233750Y-112906250D03*
%TD*%
D14*
%TO.P,C36,1*%
%TO.N,GND*%
X155350000Y-140550000D03*
%TO.P,C36,2*%
%TO.N,+3.3V*%
X154390000Y-140550000D03*
%TD*%
D29*
%TO.P,R5,1*%
%TO.N,PA1*%
X161495000Y-108800000D03*
%TO.P,R5,2*%
%TO.N,GND*%
X162515000Y-108800000D03*
%TD*%
D14*
%TO.P,C10,1*%
%TO.N,GND*%
X140470000Y-96690000D03*
%TO.P,C10,2*%
%TO.N,+3.3V*%
X139510000Y-96690000D03*
%TD*%
D30*
%TO.P,C8,1*%
%TO.N,GND*%
X130370000Y-112665000D03*
%TO.P,C8,2*%
%TO.N,+3.3V*%
X132270000Y-112665000D03*
%TD*%
D29*
%TO.P,R25,1*%
%TO.N,PA0*%
X90938750Y-95306250D03*
%TO.P,R25,2*%
%TO.N,GND*%
X91958750Y-95306250D03*
%TD*%
D26*
%TO.P,C54,1*%
%TO.N,CAM_VIDEO*%
X131170000Y-135480000D03*
%TO.P,C54,2*%
%TO.N,Net-(U9-VIN)*%
X131170000Y-134520000D03*
%TD*%
D14*
%TO.P,C44,1*%
%TO.N,Net-(C41-Pad1)*%
X168755000Y-134600000D03*
%TO.P,C44,2*%
%TO.N,GND*%
X167795000Y-134600000D03*
%TD*%
D12*
%TO.P,R9,1*%
%TO.N,+5V*%
X128520000Y-135560000D03*
%TO.P,R9,2*%
%TO.N,Net-(U9-~{HSYNC})*%
X128520000Y-134540000D03*
%TD*%
D26*
%TO.P,C33,1*%
%TO.N,Net-(U4-EN)*%
X114758750Y-111761250D03*
%TO.P,C33,2*%
%TO.N,GND*%
X114758750Y-110801250D03*
%TD*%
D31*
%TO.P,R15,1*%
%TO.N,Net-(C26-Pad2)*%
X99848750Y-109131250D03*
%TO.P,R15,2*%
%TO.N,Net-(U5-COMP)*%
X98828750Y-109131250D03*
%TD*%
D25*
%TO.P,C9,1*%
%TO.N,GND*%
X132640000Y-91725000D03*
%TO.P,C9,2*%
%TO.N,NRST*%
X133600000Y-91725000D03*
%TD*%
D26*
%TO.P,C15,1*%
%TO.N,/VBUS*%
X163680000Y-110560000D03*
%TO.P,C15,2*%
%TO.N,GND*%
X163680000Y-109600000D03*
%TD*%
D12*
%TO.P,R11,1*%
%TO.N,Net-(U9-LOS)*%
X125720000Y-125460000D03*
%TO.P,R11,2*%
%TO.N,+5V*%
X125720000Y-124440000D03*
%TD*%
D15*
%TO.P,C27,1*%
%TO.N,GND*%
X106008750Y-118681250D03*
%TO.P,C27,2*%
%TO.N,Net-(U4-EN)*%
X106008750Y-115731250D03*
%TD*%
D13*
%TO.P,C23,1*%
%TO.N,GND*%
X87050000Y-100275000D03*
%TO.P,C23,2*%
%TO.N,VBAT*%
X87050000Y-103225000D03*
%TD*%
D29*
%TO.P,R20,1*%
%TO.N,PC6*%
X107685000Y-133025000D03*
%TO.P,R20,2*%
%TO.N,Net-(Q1-G)*%
X108705000Y-133025000D03*
%TD*%
D32*
%TO.P,U7,1,VDDIO_1*%
%TO.N,+3.3V*%
X144157500Y-94750000D03*
%TO.P,U7,2,SCK_2*%
%TO.N,PB3*%
X144157500Y-95250000D03*
D33*
%TO.P,U7,3,VSS_3*%
%TO.N,GND*%
X144420000Y-95762500D03*
%TO.P,U7,4,SDI_4*%
%TO.N,PB5*%
X144920000Y-95762500D03*
%TO.P,U7,5,SDO_5*%
%TO.N,PB4*%
X145420000Y-95762500D03*
D32*
%TO.P,U7,6,CSB_6*%
%TO.N,PC0*%
X145682500Y-95250000D03*
%TO.P,U7,7,INT_7*%
%TO.N,unconnected-(U7-INT-Pad7)*%
X145682500Y-94750000D03*
D33*
%TO.P,U7,8,VSS_8*%
%TO.N,GND*%
X145420000Y-94237500D03*
%TO.P,U7,9,VSS_9*%
X144920000Y-94237500D03*
%TO.P,U7,10,VDD_10*%
%TO.N,+3.3V*%
X144420000Y-94237500D03*
%TD*%
D20*
%TO.P,C13,1*%
%TO.N,/VCAP1*%
X146360000Y-112820000D03*
%TO.P,C13,2*%
%TO.N,GND*%
X146360000Y-113780000D03*
%TD*%
D14*
%TO.P,C53,1*%
%TO.N,Net-(C53-Pad1)*%
X135525000Y-136350000D03*
%TO.P,C53,2*%
%TO.N,Net-(U9-SAG)*%
X134565000Y-136350000D03*
%TD*%
D34*
%TO.P,J4,1,Pin_1_1*%
%TO.N,+5V*%
X136470000Y-140400000D03*
%TO.P,J4,2,Pin_2_2*%
%TO.N,GND*%
X135470000Y-140400000D03*
%TO.P,J4,3,Pin_3_3*%
%TO.N,VTX*%
X134470000Y-140400000D03*
%TO.P,J4,4,Pin_4_4*%
%TO.N,PA2*%
X133470000Y-140400000D03*
D35*
%TO.P,J4,MP*%
%TO.N,N/C*%
X137770000Y-142925000D03*
X132170000Y-142925000D03*
%TD*%
D30*
%TO.P,C5,1*%
%TO.N,GND*%
X132220000Y-98700000D03*
%TO.P,C5,2*%
%TO.N,+3.3V*%
X134120000Y-98700000D03*
%TD*%
D26*
%TO.P,C40,1*%
%TO.N,+3.3V*%
X142270000Y-93760000D03*
%TO.P,C40,2*%
%TO.N,GND*%
X142270000Y-92800000D03*
%TD*%
D36*
%TO.P,Y1,1,1_1*%
%TO.N,PH1*%
X132740000Y-105250000D03*
%TO.P,Y1,2,2_2*%
%TO.N,PH0*%
X132740000Y-103050000D03*
%TO.P,Y1,3*%
%TO.N,N/C*%
X131040000Y-103050000D03*
%TO.P,Y1,4*%
X131040000Y-105250000D03*
%TD*%
D37*
%TO.P,J2,1,Pin_1_1*%
%TO.N,+3.3V*%
X135040000Y-79925000D03*
D38*
%TO.P,J2,2,Pin_2_2*%
%TO.N,PA13*%
X137580000Y-79925000D03*
%TO.P,J2,3,Pin_3_3*%
%TO.N,PA14*%
X140120000Y-79925000D03*
%TO.P,J2,4,Pin_4_4*%
%TO.N,NRST*%
X142660000Y-79925000D03*
%TO.P,J2,5,Pin_5_5*%
%TO.N,GND*%
X145200000Y-79925000D03*
%TD*%
D39*
%TO.P,FB2,1*%
%TO.N,+5V*%
X127855000Y-137650000D03*
%TO.P,FB2,2*%
%TO.N,Net-(J3-Pin_1)*%
X126885000Y-137650000D03*
%TD*%
D14*
%TO.P,C45,1*%
%TO.N,GND*%
X145580000Y-116250000D03*
%TO.P,C45,2*%
%TO.N,+3.3V*%
X144620000Y-116250000D03*
%TD*%
%TO.P,C25,1*%
%TO.N,Net-(U5-SW)*%
X94918750Y-104231250D03*
%TO.P,C25,2*%
%TO.N,Net-(U5-BOOT)*%
X93958750Y-104231250D03*
%TD*%
%TO.P,C56,1*%
%TO.N,GND*%
X91913750Y-96731250D03*
%TO.P,C56,2*%
%TO.N,PA0*%
X90953750Y-96731250D03*
%TD*%
D29*
%TO.P,R1,1*%
%TO.N,/SW_BOOT0*%
X124610000Y-85150000D03*
%TO.P,R1,2*%
%TO.N,BOOT0*%
X125630000Y-85150000D03*
%TD*%
%TO.P,R24,1*%
%TO.N,VBAT*%
X87073750Y-96756250D03*
%TO.P,R24,2*%
%TO.N,PA0*%
X88093750Y-96756250D03*
%TD*%
D20*
%TO.P,C4,1*%
%TO.N,GND*%
X137330000Y-97740000D03*
%TO.P,C4,2*%
%TO.N,+3.3V*%
X137330000Y-98700000D03*
%TD*%
D30*
%TO.P,C7,1*%
%TO.N,GND*%
X130870000Y-110500000D03*
%TO.P,C7,2*%
%TO.N,VDDA*%
X132770000Y-110500000D03*
%TD*%
D40*
%TO.P,J1,A1,GND_A1*%
%TO.N,GND*%
X166200000Y-118900000D03*
%TO.P,J1,A4,VBUS_A4*%
%TO.N,/VBUS*%
X166200000Y-118100000D03*
D41*
%TO.P,J1,A5,CC1_A5*%
%TO.N,/CC1*%
X166200000Y-116950000D03*
%TO.P,J1,A6,D+_A6*%
%TO.N,/D+*%
X166200000Y-115950000D03*
%TO.P,J1,A7,D-_A7*%
%TO.N,/D-*%
X166200000Y-115450000D03*
%TO.P,J1,A8,SBU1_A8*%
%TO.N,unconnected-(J1-SBU1-PadA8)*%
X166200000Y-114450000D03*
D40*
%TO.P,J1,A9,VBUS_A9*%
%TO.N,/VBUS*%
X166200000Y-113300000D03*
%TO.P,J1,A12,GND_A12*%
%TO.N,GND*%
X166200000Y-112500000D03*
%TO.P,J1,B1,GND_B1*%
X166200000Y-112500000D03*
%TO.P,J1,B4,VBUS_B4*%
%TO.N,/VBUS*%
X166200000Y-113300000D03*
D41*
%TO.P,J1,B5,CC2_B5*%
%TO.N,/CC2*%
X166200000Y-113950000D03*
%TO.P,J1,B6,D+_B6*%
%TO.N,/D+*%
X166200000Y-114950000D03*
%TO.P,J1,B7,D-_B7*%
%TO.N,/D-*%
X166200000Y-116450000D03*
%TO.P,J1,B8,SBU2_B8*%
%TO.N,unconnected-(J1-SBU2-PadB8)*%
X166200000Y-117450000D03*
D40*
%TO.P,J1,B9,VBUS_B9*%
%TO.N,/VBUS*%
X166200000Y-118100000D03*
%TO.P,J1,B12,GND_B12*%
%TO.N,GND*%
X166200000Y-118900000D03*
D42*
%TO.P,J1,SH,SHIELD_SH*%
X166765000Y-120020000D03*
D43*
X170945000Y-120020000D03*
D42*
X166765000Y-111380000D03*
D43*
X170945000Y-111380000D03*
%TD*%
D31*
%TO.P,R21,1*%
%TO.N,GND*%
X110980000Y-134050000D03*
%TO.P,R21,2*%
%TO.N,Net-(Q1-G)*%
X109960000Y-134050000D03*
%TD*%
D12*
%TO.P,R17,1*%
%TO.N,GND*%
X113458750Y-118491250D03*
%TO.P,R17,2*%
%TO.N,FB*%
X113458750Y-117471250D03*
%TD*%
D20*
%TO.P,C52,1*%
%TO.N,Net-(U9-AGND)*%
X129895000Y-134525000D03*
%TO.P,C52,2*%
%TO.N,+5V*%
X129895000Y-135485000D03*
%TD*%
D44*
%TO.P,U4,1,IN_1*%
%TO.N,Net-(U4-EN)*%
X116401250Y-112768750D03*
%TO.P,U4,2,GND_2*%
%TO.N,GND*%
X116401250Y-113718750D03*
%TO.P,U4,3,EN_3*%
%TO.N,Net-(U4-EN)*%
X116401250Y-114668750D03*
%TO.P,U4,4,BP_4*%
%TO.N,Net-(U4-BP)*%
X118676250Y-114668750D03*
%TO.P,U4,5,OUT_5*%
%TO.N,+3.3V*%
X118676250Y-112768750D03*
%TD*%
D45*
%TO.P,L2,1,1_1*%
%TO.N,Net-(U5-SW)*%
X107588750Y-106718750D03*
%TO.P,L2,2,2_2*%
%TO.N,Net-(U4-EN)*%
X107588750Y-113118750D03*
%TD*%
D14*
%TO.P,C28,1*%
%TO.N,GND*%
X99768750Y-107981250D03*
%TO.P,C28,2*%
%TO.N,Net-(U5-COMP)*%
X98808750Y-107981250D03*
%TD*%
D12*
%TO.P,R19,1*%
%TO.N,GND*%
X131195000Y-138235000D03*
%TO.P,R19,2*%
%TO.N,CAM_VIDEO*%
X131195000Y-137215000D03*
%TD*%
D25*
%TO.P,C34,1*%
%TO.N,Net-(U4-BP)*%
X120303750Y-114706250D03*
%TO.P,C34,2*%
%TO.N,GND*%
X121263750Y-114706250D03*
%TD*%
D12*
%TO.P,R14,1*%
%TO.N,GND*%
X91488750Y-112141250D03*
%TO.P,R14,2*%
%TO.N,Net-(U5-RT{slash}CLK)*%
X91488750Y-111121250D03*
%TD*%
D26*
%TO.P,C1,1*%
%TO.N,GND*%
X139190000Y-114650000D03*
%TO.P,C1,2*%
%TO.N,+3.3V*%
X139190000Y-113690000D03*
%TD*%
D46*
%TO.P,Y2,1,1_1*%
%TO.N,Net-(U9-CLKIN)*%
X130720000Y-124150000D03*
%TO.P,Y2,2,2_2*%
%TO.N,Net-(U9-XFB)*%
X132920000Y-124150000D03*
%TO.P,Y2,3*%
%TO.N,N/C*%
X132920000Y-122450000D03*
%TO.P,Y2,4*%
X130720000Y-122450000D03*
%TD*%
D25*
%TO.P,C6,1*%
%TO.N,GND*%
X131190000Y-108765000D03*
%TO.P,C6,2*%
%TO.N,VDDA*%
X132150000Y-108765000D03*
%TD*%
%TO.P,C43,1*%
%TO.N,Net-(U3-SETP)*%
X170365000Y-133950000D03*
%TO.P,C43,2*%
%TO.N,Net-(U3-SETC)*%
X171325000Y-133950000D03*
%TD*%
D20*
%TO.P,C41,1*%
%TO.N,Net-(C41-Pad1)*%
X168695000Y-136270000D03*
%TO.P,C41,2*%
%TO.N,+3.3V*%
X168695000Y-137230000D03*
%TD*%
D25*
%TO.P,C39,1*%
%TO.N,+3.3V*%
X144865000Y-92325000D03*
%TO.P,C39,2*%
%TO.N,GND*%
X145825000Y-92325000D03*
%TD*%
D13*
%TO.P,C24,1*%
%TO.N,GND*%
X90710000Y-100315000D03*
%TO.P,C24,2*%
%TO.N,VBAT*%
X90710000Y-103265000D03*
%TD*%
D29*
%TO.P,R22,1*%
%TO.N,Net-(J8-Pin_1)*%
X113180000Y-83225000D03*
%TO.P,R22,2*%
%TO.N,PC1*%
X114200000Y-83225000D03*
%TD*%
D47*
%TO.P,J10,*%
%TO.N,*%
X75588750Y-99781250D03*
X75588750Y-88781250D03*
D48*
%TO.P,J10,1,Pin_1_1*%
%TO.N,VBAT*%
X80588750Y-96781250D03*
D49*
%TO.P,J10,2,Pin_2_2*%
%TO.N,GND*%
X80588750Y-91781250D03*
%TD*%
D50*
%TO.P,U6,1,GND_1*%
%TO.N,GND*%
X150495000Y-138262500D03*
%TO.P,U6,2,V_IO_2*%
%TO.N,+3.3V*%
X152395000Y-138262500D03*
%TO.P,U6,3,V_BCKP_3*%
X154295000Y-138262500D03*
%TO.P,U6,4,GND_4*%
%TO.N,GND*%
X156195000Y-138262500D03*
%TO.P,U6,5,GND_5*%
X158095000Y-138262500D03*
D51*
%TO.P,U6,6,GND_6*%
X160895000Y-135462500D03*
%TO.P,U6,7,TIMEPULSE_7*%
%TO.N,unconnected-(U6-TIMEPULSE-Pad7)*%
X160895000Y-133562500D03*
%TO.P,U6,8,SAFEBOOT_N_8*%
%TO.N,unconnected-(U6-SAFEBOOT_N-Pad8)*%
X160895000Y-131662500D03*
%TO.P,U6,9,SDA_9*%
%TO.N,unconnected-(U6-SDA-Pad9)*%
X160895000Y-129762500D03*
%TO.P,U6,10,GND_10*%
%TO.N,GND*%
X160895000Y-127862500D03*
D50*
%TO.P,U6,11,GND_11*%
X158095000Y-125062500D03*
%TO.P,U6,12,SCL_12*%
%TO.N,unconnected-(U6-SCL-Pad12)*%
X156195000Y-125062500D03*
%TO.P,U6,13,TXD_13*%
%TO.N,PB0*%
X154295000Y-125062500D03*
%TO.P,U6,14,RXD_14*%
%TO.N,PB1*%
X152395000Y-125062500D03*
%TO.P,U6,15,GND_15*%
%TO.N,GND*%
X150495000Y-125062500D03*
D51*
%TO.P,U6,16,GND_16*%
X147695000Y-127862500D03*
%TO.P,U6,17,VCC_17*%
%TO.N,+3.3V*%
X147695000Y-129762500D03*
%TO.P,U6,18,RESET_N_18*%
%TO.N,unconnected-(U6-RESET_N-Pad18)*%
X147695000Y-131662500D03*
%TO.P,U6,19,EXTINT_19*%
%TO.N,unconnected-(U6-EXTINT-Pad19)*%
X147695000Y-133562500D03*
%TO.P,U6,20,GND_20*%
%TO.N,GND*%
X147695000Y-135462500D03*
%TD*%
D25*
%TO.P,C38,1*%
%TO.N,GND*%
X151240000Y-140575000D03*
%TO.P,C38,2*%
%TO.N,+3.3V*%
X152200000Y-140575000D03*
%TD*%
D20*
%TO.P,C48,1*%
%TO.N,Net-(J3-Pin_1)*%
X130370000Y-140600000D03*
%TO.P,C48,2*%
%TO.N,GND*%
X130370000Y-141560000D03*
%TD*%
D52*
%TO.P,SW1,1,A_1*%
%TO.N,GND*%
X127320000Y-82400000D03*
%TO.P,SW1,2,B_2*%
%TO.N,/SW_BOOT0*%
X124820000Y-82400000D03*
%TO.P,SW1,3,C_3*%
%TO.N,+3.3V*%
X122320000Y-82400000D03*
%TD*%
D25*
%TO.P,C47,1*%
%TO.N,GND*%
X139090000Y-116460000D03*
%TO.P,C47,2*%
%TO.N,+3.3V*%
X140050000Y-116460000D03*
%TD*%
D12*
%TO.P,R16,1*%
%TO.N,FB*%
X113458750Y-116228750D03*
%TO.P,R16,2*%
%TO.N,Net-(U4-EN)*%
X113458750Y-115208750D03*
%TD*%
D53*
%TO.P,J5,1,Pin_1_1*%
%TO.N,PA10*%
X163895000Y-98475000D03*
%TO.P,J5,2,Pin_2_2*%
%TO.N,PA9*%
X163895000Y-99475000D03*
%TO.P,J5,3,Pin_3_3*%
%TO.N,PA8*%
X163895000Y-100475000D03*
%TO.P,J5,4,Pin_4_4*%
%TO.N,PC9*%
X163895000Y-101475000D03*
%TO.P,J5,5,Pin_5_5*%
%TO.N,GND*%
X163895000Y-102475000D03*
%TO.P,J5,6,Pin_6_6*%
X163895000Y-103475000D03*
%TO.P,J5,7,Pin_7_7*%
X163895000Y-104475000D03*
%TO.P,J5,8,Pin_8_8*%
X163895000Y-105475000D03*
D54*
%TO.P,J5,MP*%
%TO.N,N/C*%
X166420000Y-97175000D03*
X166420000Y-106775000D03*
%TD*%
D31*
%TO.P,R23,1*%
%TO.N,PC1*%
X112200000Y-84220000D03*
%TO.P,R23,2*%
%TO.N,GND*%
X111180000Y-84220000D03*
%TD*%
D55*
%TO.P,SW2,1,1_1*%
%TO.N,GND*%
X131095000Y-90275000D03*
X131095000Y-84275000D03*
%TO.P,SW2,2,2_2*%
%TO.N,NRST*%
X134845000Y-90275000D03*
X134845000Y-84275000D03*
%TD*%
D56*
%TO.P,R8,1*%
%TO.N,PB11*%
X167845000Y-125330000D03*
%TO.P,R8,2*%
%TO.N,+3.3V*%
X167845000Y-126350000D03*
%TD*%
D57*
%TO.P,FB1,1*%
%TO.N,VDDA*%
X133670000Y-112080000D03*
%TO.P,FB1,2*%
%TO.N,+3.3V*%
X133670000Y-113050000D03*
%TD*%
D56*
%TO.P,R6,1*%
%TO.N,+3.3V*%
X147780000Y-94960000D03*
%TO.P,R6,2*%
%TO.N,PC0*%
X147780000Y-95980000D03*
%TD*%
D47*
%TO.P,J9,*%
%TO.N,*%
X75588750Y-114581250D03*
X75588750Y-103581250D03*
D48*
%TO.P,J9,1,Pin_1_1*%
%TO.N,VBAT*%
X80588750Y-111581250D03*
D49*
%TO.P,J9,2,Pin_2_2*%
%TO.N,GND*%
X80588750Y-106581250D03*
%TD*%
D56*
%TO.P,R7,1*%
%TO.N,PB10*%
X166645000Y-125340000D03*
%TO.P,R7,2*%
%TO.N,+3.3V*%
X166645000Y-126360000D03*
%TD*%
D14*
%TO.P,C55,1*%
%TO.N,PC1*%
X112170000Y-85340000D03*
%TO.P,C55,2*%
%TO.N,GND*%
X111210000Y-85340000D03*
%TD*%
D34*
%TO.P,J3,1,Pin_1_1*%
%TO.N,Net-(J3-Pin_1)*%
X124370000Y-140325000D03*
%TO.P,J3,2,Pin_2_2*%
%TO.N,CAM_VIDEO*%
X123370000Y-140325000D03*
%TO.P,J3,3,Pin_3_3*%
%TO.N,GND*%
X122370000Y-140325000D03*
D35*
%TO.P,J3,MP*%
%TO.N,N/C*%
X125670000Y-142850000D03*
X121070000Y-142850000D03*
%TD*%
D34*
%TO.P,J7,1,Pin_1_1*%
%TO.N,+5V*%
X108545000Y-140300000D03*
%TO.P,J7,2,Pin_2_2*%
%TO.N,Net-(J7-Pin_2)*%
X107545000Y-140300000D03*
D35*
%TO.P,J7,MP*%
%TO.N,N/C*%
X109845000Y-142825000D03*
X106245000Y-142825000D03*
%TD*%
D31*
%TO.P,R2,1*%
%TO.N,/CC1*%
X162810000Y-117880000D03*
%TO.P,R2,2*%
%TO.N,GND*%
X161790000Y-117880000D03*
%TD*%
D12*
%TO.P,R13,1*%
%TO.N,GND*%
X89608750Y-111566250D03*
%TO.P,R13,2*%
%TO.N,Net-(U5-EN)*%
X89608750Y-110546250D03*
%TD*%
D31*
%TO.P,R3,1*%
%TO.N,/CC2*%
X162905000Y-114450000D03*
%TO.P,R3,2*%
%TO.N,GND*%
X161885000Y-114450000D03*
%TD*%
D12*
%TO.P,R12,1*%
%TO.N,Net-(U5-EN)*%
X89633750Y-109391250D03*
%TO.P,R12,2*%
%TO.N,VBAT*%
X89633750Y-108371250D03*
%TD*%
D14*
%TO.P,C46,1*%
%TO.N,GND*%
X145610000Y-117350000D03*
%TO.P,C46,2*%
%TO.N,+3.3V*%
X144650000Y-117350000D03*
%TD*%
D58*
%TO.P,U9,1,N.C._1_1*%
%TO.N,unconnected-(U9-N.C._1-Pad1)*%
X135070000Y-127100000D03*
%TO.P,U9,2,N.C._2_2*%
%TO.N,unconnected-(U9-N.C._2-Pad2)*%
X134420000Y-127100000D03*
%TO.P,U9,3,DVDD_3*%
%TO.N,+5V*%
X133770000Y-127100000D03*
%TO.P,U9,4,DGND_4*%
%TO.N,GND*%
X133120000Y-127100000D03*
%TO.P,U9,5,CLKIN_5*%
%TO.N,Net-(U9-CLKIN)*%
X132470000Y-127100000D03*
%TO.P,U9,6,XFB_6*%
%TO.N,Net-(U9-XFB)*%
X131820000Y-127100000D03*
%TO.P,U9,7,CLKOUT_7*%
%TO.N,unconnected-(U9-CLKOUT-Pad7)*%
X131170000Y-127100000D03*
%TO.P,U9,8,~{CS}_8*%
%TO.N,PC5*%
X130520000Y-127100000D03*
%TO.P,U9,9,SDIN_9*%
%TO.N,PC3*%
X129870000Y-127100000D03*
%TO.P,U9,10,SCLK_10*%
%TO.N,PB13*%
X129220000Y-127100000D03*
%TO.P,U9,11,SDOUT_11*%
%TO.N,PC2*%
X128570000Y-127100000D03*
%TO.P,U9,12,LOS_12*%
%TO.N,Net-(U9-LOS)*%
X127920000Y-127100000D03*
%TO.P,U9,13,SYNC_IN_13*%
%TO.N,unconnected-(U9-SYNC_IN-Pad13)*%
X127270000Y-127100000D03*
%TO.P,U9,14,N.C._3_14*%
%TO.N,unconnected-(U9-N.C._3-Pad14)*%
X126620000Y-127100000D03*
%TO.P,U9,15,N.C._4_15*%
%TO.N,unconnected-(U9-N.C._4-Pad15)*%
X126620000Y-132976000D03*
%TO.P,U9,16,N.C._5_16*%
%TO.N,unconnected-(U9-N.C._5-Pad16)*%
X127270000Y-132976000D03*
%TO.P,U9,17,~{VSYNC}_17*%
%TO.N,PC7*%
X127920000Y-132976000D03*
%TO.P,U9,18,~{HSYNC}_18*%
%TO.N,Net-(U9-~{HSYNC})*%
X128570000Y-132976000D03*
%TO.P,U9,19,~{RESET}_19*%
%TO.N,+5V*%
X129220000Y-132976000D03*
%TO.P,U9,20,AGND_20*%
%TO.N,Net-(U9-AGND)*%
X129870000Y-132976000D03*
%TO.P,U9,21,AVDD_21*%
%TO.N,+5V*%
X130520000Y-132976000D03*
%TO.P,U9,22,VIN_22*%
%TO.N,Net-(U9-VIN)*%
X131170000Y-132976000D03*
%TO.P,U9,23,PGND_23*%
%TO.N,Net-(U9-PGND)*%
X131820000Y-132976000D03*
%TO.P,U9,24,PVDD_24*%
%TO.N,+5V*%
X132470000Y-132976000D03*
%TO.P,U9,25,SAG_25*%
%TO.N,Net-(U9-SAG)*%
X133120000Y-132976000D03*
%TO.P,U9,26,VOUT_26*%
X133770000Y-132976000D03*
%TO.P,U9,27,N.C._6_27*%
%TO.N,unconnected-(U9-N.C._6-Pad27)*%
X134420000Y-132976000D03*
%TO.P,U9,28,N.C._7_28*%
%TO.N,unconnected-(U9-N.C._7-Pad28)*%
X135070000Y-132976000D03*
D59*
%TO.P,U9,29,THERMALPAD_29*%
%TO.N,GND*%
X130845000Y-130038000D03*
%TD*%
D60*
%TO.P,U5,1,BOOT_1*%
%TO.N,Net-(U5-BOOT)*%
X91638750Y-105726250D03*
%TO.P,U5,2,VIN_2*%
%TO.N,VBAT*%
X91638750Y-106996250D03*
%TO.P,U5,3,EN_3*%
%TO.N,Net-(U5-EN)*%
X91638750Y-108266250D03*
%TO.P,U5,4,RT/CLK_4*%
%TO.N,Net-(U5-RT{slash}CLK)*%
X91638750Y-109536250D03*
%TO.P,U5,5,FB_5*%
%TO.N,FB*%
X97038750Y-109536250D03*
%TO.P,U5,6,COMP_6*%
%TO.N,Net-(U5-COMP)*%
X97038750Y-108266250D03*
%TO.P,U5,7,GND_7*%
%TO.N,GND*%
X97038750Y-106996250D03*
%TO.P,U5,8,SW_8*%
%TO.N,Net-(U5-SW)*%
X97038750Y-105726250D03*
D61*
%TO.P,U5,9,GNDPAD_9*%
%TO.N,GND*%
X93738750Y-105831250D03*
X93738750Y-107031250D03*
X93738750Y-108331250D03*
X93738750Y-109431250D03*
D62*
X94338750Y-107631250D03*
D63*
X94338750Y-107631250D03*
D61*
X94938750Y-105831250D03*
X94938750Y-107031250D03*
X94938750Y-108331250D03*
X94938750Y-109431250D03*
%TD*%
D14*
%TO.P,C12,1*%
%TO.N,PH1*%
X132445000Y-106875000D03*
%TO.P,C12,2*%
%TO.N,GND*%
X131485000Y-106875000D03*
%TD*%
D34*
%TO.P,J6,1,Pin_1_1*%
%TO.N,+5V*%
X117220000Y-140300000D03*
%TO.P,J6,2,Pin_2_2*%
%TO.N,GND*%
X116220000Y-140300000D03*
%TO.P,J6,3,Pin_3_3*%
%TO.N,PB6*%
X115220000Y-140300000D03*
%TO.P,J6,4,Pin_4_4*%
%TO.N,PB7*%
X114220000Y-140300000D03*
D35*
%TO.P,J6,MP*%
%TO.N,N/C*%
X118520000Y-142825000D03*
X112920000Y-142825000D03*
%TD*%
D20*
%TO.P,C42,1*%
%TO.N,Net-(C41-Pad1)*%
X169845000Y-136250000D03*
%TO.P,C42,2*%
%TO.N,+3.3V*%
X169845000Y-137210000D03*
%TD*%
D64*
%TO.N,*%
X174370000Y-106650000D03*
X70370000Y-118650000D03*
X70370000Y-126650000D03*
X70370000Y-124650000D03*
X174370000Y-132650000D03*
X70370000Y-122650000D03*
X174370000Y-134650000D03*
X174370000Y-98650000D03*
X174370000Y-124650000D03*
X70370000Y-130650000D03*
X174370000Y-96650000D03*
X174370000Y-122650000D03*
X70370000Y-134650000D03*
X70370000Y-128650000D03*
X174370000Y-128650000D03*
X174370000Y-126650000D03*
X70370000Y-120650000D03*
X70370000Y-132650000D03*
X174370000Y-102650000D03*
X174370000Y-104650000D03*
X174370000Y-130650000D03*
X174370000Y-108650000D03*
X70370000Y-116650000D03*
X174370000Y-100650000D03*
%TO.N,GND*%
X86370000Y-74650000D03*
X98370000Y-120650000D03*
X164370000Y-86650000D03*
X86370000Y-130650000D03*
X94370000Y-132650000D03*
X87920000Y-100290000D03*
X130380000Y-112170000D03*
X156370000Y-86650000D03*
X128360098Y-108760368D03*
X98370000Y-74650000D03*
X106370000Y-102650000D03*
X128230000Y-129100000D03*
X88370000Y-132650000D03*
X113470000Y-118490000D03*
X172370000Y-82650000D03*
X166370000Y-88650000D03*
X84370000Y-88650000D03*
X110370000Y-88650000D03*
X120370000Y-88650000D03*
X118370000Y-122650000D03*
X135370000Y-106340000D03*
X82370000Y-124650000D03*
X86370000Y-84650000D03*
X88370000Y-134650000D03*
X106730000Y-136170000D03*
X98370000Y-86650000D03*
X142370000Y-128650000D03*
X170370000Y-84650000D03*
X154370000Y-92650000D03*
X94370000Y-76650000D03*
X112370000Y-92650000D03*
X120370000Y-84650000D03*
X94370000Y-134650000D03*
X105050000Y-118680000D03*
X130910000Y-130920000D03*
X92370000Y-114650000D03*
X98370000Y-82650000D03*
X174370000Y-88650000D03*
X82370000Y-130650000D03*
X158370000Y-86650000D03*
X143385000Y-114060000D03*
X100370000Y-136650000D03*
X88370000Y-124650000D03*
X98370000Y-142650000D03*
X96370000Y-96650000D03*
X162370000Y-92650000D03*
X160370000Y-82650000D03*
X88370000Y-114650000D03*
X172370000Y-100650000D03*
X128370000Y-92650000D03*
X135470000Y-140930000D03*
X96370000Y-84650000D03*
X152370000Y-110650000D03*
X100370000Y-138650000D03*
X151240000Y-140580000D03*
X110370000Y-98650000D03*
X88370000Y-84650000D03*
X94370000Y-100650000D03*
X148370000Y-144650000D03*
X105370000Y-123650000D03*
X160370000Y-74650000D03*
X90370000Y-76650000D03*
X76370000Y-132650000D03*
X100370000Y-134650000D03*
X118370000Y-106650000D03*
X118370000Y-98650000D03*
X154370000Y-94650000D03*
X116401250Y-113718750D03*
X76370000Y-118650000D03*
X128370000Y-112650000D03*
X98370000Y-118650000D03*
X94370000Y-112650000D03*
X94370000Y-96650000D03*
X78370000Y-130650000D03*
X107370000Y-123650000D03*
X147695000Y-135462500D03*
X91980000Y-95320000D03*
X142230000Y-115850000D03*
X145560000Y-132660000D03*
X92370000Y-116650000D03*
X92370000Y-120650000D03*
X172370000Y-98650000D03*
X82370000Y-142650000D03*
X150370000Y-78650000D03*
X86370000Y-120650000D03*
X156370000Y-90650000D03*
X142370000Y-88650000D03*
X90370000Y-126650000D03*
X100370000Y-142650000D03*
X98370000Y-76650000D03*
X143580000Y-113270000D03*
X152370000Y-80650000D03*
X118370000Y-80650000D03*
X108370000Y-98650000D03*
X84370000Y-124650000D03*
X92370000Y-78650000D03*
X104370000Y-84650000D03*
X127310000Y-82460000D03*
X158370000Y-88650000D03*
X166370000Y-94650000D03*
X80370000Y-142650000D03*
X118370000Y-100650000D03*
X108370000Y-84650000D03*
X124370000Y-116650000D03*
X142370000Y-144650000D03*
X134370000Y-76650000D03*
X82370000Y-84650000D03*
X100370000Y-80650000D03*
X84370000Y-114650000D03*
X150370000Y-82650000D03*
X78370000Y-134650000D03*
X156370000Y-88650000D03*
X92370000Y-132650000D03*
X88370000Y-76650000D03*
X148370000Y-80650000D03*
X84370000Y-90650000D03*
X116370000Y-100650000D03*
X94370000Y-122650000D03*
X96370000Y-134650000D03*
X154370000Y-80650000D03*
X100370000Y-124650000D03*
X116370000Y-94650000D03*
X152370000Y-106650000D03*
X92370000Y-136650000D03*
X94370000Y-74650000D03*
X162370000Y-96650000D03*
X140190000Y-113810000D03*
X110370000Y-86650000D03*
X92370000Y-128650000D03*
X160370000Y-106650000D03*
X96370000Y-142650000D03*
X128370000Y-103650000D03*
X76370000Y-122650000D03*
X100370000Y-128650000D03*
X82370000Y-138650000D03*
X124370000Y-74650000D03*
X100370000Y-84650000D03*
X145510000Y-94080000D03*
X154370000Y-82650000D03*
X102370000Y-76650000D03*
X88370000Y-80650000D03*
X92370000Y-130650000D03*
X114370000Y-122650000D03*
X156370000Y-76650000D03*
X110500000Y-118690000D03*
X104370000Y-88650000D03*
X114370000Y-100650000D03*
X106910000Y-118680000D03*
X86370000Y-136650000D03*
X80370000Y-84650000D03*
X88370000Y-78650000D03*
X94370000Y-116650000D03*
X84370000Y-112650000D03*
X90370000Y-86650000D03*
X94370000Y-130650000D03*
X140370000Y-124650000D03*
X128370000Y-86650000D03*
X74370000Y-124650000D03*
X129370000Y-103150000D03*
X114370000Y-124650000D03*
X100370000Y-116650000D03*
X74370000Y-128650000D03*
X172370000Y-86650000D03*
X172370000Y-92650000D03*
X116370000Y-118650000D03*
X104370000Y-80650000D03*
X90370000Y-88650000D03*
X74370000Y-122650000D03*
X96370000Y-86650000D03*
X147700000Y-127860000D03*
X90370000Y-78650000D03*
X170370000Y-96650000D03*
X114370000Y-98650000D03*
X162370000Y-144650000D03*
X114760000Y-110790000D03*
X112370000Y-124650000D03*
X84370000Y-140650000D03*
X158370000Y-106650000D03*
X154370000Y-76650000D03*
X127870000Y-115650000D03*
X82370000Y-118650000D03*
X74370000Y-120650000D03*
X84370000Y-126650000D03*
X96370000Y-98650000D03*
X142370000Y-74650000D03*
X170370000Y-94650000D03*
X174370000Y-90650000D03*
X120370000Y-104650000D03*
X76370000Y-130650000D03*
X160370000Y-120650000D03*
X146990000Y-91930000D03*
X116220000Y-140830000D03*
X128370000Y-110650000D03*
X135470000Y-139880000D03*
X112370000Y-106650000D03*
X148370000Y-84650000D03*
X84370000Y-132650000D03*
X110370000Y-100650000D03*
X168370000Y-86650000D03*
X158370000Y-78650000D03*
X172370000Y-104650000D03*
X156370000Y-84650000D03*
X111370000Y-123650000D03*
X99460000Y-92680000D03*
X84370000Y-142650000D03*
X120370000Y-74650000D03*
X94370000Y-120650000D03*
X116370000Y-98650000D03*
X108370000Y-88650000D03*
X108370000Y-94650000D03*
X112370000Y-122650000D03*
X92370000Y-126650000D03*
X168370000Y-88650000D03*
X90370000Y-124650000D03*
X118370000Y-120650000D03*
X72370000Y-128650000D03*
X90370000Y-134650000D03*
X89740000Y-100320000D03*
X140370000Y-140650000D03*
X86370000Y-76650000D03*
X86370000Y-142650000D03*
X156370000Y-92650000D03*
X164370000Y-142650000D03*
X106370000Y-84650000D03*
X84370000Y-138650000D03*
X156370000Y-96650000D03*
X116370000Y-74650000D03*
X86370000Y-88650000D03*
X164370000Y-90650000D03*
X94370000Y-78650000D03*
X92370000Y-124650000D03*
X170370000Y-88650000D03*
X110370000Y-96650000D03*
X88370000Y-136650000D03*
X102370000Y-112650000D03*
X150370000Y-122650000D03*
X108370000Y-102650000D03*
X82370000Y-76650000D03*
X158370000Y-96650000D03*
X166370000Y-140650000D03*
X86370000Y-128650000D03*
X82370000Y-134650000D03*
X116370000Y-106650000D03*
X96370000Y-88650000D03*
X120370000Y-120650000D03*
X162370000Y-84650000D03*
X132370000Y-74650000D03*
X150370000Y-94650000D03*
X156370000Y-94650000D03*
X94370000Y-92650000D03*
X120370000Y-122650000D03*
X106370000Y-100650000D03*
X96370000Y-78650000D03*
X84370000Y-76650000D03*
X140370000Y-130650000D03*
X118370000Y-116650000D03*
X164370000Y-94650000D03*
X163870000Y-104450000D03*
X150495000Y-138262500D03*
X112370000Y-100650000D03*
X170370000Y-98650000D03*
X108370000Y-74650000D03*
X92370000Y-88650000D03*
X96370000Y-120650000D03*
X158095000Y-125062500D03*
X130870000Y-110010000D03*
X78370000Y-138650000D03*
X140370000Y-142650000D03*
X158370000Y-74650000D03*
X112370000Y-108650000D03*
X78370000Y-126650000D03*
X174370000Y-82650000D03*
X76370000Y-124650000D03*
X109370000Y-123650000D03*
X156370000Y-82650000D03*
X116370000Y-116650000D03*
X96370000Y-124650000D03*
X170370000Y-106650000D03*
X98370000Y-138650000D03*
X170370000Y-104650000D03*
X92370000Y-122650000D03*
X108590000Y-118680000D03*
X96370000Y-102650000D03*
X92370000Y-84650000D03*
X92370000Y-80650000D03*
X86370000Y-122650000D03*
X156370000Y-74650000D03*
X160370000Y-144650000D03*
X140370000Y-134650000D03*
X142370000Y-138650000D03*
X84370000Y-92650000D03*
X88370000Y-116650000D03*
X136370000Y-76650000D03*
X108370000Y-86650000D03*
X130370000Y-141560000D03*
X166370000Y-92650000D03*
X134620000Y-125440000D03*
X124370000Y-102650000D03*
X116370000Y-122650000D03*
X158370000Y-82650000D03*
X94370000Y-124650000D03*
X140470000Y-96700000D03*
X76370000Y-120650000D03*
X82370000Y-132650000D03*
X112370000Y-86650000D03*
X98370000Y-134650000D03*
X158370000Y-80650000D03*
X86370000Y-138650000D03*
X72370000Y-134650000D03*
X160370000Y-84650000D03*
X84370000Y-122650000D03*
X76370000Y-128650000D03*
X162370000Y-90650000D03*
X84370000Y-134650000D03*
X110370000Y-94650000D03*
X96370000Y-118650000D03*
X106370000Y-86650000D03*
X116220000Y-139760000D03*
X106370000Y-82650000D03*
X114370000Y-94650000D03*
X154370000Y-78650000D03*
X100370000Y-122650000D03*
X72370000Y-126650000D03*
X82370000Y-122650000D03*
X80370000Y-74650000D03*
X172030000Y-123500000D03*
X92370000Y-76650000D03*
X84370000Y-128650000D03*
X78370000Y-118650000D03*
X96370000Y-132650000D03*
X105370000Y-127650000D03*
X80370000Y-138650000D03*
X114370000Y-92650000D03*
X90370000Y-138650000D03*
X168370000Y-94650000D03*
X98370000Y-124650000D03*
X102370000Y-78650000D03*
X96240000Y-107060000D03*
X168370000Y-84650000D03*
X92370000Y-86650000D03*
X100370000Y-82650000D03*
X158370000Y-94650000D03*
X150370000Y-80650000D03*
X121240000Y-112900000D03*
X174370000Y-94650000D03*
X174370000Y-84650000D03*
X150370000Y-120650000D03*
X163870000Y-102450000D03*
X124370000Y-98650000D03*
X144370000Y-84650000D03*
X148070000Y-110650000D03*
X96370000Y-92650000D03*
X166370000Y-144650000D03*
X164370000Y-144650000D03*
X88370000Y-120650000D03*
X120370000Y-108650000D03*
X78370000Y-142650000D03*
X114370000Y-120650000D03*
X108370000Y-76650000D03*
X158370000Y-76650000D03*
X109370000Y-121650000D03*
X150370000Y-84650000D03*
X72370000Y-132650000D03*
X140370000Y-74650000D03*
X90370000Y-132650000D03*
X164370000Y-88650000D03*
X131480000Y-106890000D03*
X130350000Y-113160000D03*
X100370000Y-74650000D03*
X140370000Y-136650000D03*
X132200000Y-98230000D03*
X124370000Y-104650000D03*
X72370000Y-118650000D03*
X96370000Y-100650000D03*
X140370000Y-138650000D03*
X108370000Y-82650000D03*
X132230000Y-101470000D03*
X98370000Y-132650000D03*
X152370000Y-84650000D03*
X114370000Y-96650000D03*
X98370000Y-128650000D03*
X74370000Y-134650000D03*
X90370000Y-128650000D03*
X146370000Y-86650000D03*
X146370000Y-76650000D03*
X118370000Y-78650000D03*
X111200000Y-85330000D03*
X74370000Y-118650000D03*
X170370000Y-108650000D03*
X84370000Y-80650000D03*
X94370000Y-142650000D03*
X170370000Y-102650000D03*
X131090000Y-84260000D03*
X102370000Y-82650000D03*
X108370000Y-78650000D03*
X150370000Y-74650000D03*
X118370000Y-82650000D03*
X156370000Y-80650000D03*
X156370000Y-120650000D03*
X84370000Y-94650000D03*
X103370000Y-125650000D03*
X107370000Y-125650000D03*
X146370000Y-74650000D03*
X146370000Y-144650000D03*
X120370000Y-116650000D03*
X116370000Y-96650000D03*
X111370000Y-121650000D03*
X172370000Y-102650000D03*
X168370000Y-90650000D03*
X154370000Y-96650000D03*
X80370000Y-118650000D03*
X78370000Y-140650000D03*
X96370000Y-130650000D03*
X116370000Y-84650000D03*
X96370000Y-112650000D03*
X94370000Y-140650000D03*
X80370000Y-136650000D03*
X86359189Y-92611302D03*
X126370000Y-74650000D03*
X94370000Y-98650000D03*
X103370000Y-127650000D03*
X72370000Y-120650000D03*
X80370000Y-76650000D03*
X152370000Y-82650000D03*
X96370000Y-136650000D03*
X170370000Y-82650000D03*
X148370000Y-122650000D03*
X142280000Y-92790000D03*
X120370000Y-102650000D03*
X114370000Y-74650000D03*
X124370000Y-112650000D03*
X84370000Y-78650000D03*
X100370000Y-78650000D03*
X167770000Y-134650000D03*
X168370000Y-92650000D03*
X118370000Y-118650000D03*
X130890000Y-110980000D03*
X114370000Y-108650000D03*
X154370000Y-98650000D03*
X122370000Y-139790000D03*
X106370000Y-96650000D03*
X162370000Y-88650000D03*
X86370000Y-124650000D03*
X138370000Y-76650000D03*
X90370000Y-140650000D03*
X94370000Y-126650000D03*
X92370000Y-138650000D03*
X98370000Y-126650000D03*
X132640000Y-91720000D03*
X74370000Y-126650000D03*
X114370000Y-104650000D03*
X100370000Y-118650000D03*
X94370000Y-82650000D03*
X170050000Y-123490000D03*
X82370000Y-74650000D03*
X102370000Y-86650000D03*
X86370000Y-86650000D03*
X86370000Y-112650000D03*
X98370000Y-88650000D03*
X102370000Y-88650000D03*
X94370000Y-84650000D03*
X78370000Y-132650000D03*
X92370000Y-74650000D03*
X150770000Y-101000000D03*
X144030000Y-114540000D03*
X98370000Y-80650000D03*
X158370000Y-118650000D03*
X110930000Y-134035000D03*
X128370000Y-74650000D03*
X118370000Y-86650000D03*
X118370000Y-74650000D03*
X86370000Y-114650000D03*
X146350000Y-113780000D03*
X80370000Y-120650000D03*
X114370000Y-88650000D03*
X96370000Y-116650000D03*
X80370000Y-82650000D03*
X152370000Y-90650000D03*
X90370000Y-80650000D03*
X98370000Y-78650000D03*
X100370000Y-130650000D03*
X108370000Y-104650000D03*
X120370000Y-86650000D03*
X118370000Y-92650000D03*
X150370000Y-96650000D03*
X100370000Y-76650000D03*
X90370000Y-142650000D03*
X122370000Y-74650000D03*
X112370000Y-94650000D03*
X140370000Y-144650000D03*
X112370000Y-96650000D03*
X103370000Y-121650000D03*
X124370000Y-118650000D03*
X106370000Y-98650000D03*
X160370000Y-80650000D03*
X128290000Y-142650000D03*
X94370000Y-88650000D03*
X106370000Y-80650000D03*
X174370000Y-92650000D03*
X156370000Y-144650000D03*
X88370000Y-74650000D03*
X118370000Y-104650000D03*
X129370000Y-102150000D03*
X120370000Y-100650000D03*
X158370000Y-84650000D03*
X172370000Y-108650000D03*
X118370000Y-84650000D03*
X96370000Y-94650000D03*
X104370000Y-74650000D03*
X84370000Y-84650000D03*
X94370000Y-128650000D03*
X156370000Y-78650000D03*
X118370000Y-96650000D03*
X137330000Y-97740000D03*
X142370000Y-132650000D03*
X145610000Y-117350000D03*
X143030000Y-115890000D03*
X144370000Y-74650000D03*
X152370000Y-112650000D03*
X94370000Y-114650000D03*
X110370000Y-104650000D03*
X90370000Y-74650000D03*
X103370000Y-123650000D03*
X144370000Y-76650000D03*
X90370000Y-118650000D03*
X86370000Y-94650000D03*
X136370000Y-74650000D03*
X90370000Y-84650000D03*
X102450000Y-92630000D03*
X84370000Y-130650000D03*
X164370000Y-92650000D03*
X160370000Y-140650000D03*
X152370000Y-78650000D03*
X134370000Y-74650000D03*
X140400000Y-114590000D03*
X166370000Y-84650000D03*
X91490000Y-112140000D03*
X160370000Y-88650000D03*
X86370000Y-82650000D03*
X86370000Y-78650000D03*
X82370000Y-82650000D03*
X122370000Y-118650000D03*
X133500000Y-129060000D03*
X116370000Y-104650000D03*
X86370000Y-134650000D03*
X144370000Y-144650000D03*
X92370000Y-134650000D03*
X100958750Y-93681250D03*
X110370000Y-102650000D03*
X160370000Y-104650000D03*
X80370000Y-80650000D03*
X128370000Y-90650000D03*
X128370000Y-88650000D03*
X91530000Y-100320000D03*
X110370000Y-76650000D03*
X154370000Y-86650000D03*
X116370000Y-90650000D03*
X160370000Y-86650000D03*
X142370000Y-142650000D03*
X80370000Y-128650000D03*
X158095000Y-138262500D03*
X92370000Y-82650000D03*
X162370000Y-82650000D03*
X82370000Y-128650000D03*
X82370000Y-126650000D03*
X150370000Y-76650000D03*
X90370000Y-82650000D03*
X90370000Y-114650000D03*
X94370000Y-80650000D03*
X80370000Y-130650000D03*
X128370000Y-106650000D03*
X100370000Y-140650000D03*
X107370000Y-121650000D03*
X130370000Y-74650000D03*
X114150000Y-81260000D03*
X172370000Y-84650000D03*
X74370000Y-132650000D03*
X90370000Y-120650000D03*
X105370000Y-125650000D03*
X160370000Y-78650000D03*
X82370000Y-140650000D03*
X160370000Y-94650000D03*
X90370000Y-130650000D03*
X164410000Y-119050000D03*
X112370000Y-74650000D03*
X132200000Y-99150000D03*
X172370000Y-90650000D03*
X148370000Y-78650000D03*
X104370000Y-76650000D03*
X106370000Y-78650000D03*
X155350000Y-140550000D03*
X170370000Y-92650000D03*
X116370000Y-76650000D03*
X127870000Y-100650000D03*
X152370000Y-74650000D03*
X84370000Y-86650000D03*
X78370000Y-136650000D03*
X82370000Y-120650000D03*
X150580000Y-125020000D03*
X124370000Y-108650000D03*
X124370000Y-106650000D03*
X112370000Y-76650000D03*
X88370000Y-122650000D03*
X170370000Y-86650000D03*
X160370000Y-115750000D03*
X106370000Y-94650000D03*
X92370000Y-118650000D03*
X82370000Y-136650000D03*
X120370000Y-94650000D03*
X96370000Y-122650000D03*
X160370000Y-118650000D03*
X171330000Y-132300000D03*
X86370000Y-80650000D03*
X158370000Y-90650000D03*
X89620000Y-111570000D03*
X80370000Y-78650000D03*
X162370000Y-94650000D03*
X112370000Y-102650000D03*
X140370000Y-132650000D03*
X142370000Y-130650000D03*
X120370000Y-106650000D03*
X88370000Y-128650000D03*
X172370000Y-94650000D03*
X88370000Y-118650000D03*
X100370000Y-86650000D03*
X94370000Y-118650000D03*
X72370000Y-122650000D03*
X144290000Y-95880000D03*
X158370000Y-144650000D03*
X131210000Y-108780000D03*
X131200000Y-138220000D03*
X142370000Y-76650000D03*
X110370000Y-92650000D03*
X160370000Y-76650000D03*
X154370000Y-74650000D03*
X108370000Y-100650000D03*
X132370000Y-76650000D03*
X110370000Y-74650000D03*
X122370000Y-140840000D03*
X102370000Y-80650000D03*
X174370000Y-86650000D03*
X105370000Y-121650000D03*
X92370000Y-142650000D03*
X131080000Y-90330000D03*
X139450000Y-97600000D03*
X158370000Y-92650000D03*
X150370000Y-144650000D03*
X86370000Y-116650000D03*
X145870000Y-92350000D03*
X166370000Y-90650000D03*
X154370000Y-84650000D03*
X96370000Y-114650000D03*
X161770000Y-117850000D03*
X98370000Y-140650000D03*
X163670000Y-109550000D03*
X160370000Y-90650000D03*
X99780000Y-107980000D03*
X150770000Y-99620000D03*
X120370000Y-98650000D03*
X152370000Y-108650000D03*
X90370000Y-122650000D03*
X158370000Y-104650000D03*
X145600000Y-116250000D03*
X96370000Y-74650000D03*
X121280000Y-114720000D03*
X118370000Y-76650000D03*
X114370000Y-102650000D03*
X154370000Y-88650000D03*
X148370000Y-76650000D03*
X106370000Y-88650000D03*
X86370000Y-126650000D03*
X88370000Y-126650000D03*
X80370000Y-132650000D03*
X82370000Y-80650000D03*
X80370000Y-140650000D03*
X116370000Y-108650000D03*
X91930000Y-96760000D03*
X100370000Y-120650000D03*
X164750000Y-112460000D03*
X94370000Y-86650000D03*
X140370000Y-76650000D03*
X106370000Y-92650000D03*
X160895000Y-127862500D03*
X106730000Y-135150000D03*
X148370000Y-82650000D03*
X96370000Y-128650000D03*
X170370000Y-90650000D03*
X166370000Y-82650000D03*
X88370000Y-138650000D03*
X104370000Y-82650000D03*
X102370000Y-74650000D03*
X78370000Y-124650000D03*
X122370000Y-116650000D03*
X139180000Y-114680000D03*
X127870000Y-102150000D03*
X84370000Y-136650000D03*
X96370000Y-126650000D03*
X108370000Y-96650000D03*
X96370000Y-80650000D03*
X161870000Y-114450000D03*
X168370000Y-82650000D03*
X111170000Y-84220000D03*
X88370000Y-130650000D03*
X112370000Y-88650000D03*
X120370000Y-118650000D03*
X94370000Y-94650000D03*
X96370000Y-82650000D03*
X160370000Y-92650000D03*
X130850000Y-128940000D03*
X88370000Y-82650000D03*
X98370000Y-122650000D03*
X152370000Y-144650000D03*
X84370000Y-118650000D03*
X170370000Y-100650000D03*
X84370000Y-120650000D03*
X86180000Y-100260000D03*
X148370000Y-74650000D03*
X118370000Y-102650000D03*
X94370000Y-136650000D03*
X84370000Y-82650000D03*
X142370000Y-136650000D03*
X88370000Y-140650000D03*
X80370000Y-126650000D03*
X104370000Y-86650000D03*
X152370000Y-76650000D03*
X160895000Y-135462500D03*
X86370000Y-90650000D03*
X80370000Y-124650000D03*
X98370000Y-116650000D03*
X74370000Y-130650000D03*
X86370000Y-118650000D03*
X112370000Y-104650000D03*
X163870000Y-103450000D03*
X116370000Y-102650000D03*
X92370000Y-140650000D03*
X104370000Y-78650000D03*
X96370000Y-76650000D03*
X100370000Y-132650000D03*
X133430000Y-125780000D03*
X100370000Y-88650000D03*
X78370000Y-120650000D03*
X172370000Y-106650000D03*
X98370000Y-136650000D03*
X76370000Y-134650000D03*
X100370000Y-126650000D03*
X112370000Y-98650000D03*
X84370000Y-116650000D03*
X162570000Y-108850000D03*
X156195000Y-138262500D03*
X108370000Y-80650000D03*
X96370000Y-140650000D03*
X96370000Y-138650000D03*
X94370000Y-138650000D03*
X166370000Y-142650000D03*
X128200000Y-130940000D03*
X100370000Y-112650000D03*
X98370000Y-84650000D03*
X142370000Y-134650000D03*
X164370000Y-84650000D03*
X163870000Y-105450000D03*
X111370000Y-125650000D03*
X139090000Y-116450000D03*
X133500000Y-130970000D03*
X78370000Y-122650000D03*
X171410000Y-130930000D03*
X88370000Y-142650000D03*
X86370000Y-140650000D03*
X98370000Y-130650000D03*
X78370000Y-128650000D03*
X172370000Y-96650000D03*
X102370000Y-84650000D03*
X116370000Y-120650000D03*
X102010000Y-109150000D03*
X80370000Y-134650000D03*
X90338206Y-90703685D03*
X172370000Y-88650000D03*
X160370000Y-96650000D03*
X122370000Y-120650000D03*
X82370000Y-78650000D03*
X72370000Y-130650000D03*
X72370000Y-124650000D03*
X84370000Y-74650000D03*
X154370000Y-90650000D03*
X154370000Y-144650000D03*
X138370000Y-74650000D03*
X118370000Y-108650000D03*
X90370000Y-116650000D03*
X80370000Y-122650000D03*
X162370000Y-86650000D03*
X164370000Y-82650000D03*
X166370000Y-86650000D03*
X114370000Y-106650000D03*
X109370000Y-125650000D03*
X108370000Y-92650000D03*
X144370000Y-142650000D03*
X90370000Y-136650000D03*
X138640000Y-111600000D03*
X76370000Y-126650000D03*
X86370000Y-132650000D03*
%TO.N,PA12*%
X151820000Y-102400000D03*
X157420000Y-113300000D03*
D65*
%TO.N,/VBUS*%
X163970000Y-113625000D03*
X163920000Y-117700000D03*
D64*
%TO.N,PA11*%
X156410000Y-116720000D03*
X151120000Y-103100000D03*
%TO.N,PA1*%
X150320000Y-117900000D03*
X135870000Y-109300000D03*
%TO.N,Net-(U3-C1)*%
X171895000Y-128125000D03*
X172480000Y-130975000D03*
%TO.N,PC7*%
X124420000Y-133625000D03*
X136720000Y-130810000D03*
D65*
%TO.N,+3.3V*%
X136645000Y-82750000D03*
X140795000Y-91475000D03*
X130620000Y-114650000D03*
X152145000Y-143275000D03*
X122020000Y-86150000D03*
X144120000Y-130425000D03*
X135370000Y-96200000D03*
X121695000Y-110356250D03*
X164795000Y-139600000D03*
X135920000Y-114625000D03*
D64*
%TO.N,NRST*%
X135145000Y-103625000D03*
X142670000Y-82750000D03*
X133470000Y-93875000D03*
%TO.N,PC0*%
X147750000Y-97970000D03*
X135095000Y-104375000D03*
%TO.N,PC1*%
X134250000Y-104270000D03*
X114310000Y-85370000D03*
%TO.N,PC2*%
X127170000Y-123400000D03*
X134190000Y-105080000D03*
%TO.N,PC3*%
X129270000Y-119700000D03*
X134590000Y-105890000D03*
%TO.N,PA0*%
X89420000Y-94450000D03*
X134210000Y-107960000D03*
%TO.N,PA2*%
X135820000Y-110400000D03*
X133520000Y-138375000D03*
%TO.N,PA5*%
X142220000Y-112910000D03*
X140530000Y-111590000D03*
%TO.N,PC5*%
X137520000Y-111750000D03*
X142620000Y-111240000D03*
%TO.N,PB0*%
X151820000Y-117350000D03*
X143150000Y-111840000D03*
%TO.N,PB1*%
X143960000Y-111800000D03*
X152460000Y-118830000D03*
%TO.N,PB10*%
X145020000Y-114420000D03*
X165495000Y-126200000D03*
X164555000Y-124630000D03*
X167195000Y-129350000D03*
%TO.N,PB11*%
X167115000Y-123830000D03*
X145110000Y-111980000D03*
X168795000Y-125875000D03*
X168645000Y-128800000D03*
%TO.N,PB13*%
X132970000Y-119900000D03*
X128120000Y-124800000D03*
%TO.N,PC6*%
X107620000Y-130975000D03*
X137045000Y-129650000D03*
%TO.N,PA14*%
X147680000Y-88790000D03*
X146510000Y-97610000D03*
%TO.N,PB3*%
X142695000Y-95950000D03*
X143995000Y-97775000D03*
%TO.N,PB6*%
X131445000Y-93150000D03*
X129020000Y-96000000D03*
%TO.N,PB7*%
X128295000Y-97475000D03*
X132270000Y-94175000D03*
%TO.N,FB*%
X102060000Y-116610000D03*
X112670000Y-116830000D03*
%TO.N,Net-(U9-CLKIN)*%
X131270000Y-125650000D03*
X132470000Y-125800000D03*
%TD*%
%TO.N,NRST*%
D66*
X136270000Y-90950000D02*
X136270000Y-89425000D01*
X136270000Y-89425000D02*
X136395000Y-89300000D01*
X135320000Y-91900000D02*
X136270000Y-90950000D01*
X135170000Y-91900000D02*
X135320000Y-91900000D01*
X134495000Y-92575000D02*
X135170000Y-91900000D01*
X133820000Y-92575000D02*
X134495000Y-92575000D01*
X133470000Y-92925000D02*
X133820000Y-92575000D01*
%TO.N,Net-(J3-Pin_1)*%
D67*
X126070000Y-138350000D02*
X125970000Y-138450000D01*
X125970000Y-138450000D02*
X127125000Y-139605000D01*
X129670000Y-138350000D02*
X126070000Y-138350000D01*
X130370000Y-139050000D02*
X129670000Y-138350000D01*
X130370000Y-140600000D02*
X130370000Y-139050000D01*
X127125000Y-139605000D02*
X128295000Y-139605000D01*
X125470000Y-137950000D02*
X125670000Y-137750000D01*
X125470000Y-137950000D02*
X125970000Y-138450000D01*
X126785000Y-137750000D02*
X126885000Y-137650000D01*
X125670000Y-137750000D02*
X126785000Y-137750000D01*
X124370000Y-139050000D02*
X125470000Y-137950000D01*
X124370000Y-140325000D02*
X124370000Y-139050000D01*
%TO.N,CAM_VIDEO*%
X130395000Y-136750000D02*
X130957500Y-136187500D01*
X125320000Y-136750000D02*
X130395000Y-136750000D01*
X123370000Y-138700000D02*
X125320000Y-136750000D01*
X123370000Y-140325000D02*
X123370000Y-138700000D01*
%TO.N,/D-*%
X166212500Y-115462500D02*
X166200000Y-115450000D01*
X167057500Y-115462500D02*
X166212500Y-115462500D01*
X167282500Y-116312500D02*
X167282500Y-115687500D01*
X166287500Y-116462500D02*
X167132500Y-116462500D01*
D66*
X160307500Y-116700000D02*
X162590000Y-116700000D01*
X162590000Y-116700000D02*
X162840000Y-116450000D01*
X162840000Y-116450000D02*
X165825000Y-116450000D01*
D67*
X167282500Y-115687500D02*
X167057500Y-115462500D01*
X167132500Y-116462500D02*
X167282500Y-116312500D01*
%TO.N,GND*%
X135370000Y-106340000D02*
X135430000Y-106400000D01*
X145560000Y-93170000D02*
X146510000Y-93170000D01*
X146510000Y-93170000D02*
X146990000Y-92690000D01*
X166200000Y-118900000D02*
X164560000Y-118900000D01*
X164560000Y-118900000D02*
X164410000Y-119050000D01*
X142220000Y-115840000D02*
X142220000Y-115225000D01*
D66*
X96303750Y-106996250D02*
X96240000Y-107060000D01*
D67*
X140190000Y-113810000D02*
X140440000Y-114060000D01*
X143385000Y-114560000D02*
X143405000Y-114540000D01*
X133130000Y-127090000D02*
X133120000Y-127100000D01*
X171230000Y-131110000D02*
X170535400Y-131110000D01*
X146990000Y-92690000D02*
X146990000Y-91930000D01*
X142230000Y-115850000D02*
X142220000Y-115840000D01*
X143030000Y-115890000D02*
X142720000Y-115580000D01*
X135430000Y-106400000D02*
X136695000Y-106400000D01*
X140430000Y-114560000D02*
X140400000Y-114590000D01*
X170715000Y-132300000D02*
X170530200Y-132115200D01*
X144920000Y-93810000D02*
X145560000Y-93170000D01*
X139120000Y-110325000D02*
X139120000Y-111420000D01*
D66*
X139120000Y-98096880D02*
X139450000Y-97766880D01*
D67*
X138940000Y-111600000D02*
X138640000Y-111600000D01*
X171410000Y-130930000D02*
X171230000Y-131110000D01*
X140440000Y-114060000D02*
X141055000Y-114060000D01*
X142720000Y-115580000D02*
X142720000Y-115225000D01*
D66*
X97038750Y-106996250D02*
X96303750Y-106996250D01*
D67*
X144920000Y-94237500D02*
X144920000Y-93810000D01*
X143405000Y-114540000D02*
X144030000Y-114540000D01*
X139120000Y-111420000D02*
X138940000Y-111600000D01*
X170535400Y-131110000D02*
X170530200Y-131115200D01*
D66*
X139450000Y-97766880D02*
X139450000Y-97600000D01*
D67*
X133430000Y-125780000D02*
X133130000Y-126080000D01*
X164790000Y-112500000D02*
X164750000Y-112460000D01*
D66*
X139120000Y-98975000D02*
X139120000Y-98096880D01*
D67*
X166200000Y-112500000D02*
X164790000Y-112500000D01*
X133130000Y-126080000D02*
X133130000Y-127090000D01*
X171330000Y-132300000D02*
X170715000Y-132300000D01*
X141055000Y-114560000D02*
X140430000Y-114560000D01*
%TO.N,/D+*%
D66*
X164495000Y-115325000D02*
X164895000Y-114925000D01*
X160945000Y-114800000D02*
X161470000Y-115325000D01*
X161470000Y-115325000D02*
X164495000Y-115325000D01*
X160307500Y-114800000D02*
X160945000Y-114800000D01*
X165800000Y-114925000D02*
X165825000Y-114950000D01*
X164895000Y-114925000D02*
X165800000Y-114925000D01*
X165120000Y-115950000D02*
X164495000Y-115325000D01*
X165825000Y-115950000D02*
X165120000Y-115950000D01*
%TO.N,PA12*%
X158032500Y-114800000D02*
X158032500Y-114537500D01*
X157420000Y-113925000D02*
X157420000Y-113300000D01*
X148045000Y-102400000D02*
X151820000Y-102400000D01*
X158032500Y-114537500D02*
X157420000Y-113925000D01*
%TO.N,/VBUS*%
D68*
X162470000Y-111900000D02*
X162470000Y-111770000D01*
X163970000Y-113625000D02*
X163970000Y-113610000D01*
X158640000Y-112550000D02*
X156750000Y-112550000D01*
X163390000Y-113030000D02*
X162470000Y-113030000D01*
X165825000Y-113300000D02*
X164295000Y-113300000D01*
X162470000Y-111900000D02*
X161430000Y-110860000D01*
X164295000Y-113300000D02*
X163970000Y-113625000D01*
X162470000Y-113030000D02*
X162470000Y-111900000D01*
X155860000Y-113440000D02*
X155860000Y-115010000D01*
X156600000Y-115750000D02*
X158032500Y-115750000D01*
X156750000Y-112550000D02*
X155860000Y-113440000D01*
X162470000Y-113030000D02*
X159120000Y-113030000D01*
X165825000Y-118100000D02*
X164320000Y-118100000D01*
X159120000Y-113030000D02*
X158640000Y-112550000D01*
X162470000Y-111770000D02*
X163680000Y-110560000D01*
X163970000Y-113610000D02*
X163390000Y-113030000D01*
X164320000Y-118100000D02*
X163920000Y-117700000D01*
X155860000Y-115010000D02*
X156600000Y-115750000D01*
%TO.N,PA11*%
D66*
X156430000Y-116700000D02*
X156410000Y-116720000D01*
X151120000Y-103100000D02*
X151120000Y-103075000D01*
X158032500Y-116700000D02*
X156430000Y-116700000D01*
X151120000Y-103075000D02*
X150945000Y-102900000D01*
X150945000Y-102900000D02*
X148045000Y-102900000D01*
%TO.N,PA1*%
X150320000Y-117450000D02*
X152635000Y-115135000D01*
X135495000Y-109300000D02*
X135870000Y-109300000D01*
X161495000Y-108800000D02*
X160780000Y-108800000D01*
X152660000Y-115110000D02*
X158520000Y-109250000D01*
X135620000Y-107900000D02*
X135270000Y-108250000D01*
X135270000Y-108250000D02*
X135270000Y-109075000D01*
X150320000Y-117900000D02*
X150320000Y-117450000D01*
X136695000Y-107900000D02*
X135620000Y-107900000D01*
X158520000Y-109250000D02*
X160330000Y-109250000D01*
X135270000Y-109075000D02*
X135495000Y-109300000D01*
X160780000Y-108800000D02*
X160330000Y-109250000D01*
X161430000Y-109840000D02*
X160920000Y-109840000D01*
X160920000Y-109840000D02*
X160330000Y-109250000D01*
X152635000Y-115135000D02*
X152635000Y-115110000D01*
%TO.N,Net-(U3-C1)*%
D67*
X170530200Y-131615200D02*
X172024800Y-131615200D01*
D66*
X172480000Y-130975000D02*
X172480000Y-131160000D01*
X172480000Y-131160000D02*
X172024800Y-131615200D01*
X171070000Y-127300000D02*
X171070000Y-126450000D01*
X171870000Y-128100000D02*
X171070000Y-127300000D01*
%TO.N,PC7*%
D69*
X149695000Y-105900000D02*
X150695000Y-106900000D01*
X125095000Y-134300000D02*
X127020000Y-134300000D01*
X137520000Y-130850000D02*
X136760000Y-130850000D01*
X127920000Y-133800000D02*
X127420000Y-134300000D01*
X127340000Y-134920000D02*
X127340000Y-134620000D01*
X149720000Y-118650000D02*
X137520000Y-130850000D01*
X148045000Y-105900000D02*
X149695000Y-105900000D01*
X149720000Y-117625000D02*
X149720000Y-118650000D01*
X149920000Y-117425000D02*
X149720000Y-117625000D01*
X127020000Y-134300000D02*
X127420000Y-134300000D01*
X149920000Y-117000000D02*
X149920000Y-117425000D01*
X150695000Y-106900000D02*
X150695000Y-116225000D01*
X136760000Y-130850000D02*
X136720000Y-130810000D01*
X127920000Y-132976000D02*
X127920000Y-133800000D01*
X127340000Y-134620000D02*
X127020000Y-134300000D01*
X150695000Y-116225000D02*
X149920000Y-117000000D01*
X124420000Y-133625000D02*
X125095000Y-134300000D01*
%TO.N,PH0*%
D66*
X132740000Y-102650000D02*
X133270000Y-102120000D01*
X136695000Y-102900000D02*
X135620000Y-102900000D01*
X133270000Y-101560000D02*
X133180000Y-101470000D01*
X135620000Y-102900000D02*
X134190000Y-101470000D01*
X133270000Y-102120000D02*
X133270000Y-101560000D01*
X134190000Y-101470000D02*
X133180000Y-101470000D01*
X132740000Y-103050000D02*
X132740000Y-102650000D01*
%TO.N,Net-(U4-EN)*%
D68*
X110258750Y-114231250D02*
X112358750Y-114231250D01*
X107308750Y-114431250D02*
X106008750Y-115731250D01*
X110258750Y-114981250D02*
X109508750Y-115731250D01*
X108958750Y-114231250D02*
X110258750Y-114231250D01*
X115283750Y-112781250D02*
X116388750Y-112781250D01*
X108958750Y-114231250D02*
X108758750Y-114431250D01*
X115283750Y-112781250D02*
X115008750Y-113056250D01*
X112358750Y-114231250D02*
X113108750Y-114231250D01*
X113108750Y-114231250D02*
X114558750Y-112781250D01*
X108701250Y-114231250D02*
X108958750Y-114231250D01*
X113108750Y-114858750D02*
X113458750Y-115208750D01*
X115008750Y-114006250D02*
X115671250Y-114668750D01*
X110258750Y-114231250D02*
X110258750Y-114981250D01*
X115671250Y-114668750D02*
X116401250Y-114668750D01*
X114558750Y-112781250D02*
X114708750Y-112781250D01*
X113108750Y-114231250D02*
X113108750Y-114858750D01*
X107588750Y-113118750D02*
X108701250Y-114231250D01*
D69*
X116388750Y-112781250D02*
X116401250Y-112768750D01*
D68*
X114708750Y-112781250D02*
X114708750Y-111811250D01*
X108758750Y-114431250D02*
X107308750Y-114431250D01*
X115008750Y-113056250D02*
X115008750Y-114006250D01*
X114708750Y-111811250D02*
X114758750Y-111761250D01*
D69*
X106038750Y-115458750D02*
X106088750Y-115508750D01*
D68*
X114708750Y-112781250D02*
X115283750Y-112781250D01*
D69*
X108138750Y-113118750D02*
X107588750Y-113118750D01*
%TO.N,+3.3V*%
D68*
X145520000Y-129970000D02*
X147487500Y-129970000D01*
X142670000Y-118510000D02*
X145870000Y-118510000D01*
X133055000Y-113050000D02*
X133670000Y-113050000D01*
X135040000Y-81145000D02*
X136645000Y-82750000D01*
X119783750Y-111956250D02*
X120273750Y-112446250D01*
X147190000Y-90480000D02*
X148860000Y-92150000D01*
X141740000Y-117110000D02*
X141380000Y-117110000D01*
X169895000Y-137260000D02*
X169895000Y-137850000D01*
D66*
X144420000Y-94237500D02*
X144420000Y-93575000D01*
D68*
X142970000Y-90480000D02*
X147190000Y-90480000D01*
X148860000Y-93730000D02*
X148860000Y-98590000D01*
X135920000Y-114625000D02*
X135920000Y-114600000D01*
X153295000Y-141425000D02*
X153515000Y-141425000D01*
X137030000Y-96140000D02*
X138150000Y-96140000D01*
X153050000Y-141425000D02*
X152200000Y-140575000D01*
X154390000Y-140550000D02*
X154390000Y-138357500D01*
D66*
X145570000Y-130410000D02*
X145130000Y-129970000D01*
X166860200Y-131115200D02*
X166795000Y-131050000D01*
D68*
X169345000Y-127700000D02*
X170000200Y-128355200D01*
D67*
X143770000Y-116650000D02*
X144220000Y-116650000D01*
D68*
X167645000Y-127000000D02*
X167285000Y-127000000D01*
X132270000Y-113000000D02*
X130620000Y-114650000D01*
D67*
X143770000Y-116650000D02*
X143520000Y-116900000D01*
D66*
X145570000Y-131710000D02*
X145570000Y-130410000D01*
X149810000Y-99540000D02*
X148860000Y-98590000D01*
D68*
X138150000Y-96140000D02*
X138590000Y-96580000D01*
D67*
X144650000Y-117350000D02*
X143970000Y-117350000D01*
D68*
X168695000Y-137800000D02*
X168695000Y-137230000D01*
X144865000Y-92325000D02*
X143770000Y-92325000D01*
X119783750Y-110731250D02*
X119783750Y-111956250D01*
X166095000Y-131050000D02*
X166795000Y-131050000D01*
X142670000Y-117750000D02*
X143520000Y-116900000D01*
X144575000Y-129970000D02*
X145130000Y-129970000D01*
X148860000Y-99550000D02*
X148120000Y-100290000D01*
D66*
X144157500Y-94750000D02*
X143120000Y-94750000D01*
D68*
X153295000Y-142125000D02*
X153295000Y-141425000D01*
X165545000Y-138850000D02*
X165545000Y-137800000D01*
X139190000Y-113240000D02*
X138805000Y-112855000D01*
X170000200Y-128355200D02*
X170000200Y-129995200D01*
D66*
X138620000Y-98975000D02*
X138620000Y-97680000D01*
D68*
X141270000Y-93475000D02*
X140795000Y-93950000D01*
X152145000Y-143275000D02*
X153295000Y-142125000D01*
X154390000Y-138357500D02*
X154295000Y-138262500D01*
X141380000Y-117110000D02*
X140730000Y-116460000D01*
X141740000Y-117110000D02*
X141740000Y-116590000D01*
X136660000Y-96500000D02*
X136670000Y-96500000D01*
X141270000Y-93475000D02*
X141270000Y-91950000D01*
D66*
X167790200Y-131115200D02*
X166860200Y-131115200D01*
D68*
X165545000Y-131600000D02*
X165545000Y-129100000D01*
D66*
X149810000Y-99620000D02*
X149810000Y-99540000D01*
D67*
X141720000Y-115225000D02*
X141720000Y-115520000D01*
D68*
X122020000Y-86150000D02*
X122020000Y-82700000D01*
X167645000Y-127700000D02*
X169345000Y-127700000D01*
D67*
X143385000Y-115385000D02*
X143770000Y-115770000D01*
D68*
X134960000Y-98700000D02*
X136120000Y-97540000D01*
X136670000Y-96500000D02*
X137030000Y-96140000D01*
X167645000Y-127700000D02*
X167645000Y-127000000D01*
X140795000Y-93950000D02*
X140795000Y-94450000D01*
X147495000Y-116885000D02*
X147495000Y-112175000D01*
D66*
X143120000Y-94750000D02*
X143045000Y-94675000D01*
D68*
X138590000Y-96580000D02*
X138590000Y-97650000D01*
X142170000Y-91475000D02*
X142170000Y-91280000D01*
X132670000Y-112665000D02*
X133055000Y-113050000D01*
X142170000Y-91280000D02*
X142970000Y-90480000D01*
X146545000Y-110650000D02*
X146220000Y-110325000D01*
X140730000Y-116460000D02*
X140050000Y-116460000D01*
D67*
X143970000Y-117350000D02*
X143520000Y-116900000D01*
D68*
X138805000Y-112855000D02*
X139580000Y-112080000D01*
X140795000Y-94450000D02*
X141020000Y-94675000D01*
X165545000Y-132950000D02*
X165545000Y-131600000D01*
X141030000Y-118510000D02*
X142670000Y-118510000D01*
X143770000Y-92925000D02*
X144420000Y-93575000D01*
X167645000Y-127000000D02*
X167645000Y-126550000D01*
X136120000Y-100225000D02*
X136695000Y-100800000D01*
X147020000Y-111700000D02*
X147020000Y-110740000D01*
D67*
X141390000Y-115850000D02*
X141390000Y-116240000D01*
D68*
X139400000Y-96580000D02*
X139510000Y-96690000D01*
X165545000Y-137800000D02*
X165545000Y-132950000D01*
X141020000Y-94675000D02*
X143045000Y-94675000D01*
X143770000Y-92325000D02*
X143770000Y-92925000D01*
X136120000Y-98350000D02*
X136120000Y-100225000D01*
X135370000Y-96200000D02*
X136120000Y-96950000D01*
X136470000Y-98700000D02*
X136120000Y-98350000D01*
X136210000Y-96950000D02*
X136660000Y-96500000D01*
X141270000Y-91950000D02*
X140795000Y-91475000D01*
X142920000Y-91475000D02*
X142170000Y-91475000D01*
X136120000Y-96950000D02*
X136120000Y-97540000D01*
D66*
X148045000Y-100900000D02*
X148045000Y-100365000D01*
D68*
X142270000Y-93760000D02*
X141555000Y-93760000D01*
D67*
X141720000Y-115520000D02*
X141390000Y-115850000D01*
D68*
X169845000Y-137210000D02*
X169895000Y-137260000D01*
X120158750Y-110356250D02*
X121695000Y-110356250D01*
D67*
X144220000Y-116650000D02*
X144620000Y-116250000D01*
D68*
X145130000Y-129970000D02*
X145520000Y-129970000D01*
D66*
X139620000Y-110325000D02*
X139620000Y-112040000D01*
D68*
X138805000Y-112855000D02*
X137675000Y-112855000D01*
X148860000Y-98590000D02*
X148860000Y-99550000D01*
X135920000Y-114625000D02*
X135920000Y-114650000D01*
X141030000Y-118510000D02*
X141740000Y-117800000D01*
X152200000Y-138457500D02*
X152395000Y-138262500D01*
X167645000Y-126550000D02*
X167845000Y-126350000D01*
X148860000Y-93730000D02*
X148860000Y-93880000D01*
X147495000Y-112175000D02*
X147020000Y-111700000D01*
X143770000Y-92325000D02*
X142920000Y-91475000D01*
X147020000Y-110740000D02*
X147110000Y-110650000D01*
X165545000Y-132950000D02*
X166289800Y-132205200D01*
X165545000Y-129100000D02*
X166945000Y-127700000D01*
X135040000Y-79925000D02*
X135040000Y-81145000D01*
X120273750Y-112446250D02*
X120273750Y-112906250D01*
X136120000Y-96950000D02*
X136210000Y-96950000D01*
X145870000Y-118510000D02*
X147495000Y-116885000D01*
X137670000Y-112860000D02*
X137665000Y-112855000D01*
D67*
X143770000Y-115770000D02*
X143770000Y-116650000D01*
D68*
X135920000Y-114650000D02*
X139780000Y-118510000D01*
X153515000Y-141425000D02*
X154390000Y-140550000D01*
X141740000Y-117800000D02*
X141740000Y-117110000D01*
X148860000Y-92150000D02*
X148860000Y-93730000D01*
X137330000Y-98700000D02*
X136470000Y-98700000D01*
X166945000Y-127700000D02*
X167645000Y-127700000D01*
X142170000Y-91475000D02*
X140795000Y-91475000D01*
X152200000Y-140575000D02*
X152200000Y-138457500D01*
D67*
X143385000Y-115060000D02*
X143385000Y-115385000D01*
D68*
X141555000Y-93760000D02*
X141270000Y-93475000D01*
X142670000Y-118510000D02*
X142670000Y-117750000D01*
D66*
X148045000Y-100365000D02*
X148120000Y-100290000D01*
D68*
X138590000Y-96580000D02*
X139400000Y-96580000D01*
X166289800Y-132205200D02*
X167790200Y-132205200D01*
X139780000Y-118510000D02*
X141030000Y-118510000D01*
X169420000Y-138325000D02*
X168170000Y-138325000D01*
D66*
X138620000Y-97680000D02*
X138590000Y-97650000D01*
D68*
X122020000Y-82700000D02*
X122320000Y-82400000D01*
D67*
X141390000Y-116240000D02*
X141740000Y-116590000D01*
D66*
X139620000Y-112040000D02*
X139580000Y-112080000D01*
D68*
X118676250Y-112768750D02*
X118971250Y-112768750D01*
X118971250Y-112768750D02*
X119783750Y-111956250D01*
X165545000Y-138850000D02*
X166095000Y-138300000D01*
X134120000Y-98700000D02*
X134960000Y-98700000D01*
X144575000Y-129970000D02*
X144120000Y-130425000D01*
X132270000Y-112665000D02*
X132670000Y-112665000D01*
X167285000Y-127000000D02*
X166645000Y-126360000D01*
X147487500Y-129970000D02*
X147695000Y-129762500D01*
X153295000Y-141425000D02*
X153050000Y-141425000D01*
X164795000Y-139600000D02*
X165545000Y-138850000D01*
X136120000Y-97540000D02*
X136120000Y-98350000D01*
X120158750Y-110356250D02*
X119783750Y-110731250D01*
X169895000Y-137850000D02*
X169420000Y-138325000D01*
X168695000Y-137800000D02*
X168170000Y-138325000D01*
X166095000Y-138300000D02*
X168145000Y-138300000D01*
X137675000Y-112855000D02*
X137670000Y-112860000D01*
X135920000Y-114600000D02*
X137665000Y-112855000D01*
X139190000Y-113690000D02*
X139190000Y-113240000D01*
X132270000Y-112665000D02*
X132270000Y-113000000D01*
X147110000Y-110650000D02*
X146545000Y-110650000D01*
X148860000Y-93880000D02*
X147780000Y-94960000D01*
X165545000Y-131600000D02*
X166095000Y-131050000D01*
%TO.N,PH1*%
D66*
X133630000Y-103790000D02*
X134400000Y-103020000D01*
D69*
X135600000Y-103400000D02*
X135290000Y-103090000D01*
D66*
X133630000Y-104360000D02*
X133630000Y-103790000D01*
D69*
X136695000Y-103400000D02*
X135600000Y-103400000D01*
D66*
X132740000Y-105250000D02*
X132740000Y-106580000D01*
X132740000Y-105250000D02*
X133630000Y-104360000D01*
X132740000Y-106580000D02*
X132445000Y-106875000D01*
X134400000Y-103020000D02*
X135145000Y-103020000D01*
%TO.N,NRST*%
X133470000Y-92925000D02*
X133470000Y-91855000D01*
X133470000Y-93875000D02*
X133470000Y-92925000D01*
D67*
X136695000Y-103900000D02*
X135420000Y-103900000D01*
D66*
X135420000Y-90275000D02*
X136270000Y-89425000D01*
X136395000Y-89300000D02*
X136395000Y-85825000D01*
X133470000Y-91855000D02*
X133600000Y-91725000D01*
X134845000Y-90275000D02*
X135420000Y-90275000D01*
X136395000Y-85825000D02*
X134845000Y-84275000D01*
X142660000Y-79925000D02*
X142660000Y-82740000D01*
X142660000Y-82740000D02*
X142670000Y-82750000D01*
D67*
X135420000Y-103900000D02*
X135145000Y-103625000D01*
%TO.N,PC0*%
X136695000Y-104400000D02*
X135120000Y-104400000D01*
D66*
X147780000Y-95980000D02*
X147780000Y-97287500D01*
X147750000Y-97317500D02*
X145682500Y-95250000D01*
X147780000Y-97287500D02*
X147750000Y-97317500D01*
X147750000Y-97970000D02*
X147750000Y-97317500D01*
X147750000Y-96010000D02*
X147780000Y-95980000D01*
D67*
X135120000Y-104400000D02*
X135095000Y-104375000D01*
%TO.N,PC1*%
D69*
X136675000Y-104920000D02*
X134830000Y-104920000D01*
D67*
X112970000Y-85390000D02*
X112220000Y-85390000D01*
X112200000Y-84220000D02*
X114040000Y-84220000D01*
X114040000Y-84220000D02*
X114200000Y-84380000D01*
X113440000Y-84920000D02*
X112970000Y-85390000D01*
D69*
X134830000Y-104920000D02*
X134260000Y-104350000D01*
D67*
X114200000Y-84720000D02*
X114000000Y-84920000D01*
X114200000Y-85260000D02*
X114310000Y-85370000D01*
X114200000Y-83225000D02*
X114200000Y-84380000D01*
X114000000Y-84920000D02*
X113440000Y-84920000D01*
D69*
X136695000Y-104900000D02*
X136675000Y-104920000D01*
D67*
X114200000Y-84920000D02*
X114200000Y-85260000D01*
X112220000Y-85390000D02*
X112170000Y-85340000D01*
X114200000Y-84380000D02*
X114200000Y-84920000D01*
%TO.N,PC2*%
D69*
X134190000Y-105080000D02*
X134510000Y-105400000D01*
D67*
X128570000Y-127100000D02*
X128570000Y-126250000D01*
D69*
X134510000Y-105400000D02*
X136695000Y-105400000D01*
D67*
X127370000Y-125550000D02*
X127170000Y-125350000D01*
X127170000Y-125350000D02*
X127170000Y-123400000D01*
X127870000Y-125550000D02*
X127370000Y-125550000D01*
X128570000Y-126250000D02*
X127870000Y-125550000D01*
%TO.N,PC3*%
D69*
X135745000Y-105900000D02*
X135520000Y-105675000D01*
D67*
X129270000Y-119700000D02*
X128620000Y-120350000D01*
D69*
X134805000Y-105675000D02*
X135520000Y-105675000D01*
X136695000Y-105900000D02*
X135745000Y-105900000D01*
D67*
X128620000Y-120350000D02*
X128620000Y-125150000D01*
D69*
X134590000Y-105890000D02*
X134805000Y-105675000D01*
D67*
X129870000Y-126400000D02*
X129870000Y-127100000D01*
X128620000Y-125150000D02*
X129870000Y-126400000D01*
%TO.N,VDDA*%
D68*
X134190000Y-112080000D02*
X134920000Y-111350000D01*
X134920000Y-109950000D02*
X134405000Y-110465000D01*
X132150000Y-108765000D02*
X132305000Y-108765000D01*
X133670000Y-112080000D02*
X134190000Y-112080000D01*
X134920000Y-111350000D02*
X134920000Y-109950000D01*
X132805000Y-110465000D02*
X132770000Y-110500000D01*
X134920000Y-109750000D02*
X133295000Y-108125000D01*
X134120000Y-106950000D02*
X134732500Y-106950000D01*
X134405000Y-110465000D02*
X132805000Y-110465000D01*
X132305000Y-108765000D02*
X134120000Y-106950000D01*
D67*
X135957500Y-106950000D02*
X134732500Y-106950000D01*
D68*
X134920000Y-109950000D02*
X134920000Y-109750000D01*
X133295000Y-108125000D02*
X133295000Y-107775000D01*
%TO.N,PA0*%
D66*
X134210000Y-107960000D02*
X134210000Y-107935000D01*
D67*
X89408750Y-96081250D02*
X88633750Y-96856250D01*
X90083750Y-96756250D02*
X90883750Y-96756250D01*
X90408750Y-95331250D02*
X90858750Y-95331250D01*
X89408750Y-96081250D02*
X90083750Y-96756250D01*
X90953750Y-95321250D02*
X90938750Y-95306250D01*
X89408750Y-94481250D02*
X89408750Y-96081250D01*
X89408750Y-96081250D02*
X89658750Y-96081250D01*
D66*
X135145000Y-107400000D02*
X136695000Y-107400000D01*
X134585000Y-107960000D02*
X135145000Y-107400000D01*
D67*
X89658750Y-96081250D02*
X90408750Y-95331250D01*
X88633750Y-96856250D02*
X88208750Y-96856250D01*
D66*
X134210000Y-107960000D02*
X134585000Y-107960000D01*
%TO.N,PA2*%
D67*
X135820000Y-110350000D02*
X136670000Y-109500000D01*
X133470000Y-138425000D02*
X133520000Y-138375000D01*
X136670000Y-108425000D02*
X136695000Y-108400000D01*
X133470000Y-140400000D02*
X133470000Y-138425000D01*
X136670000Y-109500000D02*
X136670000Y-108425000D01*
%TO.N,PA5*%
X140530000Y-111350000D02*
X140620000Y-111260000D01*
X140530000Y-111590000D02*
X140530000Y-111350000D01*
X140620000Y-111260000D02*
X140620000Y-110325000D01*
X142220000Y-112910000D02*
X142220000Y-113395000D01*
%TO.N,PA6*%
D66*
X141120000Y-110325000D02*
X141110000Y-110335000D01*
X141110000Y-110335000D02*
X141110000Y-113480000D01*
X141110000Y-113480000D02*
X141055000Y-113535000D01*
D67*
X141055000Y-113560000D02*
X141120000Y-113495000D01*
%TO.N,PA7*%
D66*
X141720000Y-113270000D02*
X141610000Y-113160000D01*
X141720000Y-113395000D02*
X141720000Y-113270000D01*
X141610000Y-113160000D02*
X141610000Y-110335000D01*
X141610000Y-110335000D02*
X141620000Y-110325000D01*
%TO.N,PC4*%
D69*
X142720000Y-112380000D02*
X142120000Y-111780000D01*
X142120000Y-110325000D02*
X142120000Y-111780000D01*
X142720000Y-113395000D02*
X142720000Y-112380000D01*
%TO.N,PC5*%
D67*
X133970000Y-114900000D02*
X137120000Y-111750000D01*
X142620000Y-111240000D02*
X142620000Y-110325000D01*
X130520000Y-127100000D02*
X130520000Y-126350000D01*
X133970000Y-116450000D02*
X133970000Y-114900000D01*
X130520000Y-126350000D02*
X129370000Y-125200000D01*
X129370000Y-121050000D02*
X133970000Y-116450000D01*
X129370000Y-125200000D02*
X129370000Y-121050000D01*
X137120000Y-111750000D02*
X137520000Y-111750000D01*
%TO.N,PB0*%
X154295000Y-119775000D02*
X151870000Y-117350000D01*
X143120000Y-111810000D02*
X143150000Y-111840000D01*
X151870000Y-117350000D02*
X151820000Y-117350000D01*
X143120000Y-110325000D02*
X143120000Y-111810000D01*
X154295000Y-125062500D02*
X154295000Y-119775000D01*
%TO.N,PB1*%
X152460000Y-122560000D02*
X152460000Y-118830000D01*
D69*
X143620000Y-111460000D02*
X143960000Y-111800000D01*
D67*
X152470000Y-124987500D02*
X152470000Y-122570000D01*
X152470000Y-122570000D02*
X152460000Y-122560000D01*
X152395000Y-125062500D02*
X152470000Y-124987500D01*
D69*
X143620000Y-110325000D02*
X143620000Y-111460000D01*
%TO.N,PB10*%
D67*
X165495000Y-125575000D02*
X164570000Y-124650000D01*
D69*
X145020000Y-114420000D02*
X145020000Y-112730000D01*
X144620000Y-112330000D02*
X144620000Y-110325000D01*
D67*
X165495000Y-125575000D02*
X165495000Y-126200000D01*
X166645000Y-125340000D02*
X165730000Y-125340000D01*
X165730000Y-125340000D02*
X165495000Y-125575000D01*
X167790200Y-130615200D02*
X167790200Y-129945200D01*
X167790200Y-129945200D02*
X167245000Y-129400000D01*
D69*
X145020000Y-112730000D02*
X144620000Y-112330000D01*
%TO.N,PB11*%
D67*
X168250000Y-125330000D02*
X168445000Y-125525000D01*
X167870000Y-123825000D02*
X167045000Y-123825000D01*
X168410200Y-129034800D02*
X168595000Y-128850000D01*
X168445000Y-125525000D02*
X168795000Y-125875000D01*
X145120000Y-110325000D02*
X145120000Y-111870000D01*
X168695000Y-125275000D02*
X168695000Y-124650000D01*
X168695000Y-124650000D02*
X167870000Y-123825000D01*
X167845000Y-125330000D02*
X168250000Y-125330000D01*
X168445000Y-125525000D02*
X168695000Y-125275000D01*
X168410200Y-129995200D02*
X168410200Y-129034800D01*
%TO.N,/VCAP1*%
X145620000Y-111250000D02*
X146360000Y-111990000D01*
X146360000Y-111990000D02*
X146360000Y-112820000D01*
X145620000Y-110325000D02*
X145620000Y-111250000D01*
%TO.N,PB13*%
X129220000Y-127100000D02*
X129220000Y-126250000D01*
X146620000Y-119900000D02*
X132970000Y-119900000D01*
X149545000Y-115200000D02*
X148470000Y-116275000D01*
X128120000Y-125150000D02*
X128120000Y-124850000D01*
X149545000Y-108175000D02*
X149545000Y-115200000D01*
X148470000Y-118050000D02*
X146620000Y-119900000D01*
X148470000Y-116275000D02*
X148470000Y-118050000D01*
X129220000Y-126250000D02*
X128120000Y-125150000D01*
X149270000Y-107900000D02*
X149545000Y-108175000D01*
X148045000Y-107900000D02*
X149270000Y-107900000D01*
%TO.N,PC6*%
D69*
X149395000Y-117825000D02*
X137570000Y-129650000D01*
X149245000Y-106400000D02*
X150070000Y-107225000D01*
D67*
X107685000Y-131040000D02*
X107685000Y-133025000D01*
D69*
X150070000Y-107225000D02*
X150070000Y-115950000D01*
X150070000Y-115950000D02*
X149395000Y-116625000D01*
D67*
X107620000Y-130975000D02*
X107685000Y-131040000D01*
D69*
X149395000Y-116625000D02*
X149395000Y-117825000D01*
X137570000Y-129650000D02*
X137120000Y-129650000D01*
X148045000Y-106400000D02*
X149245000Y-106400000D01*
%TO.N,PC9*%
D66*
X163820000Y-101550000D02*
X163895000Y-101475000D01*
X148045000Y-104900000D02*
X148895000Y-104900000D01*
X149520000Y-105525000D02*
X154695000Y-105525000D01*
X148895000Y-104900000D02*
X149520000Y-105525000D01*
X158670000Y-101550000D02*
X163820000Y-101550000D01*
X154695000Y-105525000D02*
X158670000Y-101550000D01*
%TO.N,PA8*%
X163895000Y-100475000D02*
X158220000Y-100475000D01*
X153845000Y-104850000D02*
X149795000Y-104850000D01*
X149795000Y-104850000D02*
X149345000Y-104400000D01*
X158220000Y-100475000D02*
X153845000Y-104850000D01*
X149345000Y-104400000D02*
X148045000Y-104400000D01*
%TO.N,PA9*%
X150370000Y-104275000D02*
X152895000Y-104275000D01*
X163845000Y-99425000D02*
X163895000Y-99475000D01*
X152895000Y-104275000D02*
X157745000Y-99425000D01*
X157745000Y-99425000D02*
X163845000Y-99425000D01*
X149995000Y-103900000D02*
X150370000Y-104275000D01*
X148045000Y-103900000D02*
X149995000Y-103900000D01*
%TO.N,PA10*%
X150445000Y-103400000D02*
X150745000Y-103700000D01*
X150745000Y-103700000D02*
X152170000Y-103700000D01*
X157395000Y-98475000D02*
X163895000Y-98475000D01*
X148045000Y-103400000D02*
X150445000Y-103400000D01*
X152170000Y-103700000D02*
X157395000Y-98475000D01*
%TO.N,PA13*%
X148260000Y-89660000D02*
X145380000Y-89660000D01*
X151920000Y-93320000D02*
X148260000Y-89660000D01*
X145380000Y-89660000D02*
X137730000Y-82010000D01*
X148045000Y-101900000D02*
X151440000Y-101900000D01*
X151440000Y-101900000D02*
X151920000Y-101420000D01*
X137730000Y-82010000D02*
X137730000Y-80075000D01*
X151920000Y-101420000D02*
X151920000Y-93320000D01*
X137730000Y-80075000D02*
X137580000Y-79925000D01*
%TO.N,/VCAP2*%
X149390000Y-101400000D02*
X149790000Y-101000000D01*
X148045000Y-101400000D02*
X149390000Y-101400000D01*
%TO.N,PA14*%
D67*
X140120000Y-79925000D02*
X140230000Y-80035000D01*
X146330000Y-88790000D02*
X147680000Y-88790000D01*
X146120000Y-98000000D02*
X146510000Y-97610000D01*
X140230000Y-82690000D02*
X146330000Y-88790000D01*
X140230000Y-80035000D02*
X140230000Y-82690000D01*
X146120000Y-98975000D02*
X146120000Y-98000000D01*
%TO.N,PB3*%
X143520000Y-97750000D02*
X143995000Y-97750000D01*
X143120000Y-98150000D02*
X143520000Y-97750000D01*
X144157500Y-95250000D02*
X143395000Y-95250000D01*
X143120000Y-98975000D02*
X143120000Y-98150000D01*
X143395000Y-95250000D02*
X142695000Y-95950000D01*
%TO.N,PB4*%
X143350000Y-97270000D02*
X144775000Y-97270000D01*
X142620000Y-98000000D02*
X143350000Y-97270000D01*
X144775000Y-97270000D02*
X145420000Y-96625000D01*
X145420000Y-96625000D02*
X145420000Y-95762500D01*
X142620000Y-98975000D02*
X142620000Y-98000000D01*
%TO.N,PB5*%
X144595000Y-96550000D02*
X144920000Y-96225000D01*
X142120000Y-98975000D02*
X142120000Y-97625000D01*
X143195000Y-96550000D02*
X144595000Y-96550000D01*
X142120000Y-97625000D02*
X143195000Y-96550000D01*
X144920000Y-96225000D02*
X144920000Y-95762500D01*
%TO.N,PB6*%
D69*
X139270000Y-93700000D02*
X134645000Y-93700000D01*
D67*
X115220000Y-132075000D02*
X126895000Y-120400000D01*
D69*
X132845000Y-94200000D02*
X132845000Y-93900000D01*
X132070000Y-93125000D02*
X131470000Y-93125000D01*
X133920000Y-94425000D02*
X133070000Y-94425000D01*
D67*
X141795000Y-97950000D02*
X141795000Y-97400000D01*
X126895000Y-100425000D02*
X129745000Y-97575000D01*
D69*
X132845000Y-93900000D02*
X132070000Y-93125000D01*
X133070000Y-94425000D02*
X132845000Y-94200000D01*
D67*
X129745000Y-96925000D02*
X129020000Y-96200000D01*
D69*
X141695000Y-95225000D02*
X140795000Y-95225000D01*
X142170000Y-95700000D02*
X142170000Y-96225000D01*
D67*
X141620000Y-98975000D02*
X141620000Y-98125000D01*
X141620000Y-98125000D02*
X141795000Y-97950000D01*
X142320000Y-96375000D02*
X142170000Y-96225000D01*
D69*
X140795000Y-95225000D02*
X139270000Y-93700000D01*
X142170000Y-95700000D02*
X141695000Y-95225000D01*
D67*
X142320000Y-96875000D02*
X142320000Y-96375000D01*
X115220000Y-140300000D02*
X115220000Y-132075000D01*
X129745000Y-97575000D02*
X129745000Y-96925000D01*
X141795000Y-97400000D02*
X142320000Y-96875000D01*
D69*
X134645000Y-93700000D02*
X133920000Y-94425000D01*
D67*
X129020000Y-96200000D02*
X129020000Y-96000000D01*
X126895000Y-120400000D02*
X126895000Y-100425000D01*
%TO.N,PB7*%
X140345000Y-95575000D02*
X138970000Y-94200000D01*
X125570000Y-100200000D02*
X125570000Y-120275000D01*
X141520000Y-95575000D02*
X140345000Y-95575000D01*
X128295000Y-97475000D02*
X125570000Y-100200000D01*
X114220000Y-131625000D02*
X114220000Y-140300000D01*
X141420000Y-97550000D02*
X141420000Y-97350000D01*
X138970000Y-94200000D02*
X138970000Y-94175000D01*
X141795000Y-96975000D02*
X141795000Y-95850000D01*
X141120000Y-98975000D02*
X141120000Y-97850000D01*
X141420000Y-97350000D02*
X141795000Y-96975000D01*
X125570000Y-120275000D02*
X114220000Y-131625000D01*
X141795000Y-95850000D02*
X141520000Y-95575000D01*
X134870000Y-94175000D02*
X134020000Y-95025000D01*
X141120000Y-97850000D02*
X141420000Y-97550000D01*
X134020000Y-95025000D02*
X133120000Y-95025000D01*
X133120000Y-95025000D02*
X132270000Y-94175000D01*
X138970000Y-94175000D02*
X134870000Y-94175000D01*
%TO.N,BOOT0*%
X140620000Y-97710000D02*
X140620000Y-98975000D01*
X141410000Y-96920000D02*
X140620000Y-97710000D01*
X139520000Y-95400000D02*
X140045000Y-95925000D01*
X128220000Y-95400000D02*
X139520000Y-95400000D01*
X125630000Y-85150000D02*
X125630000Y-92810000D01*
X125630000Y-92810000D02*
X128220000Y-95400000D01*
X141215000Y-95925000D02*
X141410000Y-96120000D01*
X140045000Y-95925000D02*
X141215000Y-95925000D01*
X141410000Y-96120000D02*
X141410000Y-96920000D01*
%TO.N,Net-(U3-SETP)*%
D66*
X170365000Y-133950000D02*
X170365000Y-133870000D01*
X170365000Y-133870000D02*
X169910200Y-133415200D01*
X169910200Y-133415200D02*
X169910200Y-132735200D01*
%TO.N,Net-(U3-SETC)*%
D67*
X173140000Y-133540000D02*
X172730000Y-133950000D01*
X172730000Y-133950000D02*
X171325000Y-133950000D01*
X170920000Y-130050000D02*
X172780000Y-130050000D01*
X173140000Y-130410000D02*
X173140000Y-133540000D01*
X170530200Y-130439800D02*
X170920000Y-130050000D01*
X172780000Y-130050000D02*
X173140000Y-130410000D01*
X170530200Y-130615200D02*
X170530200Y-130439800D01*
D66*
X171425000Y-134050000D02*
X171325000Y-133950000D01*
%TO.N,Net-(C26-Pad2)*%
D67*
X99998750Y-109131250D02*
X101038750Y-109131250D01*
%TO.N,Net-(U9-PGND)*%
X132470000Y-134625000D02*
X131895000Y-134050000D01*
X132470000Y-134725000D02*
X132470000Y-134625000D01*
X131895000Y-133051000D02*
X131820000Y-132976000D01*
X131895000Y-134050000D02*
X131895000Y-133051000D01*
%TO.N,Net-(J8-Pin_1)*%
X113180000Y-83225000D02*
X113180000Y-81280000D01*
X113180000Y-81280000D02*
X113150000Y-81250000D01*
%TO.N,Net-(Q1-G)*%
X108705000Y-133025000D02*
X108705000Y-135577500D01*
X108705000Y-135577500D02*
X108620000Y-135662500D01*
X109870000Y-134075000D02*
X109080000Y-134075000D01*
X109080000Y-134075000D02*
X108705000Y-133700000D01*
%TO.N,Net-(J7-Pin_2)*%
X107670000Y-140175000D02*
X107545000Y-140300000D01*
X107670000Y-137537500D02*
X107670000Y-140175000D01*
%TO.N,Net-(U5-SW)*%
D70*
X97038750Y-105726250D02*
X98083750Y-105726250D01*
D68*
X97008750Y-104231250D02*
X98083750Y-105306250D01*
D70*
X98083750Y-105726250D02*
X101538750Y-105726250D01*
X100958750Y-101081250D02*
X100958750Y-102056250D01*
X101538750Y-105726250D02*
X103083750Y-104181250D01*
D68*
X98083750Y-105306250D02*
X98083750Y-105726250D01*
X94918750Y-104231250D02*
X97008750Y-104231250D01*
D70*
X105051250Y-104181250D02*
X107588750Y-106718750D01*
X103083750Y-104181250D02*
X105051250Y-104181250D01*
X100958750Y-102056250D02*
X103083750Y-104181250D01*
%TO.N,VTX*%
D67*
X134470000Y-138585000D02*
X134570000Y-138485000D01*
X134470000Y-140400000D02*
X134470000Y-138585000D01*
%TO.N,Net-(C53-Pad1)*%
D69*
X135525000Y-136350000D02*
X135525000Y-136510000D01*
X135525000Y-136510000D02*
X134570000Y-137465000D01*
%TO.N,CAM_VIDEO*%
D67*
X130957500Y-136187500D02*
X131170000Y-135975000D01*
X131170000Y-135975000D02*
X131170000Y-135480000D01*
X131195000Y-137215000D02*
X131195000Y-136425000D01*
X131195000Y-136425000D02*
X130957500Y-136187500D01*
%TO.N,Net-(U9-VIN)*%
X131170000Y-134520000D02*
X131170000Y-132976000D01*
%TO.N,Net-(C41-Pad1)*%
X169845000Y-135000000D02*
X169445000Y-134600000D01*
X168695000Y-136270000D02*
X168695000Y-135650000D01*
X169845000Y-135250000D02*
X169845000Y-135000000D01*
X169645000Y-135450000D02*
X169845000Y-135250000D01*
X168895000Y-135450000D02*
X169645000Y-135450000D01*
X169845000Y-136250000D02*
X169845000Y-135250000D01*
X168695000Y-135650000D02*
X168895000Y-135450000D01*
X169445000Y-134600000D02*
X168755000Y-134600000D01*
%TO.N,Net-(U9-~{HSYNC})*%
X128570000Y-132976000D02*
X128570000Y-134490000D01*
X128570000Y-134490000D02*
X128520000Y-134540000D01*
%TO.N,Net-(U5-COMP)*%
X98828750Y-109131250D02*
X97963750Y-108266250D01*
D69*
X97963750Y-108266250D02*
X97038750Y-108266250D01*
D67*
X97038750Y-108266250D02*
X98523750Y-108266250D01*
X98523750Y-108266250D02*
X98808750Y-107981250D01*
%TO.N,Net-(U9-LOS)*%
X126210000Y-125950000D02*
X125720000Y-125460000D01*
X127920000Y-127100000D02*
X127920000Y-126150000D01*
X127920000Y-126150000D02*
X127720000Y-125950000D01*
X127720000Y-125950000D02*
X126210000Y-125950000D01*
%TO.N,VBAT*%
D71*
X88800000Y-106996250D02*
X88800000Y-105175000D01*
X87050000Y-106715000D02*
X87050000Y-103225000D01*
D68*
X89633750Y-108371250D02*
X89633750Y-107021250D01*
D67*
X89633750Y-107021250D02*
X89608750Y-106996250D01*
D71*
X88800000Y-106996250D02*
X89608750Y-106996250D01*
X86768750Y-106996250D02*
X87050000Y-106715000D01*
X89608750Y-106996250D02*
X91638750Y-106996250D01*
D70*
X80588750Y-96781250D02*
X85090000Y-96781250D01*
X85090000Y-96781250D02*
X86658750Y-96781250D01*
D71*
X84183750Y-97687500D02*
X85090000Y-96781250D01*
X86768750Y-106996250D02*
X88800000Y-106996250D01*
X84183750Y-109581250D02*
X84183750Y-97687500D01*
X88800000Y-105175000D02*
X90710000Y-103265000D01*
X84183750Y-109581250D02*
X86768750Y-106996250D01*
X82183750Y-111581250D02*
X84183750Y-109581250D01*
X80588750Y-111581250D02*
X82183750Y-111581250D01*
%TO.N,Net-(U9-SAG)*%
D67*
X133770000Y-132976000D02*
X133770000Y-134450000D01*
D69*
X134565000Y-136350000D02*
X134565000Y-135245000D01*
X134565000Y-135245000D02*
X133770000Y-134450000D01*
D67*
X133120000Y-133800000D02*
X133120000Y-132976000D01*
X133770000Y-134450000D02*
X133120000Y-133800000D01*
%TO.N,Net-(U5-BOOT)*%
X93908750Y-104281250D02*
X93958750Y-104231250D01*
X92588750Y-104281250D02*
X93908750Y-104281250D01*
X91638750Y-105726250D02*
X91638750Y-105231250D01*
X91638750Y-105231250D02*
X92588750Y-104281250D01*
%TO.N,/SW_BOOT0*%
D66*
X124610000Y-85150000D02*
X124610000Y-82610000D01*
X124610000Y-82610000D02*
X124820000Y-82400000D01*
%TO.N,/CC1*%
D67*
X165805000Y-116970000D02*
X165825000Y-116950000D01*
X165825000Y-116950000D02*
X163400000Y-116950000D01*
X163400000Y-116950000D02*
X162680000Y-117670000D01*
%TO.N,/CC2*%
X165795000Y-113920000D02*
X165825000Y-113950000D01*
D66*
X164820000Y-113950000D02*
X165825000Y-113950000D01*
X164320000Y-114450000D02*
X164820000Y-113950000D01*
X162905000Y-114450000D02*
X164320000Y-114450000D01*
%TO.N,FB*%
D67*
X97038750Y-111581250D02*
X102060000Y-116602500D01*
X112658750Y-116831250D02*
X113208750Y-116831250D01*
X113208750Y-116831250D02*
X113458750Y-117081250D01*
X102060000Y-116602500D02*
X102060000Y-116610000D01*
X113208750Y-116831250D02*
X113458750Y-116581250D01*
X97038750Y-109536250D02*
X97038750Y-111581250D01*
X113458750Y-116581250D02*
X113458750Y-116228750D01*
X113458750Y-117081250D02*
X113458750Y-117471250D01*
%TO.N,Net-(U9-AGND)*%
X129870000Y-134500000D02*
X129895000Y-134525000D01*
X129870000Y-132976000D02*
X129870000Y-134500000D01*
%TO.N,Net-(U4-BP)*%
D66*
X118676250Y-114668750D02*
X120266250Y-114668750D01*
X120266250Y-114668750D02*
X120303750Y-114706250D01*
%TO.N,Net-(U5-RT{slash}CLK)*%
D69*
X91638750Y-109536250D02*
X91638750Y-110971250D01*
X91638750Y-110971250D02*
X91488750Y-111121250D01*
%TO.N,Net-(U9-CLKIN)*%
D66*
X130720000Y-125100000D02*
X130720000Y-124150000D01*
X131270000Y-125650000D02*
X130720000Y-125100000D01*
X132470000Y-127100000D02*
X132470000Y-125900000D01*
%TO.N,Net-(U9-XFB)*%
X131820000Y-127100000D02*
X131820000Y-125250000D01*
X131820000Y-125250000D02*
X132920000Y-124150000D01*
%TO.N,Net-(U5-EN)*%
D67*
X91523750Y-108381250D02*
X91638750Y-108266250D01*
X90233750Y-109956250D02*
X90408750Y-109781250D01*
X90408750Y-108681250D02*
X90708750Y-108381250D01*
X89608750Y-110546250D02*
X89608750Y-109956250D01*
X90408750Y-109781250D02*
X90408750Y-108681250D01*
X89608750Y-109956250D02*
X90233750Y-109956250D01*
X90708750Y-108381250D02*
X91523750Y-108381250D01*
X89608750Y-109416250D02*
X89633750Y-109391250D01*
X89608750Y-109956250D02*
X89608750Y-109416250D01*
%TD*%
%TA.AperFunction,Conductor*%
%TO.N,+5V*%
G36*
X138268506Y-120595666D02*
G01*
X138325701Y-120635796D01*
X138352121Y-120700478D01*
X138352766Y-120712399D01*
X138397753Y-128380538D01*
X138378462Y-128447691D01*
X138361436Y-128468946D01*
X137554280Y-129276103D01*
X137492957Y-129309588D01*
X137423266Y-129304604D01*
X137378919Y-129276105D01*
X137378917Y-129276103D01*
X137352314Y-129249500D01*
X137295250Y-129216554D01*
X137238187Y-129183608D01*
X137174539Y-129166554D01*
X137110892Y-129149500D01*
X136979108Y-129149500D01*
X136851812Y-129183608D01*
X136737686Y-129249500D01*
X136737683Y-129249502D01*
X136644502Y-129342683D01*
X136644500Y-129342686D01*
X136578608Y-129456812D01*
X136544500Y-129584108D01*
X136544500Y-129715891D01*
X136578608Y-129843187D01*
X136601916Y-129883556D01*
X136644500Y-129957314D01*
X136737686Y-130050500D01*
X136785513Y-130078113D01*
X136833729Y-130128680D01*
X136846952Y-130197287D01*
X136820983Y-130262152D01*
X136764069Y-130302680D01*
X136723513Y-130309500D01*
X136654108Y-130309500D01*
X136526812Y-130343608D01*
X136412686Y-130409500D01*
X136412683Y-130409502D01*
X136319502Y-130502683D01*
X136319500Y-130502686D01*
X136253608Y-130616812D01*
X136219500Y-130744108D01*
X136219500Y-130875891D01*
X136253608Y-131003187D01*
X136286554Y-131060250D01*
X136319500Y-131117314D01*
X136412686Y-131210500D01*
X136526814Y-131276392D01*
X136654108Y-131310500D01*
X136654110Y-131310500D01*
X136785890Y-131310500D01*
X136785892Y-131310500D01*
X136913186Y-131276392D01*
X137027314Y-131210500D01*
X137075995Y-131161819D01*
X137137318Y-131128334D01*
X137163676Y-131125500D01*
X137574799Y-131125500D01*
X137574800Y-131125500D01*
X137676058Y-131083557D01*
X137753557Y-131006058D01*
X137753556Y-131006058D01*
X137812125Y-130947489D01*
X137812124Y-130947489D01*
X138199375Y-130560238D01*
X138260694Y-130526756D01*
X138330385Y-130531740D01*
X138386319Y-130573611D01*
X138410736Y-130639076D01*
X138411050Y-130647195D01*
X138474630Y-141484316D01*
X138455339Y-141551469D01*
X138402804Y-141597533D01*
X138351359Y-141609041D01*
X135731744Y-141624410D01*
X135664591Y-141605119D01*
X135618527Y-141552584D01*
X135608178Y-141483485D01*
X135636829Y-141419760D01*
X135669013Y-141393027D01*
X135698932Y-141375753D01*
X135714214Y-141369082D01*
X135721391Y-141365573D01*
X135721393Y-141365573D01*
X135826483Y-141314198D01*
X135909198Y-141231483D01*
X135960573Y-141126393D01*
X135970500Y-141058260D01*
X135970500Y-139741740D01*
X135960573Y-139673607D01*
X135909198Y-139568517D01*
X135909196Y-139568515D01*
X135909196Y-139568514D01*
X135826485Y-139485803D01*
X135721392Y-139434426D01*
X135715289Y-139433537D01*
X135671184Y-139418225D01*
X135663188Y-139413609D01*
X135663187Y-139413608D01*
X135663186Y-139413608D01*
X135535892Y-139379500D01*
X135404108Y-139379500D01*
X135276817Y-139413606D01*
X135276809Y-139413610D01*
X135268811Y-139418227D01*
X135224711Y-139433537D01*
X135218606Y-139434426D01*
X135218600Y-139434429D01*
X135113517Y-139485800D01*
X135113515Y-139485802D01*
X135057681Y-139541637D01*
X134996358Y-139575122D01*
X134926666Y-139570138D01*
X134884452Y-139543720D01*
X134883366Y-139542685D01*
X134826483Y-139485802D01*
X134820727Y-139482988D01*
X134808952Y-139471766D01*
X134795687Y-139448804D01*
X134779324Y-139427942D01*
X134777176Y-139416759D01*
X134774002Y-139411265D01*
X134774421Y-139402417D01*
X134770500Y-139382002D01*
X134770500Y-139061952D01*
X134790185Y-138994913D01*
X134842095Y-138949570D01*
X134843170Y-138949068D01*
X134843173Y-138949068D01*
X134950404Y-138899065D01*
X135034065Y-138815404D01*
X135084068Y-138708173D01*
X135090500Y-138659316D01*
X135090500Y-138310684D01*
X135084068Y-138261827D01*
X135034065Y-138154596D01*
X134950404Y-138070935D01*
X134942733Y-138063264D01*
X134945561Y-138060435D01*
X134914843Y-138022023D01*
X134907635Y-137952526D01*
X134939143Y-137890165D01*
X134942903Y-137886906D01*
X134942733Y-137886736D01*
X134973942Y-137855527D01*
X135034065Y-137795404D01*
X135084068Y-137688173D01*
X135090500Y-137639316D01*
X135090500Y-137385476D01*
X135110185Y-137318437D01*
X135126815Y-137297799D01*
X135527796Y-136896817D01*
X135589119Y-136863333D01*
X135615477Y-136860499D01*
X135704895Y-136860499D01*
X135704900Y-136860499D01*
X135754487Y-136853972D01*
X135863316Y-136803224D01*
X135948224Y-136718316D01*
X135998972Y-136609487D01*
X136005500Y-136559901D01*
X136005499Y-136140100D01*
X135998972Y-136090513D01*
X135948224Y-135981684D01*
X135863316Y-135896776D01*
X135754487Y-135846028D01*
X135754485Y-135846027D01*
X135754486Y-135846027D01*
X135704902Y-135839500D01*
X135345105Y-135839500D01*
X135329386Y-135841569D01*
X135295513Y-135846028D01*
X135295511Y-135846029D01*
X135295509Y-135846029D01*
X135186683Y-135896776D01*
X135132681Y-135950779D01*
X135071358Y-135984264D01*
X135001666Y-135979280D01*
X134960708Y-135954043D01*
X134958999Y-135952459D01*
X134903316Y-135896776D01*
X134894470Y-135892651D01*
X134880208Y-135879432D01*
X134871846Y-135865411D01*
X134859606Y-135854617D01*
X134854152Y-135835741D01*
X134844421Y-135819423D01*
X134844941Y-135803861D01*
X134840500Y-135788487D01*
X134840500Y-135190201D01*
X134840499Y-135190198D01*
X134820404Y-135141684D01*
X134820404Y-135141683D01*
X134798560Y-135088947D01*
X134798558Y-135088942D01*
X134106819Y-134397203D01*
X134073334Y-134335880D01*
X134070500Y-134309522D01*
X134070500Y-134038000D01*
X134090185Y-133970961D01*
X134142989Y-133925206D01*
X134194500Y-133914000D01*
X134664750Y-133914000D01*
X134720808Y-133902849D01*
X134769192Y-133902849D01*
X134825249Y-133914000D01*
X134825252Y-133914000D01*
X135314750Y-133914000D01*
X135314751Y-133913999D01*
X135329568Y-133911052D01*
X135373229Y-133902368D01*
X135373229Y-133902367D01*
X135373231Y-133902367D01*
X135439552Y-133858052D01*
X135483867Y-133791731D01*
X135483867Y-133791729D01*
X135483868Y-133791729D01*
X135495499Y-133733252D01*
X135495500Y-133733250D01*
X135495500Y-132218749D01*
X135495499Y-132218747D01*
X135483868Y-132160270D01*
X135483867Y-132160269D01*
X135439552Y-132093947D01*
X135373230Y-132049632D01*
X135373229Y-132049631D01*
X135314752Y-132038000D01*
X135314748Y-132038000D01*
X134825252Y-132038000D01*
X134769190Y-132049151D01*
X134720810Y-132049151D01*
X134664748Y-132038000D01*
X134175252Y-132038000D01*
X134119190Y-132049151D01*
X134070810Y-132049151D01*
X134014748Y-132038000D01*
X133525252Y-132038000D01*
X133469190Y-132049151D01*
X133420810Y-132049151D01*
X133364748Y-132038000D01*
X132875252Y-132038000D01*
X132875247Y-132038000D01*
X132816770Y-132049631D01*
X132816769Y-132049632D01*
X132750447Y-132093947D01*
X132706132Y-132160269D01*
X132706131Y-132160270D01*
X132694500Y-132218747D01*
X132694500Y-133733252D01*
X132706131Y-133791729D01*
X132706132Y-133791730D01*
X132750448Y-133858053D01*
X132817713Y-133902999D01*
X132862517Y-133956611D01*
X132863911Y-133967710D01*
X132868078Y-133970258D01*
X132874590Y-133978060D01*
X132879539Y-133984509D01*
X132879540Y-133984511D01*
X133529540Y-134634511D01*
X133585489Y-134690460D01*
X133585490Y-134690461D01*
X133585492Y-134690462D01*
X133655005Y-134730595D01*
X133680686Y-134750301D01*
X134253181Y-135322796D01*
X134286666Y-135384119D01*
X134289500Y-135410477D01*
X134289500Y-135788487D01*
X134269815Y-135855526D01*
X134233359Y-135887394D01*
X134235571Y-135890553D01*
X134226684Y-135896775D01*
X134141776Y-135981683D01*
X134091027Y-136090514D01*
X134084500Y-136140098D01*
X134084500Y-136559894D01*
X134084501Y-136559900D01*
X134091028Y-136609487D01*
X134091029Y-136609489D01*
X134091029Y-136609490D01*
X134114957Y-136660803D01*
X134141776Y-136718316D01*
X134226684Y-136803224D01*
X134232745Y-136806050D01*
X134285184Y-136852222D01*
X134304336Y-136919416D01*
X134284120Y-136986297D01*
X134232746Y-137030813D01*
X134190529Y-137050500D01*
X134189594Y-137050936D01*
X134105935Y-137134595D01*
X134055931Y-137241828D01*
X134049500Y-137290683D01*
X134049500Y-137639316D01*
X134055931Y-137688171D01*
X134105935Y-137795404D01*
X134197267Y-137886736D01*
X134194443Y-137889559D01*
X134196284Y-137891863D01*
X134208854Y-137901273D01*
X134213280Y-137913140D01*
X134225183Y-137928042D01*
X134227608Y-137951559D01*
X134233270Y-137966738D01*
X134230491Y-137979508D01*
X134232352Y-137997542D01*
X134222207Y-138017592D01*
X134218418Y-138035011D01*
X134202917Y-138055717D01*
X134200808Y-138059886D01*
X134197927Y-138062854D01*
X134190006Y-138070743D01*
X134189596Y-138070935D01*
X134134281Y-138126250D01*
X134103452Y-138143004D01*
X134073129Y-138159562D01*
X134073004Y-138159553D01*
X134072892Y-138159614D01*
X134037984Y-138157048D01*
X134003438Y-138154577D01*
X134003336Y-138154501D01*
X134003210Y-138154492D01*
X133975411Y-138133596D01*
X133947504Y-138112706D01*
X133947391Y-138112535D01*
X133947359Y-138112511D01*
X133947337Y-138112454D01*
X133939385Y-138100396D01*
X133920500Y-138067686D01*
X133827314Y-137974500D01*
X133746847Y-137928042D01*
X133713187Y-137908608D01*
X133631558Y-137886736D01*
X133585892Y-137874500D01*
X133454108Y-137874500D01*
X133326812Y-137908608D01*
X133212686Y-137974500D01*
X133212683Y-137974502D01*
X133119502Y-138067683D01*
X133119500Y-138067686D01*
X133053608Y-138181812D01*
X133019500Y-138309108D01*
X133019500Y-138440892D01*
X133024497Y-138459540D01*
X133053608Y-138568187D01*
X133086554Y-138625250D01*
X133119500Y-138682314D01*
X133119502Y-138682316D01*
X133133181Y-138695995D01*
X133166666Y-138757318D01*
X133169500Y-138783676D01*
X133169500Y-139382002D01*
X133149815Y-139449041D01*
X133117555Y-139482918D01*
X133113516Y-139485801D01*
X133030803Y-139568514D01*
X132979426Y-139673608D01*
X132969500Y-139741739D01*
X132969500Y-141058260D01*
X132979426Y-141126391D01*
X133030803Y-141231485D01*
X133113514Y-141314196D01*
X133113515Y-141314196D01*
X133113517Y-141314198D01*
X133218607Y-141365573D01*
X133252673Y-141370536D01*
X133286739Y-141375500D01*
X133286740Y-141375500D01*
X133653261Y-141375500D01*
X133675971Y-141372191D01*
X133721393Y-141365573D01*
X133826483Y-141314198D01*
X133850109Y-141290572D01*
X133882319Y-141258363D01*
X133943642Y-141224878D01*
X134013334Y-141229862D01*
X134057681Y-141258363D01*
X134113514Y-141314196D01*
X134113515Y-141314196D01*
X134113517Y-141314198D01*
X134218607Y-141365573D01*
X134252673Y-141370536D01*
X134286739Y-141375500D01*
X134286740Y-141375500D01*
X134653261Y-141375500D01*
X134675971Y-141372191D01*
X134721393Y-141365573D01*
X134826483Y-141314198D01*
X134850109Y-141290572D01*
X134882319Y-141258363D01*
X134943642Y-141224878D01*
X135013334Y-141229862D01*
X135057681Y-141258363D01*
X135113514Y-141314196D01*
X135113515Y-141314196D01*
X135113517Y-141314198D01*
X135218607Y-141365573D01*
X135218608Y-141365573D01*
X135225790Y-141369084D01*
X135241064Y-141375752D01*
X135276233Y-141396057D01*
X135324449Y-141446624D01*
X135337671Y-141515231D01*
X135311703Y-141580096D01*
X135254789Y-141620624D01*
X135214960Y-141627442D01*
X131370341Y-141649998D01*
X131369614Y-141650000D01*
X131004500Y-141650000D01*
X130937461Y-141630315D01*
X130891706Y-141577511D01*
X130880500Y-141526001D01*
X130880499Y-141380105D01*
X130880499Y-141380100D01*
X130873972Y-141330513D01*
X130823224Y-141221684D01*
X130769221Y-141167681D01*
X130735736Y-141106358D01*
X130740720Y-141036666D01*
X130769221Y-140992319D01*
X130778280Y-140983260D01*
X130823224Y-140938316D01*
X130873972Y-140829487D01*
X130880500Y-140779901D01*
X130880499Y-140420100D01*
X130873972Y-140370513D01*
X130823224Y-140261684D01*
X130738316Y-140176776D01*
X130738314Y-140176774D01*
X130729427Y-140170551D01*
X130730797Y-140168593D01*
X130689647Y-140132351D01*
X130670500Y-140066155D01*
X130670500Y-139010439D01*
X130658210Y-138964573D01*
X130650021Y-138934011D01*
X130629845Y-138899065D01*
X130610464Y-138865495D01*
X130610458Y-138865487D01*
X129854512Y-138109541D01*
X129854504Y-138109535D01*
X129785995Y-138069982D01*
X129785990Y-138069979D01*
X129751300Y-138060684D01*
X129709562Y-138049500D01*
X129709560Y-138049500D01*
X127495614Y-138049500D01*
X127428575Y-138029815D01*
X127382820Y-137977011D01*
X127372876Y-137907855D01*
X127380500Y-137855528D01*
X127380500Y-137444472D01*
X127370645Y-137376830D01*
X127319636Y-137272489D01*
X127319634Y-137272487D01*
X127319634Y-137272486D01*
X127309329Y-137262181D01*
X127275844Y-137200858D01*
X127280828Y-137131166D01*
X127322700Y-137075233D01*
X127388164Y-137050816D01*
X127397010Y-137050500D01*
X130434560Y-137050500D01*
X130434562Y-137050500D01*
X130510989Y-137030021D01*
X130510990Y-137030019D01*
X130518406Y-137028033D01*
X130588256Y-137029696D01*
X130646118Y-137068858D01*
X130673623Y-137133086D01*
X130674500Y-137147808D01*
X130674500Y-137389316D01*
X130680931Y-137438171D01*
X130730935Y-137545404D01*
X130822267Y-137636736D01*
X130819443Y-137639559D01*
X130850183Y-137678042D01*
X130857352Y-137747542D01*
X130825808Y-137809886D01*
X130822101Y-137813098D01*
X130822267Y-137813264D01*
X130730935Y-137904595D01*
X130680931Y-138011828D01*
X130674500Y-138060683D01*
X130674500Y-138409316D01*
X130680931Y-138458171D01*
X130680932Y-138458173D01*
X130730935Y-138565404D01*
X130814596Y-138649065D01*
X130921827Y-138699068D01*
X130970683Y-138705500D01*
X130970684Y-138705500D01*
X131061802Y-138705500D01*
X131093894Y-138709724D01*
X131134108Y-138720500D01*
X131134110Y-138720500D01*
X131265890Y-138720500D01*
X131265892Y-138720500D01*
X131306105Y-138709724D01*
X131338198Y-138705500D01*
X131419317Y-138705500D01*
X131435601Y-138703356D01*
X131468173Y-138699068D01*
X131575404Y-138649065D01*
X131659065Y-138565404D01*
X131709068Y-138458173D01*
X131715500Y-138409316D01*
X131715500Y-138060684D01*
X131709068Y-138011827D01*
X131659065Y-137904596D01*
X131575404Y-137820935D01*
X131567733Y-137813264D01*
X131570561Y-137810435D01*
X131539843Y-137772023D01*
X131532635Y-137702526D01*
X131564143Y-137640165D01*
X131567903Y-137636906D01*
X131567733Y-137636736D01*
X131575404Y-137629065D01*
X131659065Y-137545404D01*
X131709068Y-137438173D01*
X131715500Y-137389316D01*
X131715500Y-137040684D01*
X131714053Y-137029696D01*
X131709068Y-136991828D01*
X131709068Y-136991827D01*
X131659065Y-136884596D01*
X131575404Y-136800935D01*
X131575401Y-136800932D01*
X131567089Y-136797056D01*
X131514652Y-136750881D01*
X131495500Y-136684677D01*
X131495500Y-136385438D01*
X131494174Y-136380490D01*
X131491902Y-136372011D01*
X131475022Y-136309012D01*
X131435460Y-136240489D01*
X131433718Y-136238747D01*
X131428707Y-136226997D01*
X131425451Y-136199428D01*
X131418906Y-136172449D01*
X131421301Y-136164289D01*
X131420513Y-136157609D01*
X131427428Y-136143424D01*
X131435379Y-136116349D01*
X131450021Y-136090989D01*
X131470500Y-136014562D01*
X131470500Y-136013843D01*
X131470671Y-136013259D01*
X131471561Y-136006503D01*
X131472614Y-136006641D01*
X131490185Y-135946804D01*
X131530767Y-135911358D01*
X131529429Y-135909447D01*
X131538313Y-135903225D01*
X131538316Y-135903224D01*
X131623224Y-135818316D01*
X131673972Y-135709487D01*
X131680500Y-135659901D01*
X131680499Y-135300100D01*
X131673972Y-135250513D01*
X131623224Y-135141684D01*
X131569221Y-135087681D01*
X131535736Y-135026358D01*
X131540720Y-134956666D01*
X131569221Y-134912319D01*
X131594890Y-134886650D01*
X131623224Y-134858316D01*
X131673972Y-134749487D01*
X131680500Y-134699901D01*
X131680499Y-134559830D01*
X131700183Y-134492793D01*
X131752987Y-134447038D01*
X131822145Y-134437094D01*
X131885701Y-134466118D01*
X131892180Y-134472151D01*
X131923181Y-134503152D01*
X131956666Y-134564475D01*
X131959500Y-134590833D01*
X131959500Y-134904894D01*
X131960772Y-134914560D01*
X131966028Y-134954487D01*
X131966029Y-134954489D01*
X131966029Y-134954490D01*
X131987251Y-135000000D01*
X132016776Y-135063316D01*
X132101684Y-135148224D01*
X132210513Y-135198972D01*
X132260099Y-135205500D01*
X132679900Y-135205499D01*
X132729487Y-135198972D01*
X132838316Y-135148224D01*
X132923224Y-135063316D01*
X132973972Y-134954487D01*
X132980500Y-134904901D01*
X132980499Y-134545100D01*
X132973972Y-134495513D01*
X132923224Y-134386684D01*
X132838316Y-134301776D01*
X132729487Y-134251028D01*
X132729485Y-134251027D01*
X132729486Y-134251027D01*
X132679902Y-134244500D01*
X132679901Y-134244500D01*
X132565833Y-134244500D01*
X132498794Y-134224815D01*
X132478152Y-134208181D01*
X132236865Y-133966894D01*
X132203380Y-133905571D01*
X132208364Y-133835879D01*
X132221443Y-133810322D01*
X132233867Y-133791731D01*
X132233867Y-133791730D01*
X132233868Y-133791729D01*
X132245499Y-133733252D01*
X132245500Y-133733250D01*
X132245500Y-132218749D01*
X132245499Y-132218747D01*
X132233868Y-132160270D01*
X132233867Y-132160269D01*
X132189552Y-132093947D01*
X132123230Y-132049632D01*
X132123229Y-132049631D01*
X132064752Y-132038000D01*
X132064748Y-132038000D01*
X131575252Y-132038000D01*
X131519190Y-132049151D01*
X131470810Y-132049151D01*
X131414748Y-132038000D01*
X130925252Y-132038000D01*
X130925247Y-132038000D01*
X130866770Y-132049631D01*
X130866769Y-132049632D01*
X130800447Y-132093947D01*
X130756132Y-132160269D01*
X130756131Y-132160270D01*
X130744500Y-132218747D01*
X130744500Y-133733252D01*
X130756131Y-133791729D01*
X130756132Y-133791730D01*
X130794500Y-133849150D01*
X130800448Y-133858052D01*
X130814389Y-133867367D01*
X130859195Y-133920978D01*
X130869500Y-133970470D01*
X130869500Y-133986155D01*
X130849815Y-134053194D01*
X130809237Y-134088643D01*
X130810573Y-134090551D01*
X130801685Y-134096774D01*
X130716776Y-134181683D01*
X130666027Y-134290514D01*
X130659500Y-134340097D01*
X130659500Y-134699894D01*
X130659501Y-134699900D01*
X130666028Y-134749487D01*
X130666029Y-134749489D01*
X130666029Y-134749490D01*
X130716776Y-134858316D01*
X130770779Y-134912319D01*
X130804264Y-134973642D01*
X130799280Y-135043334D01*
X130770779Y-135087681D01*
X130716776Y-135141683D01*
X130666027Y-135250514D01*
X130659500Y-135300097D01*
X130659500Y-135659894D01*
X130659501Y-135659900D01*
X130666028Y-135709487D01*
X130666029Y-135709489D01*
X130666029Y-135709490D01*
X130716776Y-135818316D01*
X130721563Y-135823103D01*
X130755048Y-135884426D01*
X130750064Y-135954118D01*
X130721563Y-135998465D01*
X130306848Y-136413181D01*
X130245525Y-136446666D01*
X130219167Y-136449500D01*
X125280438Y-136449500D01*
X125242224Y-136459739D01*
X125204009Y-136469979D01*
X125204008Y-136469980D01*
X125141520Y-136506058D01*
X125135492Y-136509538D01*
X125135486Y-136509542D01*
X123129541Y-138515487D01*
X123129535Y-138515495D01*
X123089982Y-138584004D01*
X123089979Y-138584009D01*
X123076447Y-138634511D01*
X123072548Y-138649065D01*
X123069500Y-138660439D01*
X123069500Y-139307002D01*
X123049815Y-139374041D01*
X123031048Y-139396766D01*
X123019272Y-139407988D01*
X123013517Y-139410802D01*
X122956633Y-139467685D01*
X122955548Y-139468720D01*
X122925753Y-139484071D01*
X122896358Y-139500122D01*
X122894813Y-139500011D01*
X122893437Y-139500721D01*
X122860091Y-139497528D01*
X122826666Y-139495138D01*
X122825185Y-139494186D01*
X122823886Y-139494062D01*
X122818954Y-139490182D01*
X122782319Y-139466637D01*
X122726484Y-139410802D01*
X122662454Y-139379500D01*
X122650237Y-139373527D01*
X122642703Y-139369516D01*
X122563192Y-139323610D01*
X122563186Y-139323608D01*
X122435892Y-139289500D01*
X122304108Y-139289500D01*
X122176814Y-139323608D01*
X122097289Y-139369520D01*
X122089754Y-139373530D01*
X122013516Y-139410802D01*
X122013514Y-139410804D01*
X121930803Y-139493514D01*
X121879426Y-139598608D01*
X121869500Y-139666739D01*
X121869500Y-140983260D01*
X121879426Y-141051391D01*
X121930803Y-141156485D01*
X122013514Y-141239196D01*
X122013515Y-141239196D01*
X122013517Y-141239198D01*
X122118607Y-141290573D01*
X122136283Y-141293148D01*
X122168820Y-141304445D01*
X122169303Y-141303281D01*
X122176810Y-141306390D01*
X122176811Y-141306390D01*
X122176814Y-141306392D01*
X122304108Y-141340500D01*
X122304110Y-141340500D01*
X122435890Y-141340500D01*
X122435892Y-141340500D01*
X122563186Y-141306392D01*
X122563193Y-141306387D01*
X122570695Y-141303281D01*
X122571177Y-141304446D01*
X122603715Y-141293148D01*
X122621393Y-141290573D01*
X122726483Y-141239198D01*
X122751485Y-141214196D01*
X122782319Y-141183363D01*
X122843642Y-141149878D01*
X122913334Y-141154862D01*
X122957681Y-141183363D01*
X123013514Y-141239196D01*
X123013515Y-141239196D01*
X123013517Y-141239198D01*
X123118607Y-141290573D01*
X123152673Y-141295536D01*
X123186739Y-141300500D01*
X123186740Y-141300500D01*
X123553261Y-141300500D01*
X123581455Y-141296392D01*
X123621393Y-141290573D01*
X123726483Y-141239198D01*
X123751485Y-141214196D01*
X123782319Y-141183363D01*
X123843642Y-141149878D01*
X123913334Y-141154862D01*
X123957681Y-141183363D01*
X124013514Y-141239196D01*
X124013515Y-141239196D01*
X124013517Y-141239198D01*
X124118607Y-141290573D01*
X124152673Y-141295536D01*
X124186739Y-141300500D01*
X124186740Y-141300500D01*
X124553261Y-141300500D01*
X124581455Y-141296392D01*
X124621393Y-141290573D01*
X124726483Y-141239198D01*
X124809198Y-141156483D01*
X124860573Y-141051393D01*
X124870500Y-140983260D01*
X124870500Y-139666740D01*
X124866857Y-139641740D01*
X124860573Y-139598608D01*
X124860573Y-139598607D01*
X124809198Y-139493517D01*
X124809196Y-139493515D01*
X124809196Y-139493514D01*
X124726483Y-139410801D01*
X124722445Y-139407918D01*
X124679324Y-139352942D01*
X124670500Y-139307002D01*
X124670500Y-139225833D01*
X124690185Y-139158794D01*
X124706819Y-139138152D01*
X125382319Y-138462652D01*
X125443642Y-138429167D01*
X125513334Y-138434151D01*
X125557681Y-138462652D01*
X125729540Y-138634511D01*
X126940489Y-139845460D01*
X127009012Y-139885022D01*
X127085438Y-139905500D01*
X127085449Y-139905500D01*
X127090338Y-139906144D01*
X127154235Y-139934408D01*
X127192709Y-139992730D01*
X127195607Y-140007359D01*
X127195744Y-140007330D01*
X127197353Y-140014701D01*
X127238522Y-140132351D01*
X127242207Y-140142882D01*
X127322850Y-140252150D01*
X127432118Y-140332793D01*
X127474845Y-140347744D01*
X127560299Y-140377646D01*
X127590730Y-140380500D01*
X127590734Y-140380500D01*
X128999270Y-140380500D01*
X129029699Y-140377646D01*
X129029701Y-140377646D01*
X129093790Y-140355219D01*
X129157882Y-140332793D01*
X129267150Y-140252150D01*
X129347793Y-140142882D01*
X129374641Y-140066155D01*
X129392646Y-140014701D01*
X129392646Y-140014699D01*
X129395500Y-139984269D01*
X129395500Y-139225730D01*
X129392646Y-139195300D01*
X129392646Y-139195298D01*
X129350279Y-139074223D01*
X129347793Y-139067118D01*
X129267150Y-138957850D01*
X129157882Y-138877207D01*
X129157881Y-138877206D01*
X129153902Y-138874270D01*
X129111652Y-138818623D01*
X129106193Y-138748967D01*
X129139260Y-138687417D01*
X129200354Y-138653516D01*
X129227536Y-138650500D01*
X129494167Y-138650500D01*
X129561206Y-138670185D01*
X129581848Y-138686819D01*
X130033181Y-139138152D01*
X130066666Y-139199475D01*
X130069500Y-139225833D01*
X130069500Y-140066155D01*
X130049815Y-140133194D01*
X130009237Y-140168643D01*
X130010573Y-140170551D01*
X130001685Y-140176774D01*
X129916776Y-140261683D01*
X129866027Y-140370514D01*
X129859500Y-140420097D01*
X129859500Y-140779894D01*
X129859501Y-140779900D01*
X129866028Y-140829487D01*
X129866029Y-140829489D01*
X129866029Y-140829490D01*
X129916776Y-140938316D01*
X129970779Y-140992319D01*
X130004264Y-141053642D01*
X129999280Y-141123334D01*
X129970779Y-141167681D01*
X129916776Y-141221683D01*
X129866027Y-141330514D01*
X129860950Y-141369082D01*
X129859500Y-141380099D01*
X129859500Y-141526001D01*
X129839817Y-141593039D01*
X129787013Y-141638794D01*
X129735501Y-141650000D01*
X126370000Y-141650000D01*
X124195000Y-141650000D01*
X116370000Y-141650000D01*
X113370000Y-141650000D01*
X110370277Y-141650000D01*
X110369760Y-141649999D01*
X104521686Y-141625632D01*
X104454729Y-141605668D01*
X104409195Y-141552674D01*
X104399540Y-141483475D01*
X104400778Y-141476495D01*
X104781038Y-139641739D01*
X107044500Y-139641739D01*
X107044500Y-140958260D01*
X107054426Y-141026391D01*
X107105803Y-141131485D01*
X107188514Y-141214196D01*
X107188515Y-141214196D01*
X107188517Y-141214198D01*
X107293607Y-141265573D01*
X107300059Y-141266513D01*
X107361739Y-141275500D01*
X107361740Y-141275500D01*
X107728261Y-141275500D01*
X107750971Y-141272191D01*
X107796393Y-141265573D01*
X107901483Y-141214198D01*
X107984198Y-141131483D01*
X108035573Y-141026393D01*
X108045500Y-140958260D01*
X108045500Y-139641740D01*
X108035573Y-139573607D01*
X107984198Y-139468517D01*
X107984197Y-139468516D01*
X107983099Y-139466269D01*
X107970500Y-139411809D01*
X107970500Y-138517997D01*
X107990185Y-138450958D01*
X108022450Y-138417077D01*
X108026477Y-138414200D01*
X108026483Y-138414198D01*
X108109198Y-138331483D01*
X108160573Y-138226393D01*
X108170500Y-138158260D01*
X108170500Y-136916740D01*
X108160573Y-136848607D01*
X108109198Y-136743517D01*
X108109196Y-136743515D01*
X108109196Y-136743514D01*
X108026485Y-136660803D01*
X107921391Y-136609426D01*
X107853261Y-136599500D01*
X107853260Y-136599500D01*
X107486740Y-136599500D01*
X107486739Y-136599500D01*
X107418608Y-136609426D01*
X107313514Y-136660803D01*
X107230803Y-136743514D01*
X107179426Y-136848608D01*
X107169500Y-136916739D01*
X107169500Y-138158260D01*
X107179426Y-138226391D01*
X107230803Y-138331485D01*
X107313512Y-138414194D01*
X107313515Y-138414196D01*
X107313517Y-138414198D01*
X107313518Y-138414198D01*
X107317550Y-138417077D01*
X107360674Y-138472051D01*
X107369500Y-138517997D01*
X107369500Y-139219920D01*
X107349815Y-139286959D01*
X107299960Y-139331320D01*
X107188517Y-139385800D01*
X107105803Y-139468514D01*
X107054426Y-139573608D01*
X107044500Y-139641739D01*
X104781038Y-139641739D01*
X105734406Y-135041739D01*
X106219500Y-135041739D01*
X106219500Y-136283260D01*
X106229426Y-136351391D01*
X106280803Y-136456485D01*
X106363517Y-136539199D01*
X106402988Y-136558495D01*
X106417997Y-136567792D01*
X106422684Y-136570498D01*
X106422686Y-136570500D01*
X106536814Y-136636392D01*
X106664108Y-136670500D01*
X106664110Y-136670500D01*
X106795890Y-136670500D01*
X106795892Y-136670500D01*
X106923186Y-136636392D01*
X107037314Y-136570500D01*
X107046455Y-136561358D01*
X107068462Y-136545646D01*
X107068121Y-136545168D01*
X107076479Y-136539199D01*
X107076483Y-136539198D01*
X107159198Y-136456483D01*
X107210573Y-136351393D01*
X107220500Y-136283260D01*
X107220500Y-136273212D01*
X107230500Y-136235892D01*
X107230500Y-136104108D01*
X107220500Y-136066787D01*
X107220500Y-135269537D01*
X107224725Y-135237444D01*
X107230500Y-135215892D01*
X107230500Y-135084108D01*
X107223990Y-135059814D01*
X107221062Y-135045605D01*
X107220500Y-135041747D01*
X107220500Y-135041740D01*
X107210573Y-134973607D01*
X107159198Y-134868517D01*
X107076483Y-134785802D01*
X107076481Y-134785801D01*
X107076479Y-134785799D01*
X107074811Y-134784608D01*
X107059191Y-134771377D01*
X107037316Y-134749502D01*
X107037314Y-134749500D01*
X106976374Y-134714316D01*
X106923187Y-134683608D01*
X106859539Y-134666554D01*
X106795892Y-134649500D01*
X106664108Y-134649500D01*
X106536814Y-134683608D01*
X106536813Y-134683608D01*
X106536811Y-134683609D01*
X106536810Y-134683609D01*
X106422685Y-134749499D01*
X106416241Y-134754445D01*
X106416043Y-134754187D01*
X106389670Y-134773015D01*
X106363517Y-134785801D01*
X106363514Y-134785804D01*
X106280803Y-134868514D01*
X106229426Y-134973608D01*
X106219500Y-135041739D01*
X105734406Y-135041739D01*
X106590910Y-130909108D01*
X107119500Y-130909108D01*
X107119500Y-131040891D01*
X107153608Y-131168187D01*
X107178036Y-131210497D01*
X107219500Y-131282314D01*
X107312686Y-131375500D01*
X107322499Y-131381165D01*
X107370714Y-131431730D01*
X107384500Y-131488553D01*
X107384500Y-132479669D01*
X107364815Y-132546708D01*
X107348181Y-132567350D01*
X107270935Y-132644595D01*
X107220931Y-132751828D01*
X107214500Y-132800683D01*
X107214500Y-133249316D01*
X107220931Y-133298171D01*
X107255725Y-133372787D01*
X107270935Y-133405404D01*
X107354596Y-133489065D01*
X107461827Y-133539068D01*
X107510683Y-133545500D01*
X107510684Y-133545500D01*
X107859317Y-133545500D01*
X107875601Y-133543356D01*
X107908173Y-133539068D01*
X108015404Y-133489065D01*
X108099065Y-133405404D01*
X108099065Y-133405403D01*
X108106736Y-133397733D01*
X108109564Y-133400561D01*
X108111851Y-133398732D01*
X108121273Y-133386147D01*
X108133110Y-133381731D01*
X108147977Y-133369843D01*
X108171536Y-133367399D01*
X108186737Y-133361730D01*
X108199477Y-133364501D01*
X108217474Y-133362635D01*
X108237568Y-133372787D01*
X108255010Y-133376582D01*
X108275631Y-133392018D01*
X108279835Y-133394143D01*
X108282809Y-133397028D01*
X108290736Y-133404978D01*
X108290935Y-133405404D01*
X108368309Y-133482778D01*
X108385072Y-133513585D01*
X108401666Y-133543973D01*
X108401680Y-133544104D01*
X108401705Y-133544150D01*
X108401696Y-133544260D01*
X108404500Y-133570331D01*
X108404500Y-134639475D01*
X108384815Y-134706514D01*
X108334960Y-134750876D01*
X108263514Y-134785803D01*
X108180803Y-134868514D01*
X108129426Y-134973608D01*
X108119500Y-135041739D01*
X108119500Y-136283260D01*
X108129426Y-136351391D01*
X108180803Y-136456485D01*
X108263514Y-136539196D01*
X108263515Y-136539196D01*
X108263517Y-136539198D01*
X108368607Y-136590573D01*
X108402673Y-136595536D01*
X108436739Y-136600500D01*
X108436740Y-136600500D01*
X108803261Y-136600500D01*
X108833349Y-136596116D01*
X108871393Y-136590573D01*
X108976483Y-136539198D01*
X109059198Y-136456483D01*
X109110573Y-136351393D01*
X109120500Y-136283260D01*
X109120500Y-135041740D01*
X109110573Y-134973607D01*
X109059198Y-134868517D01*
X109059196Y-134868515D01*
X109059196Y-134868514D01*
X109041819Y-134851137D01*
X109008334Y-134789814D01*
X109005500Y-134763456D01*
X109005500Y-134499500D01*
X109025185Y-134432461D01*
X109077989Y-134386706D01*
X109129500Y-134375500D01*
X109442941Y-134375500D01*
X109509980Y-134395185D01*
X109544516Y-134428377D01*
X109545934Y-134430402D01*
X109545935Y-134430404D01*
X109629596Y-134514065D01*
X109736827Y-134564068D01*
X109785683Y-134570500D01*
X109785684Y-134570500D01*
X110134317Y-134570500D01*
X110150601Y-134568356D01*
X110183173Y-134564068D01*
X110290404Y-134514065D01*
X110374065Y-134430404D01*
X110374065Y-134430403D01*
X110381736Y-134422733D01*
X110384564Y-134425561D01*
X110422977Y-134394843D01*
X110492474Y-134387635D01*
X110554835Y-134419143D01*
X110558093Y-134422903D01*
X110558264Y-134422733D01*
X110565935Y-134430404D01*
X110649596Y-134514065D01*
X110756827Y-134564068D01*
X110805683Y-134570500D01*
X110805684Y-134570500D01*
X111154317Y-134570500D01*
X111170601Y-134568356D01*
X111203173Y-134564068D01*
X111310404Y-134514065D01*
X111394065Y-134430404D01*
X111444068Y-134323173D01*
X111450500Y-134274316D01*
X111450500Y-133825684D01*
X111444068Y-133776827D01*
X111394065Y-133669596D01*
X111310404Y-133585935D01*
X111203173Y-133535932D01*
X111203171Y-133535931D01*
X111203172Y-133535931D01*
X111154317Y-133529500D01*
X111154316Y-133529500D01*
X110805684Y-133529500D01*
X110805683Y-133529500D01*
X110756828Y-133535931D01*
X110649597Y-133585934D01*
X110558264Y-133677267D01*
X110555443Y-133674446D01*
X110516930Y-133705194D01*
X110447427Y-133712346D01*
X110385091Y-133680787D01*
X110381901Y-133677101D01*
X110381736Y-133677267D01*
X110290404Y-133585935D01*
X110268088Y-133575529D01*
X110183173Y-133535932D01*
X110183171Y-133535931D01*
X110183172Y-133535931D01*
X110134317Y-133529500D01*
X110134316Y-133529500D01*
X109785684Y-133529500D01*
X109785683Y-133529500D01*
X109736828Y-133535931D01*
X109629595Y-133585935D01*
X109545935Y-133669595D01*
X109530403Y-133702905D01*
X109484231Y-133755344D01*
X109418021Y-133774500D01*
X109255833Y-133774500D01*
X109188794Y-133754815D01*
X109168152Y-133738181D01*
X109064901Y-133634930D01*
X109031416Y-133573607D01*
X109036400Y-133503915D01*
X109064901Y-133459568D01*
X109119065Y-133405404D01*
X109169068Y-133298173D01*
X109175500Y-133249316D01*
X109175500Y-132800684D01*
X109169068Y-132751827D01*
X109119065Y-132644596D01*
X109035404Y-132560935D01*
X108928173Y-132510932D01*
X108928171Y-132510931D01*
X108928172Y-132510931D01*
X108879317Y-132504500D01*
X108879316Y-132504500D01*
X108530684Y-132504500D01*
X108530683Y-132504500D01*
X108481828Y-132510931D01*
X108374595Y-132560935D01*
X108283264Y-132652267D01*
X108280440Y-132649443D01*
X108278135Y-132651285D01*
X108268727Y-132663853D01*
X108256860Y-132668278D01*
X108241958Y-132680183D01*
X108218441Y-132682608D01*
X108203263Y-132688270D01*
X108190491Y-132685491D01*
X108172458Y-132687352D01*
X108152407Y-132677206D01*
X108134990Y-132673418D01*
X108114285Y-132657918D01*
X108110114Y-132655808D01*
X108107191Y-132652972D01*
X108099263Y-132645021D01*
X108099065Y-132644596D01*
X108021689Y-132567220D01*
X108004914Y-132536392D01*
X107988334Y-132506027D01*
X107988319Y-132505894D01*
X107988296Y-132505851D01*
X107988303Y-132505745D01*
X107985500Y-132479669D01*
X107985500Y-131368676D01*
X108005185Y-131301637D01*
X108015558Y-131288764D01*
X108015553Y-131288760D01*
X108020492Y-131282321D01*
X108020500Y-131282314D01*
X108086392Y-131168186D01*
X108120500Y-131040892D01*
X108120500Y-130909108D01*
X108086392Y-130781814D01*
X108020500Y-130667686D01*
X107927314Y-130574500D01*
X107853252Y-130531740D01*
X107813187Y-130508608D01*
X107749539Y-130491554D01*
X107685892Y-130474500D01*
X107554108Y-130474500D01*
X107426812Y-130508608D01*
X107312686Y-130574500D01*
X107312683Y-130574502D01*
X107219502Y-130667683D01*
X107219500Y-130667686D01*
X107153608Y-130781812D01*
X107119500Y-130909108D01*
X106590910Y-130909108D01*
X107347979Y-127256249D01*
X107380859Y-127194601D01*
X107441850Y-127160514D01*
X107478227Y-127157730D01*
X110947780Y-127405555D01*
X119935729Y-125158568D01*
X120005537Y-125161406D01*
X120062732Y-125201536D01*
X120089152Y-125266218D01*
X120076408Y-125334915D01*
X120053480Y-125366547D01*
X114035489Y-131384540D01*
X113979541Y-131440487D01*
X113979535Y-131440495D01*
X113939982Y-131509004D01*
X113939979Y-131509009D01*
X113919500Y-131585439D01*
X113919500Y-139282002D01*
X113899815Y-139349041D01*
X113867555Y-139382918D01*
X113863516Y-139385801D01*
X113780803Y-139468514D01*
X113729426Y-139573608D01*
X113719500Y-139641739D01*
X113719500Y-140958260D01*
X113729426Y-141026391D01*
X113780803Y-141131485D01*
X113863514Y-141214196D01*
X113863515Y-141214196D01*
X113863517Y-141214198D01*
X113968607Y-141265573D01*
X113975059Y-141266513D01*
X114036739Y-141275500D01*
X114036740Y-141275500D01*
X114403261Y-141275500D01*
X114425971Y-141272191D01*
X114471393Y-141265573D01*
X114576483Y-141214198D01*
X114576485Y-141214196D01*
X114632319Y-141158363D01*
X114693642Y-141124878D01*
X114763334Y-141129862D01*
X114807681Y-141158363D01*
X114863514Y-141214196D01*
X114863515Y-141214196D01*
X114863517Y-141214198D01*
X114968607Y-141265573D01*
X114975059Y-141266513D01*
X115036739Y-141275500D01*
X115036740Y-141275500D01*
X115403261Y-141275500D01*
X115425971Y-141272191D01*
X115471393Y-141265573D01*
X115576483Y-141214198D01*
X115576485Y-141214196D01*
X115632319Y-141158363D01*
X115693642Y-141124878D01*
X115763334Y-141129862D01*
X115807681Y-141158363D01*
X115863514Y-141214196D01*
X115863515Y-141214196D01*
X115863517Y-141214198D01*
X115968607Y-141265573D01*
X115968609Y-141265573D01*
X115975787Y-141269082D01*
X115991065Y-141275752D01*
X116021193Y-141293147D01*
X116026814Y-141296392D01*
X116154108Y-141330500D01*
X116154110Y-141330500D01*
X116285890Y-141330500D01*
X116285892Y-141330500D01*
X116413186Y-141296392D01*
X116448935Y-141275751D01*
X116464217Y-141269080D01*
X116471389Y-141265573D01*
X116471393Y-141265573D01*
X116576483Y-141214198D01*
X116659198Y-141131483D01*
X116710573Y-141026393D01*
X116720500Y-140958260D01*
X116720500Y-139641740D01*
X116710573Y-139573607D01*
X116659198Y-139468517D01*
X116659196Y-139468515D01*
X116659196Y-139468514D01*
X116576485Y-139385803D01*
X116546609Y-139371197D01*
X116533400Y-139363014D01*
X116527031Y-139359337D01*
X116498385Y-139342798D01*
X116413187Y-139293608D01*
X116349539Y-139276554D01*
X116285892Y-139259500D01*
X116154108Y-139259500D01*
X116026814Y-139293608D01*
X116026813Y-139293608D01*
X116026811Y-139293609D01*
X116026810Y-139293609D01*
X115912967Y-139359337D01*
X115912963Y-139359339D01*
X115912686Y-139359500D01*
X115912400Y-139359785D01*
X115905405Y-139365323D01*
X115863517Y-139385802D01*
X115802603Y-139446715D01*
X115796971Y-139451175D01*
X115770967Y-139461684D01*
X115746358Y-139475122D01*
X115739016Y-139474596D01*
X115732192Y-139477355D01*
X115704641Y-139472138D01*
X115676666Y-139470138D01*
X115669395Y-139465465D01*
X115663542Y-139464357D01*
X115654829Y-139456103D01*
X115632319Y-139441637D01*
X115576483Y-139385801D01*
X115572445Y-139382918D01*
X115529324Y-139327942D01*
X115520500Y-139282002D01*
X115520500Y-133559108D01*
X123919500Y-133559108D01*
X123919500Y-133690891D01*
X123953608Y-133818187D01*
X123971485Y-133849150D01*
X124019500Y-133932314D01*
X124112686Y-134025500D01*
X124197794Y-134074637D01*
X124222052Y-134088643D01*
X124226814Y-134091392D01*
X124354108Y-134125500D01*
X124354110Y-134125500D01*
X124479522Y-134125500D01*
X124546561Y-134145185D01*
X124567203Y-134161819D01*
X124938941Y-134533557D01*
X124938946Y-134533559D01*
X124953440Y-134539563D01*
X124953441Y-134539563D01*
X125040197Y-134575499D01*
X125040198Y-134575499D01*
X125040200Y-134575500D01*
X126700510Y-134575500D01*
X126767549Y-134595185D01*
X126813304Y-134647989D01*
X126823449Y-134715684D01*
X126819500Y-134745681D01*
X126819500Y-135094316D01*
X126825931Y-135143171D01*
X126825932Y-135143173D01*
X126875935Y-135250404D01*
X126959596Y-135334065D01*
X127066827Y-135384068D01*
X127115683Y-135390500D01*
X127115684Y-135390500D01*
X127564317Y-135390500D01*
X127580601Y-135388356D01*
X127613173Y-135384068D01*
X127720404Y-135334065D01*
X127804065Y-135250404D01*
X127854068Y-135143173D01*
X127860500Y-135094316D01*
X127860500Y-134974331D01*
X127880185Y-134907292D01*
X127932989Y-134861537D01*
X128002147Y-134851593D01*
X128065703Y-134880618D01*
X128072181Y-134886650D01*
X128139596Y-134954065D01*
X128246827Y-135004068D01*
X128295683Y-135010500D01*
X128295684Y-135010500D01*
X128744317Y-135010500D01*
X128760601Y-135008356D01*
X128793173Y-135004068D01*
X128900404Y-134954065D01*
X128984065Y-134870404D01*
X129034068Y-134763173D01*
X129040500Y-134714316D01*
X129040500Y-134365684D01*
X129037789Y-134345097D01*
X129384500Y-134345097D01*
X129384500Y-134704894D01*
X129384501Y-134704900D01*
X129391028Y-134754487D01*
X129391029Y-134754489D01*
X129391029Y-134754490D01*
X129405629Y-134785799D01*
X129441776Y-134863316D01*
X129526684Y-134948224D01*
X129635513Y-134998972D01*
X129685099Y-135005500D01*
X130104900Y-135005499D01*
X130154487Y-134998972D01*
X130263316Y-134948224D01*
X130348224Y-134863316D01*
X130398972Y-134754487D01*
X130405500Y-134704901D01*
X130405499Y-134345100D01*
X130398972Y-134295513D01*
X130348224Y-134186684D01*
X130263316Y-134101776D01*
X130263315Y-134101775D01*
X130242093Y-134091879D01*
X130189655Y-134045706D01*
X130170500Y-133979498D01*
X130170500Y-133970470D01*
X130190185Y-133903431D01*
X130225610Y-133867367D01*
X130239552Y-133858052D01*
X130283867Y-133791731D01*
X130283867Y-133791729D01*
X130283868Y-133791729D01*
X130295499Y-133733252D01*
X130295500Y-133733250D01*
X130295500Y-132218749D01*
X130295499Y-132218747D01*
X130283868Y-132160270D01*
X130283867Y-132160269D01*
X130239552Y-132093947D01*
X130173230Y-132049632D01*
X130173229Y-132049631D01*
X130114752Y-132038000D01*
X130114748Y-132038000D01*
X129625252Y-132038000D01*
X129625247Y-132038000D01*
X129566770Y-132049631D01*
X129566769Y-132049632D01*
X129500447Y-132093947D01*
X129456132Y-132160269D01*
X129456131Y-132160270D01*
X129444500Y-132218747D01*
X129444500Y-133733252D01*
X129456131Y-133791729D01*
X129456132Y-133791730D01*
X129494500Y-133849150D01*
X129500448Y-133858052D01*
X129514389Y-133867367D01*
X129559195Y-133920978D01*
X129569500Y-133970470D01*
X129569500Y-134007598D01*
X129549815Y-134074637D01*
X129533181Y-134095279D01*
X129441776Y-134186683D01*
X129391027Y-134295514D01*
X129384500Y-134345097D01*
X129037789Y-134345097D01*
X129037131Y-134340097D01*
X129034068Y-134316828D01*
X129034068Y-134316827D01*
X128984065Y-134209596D01*
X128906819Y-134132350D01*
X128873334Y-134071027D01*
X128870500Y-134044669D01*
X128870500Y-133970470D01*
X128890185Y-133903431D01*
X128925610Y-133867367D01*
X128939552Y-133858052D01*
X128983867Y-133791731D01*
X128983867Y-133791729D01*
X128983868Y-133791729D01*
X128995499Y-133733252D01*
X128995500Y-133733250D01*
X128995500Y-132218749D01*
X128995499Y-132218747D01*
X128983868Y-132160270D01*
X128983867Y-132160269D01*
X128939552Y-132093947D01*
X128873230Y-132049632D01*
X128873229Y-132049631D01*
X128814752Y-132038000D01*
X128814748Y-132038000D01*
X128325252Y-132038000D01*
X128269190Y-132049151D01*
X128220810Y-132049151D01*
X128164748Y-132038000D01*
X127675252Y-132038000D01*
X127619190Y-132049151D01*
X127570810Y-132049151D01*
X127514748Y-132038000D01*
X127025252Y-132038000D01*
X126969190Y-132049151D01*
X126920810Y-132049151D01*
X126864748Y-132038000D01*
X126375252Y-132038000D01*
X126375247Y-132038000D01*
X126316770Y-132049631D01*
X126316769Y-132049632D01*
X126250447Y-132093947D01*
X126206132Y-132160269D01*
X126206131Y-132160270D01*
X126194500Y-132218747D01*
X126194500Y-133733252D01*
X126206131Y-133791728D01*
X126206132Y-133791730D01*
X126206133Y-133791731D01*
X126232779Y-133831609D01*
X126253657Y-133898286D01*
X126235173Y-133965666D01*
X126183195Y-134012356D01*
X126129677Y-134024500D01*
X125260478Y-134024500D01*
X125193439Y-134004815D01*
X125172797Y-133988181D01*
X124956819Y-133772203D01*
X124923334Y-133710880D01*
X124920500Y-133684522D01*
X124920500Y-133559110D01*
X124920500Y-133559108D01*
X124886392Y-133431814D01*
X124820500Y-133317686D01*
X124727314Y-133224500D01*
X124670250Y-133191554D01*
X124613187Y-133158608D01*
X124549539Y-133141554D01*
X124485892Y-133124500D01*
X124354108Y-133124500D01*
X124226812Y-133158608D01*
X124112686Y-133224500D01*
X124112683Y-133224502D01*
X124019502Y-133317683D01*
X124019500Y-133317686D01*
X123953608Y-133431812D01*
X123919500Y-133559108D01*
X115520500Y-133559108D01*
X115520500Y-132250832D01*
X115540185Y-132183793D01*
X115556814Y-132163156D01*
X119076723Y-128643247D01*
X127544500Y-128643247D01*
X127544500Y-131432752D01*
X127556131Y-131491229D01*
X127556132Y-131491230D01*
X127600447Y-131557552D01*
X127666769Y-131601867D01*
X127666770Y-131601868D01*
X127725247Y-131613499D01*
X127725250Y-131613500D01*
X127725252Y-131613500D01*
X133964750Y-131613500D01*
X133964751Y-131613499D01*
X133979568Y-131610552D01*
X134023229Y-131601868D01*
X134023229Y-131601867D01*
X134023231Y-131601867D01*
X134089552Y-131557552D01*
X134133867Y-131491231D01*
X134133867Y-131491229D01*
X134133868Y-131491229D01*
X134145499Y-131432752D01*
X134145500Y-131432750D01*
X134145500Y-128643249D01*
X134145499Y-128643247D01*
X134133868Y-128584770D01*
X134133867Y-128584769D01*
X134089552Y-128518447D01*
X134023230Y-128474132D01*
X134023229Y-128474131D01*
X133964752Y-128462500D01*
X133964748Y-128462500D01*
X131018055Y-128462500D01*
X130985962Y-128458275D01*
X130981537Y-128457089D01*
X130915892Y-128439500D01*
X130784108Y-128439500D01*
X130714038Y-128458275D01*
X130681945Y-128462500D01*
X127725247Y-128462500D01*
X127666770Y-128474131D01*
X127666769Y-128474132D01*
X127600447Y-128518447D01*
X127556132Y-128584769D01*
X127556131Y-128584770D01*
X127544500Y-128643247D01*
X119076723Y-128643247D01*
X123412343Y-124307627D01*
X123469941Y-124275015D01*
X126553531Y-123504118D01*
X126623340Y-123506956D01*
X126680535Y-123547086D01*
X126700106Y-123585845D01*
X126700500Y-123585682D01*
X126702673Y-123590929D01*
X126703376Y-123592321D01*
X126703607Y-123593185D01*
X126731456Y-123641421D01*
X126769500Y-123707314D01*
X126769502Y-123707316D01*
X126833181Y-123770995D01*
X126866666Y-123832318D01*
X126869500Y-123858676D01*
X126869500Y-125389562D01*
X126883152Y-125440513D01*
X126889979Y-125465990D01*
X126893090Y-125473499D01*
X126891161Y-125474297D01*
X126905015Y-125531399D01*
X126882163Y-125597426D01*
X126827242Y-125640617D01*
X126781155Y-125649500D01*
X126385833Y-125649500D01*
X126318794Y-125629815D01*
X126298152Y-125613181D01*
X126276819Y-125591848D01*
X126243334Y-125530525D01*
X126240500Y-125504167D01*
X126240500Y-125285683D01*
X126235251Y-125245816D01*
X126234068Y-125236827D01*
X126184065Y-125129596D01*
X126100404Y-125045935D01*
X125993173Y-124995932D01*
X125993171Y-124995931D01*
X125993172Y-124995931D01*
X125944317Y-124989500D01*
X125944316Y-124989500D01*
X125495684Y-124989500D01*
X125495683Y-124989500D01*
X125446828Y-124995931D01*
X125339595Y-125045935D01*
X125255935Y-125129595D01*
X125205931Y-125236828D01*
X125199500Y-125285683D01*
X125199500Y-125634316D01*
X125205931Y-125683171D01*
X125220357Y-125714108D01*
X125255935Y-125790404D01*
X125339596Y-125874065D01*
X125446827Y-125924068D01*
X125495683Y-125930500D01*
X125495684Y-125930500D01*
X125714167Y-125930500D01*
X125781206Y-125950185D01*
X125801848Y-125966819D01*
X126025489Y-126190460D01*
X126094012Y-126230022D01*
X126102591Y-126232320D01*
X126162250Y-126268680D01*
X126192782Y-126331526D01*
X126194500Y-126352095D01*
X126194500Y-127857252D01*
X126206131Y-127915729D01*
X126206132Y-127915730D01*
X126250447Y-127982052D01*
X126316769Y-128026367D01*
X126316770Y-128026368D01*
X126375247Y-128037999D01*
X126375250Y-128038000D01*
X126375252Y-128038000D01*
X126864750Y-128038000D01*
X126920808Y-128026849D01*
X126969192Y-128026849D01*
X127025249Y-128038000D01*
X127025252Y-128038000D01*
X127514750Y-128038000D01*
X127570808Y-128026849D01*
X127619192Y-128026849D01*
X127675249Y-128038000D01*
X127675252Y-128038000D01*
X128164750Y-128038000D01*
X128220808Y-128026849D01*
X128269192Y-128026849D01*
X128325249Y-128038000D01*
X128325252Y-128038000D01*
X128814750Y-128038000D01*
X128870808Y-128026849D01*
X128919192Y-128026849D01*
X128975249Y-128038000D01*
X128975252Y-128038000D01*
X129464750Y-128038000D01*
X129520808Y-128026849D01*
X129569192Y-128026849D01*
X129625249Y-128038000D01*
X129625252Y-128038000D01*
X130114750Y-128038000D01*
X130170808Y-128026849D01*
X130219192Y-128026849D01*
X130275249Y-128038000D01*
X130275252Y-128038000D01*
X130764750Y-128038000D01*
X130820808Y-128026849D01*
X130869192Y-128026849D01*
X130925249Y-128038000D01*
X130925252Y-128038000D01*
X131414750Y-128038000D01*
X131470808Y-128026849D01*
X131519192Y-128026849D01*
X131575249Y-128038000D01*
X131575252Y-128038000D01*
X132064750Y-128038000D01*
X132120808Y-128026849D01*
X132169192Y-128026849D01*
X132225249Y-128038000D01*
X132225252Y-128038000D01*
X132714750Y-128038000D01*
X132770808Y-128026849D01*
X132819192Y-128026849D01*
X132875249Y-128038000D01*
X132875252Y-128038000D01*
X133364750Y-128038000D01*
X133364751Y-128037999D01*
X133379568Y-128035052D01*
X133423229Y-128026368D01*
X133423229Y-128026367D01*
X133423231Y-128026367D01*
X133489552Y-127982052D01*
X133533867Y-127915731D01*
X133533867Y-127915729D01*
X133533868Y-127915729D01*
X133545499Y-127857252D01*
X133545500Y-127857250D01*
X133545500Y-126361424D01*
X133565185Y-126294385D01*
X133617989Y-126248630D01*
X133622055Y-126246860D01*
X133623178Y-126246394D01*
X133623186Y-126246392D01*
X133737314Y-126180500D01*
X133830500Y-126087314D01*
X133896392Y-125973186D01*
X133930500Y-125845892D01*
X133930500Y-125828058D01*
X133950185Y-125761019D01*
X134002989Y-125715264D01*
X134072147Y-125705320D01*
X134135703Y-125734345D01*
X134166882Y-125775653D01*
X134186776Y-125818316D01*
X134271684Y-125903224D01*
X134319708Y-125925618D01*
X134372148Y-125971790D01*
X134391300Y-126038983D01*
X134371084Y-126105865D01*
X134317919Y-126151199D01*
X134267304Y-126162000D01*
X134175247Y-126162000D01*
X134116770Y-126173631D01*
X134116769Y-126173632D01*
X134050447Y-126217947D01*
X134006132Y-126284269D01*
X134006131Y-126284270D01*
X133994500Y-126342747D01*
X133994500Y-127857252D01*
X134006131Y-127915729D01*
X134006132Y-127915730D01*
X134050447Y-127982052D01*
X134116769Y-128026367D01*
X134116770Y-128026368D01*
X134175247Y-128037999D01*
X134175250Y-128038000D01*
X134175252Y-128038000D01*
X134664750Y-128038000D01*
X134720808Y-128026849D01*
X134769192Y-128026849D01*
X134825249Y-128038000D01*
X134825252Y-128038000D01*
X135314750Y-128038000D01*
X135314751Y-128037999D01*
X135329568Y-128035052D01*
X135373229Y-128026368D01*
X135373229Y-128026367D01*
X135373231Y-128026367D01*
X135439552Y-127982052D01*
X135483867Y-127915731D01*
X135483867Y-127915729D01*
X135483868Y-127915729D01*
X135495499Y-127857252D01*
X135495500Y-127857250D01*
X135495500Y-126342749D01*
X135495499Y-126342747D01*
X135483868Y-126284270D01*
X135483867Y-126284269D01*
X135439552Y-126217947D01*
X135373230Y-126173632D01*
X135373229Y-126173631D01*
X135314752Y-126162000D01*
X135314748Y-126162000D01*
X134952697Y-126162000D01*
X134885658Y-126142315D01*
X134839903Y-126089511D01*
X134829959Y-126020353D01*
X134858984Y-125956797D01*
X134900292Y-125925618D01*
X134903616Y-125924068D01*
X134948316Y-125903224D01*
X135033224Y-125818316D01*
X135083972Y-125709487D01*
X135090500Y-125659901D01*
X135090499Y-125634179D01*
X135094723Y-125602089D01*
X135120500Y-125505892D01*
X135120500Y-125374108D01*
X135094724Y-125277909D01*
X135090499Y-125245816D01*
X135090499Y-125240105D01*
X135090499Y-125240100D01*
X135083972Y-125190513D01*
X135033224Y-125081684D01*
X134948316Y-124996776D01*
X134839487Y-124946028D01*
X134839485Y-124946027D01*
X134839486Y-124946027D01*
X134789902Y-124939500D01*
X134789901Y-124939500D01*
X134685893Y-124939500D01*
X134685892Y-124939500D01*
X134554108Y-124939500D01*
X134554105Y-124939500D01*
X134430105Y-124939500D01*
X134412201Y-124941856D01*
X134380513Y-124946028D01*
X134380511Y-124946028D01*
X134380510Y-124946029D01*
X134380509Y-124946029D01*
X134271683Y-124996776D01*
X134186776Y-125081683D01*
X134136027Y-125190514D01*
X134129500Y-125240098D01*
X134129500Y-125320462D01*
X134129329Y-125326979D01*
X134128644Y-125339977D01*
X134119500Y-125374108D01*
X134119500Y-125505892D01*
X134119845Y-125507180D01*
X134119329Y-125516990D01*
X134108773Y-125547003D01*
X134099815Y-125577512D01*
X134097267Y-125579719D01*
X134096148Y-125582902D01*
X134071040Y-125602445D01*
X134047011Y-125623267D01*
X134043674Y-125623746D01*
X134041012Y-125625819D01*
X134009328Y-125628685D01*
X133977853Y-125633211D01*
X133974785Y-125631810D01*
X133971427Y-125632114D01*
X133943227Y-125617398D01*
X133914297Y-125604186D01*
X133911561Y-125600873D01*
X133909484Y-125599789D01*
X133906836Y-125595150D01*
X133888113Y-125572474D01*
X133856079Y-125516990D01*
X133830500Y-125472686D01*
X133737314Y-125379500D01*
X133680250Y-125346554D01*
X133623187Y-125313608D01*
X133518967Y-125285683D01*
X133495892Y-125279500D01*
X133364108Y-125279500D01*
X133236812Y-125313608D01*
X133122686Y-125379500D01*
X133122683Y-125379502D01*
X133027681Y-125474505D01*
X132966358Y-125507990D01*
X132896666Y-125503006D01*
X132852319Y-125474505D01*
X132777316Y-125399502D01*
X132777314Y-125399500D01*
X132663186Y-125333608D01*
X132535892Y-125299500D01*
X132535891Y-125299500D01*
X132530633Y-125298091D01*
X132470973Y-125261726D01*
X132440444Y-125198879D01*
X132448739Y-125129503D01*
X132475042Y-125090639D01*
X132578865Y-124986816D01*
X132640186Y-124953334D01*
X132666544Y-124950500D01*
X133424270Y-124950500D01*
X133454699Y-124947646D01*
X133454701Y-124947646D01*
X133518790Y-124925219D01*
X133582882Y-124902793D01*
X133692150Y-124822150D01*
X133772793Y-124712882D01*
X133815394Y-124591136D01*
X133817646Y-124584701D01*
X133817646Y-124584699D01*
X133820500Y-124554269D01*
X133820500Y-123745730D01*
X133817646Y-123715300D01*
X133817646Y-123715298D01*
X133776656Y-123598158D01*
X133772793Y-123587118D01*
X133692150Y-123477850D01*
X133692148Y-123477849D01*
X133692148Y-123477848D01*
X133586355Y-123399770D01*
X133544104Y-123344123D01*
X133538645Y-123274467D01*
X133571712Y-123212917D01*
X133586355Y-123200230D01*
X133685787Y-123126846D01*
X133692150Y-123122150D01*
X133772793Y-123012882D01*
X133812467Y-122899500D01*
X133817646Y-122884701D01*
X133817646Y-122884699D01*
X133820500Y-122854269D01*
X133820500Y-122045730D01*
X133817646Y-122015300D01*
X133817646Y-122015298D01*
X133772793Y-121887119D01*
X133772792Y-121887117D01*
X133765747Y-121877571D01*
X133741776Y-121811945D01*
X133757090Y-121743774D01*
X133806830Y-121694705D01*
X133835436Y-121683642D01*
X138198695Y-120592828D01*
X138268506Y-120595666D01*
G37*
%TD.AperFunction*%
%TD*%
M02*
